<svg width="60" height="103" viewBox="0 0 60 103" fill="none" xmlns="http://www.w3.org/2000/svg">
<g clip-path="url(#clip0)">
<path d="M25.872 35.2469C26.1181 35.2916 26.3833 35.2788 26.6006 35.1446C26.6964 35.0839 26.7763 35.004 26.8338 34.9114C26.9553 34.8986 27.0415 34.8443 27.1406 34.7676C27.2397 34.6877 27.3068 34.5758 27.3483 34.4576C27.4314 34.2211 27.3419 33.9783 27.1821 33.7994C27.0575 33.6588 26.8818 33.5789 26.7124 33.5118C26.559 33.4543 26.3865 33.4287 26.2203 33.4255C26.0158 33.4223 25.8113 33.467 25.6292 33.5629C25.4215 33.6747 25.2745 33.8729 25.201 34.0965C25.1243 34.3394 25.1467 34.6429 25.2904 34.857C25.4247 35.052 25.6356 35.2021 25.872 35.2469Z" fill="black"/>
<path d="M25.9199 26.5617C25.9391 26.6224 25.9647 26.6799 25.9902 26.7343C25.9998 26.7534 26.0126 26.7726 26.0254 26.7918C26.0605 26.8397 26.0957 26.8908 26.1404 26.9324C26.1852 26.9739 26.2331 27.0091 26.281 27.0442C26.297 27.057 26.3162 27.0666 26.3354 27.0762C26.3897 27.1017 26.444 27.1273 26.5015 27.1433C26.5207 27.1497 26.5399 27.1529 26.559 27.1561C26.6165 27.1656 26.6805 27.1784 26.7412 27.1752C26.8019 27.1752 26.8626 27.1625 26.9201 27.1529C26.9393 27.1497 26.9585 27.1433 26.9744 27.1369C27.0959 27.0922 27.1821 27.0474 27.2748 26.9579C27.3163 26.9196 27.3515 26.8685 27.3835 26.8205C27.4186 26.7694 27.4378 26.7119 27.4601 26.6576C27.4793 26.6128 27.4889 26.5617 27.4953 26.5138C27.5017 26.5042 27.5113 26.4978 27.5177 26.4914C27.54 26.4595 27.5592 26.4243 27.5752 26.386C27.6039 26.3221 27.6359 26.2518 27.6551 26.1847C27.6742 26.1175 27.6806 26.0473 27.687 25.977C27.6902 25.913 27.6774 25.8427 27.6678 25.7788C27.6583 25.7181 27.6263 25.6574 27.6007 25.6031C27.5752 25.5488 27.5336 25.5008 27.4953 25.4529C27.4569 25.405 27.4026 25.3698 27.3547 25.3347C27.3355 25.3219 27.3163 25.3123 27.2972 25.3027C27.2429 25.2772 27.1821 25.2484 27.1214 25.2356C27.0575 25.2228 26.9936 25.2132 26.9265 25.2101C26.8594 25.2069 26.7923 25.2228 26.7284 25.2324C26.7028 25.2356 26.6773 25.242 26.6517 25.2516C26.5878 25.274 26.5239 25.2995 26.4632 25.3283C26.4376 25.3411 26.412 25.357 26.3865 25.3762C26.3322 25.4178 26.2714 25.4593 26.2235 25.5072C26.1724 25.5583 26.1308 25.6191 26.0861 25.6766C26.019 25.7661 25.9775 25.8747 25.9391 25.9801C25.904 26.0792 25.888 26.1847 25.8816 26.2869C25.8816 26.3125 25.8816 26.3412 25.8848 26.3668C25.8976 26.4307 25.904 26.501 25.9199 26.5617Z" fill="black"/>
<path d="M25.1083 45.9675C25.4087 45.9675 25.7698 45.632 25.8496 45.4659C25.9487 45.2645 26.1085 44.8875 26.1308 44.6638C26.1532 44.421 25.8912 43.7212 25.3064 43.7212C24.7217 43.7212 24.1816 44.2899 24.1816 44.9802C24.1816 45.6672 24.8079 45.9675 25.1083 45.9675Z" fill="black"/>
<path d="M21.7212 54.9499C21.8138 55.0042 21.8969 55.0234 22.0024 55.0298C22.0727 55.033 22.3666 55.1895 22.5839 55.0298C22.7597 54.902 23.2358 53.9561 22.8044 53.5471C22.3698 53.1413 21.5518 53.758 21.4559 54.1638C21.3601 54.5696 21.5198 54.7454 21.523 54.7518C21.5454 54.7837 21.6892 54.9307 21.7212 54.9499Z" fill="black"/>
<path d="M57.3086 40.171C57.4396 38.9823 57.3022 37.0172 57.0402 33.7259C56.9092 32.0547 56.759 30.163 56.6504 28.1882C56.4874 25.1909 56.6855 21.9379 56.8485 19.3241C57.1169 14.9495 57.168 13.4061 56.3053 12.8182C55.909 12.5466 54.8545 11.8276 46.6742 12.0832C43.8527 12.1727 41.1334 12.3485 39.8073 12.4411C39.8776 12.2334 39.9415 12.0321 39.9894 11.8468C40.3697 10.4536 40.3345 9.4502 39.8904 8.86544C39.1937 7.95475 37.8165 8.25192 36.8547 8.6162C36.3626 6.88747 35.6628 4.6315 35.0972 3.57062C33.7392 1.03026 31.2084 -0.286259 28.3229 0.0524558C24.8463 0.458275 23.2677 3.00503 22.3219 4.52605C21.6636 5.59013 20.7625 7.79497 20.0148 9.69306C18.35 9.49175 17.2348 10.2075 16.5669 10.8913C15.4837 12.0034 14.9628 13.7257 15.1418 14.3424C15.1769 14.467 15.2344 14.5884 15.3047 14.7035C10.9845 14.646 5.20719 14.7546 4.14311 15.6525C3.8012 15.9433 3.33148 16.3395 3.18129 23.2608C3.09501 27.2072 3.15573 32.1921 3.34106 36.2694C3.56794 41.2894 3.8747 43.1044 4.13992 43.8394C3.945 44.3059 3.65102 44.9482 3.31869 45.6736C1.34072 49.9906 0.711226 51.681 1.11704 52.5629C1.31836 53.0039 1.75933 53.2339 2.2642 53.1668C3.02152 53.0678 4.14631 52.1603 5.19441 50.831C4.9899 52.8697 5.23275 53.7484 5.98368 54.0136C6.42145 54.167 6.90716 54.0839 7.35132 53.7836C8.08627 53.2819 8.73814 52.1699 9.22704 50.6872C9.69676 53.2755 10.2432 54.1319 10.8791 54.429C11.0452 54.5057 11.2178 54.5441 11.3903 54.5441C11.4862 54.5441 11.5821 54.5281 11.6779 54.5057C11.7259 56.7904 12.0965 58.5959 13.0232 59.5193C12.9529 60.5163 12.7804 63.143 12.7484 65.7664C12.6717 71.8729 13.33 73.2213 14.4164 73.4163C15.4166 73.5952 16.5637 73.624 17.6981 73.6335C17.8195 77.6917 17.8131 81.9928 17.5959 83.0888C17.3626 83.1719 17.0015 83.2773 16.7139 83.3604C15.9662 83.5777 15.2983 83.7758 14.8063 84.0347C13.4003 83.2166 9.51143 83.8909 9.46669 83.8973C7.47594 84.2807 6.46619 85.0156 6.46619 86.0797C6.46619 86.3545 6.54927 86.7572 6.94231 87.1214C7.75395 87.8756 9.84056 88.1152 11.8281 88.16C11.7259 88.2175 11.6236 88.2718 11.5214 88.3325C10.4764 88.9237 7.297 90.7227 8.0639 92.7518C8.26841 93.2918 8.67742 93.6561 9.21426 93.7807C10.4988 94.0779 12.4864 92.7741 13.9563 91.6014C13.7805 93.3685 13.7518 95.6692 14.5922 96.7045C14.9277 97.1167 15.375 97.3404 15.8863 97.35C15.8991 97.35 15.9119 97.35 15.9215 97.35C17.7077 97.35 18.4331 94.6882 18.8261 92.6783C19.1105 91.2116 19.2575 89.7673 19.3214 89.0259C20.3631 88.4156 21.1428 87.7382 21.2482 86.869C21.2962 86.4632 21.5646 84.5299 21.8841 82.2484C22.1717 82.3091 22.4976 82.3539 22.8396 82.3539C23.5138 82.3539 24.2423 82.1813 24.8271 81.6285C25.9743 80.5421 26.313 77.5575 26.0318 76.8258C25.8976 76.4743 25.594 76.2506 25.2393 76.241C24.8399 76.2218 24.5235 76.4679 24.3126 76.9472C24.089 77.4521 23.2805 77.7652 22.4976 77.893C22.7149 76.3465 22.9099 74.9724 23.0281 74.1448C23.7055 74.2662 24.351 74.3589 24.923 74.3589C25.7122 74.3589 26.3609 74.1832 26.7571 73.6591C27.2588 73.0008 27.6902 71.0452 28.3421 67.9041C28.5562 66.8784 28.7735 65.8271 28.9428 65.1657C29.4605 66.3 30.0836 67.6837 30.32 68.3227C30.467 68.7222 30.515 69.6744 30.5533 70.5116C30.6268 72.0422 30.6971 73.4897 31.2787 74.279C31.464 74.5283 31.8986 75.1194 33.9021 75.1194C34.0204 75.1194 34.145 75.1162 34.2728 75.113V84.1625C34.2728 84.8335 35.1036 90.1283 36.9729 91.0294C37.743 91.4033 40.6125 92.0488 43.0474 92.4961C45.7603 92.9946 47.2366 93.1416 48.0738 93.1416C48.8727 93.1416 49.0836 93.0074 49.2242 92.9211C49.5022 92.7486 49.6652 92.4546 49.6652 92.1414C49.6652 91.6941 49.6332 90.3328 49.5533 89.0579C49.499 88.1695 49.4479 87.4729 49.3392 86.9649C50.2595 86.3418 51.9595 85.0828 51.314 83.6065C50.9977 82.8811 50.2563 82.4785 49.336 82.5264C48.4829 82.5712 47.4411 83.0377 46.9586 83.958C45.8019 84.1018 41.5488 83.7758 40.2674 83.5106C40.0821 82.3507 40.0885 78.2861 40.2067 74.4452C42.108 74.3653 44.2585 74.2758 45.3609 73.8221C46.7893 73.2341 46.7989 71.1858 46.8116 68.8148C46.818 67.5462 46.8244 66.2361 47.0513 65.2008C47.3964 63.6287 47.6744 61.28 47.8597 59.4171C47.8949 59.4011 47.9268 59.3883 47.962 59.3724C48.9238 58.941 49.1603 58.9569 49.4607 59.4842C49.6364 59.7973 49.8249 60.1552 50.0262 60.5419C50.8922 62.2035 51.9723 64.2709 53.4198 65.0155C53.8192 65.22 54.2602 65.3063 54.7171 65.3063C55.7141 65.3063 56.7814 64.8941 57.5962 64.3956C58.7114 63.7149 58.8424 63.2165 58.8424 62.9001C58.8424 62.0373 57.9573 61.8712 57.3118 61.7497C56.9699 61.6858 56.1679 61.5325 56.0752 61.3216C55.9985 61.1458 55.8771 60.8007 55.7333 60.4045C54.8641 57.9536 53.8064 55.2598 52.2598 54.282C51.0935 53.5439 49.9048 53.1604 48.9654 53.1924C49.1219 52.09 49.2338 50.8022 49.3041 49.3163C49.6971 50.3037 50.1509 51.0547 50.6589 51.3135C50.8379 51.4062 51.0264 51.4509 51.2149 51.4509C51.3971 51.4509 51.5792 51.4094 51.7518 51.3231C52.6625 50.8661 52.8957 49.5975 52.835 47.8337C53.5987 49.5304 54.3401 50.6265 55.2508 50.7511C55.6821 50.8086 56.0784 50.668 56.3404 50.3581C56.8069 49.8084 56.7494 48.8882 56.3979 47.4854C57.2383 48.5335 58.0532 49.0511 58.8999 48.6645C59.2706 48.4983 59.7308 48.1021 59.8138 47.1626C59.98 45.3061 58.5357 41.724 57.3086 40.171ZM39.0819 14.0101L39.0883 14.09C47.9492 13.3902 54.1835 13.5372 55.3147 14.0836C55.5288 14.6971 55.3818 17.0969 55.2508 19.2218C55.0878 21.8772 54.8833 25.1813 55.0527 28.2713C55.1613 30.2684 55.3115 32.1697 55.4457 33.8505C55.6662 36.6401 55.9186 39.794 55.6342 40.4426C55.1166 40.8453 53.7649 41.0178 52.1576 40.8836C50.4672 40.7398 49.336 40.35 49.0229 40.1391C48.7928 38.8321 47.9844 30.0799 47.5082 24.6509L45.9169 24.7914C46.1342 27.2679 47.2302 39.6694 47.5051 40.6759C47.5466 40.8293 47.6233 40.9699 47.7319 41.1041L47.6648 41.1073C47.668 41.1456 47.8949 45.1112 47.7191 49.0831C47.3932 56.4549 46.0256 56.7617 45.9681 56.7713C44.2106 57.0589 41.143 56.8703 37.8964 56.669C35.2762 56.5093 32.5664 56.3399 30.221 56.4006C29.2943 56.423 28.3133 56.5316 27.3068 56.685C28.9684 55.8766 30.2114 54.3172 31.0071 53.3937C32.5057 51.6554 34.8639 49.9778 33.1512 43.1204C31.4384 36.2662 31.202 33.94 30.8345 30.8819C30.6044 28.9743 30.5437 24.3025 29.828 23.4749C33.0266 22.4236 34.3814 20.0558 34.3271 17.8318C34.4517 17.9756 34.5827 18.1226 34.7329 18.2856L34.9342 18.4997L35.225 18.5316C35.7235 18.5891 36.9218 18.9087 37.2829 20.6502C37.449 21.4618 37.5034 22.2766 37.5481 22.9956C37.612 24.0245 37.6663 24.8362 38.0338 25.3794C38.6729 26.3157 40.2387 26.3892 40.702 26.3892H41.2804L41.4593 25.8364C41.5871 25.4401 41.8747 24.7627 42.108 24.4975C42.223 24.3665 42.386 24.2131 42.5617 24.0501C43.0762 23.5676 43.6066 23.0659 43.6833 22.4492L43.7408 21.9954L43.3798 21.7174C43.0123 21.4331 42.0377 20.6789 41.7213 20.0239C41.3922 19.3369 41.2292 18.8256 40.9704 17.6497C40.5997 15.9657 39.8488 14.892 38.7368 14.4415C38.7592 14.4223 38.7847 14.4031 38.8007 14.3839C38.903 14.2817 38.9924 14.1507 39.0819 14.0101ZM44.2745 60.6186C43.7792 60.0498 43.3798 59.1583 43.1305 58.5128C44.332 58.5256 45.3897 58.484 46.2237 58.3498C46.2684 58.3434 46.3132 58.3338 46.3579 58.3211C46.262 59.3596 46.1278 60.6825 45.9617 61.9575C45.4344 61.6347 44.7442 61.1554 44.2745 60.6186ZM31.9785 61.7881L31.9465 61.836C31.5727 62.3888 31.218 62.9097 30.7866 62.9896C30.5437 63.0343 30.221 62.9512 29.8407 62.7563C30.483 61.1234 31.3202 58.9665 31.7005 57.9919C31.8826 57.9951 32.0679 57.9951 32.2533 57.9983C32.4482 59.791 32.3491 61.2417 31.9785 61.7881ZM39.4174 17.9948C39.705 19.2985 39.8999 19.9088 40.2866 20.7173C40.6125 21.3947 41.2133 21.9986 41.8428 22.5291C41.7181 22.6569 41.5775 22.7879 41.4721 22.887C41.2804 23.0691 41.0822 23.2544 40.9193 23.4398C40.6061 23.7945 40.3441 24.3313 40.1715 24.7467C39.7849 24.6892 39.443 24.5837 39.3599 24.4783C39.2353 24.293 39.1842 23.4845 39.1458 22.8934C39.0979 22.1233 39.0404 21.2477 38.8518 20.3274C38.3374 17.8414 36.5927 17.1735 35.7235 16.9946C35.5062 16.7518 35.3017 16.4993 35.1324 16.2788C36.091 16.1446 37.2893 15.8954 37.6983 15.8091C38.3118 15.8826 39.0308 16.2373 39.4174 17.9948ZM23.9036 19.0557C23.9036 18.8064 24.0091 18.5827 24.1752 18.4006C24.2903 18.2856 24.4277 18.2057 24.5843 18.1641C24.6673 18.1545 24.7472 18.1418 24.8303 18.1322C24.9581 18.1258 25.0764 18.1545 25.185 18.2121C25.3 18.2504 25.3991 18.3143 25.4822 18.4038C25.5716 18.4869 25.6356 18.5859 25.6739 18.701C25.7314 18.8096 25.757 18.931 25.7538 19.0557C25.7538 19.2314 25.7442 19.4072 25.7538 19.5829C25.7634 19.6276 25.7698 19.6724 25.7889 19.7171C25.8209 19.8098 25.8433 19.9088 25.8433 20.0111C25.8337 20.0942 25.8209 20.1741 25.8113 20.2571C25.757 20.4936 25.5844 20.6821 25.3863 20.8099C25.2809 20.8771 25.1658 20.9154 25.0412 20.9186C24.9198 20.9474 24.7952 20.941 24.6737 20.9026C24.5523 20.8739 24.4501 20.8195 24.3606 20.7365C24.2615 20.6725 24.1816 20.5863 24.1241 20.4776C24.057 20.3402 23.9899 20.1932 23.9611 20.043C23.9292 19.8865 23.91 19.7235 23.9036 19.5637C23.8909 19.3944 23.9036 19.225 23.9036 19.0557ZM27.7829 18.8416C27.8148 18.7649 27.85 18.685 27.8819 18.6083C27.9682 18.4613 28.0864 18.3463 28.2334 18.2568C28.3101 18.2248 28.39 18.1897 28.4667 18.1577C28.5977 18.1162 28.7255 18.1098 28.8565 18.1418C28.9876 18.1482 29.109 18.1865 29.2208 18.2568C29.3359 18.3175 29.4253 18.4006 29.4956 18.5092C29.5819 18.6051 29.6394 18.7137 29.6714 18.8416C29.6905 18.9598 29.7321 19.0716 29.7736 19.1803C29.812 19.2634 29.8535 19.3496 29.8919 19.4327C29.9813 19.5861 30.0261 19.7491 30.0261 19.9248C30.0133 20.0111 30.0037 20.0974 29.9909 20.1836C29.943 20.3498 29.8599 20.4936 29.7385 20.615C29.6714 20.6662 29.6075 20.7173 29.5404 20.7684C29.4285 20.8387 29.3071 20.8771 29.1761 20.8834C29.0451 20.9122 28.9173 20.9058 28.7862 20.8675C28.6584 20.8387 28.5498 20.778 28.4539 20.6917C28.3485 20.6214 28.2622 20.5319 28.2015 20.4169C28.1344 20.2827 28.0673 20.1453 28.0066 20.0079C27.9171 19.797 27.818 19.5861 27.7797 19.3592C27.7349 19.1867 27.7349 19.0141 27.7829 18.8416ZM22.1653 8.613C23.3316 9.18498 24.9933 9.73779 26.6293 9.73779C26.6613 9.73779 26.6964 9.73779 26.7284 9.73779C28.1887 9.71862 32.5473 8.83349 34.8032 7.33483C34.963 7.8493 35.1164 8.36696 35.2538 8.85266C34.2504 9.56844 31.857 10.3289 26.3737 10.6165L26.15 10.6293C24.8239 10.706 22.635 10.0446 21.7531 9.62276C21.8873 9.29043 22.0247 8.95172 22.1653 8.613ZM28.5019 1.63419C31.6813 1.26352 33.1832 3.38848 33.6816 4.31835C33.867 4.66346 34.0715 5.16833 34.2792 5.7531C33.0234 6.81078 28.7926 8.11132 26.706 8.14008C25.2553 8.16564 23.7471 7.61603 22.7884 7.13672C23.1144 6.40177 23.4211 5.76588 23.6736 5.36006C24.5683 3.92212 25.7921 1.95054 28.5019 1.63419ZM18.024 11.719C18.4267 11.4186 18.8804 11.262 19.3949 11.2524C19.2926 11.5081 19.2 11.7413 19.1233 11.9362L20.6028 12.5402C20.7434 12.1919 20.9287 11.7253 21.1364 11.1949C21.146 11.1693 21.1588 11.1406 21.1683 11.1118C22.3475 11.655 24.4437 12.2366 25.9519 12.2366C26.051 12.2366 26.1468 12.2334 26.2363 12.2302L26.4568 12.2174C29.4892 12.0577 33.442 11.6966 35.6948 10.4472C35.8258 10.9393 35.9089 11.2556 35.912 11.2684L37.4618 10.8754C37.449 10.8306 37.3819 10.5686 37.2765 10.1692C37.8389 9.9455 38.4013 9.81448 38.625 9.86561C38.8167 10.4376 38.1936 12.6456 37.6536 13.2847C36.7908 13.8599 29.5691 15.627 26.2171 15.857C22.667 16.0999 17.2667 14.8792 16.7043 13.9653C16.7619 13.5659 17.1453 12.3804 18.024 11.719ZM5.24554 16.8444C6.29364 16.4035 11.598 16.2309 16.3624 16.314C17.7524 18.5731 21.9768 24.4815 27.3803 23.9734C28.0193 23.9127 28.6105 23.8105 29.1537 23.673C29.1537 23.673 29.1537 23.673 29.1537 23.6762C28.4379 24.654 28.9109 41.5962 27.7126 46.2743C26.5494 50.8022 23.9324 56.7138 24.6961 57.1611C23.9356 57.3177 23.1719 57.4839 22.4146 57.65C19.1904 58.3562 16.1483 59.0241 14.4579 58.5703C14.1704 58.4936 13.2341 57.9152 13.2724 53.6973C13.2788 53.1093 13.3012 52.499 13.3396 51.8791C13.477 51.1377 13.5345 50.3101 13.5377 49.4761C13.6942 47.9359 13.8924 46.4692 14.0489 45.3125C14.1672 44.4369 14.2598 43.7403 14.3046 43.261C14.5346 42.1586 14.6593 39.9537 14.4771 35.314C14.3205 31.374 14.0074 27.482 14.0042 27.4437L12.4129 27.5747C13.1127 36.1704 13.0967 42.1618 12.6813 43.1779C11.4862 43.7755 6.6004 43.9448 5.62579 43.2578C4.69273 41.0658 4.39236 19.2889 5.24554 16.8444ZM2.77228 51.1026C3.18768 49.7989 4.21022 47.5653 4.76942 46.3382C5.01547 45.8014 5.24234 45.3061 5.42767 44.8843C5.67053 44.9642 5.93894 45.0313 6.22653 45.0888C6.1786 45.2869 6.1083 45.5873 6.02842 45.9612C5.3414 48.2139 3.77564 50.2111 2.77228 51.1026ZM6.71224 52.2338C6.67709 50.9939 7.18196 48.1468 7.54624 46.4469C7.66767 46.057 7.76353 45.6672 7.83064 45.2741C8.05751 45.2869 8.29078 45.2933 8.52404 45.2965C8.36108 49.1694 7.35452 51.4796 6.71224 52.2338ZM10.1953 45.5521C10.1857 45.4499 10.1761 45.3508 10.1633 45.2518C10.6522 45.2166 11.1251 45.1623 11.5629 45.092C11.6907 45.7822 11.892 47.3064 11.9272 48.9329C11.9304 49.1342 11.9336 49.3259 11.9304 49.5081C11.8537 50.2782 11.7898 51.0291 11.745 51.7545C11.646 52.2497 11.5214 52.5565 11.4191 52.7355C11.1347 52.1539 10.633 50.4603 10.1953 45.5521ZM20.2225 80.9607C19.9541 81.015 19.6537 81.0757 19.3406 81.1684C19.3597 80.7274 19.3725 80.2257 19.3789 79.6505C19.6345 79.4939 20.1458 79.2831 20.7018 79.1329C20.6187 79.724 20.5357 80.3248 20.4526 80.9127C20.3759 80.9287 20.3024 80.9447 20.2225 80.9607ZM19.2958 73.7198L21.1236 73.8892C20.5388 74.164 19.9062 74.5155 19.331 74.8734C19.3182 74.5027 19.3086 74.1192 19.2958 73.7198ZM20.9383 77.4457C20.4749 77.532 19.9093 77.6822 19.3821 77.8899C19.3789 77.5352 19.3757 77.1581 19.3693 76.7651C19.8806 76.3976 20.5484 75.9822 21.1939 75.6403C21.1172 76.1899 21.0309 76.8002 20.9383 77.4457ZM17.1613 84.8942C17.8611 84.6897 18.3052 84.5555 18.596 84.3893C18.8005 84.2711 19.0402 84.1337 19.2 82.9386C19.5355 82.7597 19.871 82.667 20.2161 82.5935C20.165 82.9642 20.1139 83.3221 20.0659 83.664C19.6537 84.76 17.4712 85.8113 15.8991 86.3354C15.7777 85.9775 15.6818 85.6451 15.6275 85.4087C15.9981 85.2329 16.7299 85.0188 17.1613 84.8942ZM8.1342 86.0382C8.39303 85.8273 9.21426 85.479 10.8216 85.3128C12.4608 85.1403 13.7486 85.2713 14.0074 85.3895C13.9659 85.3703 13.838 85.2777 13.7645 85.0955L13.9914 85.0061C13.985 85.0476 13.9818 85.0891 13.9818 85.1339C13.9818 85.3192 14.0969 85.8624 14.295 86.5271C11.4191 86.6485 8.80844 86.4472 8.1342 86.0382ZM14.4963 89.0099C12.5151 90.8793 10.1154 92.4418 9.57853 92.2341C9.57853 92.2341 9.56895 92.2213 9.55297 92.183C9.29095 91.4928 11.8345 89.7449 14.982 88.3868C14.998 88.4252 15.0171 88.4635 15.0331 88.4987L14.4963 89.0099ZM15.9151 95.7491C15.8863 95.7491 15.8703 95.7491 15.8288 95.6948C15.2664 95.0045 15.391 92.0775 15.8288 89.7545C15.9438 89.8759 16.0589 89.975 16.1803 90.0452C16.3688 90.1571 16.5701 90.2114 16.7682 90.2114C16.9472 90.2114 17.1229 90.1667 17.2859 90.0772C17.3786 90.0261 17.5 89.9654 17.6374 89.8983C17.2571 93.3717 16.4072 95.7491 15.9151 95.7491ZM17.1485 88.3549C17.0399 88.4092 16.9408 88.4571 16.8481 88.5019C16.7363 88.3421 16.6085 88.1024 16.4807 87.8212C16.9728 87.6519 17.6885 87.3835 18.4299 87.016L19.6729 86.5303C19.6665 86.5878 19.6601 86.6357 19.6537 86.6709C19.625 86.8594 19.2639 87.3227 17.1485 88.3549ZM24.3574 78.9603C24.2168 79.5834 23.9995 80.2001 23.7215 80.4622C23.3093 80.852 22.6095 80.7849 22.0982 80.6603C22.1525 80.28 22.2069 79.8966 22.258 79.5195C22.8843 79.4588 23.6672 79.3022 24.3574 78.9603ZM26.7731 67.575C26.412 69.3101 25.8113 72.2148 25.4981 72.6685C25.2297 72.8634 24.1465 72.7133 23.2454 72.5535L23.255 72.48L22.4593 72.4065C21.7531 72.2723 21.0885 72.1445 20.5101 72.1029C19.8806 72.055 19.2127 72.0454 18.5098 72.0422L17.6406 71.9623L17.6438 72.0358C16.6564 72.0262 15.6722 72.0007 14.8446 71.8697C14.3525 71.0357 14.1288 66.5173 14.573 60.2223C14.9532 60.283 15.3591 60.3118 15.7968 60.3118C17.7365 60.3118 20.1969 59.7718 22.7597 59.2126C25.2425 58.6694 27.8021 58.1134 29.9781 58.0175C29.2879 59.791 27.9842 63.1398 27.6263 64.0089C27.409 64.5394 27.1598 65.7089 26.7731 67.575ZM36.8579 74.819L38.5994 74.589C38.5866 74.9565 38.577 75.3079 38.5674 75.6499C38.0178 75.5859 37.4586 75.5955 36.941 75.6019C36.5511 75.6083 36.1837 75.6115 35.8641 75.5859V74.9692C36.1773 74.9277 36.5032 74.8798 36.8579 74.819ZM35.8673 84.1561V83.2901C36.7748 83.4084 37.9955 83.6001 38.7048 83.7151C38.7272 83.8493 38.7496 83.9644 38.7751 84.0666C38.7304 84.1465 38.6825 84.2296 38.6314 84.3254C38.2064 85.0987 37.4778 86.4184 36.4521 87.0415C36.1134 85.8848 35.8673 84.661 35.8673 84.1561ZM35.8673 77.19C36.2188 77.2124 36.5831 77.206 36.9665 77.1996C37.5002 77.1932 38.0466 77.1869 38.5323 77.2572C38.5227 77.794 38.5163 78.2893 38.5099 78.7494C37.6855 78.7239 36.6246 78.7558 35.8673 78.7878V77.19ZM38.5099 80.3471C38.5163 81.0214 38.5323 81.5933 38.5547 82.0759C37.7686 81.9512 36.6789 81.7819 35.8673 81.6828V80.3855C36.8994 80.3439 37.8836 80.328 38.5099 80.3471ZM36.9889 88.5754C38.5483 87.7893 39.4909 86.0829 40.0309 85.0987C40.0373 85.0891 40.0405 85.0828 40.0437 85.0732C40.2131 85.1051 40.4016 85.1371 40.6061 85.169C40.2706 86.4887 39.5516 88.8246 39.0052 89.9941C38.3246 89.8216 37.8421 89.6746 37.6631 89.5883C37.449 89.4829 37.2158 89.0962 36.9889 88.5754ZM47.7383 85.3991C48.1122 85.2521 48.2624 84.9933 48.3231 84.808C48.4509 84.4085 48.9909 84.1369 49.4191 84.1145C49.6012 84.105 49.8058 84.1401 49.8505 84.2424C49.8665 84.2775 49.9559 84.629 48.272 85.7538C47.8629 86.0254 47.4028 86.3354 47.5817 86.9329L47.7831 87.5081H47.8118C47.9396 88.3868 48.0355 90.3296 48.0611 91.5439C47.374 91.5375 45.8498 91.3905 43.0666 90.8697C42.1783 90.7035 41.3347 90.531 40.587 90.3648C41.1973 88.9492 41.8811 86.722 42.207 85.3576C44.3895 85.5717 47.0737 85.6643 47.7383 85.3991ZM44.7506 72.3426C43.9262 72.6813 41.8428 72.7772 40.2578 72.8411L40.261 72.7612L39.3567 72.8794C38.6665 72.9114 38.1201 72.9497 37.7814 73.02C37.3564 73.1095 36.9601 73.183 36.5863 73.2437L34.9183 73.4642C33.4995 73.592 32.7326 73.4802 32.5568 73.3268C32.2597 72.9274 32.1894 71.4255 32.1414 70.4317C32.0903 69.3389 32.0424 68.3962 31.8091 67.7667C31.5631 67.0989 30.9495 65.7313 30.4287 64.5937C30.499 64.6001 30.5693 64.6033 30.6364 64.6033C30.7834 64.6033 30.9304 64.5905 31.071 64.5649C32.1574 64.3636 32.7677 63.4625 33.2598 62.7403L33.2918 62.6924C34.0076 61.6379 34.0267 59.7366 33.8574 58.0526C35.1483 58.107 36.4776 58.1868 37.7878 58.2699C38.6761 58.3243 39.5484 58.3786 40.3888 58.4233C39.9958 60.0626 39.4877 62.98 40.0533 64.223C40.3473 64.8685 41.0183 66.725 42.2262 68.0607C43.2008 69.1376 44.3991 70.0035 45.166 70.5052C45.1277 71.3999 45.0158 72.2308 44.7506 72.3426ZM48.78 54.7614C48.7704 54.7965 48.7449 54.8253 48.7321 54.8317C48.927 54.7006 50.0103 54.7422 51.4035 55.6241C52.6113 56.391 53.701 59.4586 54.225 60.9317C54.3816 61.3759 54.5062 61.7274 54.6085 61.9575C54.9472 62.7307 55.7524 63.0343 56.4618 63.2005C55.7301 63.5743 54.7299 63.8875 54.1451 63.5871C53.1482 63.0759 52.1608 61.181 51.4386 59.7973C51.2309 59.3979 51.036 59.0241 50.8475 58.6917C50.0454 57.273 48.8727 57.356 48.0227 57.6245C48.0674 57.1004 48.0962 56.7233 48.109 56.5668C48.3327 56.0651 48.5244 55.4548 48.6874 54.7294L48.78 54.7614ZM51.1542 49.5688C50.6046 48.5942 49.8345 45.8046 49.3328 42.8648C49.3232 42.5293 49.3105 42.2289 49.3009 41.9733C49.3328 41.9828 49.3616 41.9924 49.3935 42.0052C49.7994 42.1266 50.365 42.2513 51.0072 42.3503C50.9274 42.4366 50.8634 42.542 50.8251 42.6635C50.7197 42.9766 50.7612 43.3633 50.9274 44.6606C51.0552 45.6768 51.4131 48.5047 51.1542 49.5688ZM53.1801 44.4082C52.8095 43.4272 52.5826 42.8392 52.3653 42.4973C52.6561 42.5165 52.9501 42.5293 53.244 42.5293C53.2984 42.5293 53.3527 42.5261 53.407 42.5261C53.4038 42.59 53.4038 42.6571 53.4166 42.7306C53.5188 43.4495 53.8416 44.4913 54.1867 45.5969C54.4519 46.4564 54.8449 47.7154 55.0111 48.575C54.3497 47.5077 53.5348 45.3508 53.1801 44.4082ZM58.2257 47.0987C57.7272 46.7504 56.8549 45.4595 55.6214 43.2482C55.4169 42.8808 55.2508 42.5836 55.1006 42.3471C55.6406 42.2289 56.1231 42.0436 56.5098 41.7751C57.4141 43.3089 58.4015 46.204 58.2257 47.0987Z" fill="black"/>
<path d="M43.8399 88.6137C44.2297 89.0579 44.6611 89.55 45.297 89.55C45.4248 89.55 45.559 89.5308 45.7028 89.4861C45.9553 89.4094 46.0991 89.1409 46.0224 88.8885C45.9457 88.6361 45.6773 88.4923 45.4248 88.569C45.1852 88.6393 45.0254 88.5083 44.5621 87.981C44.4311 87.8308 44.2905 87.6742 44.1371 87.5209C43.9517 87.3323 43.6482 87.3323 43.4596 87.5209C43.2711 87.7062 43.2711 88.0098 43.4596 88.1983C43.5939 88.3357 43.7217 88.4795 43.8399 88.6137Z" fill="black"/>
<path d="M25.872 35.2469C26.1181 35.2916 26.3833 35.2788 26.6006 35.1446C26.6964 35.0839 26.7763 35.004 26.8338 34.9114C26.9553 34.8986 27.0415 34.8443 27.1406 34.7676C27.2397 34.6877 27.3068 34.5758 27.3483 34.4576C27.4314 34.2211 27.3419 33.9783 27.1821 33.7994C27.0575 33.6588 26.8818 33.5789 26.7124 33.5118C26.559 33.4543 26.3865 33.4287 26.2203 33.4255C26.0158 33.4223 25.8113 33.467 25.6292 33.5629C25.4215 33.6747 25.2745 33.8729 25.201 34.0965C25.1243 34.3394 25.1467 34.6429 25.2904 34.857C25.4247 35.052 25.6356 35.2021 25.872 35.2469Z" stroke="black" stroke-width="0.25"/>
<path d="M25.9199 26.5617C25.9391 26.6224 25.9647 26.6799 25.9902 26.7343C25.9998 26.7534 26.0126 26.7726 26.0254 26.7918C26.0605 26.8397 26.0957 26.8908 26.1404 26.9324C26.1852 26.9739 26.2331 27.0091 26.281 27.0442C26.297 27.057 26.3162 27.0666 26.3354 27.0762C26.3897 27.1017 26.444 27.1273 26.5015 27.1433C26.5207 27.1497 26.5399 27.1529 26.559 27.1561C26.6165 27.1656 26.6805 27.1784 26.7412 27.1752C26.8019 27.1752 26.8626 27.1625 26.9201 27.1529C26.9393 27.1497 26.9585 27.1433 26.9744 27.1369C27.0959 27.0922 27.1821 27.0474 27.2748 26.9579C27.3163 26.9196 27.3515 26.8685 27.3835 26.8205C27.4186 26.7694 27.4378 26.7119 27.4601 26.6576C27.4793 26.6128 27.4889 26.5617 27.4953 26.5138C27.5017 26.5042 27.5113 26.4978 27.5177 26.4914C27.54 26.4595 27.5592 26.4243 27.5752 26.386C27.6039 26.3221 27.6359 26.2518 27.6551 26.1847C27.6742 26.1175 27.6806 26.0473 27.687 25.977C27.6902 25.913 27.6774 25.8427 27.6678 25.7788C27.6583 25.7181 27.6263 25.6574 27.6007 25.6031C27.5752 25.5488 27.5336 25.5008 27.4953 25.4529C27.4569 25.405 27.4026 25.3698 27.3547 25.3347C27.3355 25.3219 27.3163 25.3123 27.2972 25.3027C27.2429 25.2772 27.1821 25.2484 27.1214 25.2356C27.0575 25.2228 26.9936 25.2132 26.9265 25.2101C26.8594 25.2069 26.7923 25.2228 26.7284 25.2324C26.7028 25.2356 26.6773 25.242 26.6517 25.2516C26.5878 25.274 26.5239 25.2995 26.4632 25.3283C26.4376 25.3411 26.412 25.357 26.3865 25.3762C26.3322 25.4178 26.2714 25.4593 26.2235 25.5072C26.1724 25.5583 26.1308 25.6191 26.0861 25.6766C26.019 25.7661 25.9775 25.8747 25.9391 25.9801C25.904 26.0792 25.888 26.1847 25.8816 26.2869C25.8816 26.3125 25.8816 26.3412 25.8848 26.3668C25.8976 26.4307 25.904 26.501 25.9199 26.5617Z" stroke="black" stroke-width="0.25"/>
<path d="M25.1083 45.9675C25.4087 45.9675 25.7698 45.632 25.8496 45.4659C25.9487 45.2645 26.1085 44.8875 26.1308 44.6638C26.1532 44.421 25.8912 43.7212 25.3064 43.7212C24.7217 43.7212 24.1816 44.2899 24.1816 44.9802C24.1816 45.6672 24.8079 45.9675 25.1083 45.9675Z" stroke="black" stroke-width="0.25"/>
<path d="M21.7212 54.9499C21.8138 55.0042 21.8969 55.0234 22.0024 55.0298C22.0727 55.033 22.3666 55.1895 22.5839 55.0298C22.7597 54.902 23.2358 53.9561 22.8044 53.5471C22.3698 53.1413 21.5518 53.758 21.4559 54.1638C21.3601 54.5696 21.5198 54.7454 21.523 54.7518C21.5454 54.7837 21.6892 54.9307 21.7212 54.9499Z" stroke="black" stroke-width="0.25"/>
<path d="M57.3086 40.171C57.4396 38.9823 57.3022 37.0172 57.0402 33.7259C56.9092 32.0547 56.759 30.163 56.6504 28.1882C56.4874 25.1909 56.6855 21.9379 56.8485 19.3241C57.1169 14.9495 57.168 13.4061 56.3053 12.8182C55.909 12.5466 54.8545 11.8276 46.6742 12.0832C43.8527 12.1727 41.1334 12.3485 39.8073 12.4411C39.8776 12.2334 39.9415 12.0321 39.9894 11.8468C40.3697 10.4536 40.3345 9.4502 39.8904 8.86544C39.1937 7.95475 37.8165 8.25192 36.8547 8.6162C36.3626 6.88747 35.6628 4.6315 35.0972 3.57062C33.7392 1.03026 31.2084 -0.286259 28.3229 0.0524558C24.8463 0.458275 23.2677 3.00503 22.3219 4.52605C21.6636 5.59013 20.7625 7.79497 20.0148 9.69306C18.35 9.49175 17.2348 10.2075 16.5669 10.8913C15.4837 12.0034 14.9628 13.7257 15.1418 14.3424C15.1769 14.467 15.2344 14.5884 15.3047 14.7035C10.9845 14.646 5.20719 14.7546 4.14311 15.6525C3.8012 15.9433 3.33148 16.3395 3.18129 23.2608C3.09501 27.2072 3.15573 32.1921 3.34106 36.2694C3.56794 41.2894 3.8747 43.1044 4.13992 43.8394C3.945 44.3059 3.65102 44.9482 3.31869 45.6736C1.34072 49.9906 0.711226 51.681 1.11704 52.5629C1.31836 53.0039 1.75933 53.2339 2.2642 53.1668C3.02152 53.0678 4.14631 52.1603 5.19441 50.831C4.9899 52.8697 5.23275 53.7484 5.98368 54.0136C6.42145 54.167 6.90716 54.0839 7.35132 53.7836C8.08627 53.2819 8.73814 52.1699 9.22704 50.6872C9.69676 53.2755 10.2432 54.1319 10.8791 54.429C11.0452 54.5057 11.2178 54.5441 11.3903 54.5441C11.4862 54.5441 11.5821 54.5281 11.6779 54.5057C11.7259 56.7904 12.0965 58.5959 13.0232 59.5193C12.9529 60.5163 12.7804 63.143 12.7484 65.7664C12.6717 71.8729 13.33 73.2213 14.4164 73.4163C15.4166 73.5952 16.5637 73.624 17.6981 73.6335C17.8195 77.6917 17.8131 81.9928 17.5959 83.0888C17.3626 83.1719 17.0015 83.2773 16.7139 83.3604C15.9662 83.5777 15.2983 83.7758 14.8063 84.0347C13.4003 83.2166 9.51143 83.8909 9.46669 83.8973C7.47594 84.2807 6.46619 85.0156 6.46619 86.0797C6.46619 86.3545 6.54927 86.7572 6.94231 87.1214C7.75395 87.8756 9.84056 88.1152 11.8281 88.16C11.7259 88.2175 11.6236 88.2718 11.5214 88.3325C10.4764 88.9237 7.297 90.7227 8.0639 92.7518C8.26841 93.2918 8.67742 93.6561 9.21426 93.7807C10.4988 94.0779 12.4864 92.7741 13.9563 91.6014C13.7805 93.3685 13.7518 95.6692 14.5922 96.7045C14.9277 97.1167 15.375 97.3404 15.8863 97.35C15.8991 97.35 15.9119 97.35 15.9215 97.35C17.7077 97.35 18.4331 94.6882 18.8261 92.6783C19.1105 91.2116 19.2575 89.7673 19.3214 89.0259C20.3631 88.4156 21.1428 87.7382 21.2482 86.869C21.2962 86.4632 21.5646 84.5299 21.8841 82.2484C22.1717 82.3091 22.4976 82.3539 22.8396 82.3539C23.5138 82.3539 24.2423 82.1813 24.8271 81.6285C25.9743 80.5421 26.313 77.5575 26.0318 76.8258C25.8976 76.4743 25.594 76.2506 25.2393 76.241C24.8399 76.2218 24.5235 76.4679 24.3126 76.9472C24.089 77.4521 23.2805 77.7652 22.4976 77.893C22.7149 76.3465 22.9099 74.9724 23.0281 74.1448C23.7055 74.2662 24.351 74.3589 24.923 74.3589C25.7122 74.3589 26.3609 74.1832 26.7571 73.6591C27.2588 73.0008 27.6902 71.0452 28.3421 67.9041C28.5562 66.8784 28.7735 65.8271 28.9428 65.1657C29.4605 66.3 30.0836 67.6837 30.32 68.3227C30.467 68.7222 30.515 69.6744 30.5533 70.5116C30.6268 72.0422 30.6971 73.4897 31.2787 74.279C31.464 74.5283 31.8986 75.1194 33.9021 75.1194C34.0204 75.1194 34.145 75.1162 34.2728 75.113V84.1625C34.2728 84.8335 35.1036 90.1283 36.9729 91.0294C37.743 91.4033 40.6125 92.0488 43.0474 92.4961C45.7603 92.9946 47.2366 93.1416 48.0738 93.1416C48.8727 93.1416 49.0836 93.0074 49.2242 92.9211C49.5022 92.7486 49.6652 92.4546 49.6652 92.1414C49.6652 91.6941 49.6332 90.3328 49.5533 89.0579C49.499 88.1695 49.4479 87.4729 49.3392 86.9649C50.2595 86.3418 51.9595 85.0828 51.314 83.6065C50.9977 82.8811 50.2563 82.4785 49.336 82.5264C48.4829 82.5712 47.4411 83.0377 46.9586 83.958C45.8019 84.1018 41.5488 83.7758 40.2674 83.5106C40.0821 82.3507 40.0885 78.2861 40.2067 74.4452C42.108 74.3653 44.2585 74.2758 45.3609 73.8221C46.7893 73.2341 46.7989 71.1858 46.8116 68.8148C46.818 67.5462 46.8244 66.2361 47.0513 65.2008C47.3964 63.6287 47.6744 61.28 47.8597 59.4171C47.8949 59.4011 47.9268 59.3883 47.962 59.3724C48.9238 58.941 49.1603 58.9569 49.4607 59.4842C49.6364 59.7973 49.8249 60.1552 50.0262 60.5419C50.8922 62.2035 51.9723 64.2709 53.4198 65.0155C53.8192 65.22 54.2602 65.3063 54.7171 65.3063C55.7141 65.3063 56.7814 64.8941 57.5962 64.3956C58.7114 63.7149 58.8424 63.2165 58.8424 62.9001C58.8424 62.0373 57.9573 61.8712 57.3118 61.7497C56.9699 61.6858 56.1679 61.5325 56.0752 61.3216C55.9985 61.1458 55.8771 60.8007 55.7333 60.4045C54.8641 57.9536 53.8064 55.2598 52.2598 54.282C51.0935 53.5439 49.9048 53.1604 48.9654 53.1924C49.1219 52.09 49.2338 50.8022 49.3041 49.3163C49.6971 50.3037 50.1509 51.0547 50.6589 51.3135C50.8379 51.4062 51.0264 51.4509 51.2149 51.4509C51.3971 51.4509 51.5792 51.4094 51.7518 51.3231C52.6625 50.8661 52.8957 49.5975 52.835 47.8337C53.5987 49.5304 54.3401 50.6265 55.2508 50.7511C55.6821 50.8086 56.0784 50.668 56.3404 50.3581C56.8069 49.8084 56.7494 48.8882 56.3979 47.4854C57.2383 48.5335 58.0532 49.0511 58.8999 48.6645C59.2706 48.4983 59.7308 48.1021 59.8138 47.1626C59.98 45.3061 58.5357 41.724 57.3086 40.171ZM39.0819 14.0101L39.0883 14.09C47.9492 13.3902 54.1835 13.5372 55.3147 14.0836C55.5288 14.6971 55.3818 17.0969 55.2508 19.2218C55.0878 21.8772 54.8833 25.1813 55.0527 28.2713C55.1613 30.2684 55.3115 32.1697 55.4457 33.8505C55.6662 36.6401 55.9186 39.794 55.6342 40.4426C55.1166 40.8453 53.7649 41.0178 52.1576 40.8836C50.4672 40.7398 49.336 40.35 49.0229 40.1391C48.7928 38.8321 47.9844 30.0799 47.5082 24.6509L45.9169 24.7914C46.1342 27.2679 47.2302 39.6694 47.5051 40.6759C47.5466 40.8293 47.6233 40.9699 47.7319 41.1041L47.6648 41.1073C47.668 41.1456 47.8949 45.1112 47.7191 49.0831C47.3932 56.4549 46.0256 56.7617 45.9681 56.7713C44.2106 57.0589 41.143 56.8703 37.8964 56.669C35.2762 56.5093 32.5664 56.3399 30.221 56.4006C29.2943 56.423 28.3133 56.5316 27.3068 56.685C28.9684 55.8766 30.2114 54.3172 31.0071 53.3937C32.5057 51.6554 34.8639 49.9778 33.1512 43.1204C31.4384 36.2662 31.202 33.94 30.8345 30.8819C30.6044 28.9743 30.5437 24.3025 29.828 23.4749C33.0266 22.4236 34.3814 20.0558 34.3271 17.8318C34.4517 17.9756 34.5827 18.1226 34.7329 18.2856L34.9342 18.4997L35.225 18.5316C35.7235 18.5891 36.9218 18.9087 37.2829 20.6502C37.449 21.4618 37.5034 22.2766 37.5481 22.9956C37.612 24.0245 37.6663 24.8362 38.0338 25.3794C38.6729 26.3157 40.2387 26.3892 40.702 26.3892H41.2804L41.4593 25.8364C41.5871 25.4401 41.8747 24.7627 42.108 24.4975C42.223 24.3665 42.386 24.2131 42.5617 24.0501C43.0762 23.5676 43.6066 23.0659 43.6833 22.4492L43.7408 21.9954L43.3798 21.7174C43.0123 21.4331 42.0377 20.6789 41.7213 20.0239C41.3922 19.3369 41.2292 18.8256 40.9704 17.6497C40.5997 15.9657 39.8488 14.892 38.7368 14.4415C38.7592 14.4223 38.7847 14.4031 38.8007 14.3839C38.903 14.2817 38.9924 14.1507 39.0819 14.0101ZM44.2745 60.6186C43.7792 60.0498 43.3798 59.1583 43.1305 58.5128C44.332 58.5256 45.3897 58.484 46.2237 58.3498C46.2684 58.3434 46.3132 58.3338 46.3579 58.3211C46.262 59.3596 46.1278 60.6825 45.9617 61.9575C45.4344 61.6347 44.7442 61.1554 44.2745 60.6186ZM31.9785 61.7881L31.9465 61.836C31.5727 62.3888 31.218 62.9097 30.7866 62.9896C30.5437 63.0343 30.221 62.9512 29.8407 62.7563C30.483 61.1234 31.3202 58.9665 31.7005 57.9919C31.8826 57.9951 32.0679 57.9951 32.2533 57.9983C32.4482 59.791 32.3491 61.2417 31.9785 61.7881ZM39.4174 17.9948C39.705 19.2985 39.8999 19.9088 40.2866 20.7173C40.6125 21.3947 41.2133 21.9986 41.8428 22.5291C41.7181 22.6569 41.5775 22.7879 41.4721 22.887C41.2804 23.0691 41.0822 23.2544 40.9193 23.4398C40.6061 23.7945 40.3441 24.3313 40.1715 24.7467C39.7849 24.6892 39.443 24.5837 39.3599 24.4783C39.2353 24.293 39.1842 23.4845 39.1458 22.8934C39.0979 22.1233 39.0404 21.2477 38.8518 20.3274C38.3374 17.8414 36.5927 17.1735 35.7235 16.9946C35.5062 16.7518 35.3017 16.4993 35.1324 16.2788C36.091 16.1446 37.2893 15.8954 37.6983 15.8091C38.3118 15.8826 39.0308 16.2373 39.4174 17.9948ZM23.9036 19.0557C23.9036 18.8064 24.0091 18.5827 24.1752 18.4006C24.2903 18.2856 24.4277 18.2057 24.5843 18.1641C24.6673 18.1545 24.7472 18.1418 24.8303 18.1322C24.9581 18.1258 25.0764 18.1545 25.185 18.2121C25.3 18.2504 25.3991 18.3143 25.4822 18.4038C25.5716 18.4869 25.6356 18.5859 25.6739 18.701C25.7314 18.8096 25.757 18.931 25.7538 19.0557C25.7538 19.2314 25.7442 19.4072 25.7538 19.5829C25.7634 19.6276 25.7698 19.6724 25.7889 19.7171C25.8209 19.8098 25.8433 19.9088 25.8433 20.0111C25.8337 20.0942 25.8209 20.1741 25.8113 20.2571C25.757 20.4936 25.5844 20.6821 25.3863 20.8099C25.2809 20.8771 25.1658 20.9154 25.0412 20.9186C24.9198 20.9474 24.7952 20.941 24.6737 20.9026C24.5523 20.8739 24.4501 20.8195 24.3606 20.7365C24.2615 20.6725 24.1816 20.5863 24.1241 20.4776C24.057 20.3402 23.9899 20.1932 23.9611 20.043C23.9292 19.8865 23.91 19.7235 23.9036 19.5637C23.8909 19.3944 23.9036 19.225 23.9036 19.0557ZM27.7829 18.8416C27.8148 18.7649 27.85 18.685 27.8819 18.6083C27.9682 18.4613 28.0864 18.3463 28.2334 18.2568C28.3101 18.2248 28.39 18.1897 28.4667 18.1577C28.5977 18.1162 28.7255 18.1098 28.8565 18.1418C28.9876 18.1482 29.109 18.1865 29.2208 18.2568C29.3359 18.3175 29.4253 18.4006 29.4956 18.5092C29.5819 18.6051 29.6394 18.7137 29.6714 18.8416C29.6905 18.9598 29.7321 19.0716 29.7736 19.1803C29.812 19.2634 29.8535 19.3496 29.8919 19.4327C29.9813 19.5861 30.0261 19.7491 30.0261 19.9248C30.0133 20.0111 30.0037 20.0974 29.9909 20.1836C29.943 20.3498 29.8599 20.4936 29.7385 20.615C29.6714 20.6662 29.6075 20.7173 29.5404 20.7684C29.4285 20.8387 29.3071 20.8771 29.1761 20.8834C29.0451 20.9122 28.9173 20.9058 28.7862 20.8675C28.6584 20.8387 28.5498 20.778 28.4539 20.6917C28.3485 20.6214 28.2622 20.5319 28.2015 20.4169C28.1344 20.2827 28.0673 20.1453 28.0066 20.0079C27.9171 19.797 27.818 19.5861 27.7797 19.3592C27.7349 19.1867 27.7349 19.0141 27.7829 18.8416ZM22.1653 8.613C23.3316 9.18498 24.9933 9.73779 26.6293 9.73779C26.6613 9.73779 26.6964 9.73779 26.7284 9.73779C28.1887 9.71862 32.5473 8.83349 34.8032 7.33483C34.963 7.8493 35.1164 8.36696 35.2538 8.85266C34.2504 9.56844 31.857 10.3289 26.3737 10.6165L26.15 10.6293C24.8239 10.706 22.635 10.0446 21.7531 9.62276C21.8873 9.29043 22.0247 8.95172 22.1653 8.613ZM28.5019 1.63419C31.6813 1.26352 33.1832 3.38848 33.6816 4.31835C33.867 4.66346 34.0715 5.16833 34.2792 5.7531C33.0234 6.81078 28.7926 8.11132 26.706 8.14008C25.2553 8.16564 23.7471 7.61603 22.7884 7.13672C23.1144 6.40177 23.4211 5.76588 23.6736 5.36006C24.5683 3.92212 25.7921 1.95054 28.5019 1.63419ZM18.024 11.719C18.4267 11.4186 18.8804 11.262 19.3949 11.2524C19.2926 11.5081 19.2 11.7413 19.1233 11.9362L20.6028 12.5402C20.7434 12.1919 20.9287 11.7253 21.1364 11.1949C21.146 11.1693 21.1588 11.1406 21.1683 11.1118C22.3475 11.655 24.4437 12.2366 25.9519 12.2366C26.051 12.2366 26.1468 12.2334 26.2363 12.2302L26.4568 12.2174C29.4892 12.0577 33.442 11.6966 35.6948 10.4472C35.8258 10.9393 35.9089 11.2556 35.912 11.2684L37.4618 10.8754C37.449 10.8306 37.3819 10.5686 37.2765 10.1692C37.8389 9.9455 38.4013 9.81448 38.625 9.86561C38.8167 10.4376 38.1936 12.6456 37.6536 13.2847C36.7908 13.8599 29.5691 15.627 26.2171 15.857C22.667 16.0999 17.2667 14.8792 16.7043 13.9653C16.7619 13.5659 17.1453 12.3804 18.024 11.719ZM5.24554 16.8444C6.29364 16.4035 11.598 16.2309 16.3624 16.314C17.7524 18.5731 21.9768 24.4815 27.3803 23.9734C28.0193 23.9127 28.6105 23.8105 29.1537 23.673C29.1537 23.673 29.1537 23.673 29.1537 23.6762C28.4379 24.654 28.9109 41.5962 27.7126 46.2743C26.5494 50.8022 23.9324 56.7138 24.6961 57.1611C23.9356 57.3177 23.1719 57.4839 22.4146 57.65C19.1904 58.3562 16.1483 59.0241 14.4579 58.5703C14.1704 58.4936 13.2341 57.9152 13.2724 53.6973C13.2788 53.1093 13.3012 52.499 13.3396 51.8791C13.477 51.1377 13.5345 50.3101 13.5377 49.4761C13.6942 47.9359 13.8924 46.4692 14.0489 45.3125C14.1672 44.4369 14.2598 43.7403 14.3046 43.261C14.5346 42.1586 14.6593 39.9537 14.4771 35.314C14.3205 31.374 14.0074 27.482 14.0042 27.4437L12.4129 27.5747C13.1127 36.1704 13.0967 42.1618 12.6813 43.1779C11.4862 43.7755 6.6004 43.9448 5.62579 43.2578C4.69273 41.0658 4.39236 19.2889 5.24554 16.8444ZM2.77228 51.1026C3.18768 49.7989 4.21022 47.5653 4.76942 46.3382C5.01547 45.8014 5.24234 45.3061 5.42767 44.8843C5.67053 44.9642 5.93894 45.0313 6.22653 45.0888C6.1786 45.2869 6.1083 45.5873 6.02842 45.9612C5.3414 48.2139 3.77564 50.2111 2.77228 51.1026ZM6.71224 52.2338C6.67709 50.9939 7.18196 48.1468 7.54624 46.4469C7.66767 46.057 7.76353 45.6672 7.83064 45.2741C8.05751 45.2869 8.29078 45.2933 8.52404 45.2965C8.36108 49.1694 7.35452 51.4796 6.71224 52.2338ZM10.1953 45.5521C10.1857 45.4499 10.1761 45.3508 10.1633 45.2518C10.6522 45.2166 11.1251 45.1623 11.5629 45.092C11.6907 45.7822 11.892 47.3064 11.9272 48.9329C11.9304 49.1342 11.9336 49.3259 11.9304 49.5081C11.8537 50.2782 11.7898 51.0291 11.745 51.7545C11.646 52.2497 11.5214 52.5565 11.4191 52.7355C11.1347 52.1539 10.633 50.4603 10.1953 45.5521ZM20.2225 80.9607C19.9541 81.015 19.6537 81.0757 19.3406 81.1684C19.3597 80.7274 19.3725 80.2257 19.3789 79.6505C19.6345 79.4939 20.1458 79.2831 20.7018 79.1329C20.6187 79.724 20.5357 80.3248 20.4526 80.9127C20.3759 80.9287 20.3024 80.9447 20.2225 80.9607ZM19.2958 73.7198L21.1236 73.8892C20.5388 74.164 19.9062 74.5155 19.331 74.8734C19.3182 74.5027 19.3086 74.1192 19.2958 73.7198ZM20.9383 77.4457C20.4749 77.532 19.9093 77.6822 19.3821 77.8899C19.3789 77.5352 19.3757 77.1581 19.3693 76.7651C19.8806 76.3976 20.5484 75.9822 21.1939 75.6403C21.1172 76.1899 21.0309 76.8002 20.9383 77.4457ZM17.1613 84.8942C17.8611 84.6897 18.3052 84.5555 18.596 84.3893C18.8005 84.2711 19.0402 84.1337 19.2 82.9386C19.5355 82.7597 19.871 82.667 20.2161 82.5935C20.165 82.9642 20.1139 83.3221 20.0659 83.664C19.6537 84.76 17.4712 85.8113 15.8991 86.3354C15.7777 85.9775 15.6818 85.6451 15.6275 85.4087C15.9981 85.2329 16.7299 85.0188 17.1613 84.8942ZM8.1342 86.0382C8.39303 85.8273 9.21426 85.479 10.8216 85.3128C12.4608 85.1403 13.7486 85.2713 14.0074 85.3895C13.9659 85.3703 13.838 85.2777 13.7645 85.0955L13.9914 85.0061C13.985 85.0476 13.9818 85.0891 13.9818 85.1339C13.9818 85.3192 14.0969 85.8624 14.295 86.5271C11.4191 86.6485 8.80844 86.4472 8.1342 86.0382ZM14.4963 89.0099C12.5151 90.8793 10.1154 92.4418 9.57853 92.2341C9.57853 92.2341 9.56895 92.2213 9.55297 92.183C9.29095 91.4928 11.8345 89.7449 14.982 88.3868C14.998 88.4252 15.0171 88.4635 15.0331 88.4987L14.4963 89.0099ZM15.9151 95.7491C15.8863 95.7491 15.8703 95.7491 15.8288 95.6948C15.2664 95.0045 15.391 92.0775 15.8288 89.7545C15.9438 89.8759 16.0589 89.975 16.1803 90.0452C16.3688 90.1571 16.5701 90.2114 16.7682 90.2114C16.9472 90.2114 17.1229 90.1667 17.2859 90.0772C17.3786 90.0261 17.5 89.9654 17.6374 89.8983C17.2571 93.3717 16.4072 95.7491 15.9151 95.7491ZM17.1485 88.3549C17.0399 88.4092 16.9408 88.4571 16.8481 88.5019C16.7363 88.3421 16.6085 88.1024 16.4807 87.8212C16.9728 87.6519 17.6885 87.3835 18.4299 87.016L19.6729 86.5303C19.6665 86.5878 19.6601 86.6357 19.6537 86.6709C19.625 86.8594 19.2639 87.3227 17.1485 88.3549ZM24.3574 78.9603C24.2168 79.5834 23.9995 80.2001 23.7215 80.4622C23.3093 80.852 22.6095 80.7849 22.0982 80.6603C22.1525 80.28 22.2069 79.8966 22.258 79.5195C22.8843 79.4588 23.6672 79.3022 24.3574 78.9603ZM26.7731 67.575C26.412 69.3101 25.8113 72.2148 25.4981 72.6685C25.2297 72.8634 24.1465 72.7133 23.2454 72.5535L23.255 72.48L22.4593 72.4065C21.7531 72.2723 21.0885 72.1445 20.5101 72.1029C19.8806 72.055 19.2127 72.0454 18.5098 72.0422L17.6406 71.9623L17.6438 72.0358C16.6564 72.0262 15.6722 72.0007 14.8446 71.8697C14.3525 71.0357 14.1288 66.5173 14.573 60.2223C14.9532 60.283 15.3591 60.3118 15.7968 60.3118C17.7365 60.3118 20.1969 59.7718 22.7597 59.2126C25.2425 58.6694 27.8021 58.1134 29.9781 58.0175C29.2879 59.791 27.9842 63.1398 27.6263 64.0089C27.409 64.5394 27.1598 65.7089 26.7731 67.575ZM36.8579 74.819L38.5994 74.589C38.5866 74.9565 38.577 75.3079 38.5674 75.6499C38.0178 75.5859 37.4586 75.5955 36.941 75.6019C36.5511 75.6083 36.1837 75.6115 35.8641 75.5859V74.9692C36.1773 74.9277 36.5032 74.8798 36.8579 74.819ZM35.8673 84.1561V83.2901C36.7748 83.4084 37.9955 83.6001 38.7048 83.7151C38.7272 83.8493 38.7496 83.9644 38.7751 84.0666C38.7304 84.1465 38.6825 84.2296 38.6314 84.3254C38.2064 85.0987 37.4778 86.4184 36.4521 87.0415C36.1134 85.8848 35.8673 84.661 35.8673 84.1561ZM35.8673 77.19C36.2188 77.2124 36.5831 77.206 36.9665 77.1996C37.5002 77.1932 38.0466 77.1869 38.5323 77.2572C38.5227 77.794 38.5163 78.2893 38.5099 78.7494C37.6855 78.7239 36.6246 78.7558 35.8673 78.7878V77.19ZM38.5099 80.3471C38.5163 81.0214 38.5323 81.5933 38.5547 82.0759C37.7686 81.9512 36.6789 81.7819 35.8673 81.6828V80.3855C36.8994 80.3439 37.8836 80.328 38.5099 80.3471ZM36.9889 88.5754C38.5483 87.7893 39.4909 86.0829 40.0309 85.0987C40.0373 85.0891 40.0405 85.0828 40.0437 85.0732C40.2131 85.1051 40.4016 85.1371 40.6061 85.169C40.2706 86.4887 39.5516 88.8246 39.0052 89.9941C38.3246 89.8216 37.8421 89.6746 37.6631 89.5883C37.449 89.4829 37.2158 89.0962 36.9889 88.5754ZM47.7383 85.3991C48.1122 85.2521 48.2624 84.9933 48.3231 84.808C48.4509 84.4085 48.9909 84.1369 49.4191 84.1145C49.6012 84.105 49.8058 84.1401 49.8505 84.2424C49.8665 84.2775 49.9559 84.629 48.272 85.7538C47.8629 86.0254 47.4028 86.3354 47.5817 86.9329L47.7831 87.5081H47.8118C47.9396 88.3868 48.0355 90.3296 48.0611 91.5439C47.374 91.5375 45.8498 91.3905 43.0666 90.8697C42.1783 90.7035 41.3347 90.531 40.587 90.3648C41.1973 88.9492 41.8811 86.722 42.207 85.3576C44.3895 85.5717 47.0737 85.6643 47.7383 85.3991ZM44.7506 72.3426C43.9262 72.6813 41.8428 72.7772 40.2578 72.8411L40.261 72.7612L39.3567 72.8794C38.6665 72.9114 38.1201 72.9497 37.7814 73.02C37.3564 73.1095 36.9601 73.183 36.5863 73.2437L34.9183 73.4642C33.4995 73.592 32.7326 73.4802 32.5568 73.3268C32.2597 72.9274 32.1894 71.4255 32.1414 70.4317C32.0903 69.3389 32.0424 68.3962 31.8091 67.7667C31.5631 67.0989 30.9495 65.7313 30.4287 64.5937C30.499 64.6001 30.5693 64.6033 30.6364 64.6033C30.7834 64.6033 30.9304 64.5905 31.071 64.5649C32.1574 64.3636 32.7677 63.4625 33.2598 62.7403L33.2918 62.6924C34.0076 61.6379 34.0267 59.7366 33.8574 58.0526C35.1483 58.107 36.4776 58.1868 37.7878 58.2699C38.6761 58.3243 39.5484 58.3786 40.3888 58.4233C39.9958 60.0626 39.4877 62.98 40.0533 64.223C40.3473 64.8685 41.0183 66.725 42.2262 68.0607C43.2008 69.1376 44.3991 70.0035 45.166 70.5052C45.1277 71.3999 45.0158 72.2308 44.7506 72.3426ZM48.78 54.7614C48.7704 54.7965 48.7449 54.8253 48.7321 54.8317C48.927 54.7006 50.0103 54.7422 51.4035 55.6241C52.6113 56.391 53.701 59.4586 54.225 60.9317C54.3816 61.3759 54.5062 61.7274 54.6085 61.9575C54.9472 62.7307 55.7524 63.0343 56.4618 63.2005C55.7301 63.5743 54.7299 63.8875 54.1451 63.5871C53.1482 63.0759 52.1608 61.181 51.4386 59.7973C51.2309 59.3979 51.036 59.0241 50.8475 58.6917C50.0454 57.273 48.8727 57.356 48.0227 57.6245C48.0674 57.1004 48.0962 56.7233 48.109 56.5668C48.3327 56.0651 48.5244 55.4548 48.6874 54.7294L48.78 54.7614ZM51.1542 49.5688C50.6046 48.5942 49.8345 45.8046 49.3328 42.8648C49.3232 42.5293 49.3105 42.2289 49.3009 41.9733C49.3328 41.9828 49.3616 41.9924 49.3935 42.0052C49.7994 42.1266 50.365 42.2513 51.0072 42.3503C50.9274 42.4366 50.8634 42.542 50.8251 42.6635C50.7197 42.9766 50.7612 43.3633 50.9274 44.6606C51.0552 45.6768 51.4131 48.5047 51.1542 49.5688ZM53.1801 44.4082C52.8095 43.4272 52.5826 42.8392 52.3653 42.4973C52.6561 42.5165 52.9501 42.5293 53.244 42.5293C53.2984 42.5293 53.3527 42.5261 53.407 42.5261C53.4038 42.59 53.4038 42.6571 53.4166 42.7306C53.5188 43.4495 53.8416 44.4913 54.1867 45.5969C54.4519 46.4564 54.8449 47.7154 55.0111 48.575C54.3497 47.5077 53.5348 45.3508 53.1801 44.4082ZM58.2257 47.0987C57.7272 46.7504 56.8549 45.4595 55.6214 43.2482C55.4169 42.8808 55.2508 42.5836 55.1006 42.3471C55.6406 42.2289 56.1231 42.0436 56.5098 41.7751C57.4141 43.3089 58.4015 46.204 58.2257 47.0987Z" stroke="black" stroke-width="0.25"/>
<path d="M43.8399 88.6137C44.2297 89.0579 44.6611 89.55 45.297 89.55C45.4248 89.55 45.559 89.5308 45.7028 89.4861C45.9553 89.4094 46.0991 89.1409 46.0224 88.8885C45.9457 88.6361 45.6773 88.4923 45.4248 88.569C45.1852 88.6393 45.0254 88.5083 44.5621 87.981C44.4311 87.8308 44.2905 87.6742 44.1371 87.5209C43.9517 87.3323 43.6482 87.3323 43.4596 87.5209C43.2711 87.7062 43.2711 88.0098 43.4596 88.1983C43.5939 88.3357 43.7217 88.4795 43.8399 88.6137Z" stroke="black" stroke-width="0.25"/>
</g>
<defs>
<clipPath id="clip0">
<rect width="60" height="102.224" fill="white"/>
</clipPath>
</defs>
</svg>
