<svg width="48" height="98" viewBox="0 0 48 98" fill="none" xmlns="http://www.w3.org/2000/svg">
<g clip-path="url(#clip0)">
<path d="M42.6968 0.251635C42.3711 -0.0296062 41.9234 -0.0814138 41.5644 0.122116C40.8724 0.506972 40.976 1.13236 41.2721 2.97523C41.3979 3.76344 41.5644 4.79959 41.5755 5.40278C40.8428 5.5397 38.8815 5.28066 37.8898 5.15114C37.1127 5.04753 36.5243 4.97352 36.0728 4.94762C35.6658 3.83005 35.0404 2.70879 34.1152 2.35354C33.1198 1.96868 30.9735 2.32023 27.5616 2.91972C25.8816 3.21576 24.146 3.51921 23.1099 3.57102C21.3521 3.65613 19.08 3.42299 17.5739 3.27127C16.7523 3.18986 16.1602 3.12695 15.8087 3.12695C15.113 3.12695 13.9917 3.4822 13.1295 4.48135C12.8002 4.8625 12.4634 5.39168 12.2266 6.12069C10.0914 6.67947 6.8608 7.30486 5.71733 6.94591C4.90322 6.68687 4.66268 4.97722 4.55907 4.24451C4.47765 3.66353 4.38514 3.00853 3.65613 2.89382C3.33789 2.83831 2.87162 2.95673 2.62739 3.46C2.13151 4.48135 1.61714 8.3188 2.63479 10.8093C3.10475 11.9638 3.83746 12.7261 4.8144 13.074C5.94307 13.4774 7.35667 13.6106 8.72957 13.6106C10.6057 13.6106 12.4042 13.3589 13.296 13.1961C13.4218 13.3182 13.5551 13.4255 13.6994 13.5107C14.0546 13.7216 14.4173 13.7993 14.7725 13.7993C15.2499 13.7993 15.7162 13.6587 16.1417 13.5107C16.1417 15.2129 16.175 17.0743 16.2787 18.2473C13.5847 18.8283 12.5152 19.1503 12.1304 20.3122C12.0341 20.6009 11.8306 22.5548 11.8047 24.7344C11.6012 24.7196 11.3866 24.7122 11.1571 24.7159C8.87759 24.7566 7.92655 25.7483 7.23085 26.6513C6.53515 27.5542 6.09479 28.5274 5.5027 28.5977C4.91062 28.6681 4.18901 29.5562 4.8255 30.0299C5.73584 30.707 7.34187 29.0011 8.68146 28.6755C9.84343 28.3942 10.9869 28.4164 12.0045 28.5348C12.1822 29.7634 12.5004 30.7441 13.0259 31.1215C13.8585 31.7173 17.1557 32.2095 20.4899 32.4315C20.6934 32.9274 20.9561 33.4899 21.23 34.0856C21.6814 35.0552 22.5067 36.8314 22.5363 37.3976C22.2513 37.8491 21.1967 38.9518 20.2345 39.8696C20.0051 39.9066 19.772 39.988 19.5277 40.1286C18.3325 40.8169 11.9046 47.5778 10.454 51.0896C9.89154 52.4477 9.72501 56.0409 9.67691 57.5211C9.6214 59.3307 9.6362 60.5408 9.69171 61.3586C9.34386 61.4733 8.9146 61.5399 8.46683 61.6065C7.60461 61.7397 6.63137 61.8878 5.86165 62.4576C3.4045 64.2746 1.90208 66.9871 1.63564 70.0919C1.44691 72.2974 1.50982 75.1246 1.56163 77.393C1.59494 78.8584 1.63194 80.5163 1.55053 80.9011C1.24339 81.6782 0.0851177 85.327 0.00370595 86.5778C-0.0221978 86.9626 0.133225 87.3179 0.429268 87.5473C1.11387 88.0839 2.15372 87.7545 4.22602 87.0958C5.78394 86.6037 7.72302 85.9931 8.9516 86.0338C10.3245 86.0856 13.2405 86.4704 16.0677 86.8738C15.9789 88.243 15.9752 90.3338 16.0085 91.962C16.1121 97.0133 16.349 97.0947 16.9781 97.3093C17.0817 97.3426 17.1853 97.3611 17.2852 97.3611C17.6294 97.3611 17.955 97.1687 18.1326 96.8356C18.2881 96.547 18.4176 96.077 18.5804 95.385C18.8135 96.2029 19.0467 96.6913 19.6795 96.7801C20.0014 96.8208 20.4455 96.7061 20.7193 96.2436C20.8673 95.9919 20.9968 95.6034 21.1338 95.0742C21.3003 95.855 21.4964 96.1769 21.9405 96.3435C22.2735 96.4693 22.651 96.399 22.9248 96.1621C23.6871 95.5034 24.9675 91.5846 25.9852 88.1283C26.8696 88.1949 27.8206 88.2504 28.7643 88.2837C29.0529 89.4124 29.6228 91.2404 29.8781 92.0397C31.251 96.3139 31.5434 96.4434 31.9467 96.621C32.0763 96.6802 32.2169 96.7061 32.3538 96.7061C32.5203 96.7061 32.6831 96.6654 32.8349 96.5803C33.2826 96.3324 33.4751 95.8513 33.6749 94.7411C34.193 95.9475 34.6185 96.5396 35.329 96.5618C35.7805 96.5766 36.1838 96.3102 36.3948 95.8476C36.602 95.3961 36.6945 94.804 36.7426 94.0639C37.0017 94.7226 37.2089 95.1297 37.6826 95.2962C37.9564 95.3924 38.2598 95.3665 38.5152 95.2222C39.1665 94.8522 39.4366 94.6856 37.5863 84.3093C39.444 82.0002 41.4386 78.8658 41.6162 76.0349C41.8383 72.512 42.3082 66.0472 42.4859 63.6603C43.6367 64.4152 44.2547 64.7372 44.7654 64.7372C44.8764 64.7372 44.9837 64.7224 45.0873 64.6928C45.3908 64.6077 45.6387 64.3967 45.7682 64.1118C46.3196 62.9091 46.2493 52.3404 46.1975 51.5448C46.0791 49.6871 44.3324 47.8812 40.1693 45.3168C37.9934 43.9772 35.2846 41.8975 33.6638 40.6578C33.5232 40.5505 33.3936 40.4506 33.2678 40.3543C33.5306 40.1027 33.7341 39.8437 33.8525 39.5809C34.2818 38.6521 34.1523 37.9157 33.9709 37.4605C33.5861 36.5021 32.6646 35.9692 31.9615 35.6917C31.3843 35.4659 30.7256 35.6473 29.3305 36.8795C29.286 35.5733 29.2786 34.1004 29.423 33.3825C29.4785 33.105 29.8263 32.9385 30.5553 32.6572C31.388 32.3353 32.4204 31.9319 32.9015 30.8329C33.7563 28.8753 34.1782 19.1059 34.1819 19.0097C34.2263 17.7626 34.378 11.3939 32.8756 8.51123L31.2362 9.36606C32.3057 11.4162 32.4278 16.3527 32.3353 18.943C32.2206 22.1181 31.7173 28.9308 31.2103 30.0928C31.0512 30.4591 30.6034 30.6552 29.8892 30.9328C29.286 31.1696 28.5237 31.4657 28.039 32.0873L27.4025 30.4443C25.6262 31.1326 15.509 30.337 14.1472 29.6376C14.0805 29.5266 13.9991 29.2749 13.9177 28.8531C14.5431 28.9715 15.0427 29.0603 15.3609 29.0196C16.3712 28.879 16.867 27.5098 15.6163 26.5698C14.9576 26.074 14.3914 25.5781 13.6698 25.2229C13.6624 22.9766 13.8252 21.1634 13.8918 20.9043C13.9806 20.6342 15.9382 20.2197 17.5109 19.8867C21.7666 18.9838 25.715 19.3982 26.3071 19.7054C26.3071 19.7054 26.2405 19.6683 26.1665 19.5832L27.5764 18.3843C26.7623 17.4258 22.1144 17.2186 18.103 17.8958C17.9624 15.8013 17.9809 10.6242 18.066 9.82862L16.2269 9.62879C16.201 9.85083 16.1787 10.5835 16.1602 11.5568C16.0344 11.6012 15.9049 11.6456 15.7902 11.6863C15.3609 11.8417 14.8244 12.0378 14.6504 11.9342C14.569 11.8861 14.1509 11.5457 13.8585 9.57699C13.6032 7.84884 13.8363 6.50554 14.532 5.69882C15.0353 5.11414 15.6237 4.98832 15.8087 4.98832C16.0677 4.98832 16.6783 5.05123 17.3888 5.12154C18.9504 5.28066 21.3077 5.5212 23.1987 5.42869C24.3495 5.37318 26.0666 5.07343 27.8798 4.75149C29.8522 4.40364 32.8312 3.88186 33.4492 4.08909C33.8895 4.25932 34.5815 5.98007 34.8665 7.6305L34.8776 7.68971C34.9886 8.15968 35.1255 9.52148 34.563 9.73241L35.218 11.4606C35.7731 11.2496 36.1505 10.887 36.4022 10.4503C37.3902 10.7316 38.863 11.0757 40.3136 11.1386C40.8539 11.1608 41.4127 11.1867 41.9715 11.1867C43.9069 11.1867 45.8607 10.8907 47.2262 9.23284C49.5354 6.42413 42.7671 0.314544 42.6968 0.251635ZM23.0173 39.6994C23.4947 40.2174 24.146 40.9575 24.7344 41.6384C24.6826 41.6939 24.6345 41.7495 24.5827 41.805C24.3088 41.7606 24.0313 41.6791 23.7722 41.5385C23.3467 41.3054 22.9803 41.0389 22.6251 40.7799C22.4993 40.6874 22.3697 40.5949 22.2365 40.5024C22.4882 40.2507 22.7583 39.9769 23.0173 39.6994ZM24.7936 44.325C24.9194 44.1955 25.1229 43.9735 25.3783 43.6848C25.6188 43.6737 25.8408 43.6478 26.037 43.6182C25.8927 44.0401 25.53 44.7173 24.949 45.4278C24.3902 46.1161 23.0691 47.0264 22.429 47.2114C22.5733 46.8229 23.0988 46.0569 24.5568 44.5656L24.7936 44.325ZM14.9206 61.6287C15.1278 61.5917 15.1685 61.5806 15.583 62.2837C15.7791 62.6168 15.9974 62.9905 16.3157 63.3495C16.3564 63.3976 16.4045 63.4383 16.4526 63.4827C16.4489 63.5234 16.4526 63.5678 16.4674 63.6196C16.8152 64.789 16.9263 65.7067 16.8078 66.4209C16.8041 66.4357 16.7967 66.4616 16.7856 66.4875C16.7523 66.4653 16.7264 66.4468 16.7079 66.4394C16.2639 66.1878 15.7976 66.1064 15.3942 66.2137C14.2545 66.5097 14.4802 67.7235 14.6023 68.3748C14.6134 68.4303 14.6245 68.4858 14.6356 68.545C14.6578 68.6524 14.6837 68.7671 14.6985 68.8781C14.6615 68.8337 14.6245 68.7893 14.5912 68.7449L14.4395 68.5561C14.1287 68.1639 13.7771 67.7161 13.2923 67.4756C12.9667 67.3128 12.6114 67.2943 12.2932 67.4275C11.949 67.5718 11.6789 67.8789 11.5494 68.2749C11.4384 68.6227 11.4236 69.0076 11.4125 69.3777C11.394 69.9179 11.3792 70.4286 11.0794 70.8098C10.9388 70.9874 10.7982 71.0873 10.7871 71.1021C10.7464 71.0577 10.702 70.8764 10.7242 70.288C10.7279 70.2362 10.7279 70.1918 10.7279 70.1622C10.739 68.83 10.6835 67.52 10.6316 66.5319C10.602 65.9991 10.5391 65.4662 10.4799 64.9481C10.4133 64.3967 10.3504 63.8306 10.3245 63.2681C11.0461 63.7676 11.9379 63.2348 13.0555 62.565C13.6846 62.1838 14.4691 61.7138 14.9206 61.6287ZM22.614 92.5652C22.4734 91.6253 22.3327 90.7779 22.144 90.2783C21.9849 89.8601 21.5889 89.6011 21.1597 89.6381C20.3456 89.7084 20.2419 90.2413 19.7979 92.4801C19.7794 92.5689 19.7609 92.6651 19.7424 92.7687C19.6017 92.4098 19.4352 92.0878 19.2354 91.8436C18.9912 91.5476 18.6137 91.4181 18.251 91.5069C18.0956 91.5439 17.9661 91.6031 17.8551 91.6919C17.8218 90.0415 17.8329 88.2948 17.9032 87.1291C18.2918 87.1846 18.6729 87.2401 19.0393 87.2956C20.6971 87.5362 22.0108 87.7286 22.6732 87.8063C23.0358 87.847 23.5317 87.9025 24.109 87.958C23.6094 89.59 23.0728 91.27 22.614 92.5652ZM36.7426 90.5262C36.6538 90.4707 36.5576 90.4226 36.4577 90.3856C36.1542 90.2709 35.8101 90.3079 35.54 90.4855C34.9923 90.8519 34.9738 91.5069 34.9405 92.8095C34.9405 92.8428 34.9368 92.8761 34.9368 92.9131C34.8998 92.8206 34.8665 92.728 34.8368 92.6503C34.5149 91.814 34.3225 91.3292 34.1337 91.0443C33.908 90.7076 33.5121 90.5484 33.1235 90.6372C32.4315 90.7927 32.3279 91.2811 32.0948 92.8465C31.5804 91.3366 30.9994 89.4568 30.6775 88.2874C32.4389 88.2578 33.9302 88.0728 34.5112 87.5954C34.7739 87.3771 35.329 86.8516 36.0247 86.1078C36.2912 87.6657 36.5428 89.2088 36.7426 90.5262ZM33.3529 86.1522C32.5425 86.6333 27.1545 86.4482 22.8767 85.9635C22.2439 85.8932 20.8784 85.6933 19.302 85.4639C15.7939 84.9532 10.9906 84.2501 9.01821 84.1798C7.46769 84.1206 5.45089 84.7645 3.66724 85.327C3.14176 85.4935 2.49787 85.697 2.002 85.8265C2.31654 84.4462 3.02704 82.1741 3.27498 81.5635C3.47481 81.0714 3.47111 80.1314 3.4119 77.3486C3.36009 75.1246 3.30088 72.3566 3.48221 70.251C3.76715 66.9575 5.53231 65.0073 6.96441 63.9453C7.36777 63.6455 8.04127 63.5456 8.75177 63.4346C8.78508 63.4309 8.81838 63.4235 8.85169 63.4198C8.88129 63.9527 8.9405 64.4818 9.00341 64.9962C9.06632 65.5069 9.12923 66.0361 9.15513 66.5541C9.23284 68.0159 9.26245 69.1297 9.25135 70.1622C9.23654 71.6942 9.70651 72.5046 10.6464 72.5638C10.6798 72.5675 10.7094 72.5675 10.7427 72.5675C11.6271 72.5675 12.3783 71.7719 12.6447 70.9911C12.8261 70.4656 12.8705 69.8513 12.9075 69.3591C12.9112 69.2925 12.9149 69.2222 12.9149 69.1519C12.9149 69.126 12.9149 69.1001 12.9149 69.0742C12.9926 69.1408 13.0703 69.2111 13.1184 69.2666C13.1998 69.3628 13.2775 69.4628 13.3552 69.559C13.4663 69.6996 13.5773 69.8439 13.6994 69.9734C13.9658 70.2621 14.3877 70.6099 14.8725 70.6469C15.409 70.6839 15.9012 70.3287 16.0936 69.7514C16.2565 69.2666 16.175 68.7856 16.0973 68.323C16.0825 68.2231 16.0603 68.1269 16.0418 68.0307C16.0196 67.9196 15.9974 67.8086 15.9789 67.6976C16.0603 67.7346 16.1454 67.7864 16.238 67.8456C16.4341 67.9715 16.6561 68.1121 16.9448 68.1121H16.9485C17.6035 68.1121 18.0586 67.5126 18.2177 66.9205C18.3732 66.3432 18.2325 65.7326 18.2584 65.0998C18.277 64.6336 18.251 64.3079 18.1918 64.0748C19.4722 64.1969 21.3447 64.0341 23.9758 63.701C24.3199 63.6566 24.6419 63.6159 24.9305 63.5826C26.1184 63.442 27.754 62.676 29.645 61.7916C30.1964 61.5325 30.77 61.2624 31.3398 61.0107C31.3657 61.4807 31.4361 62.3725 31.4805 63.0164C31.5434 63.949 31.6285 64.9296 32.1207 65.7511C32.3945 66.21 32.809 66.5874 33.3714 66.5393C33.8599 66.4949 34.2744 66.1545 34.5852 65.7955C34.6222 65.7511 34.6518 65.703 34.6888 65.6586C34.785 65.9843 34.9775 66.2581 35.3105 66.4394C35.8212 66.717 36.4836 66.6393 36.9906 66.3876C37.0683 66.3469 37.1423 66.3025 37.2126 66.2544C37.2237 66.2729 37.2311 66.2914 37.2422 66.3099C37.6197 66.9464 38.3709 66.7096 38.8889 66.4135C39.407 66.1175 39.9547 65.7696 40.3618 65.3293C40.4247 65.2627 40.4728 65.1886 40.5283 65.1183C40.3099 68.0936 39.9584 73.0005 39.7734 75.9128C39.5217 79.8132 34.6259 85.0975 33.3529 86.1522ZM35.3697 59.7341C35.3808 59.7341 35.3919 59.7341 35.3993 59.7341C36.6094 59.7489 39.111 61.3882 40.9316 62.6131L40.7059 62.5946C40.7059 62.602 40.6985 62.6945 40.6874 62.8536C40.643 62.8462 40.5986 62.8425 40.5468 62.861C40.4025 62.9128 40.2211 63.0978 40.1693 63.2903C39.9325 64.1784 39.5032 64.6891 38.7409 65.1887C38.5855 65.2886 38.4338 65.3922 38.2747 65.481C38.2598 65.4884 38.2117 65.5069 38.1673 65.5254C38.1451 65.4033 38.1155 65.2701 38.1118 65.2331C38.1044 65.0776 38.1007 64.9222 38.0896 64.7668C38.0489 64.1636 37.1719 63.9897 36.998 64.6188C36.9018 64.9703 36.7426 65.3034 36.3837 65.4403C36.1727 65.518 35.8656 65.5735 35.7657 65.3441C35.5918 64.9444 35.7879 64.2709 35.8582 63.8639C35.947 63.3495 36.0321 62.8388 36.0025 62.3133C35.9692 61.6657 35.1366 61.5917 34.9109 62.1653C34.5593 63.0608 34.4816 64.0896 33.8895 64.8778C33.8007 64.9962 33.4529 65.4699 33.2789 65.4403C32.994 65.3959 32.8201 64.6151 32.7646 64.4041C32.5943 63.7676 32.5795 63.0978 32.5425 62.4243C32.5129 61.9063 32.4944 60.9737 32.4463 60.526C33.5861 60.0671 34.6296 59.7341 35.3697 59.7341ZM39.1998 46.8858C41.3646 48.2217 44.2547 50.1682 44.3509 51.6558C44.4508 53.1989 44.3879 60.019 44.1807 62.5354C43.6589 62.2171 42.9521 61.7435 42.3415 61.3327C39.9436 59.7156 37.9268 58.4167 36.3282 58.017C36.3097 56.8217 36.2616 54.7864 36.1468 54.1944C35.9285 53.0546 34.822 52.2146 33.501 51.3116L32.4574 52.84C33.0347 53.2359 34.2374 54.0574 34.3299 54.5422C34.4002 54.9123 34.452 56.5627 34.4742 57.9763C32.8349 58.2575 30.8181 59.2012 28.8531 60.1226C27.7392 60.6444 26.6032 61.1773 25.7113 61.4881C25.7002 60.8442 25.6928 59.9783 25.7076 59.0051C25.7224 58.054 25.889 57.1622 26.0666 56.2148C26.2553 55.1972 26.4514 54.1462 26.4699 52.9584C26.4884 51.715 26.5662 50.9083 26.6439 50.1275C26.6994 49.5724 26.7549 48.9951 26.7845 48.2957L24.9342 48.218C24.9046 48.8693 24.8565 49.3948 24.801 49.9498C24.7233 50.7677 24.6419 51.6114 24.6197 52.9288C24.6049 53.9612 24.4309 54.8901 24.2459 55.8744C24.0646 56.855 23.8759 57.8653 23.8574 58.9717C23.8389 60.1559 23.85 61.181 23.8648 61.8545C23.8204 61.8619 23.7796 61.8656 23.7352 61.8693C22.2698 62.0543 18.3991 62.5428 17.6701 62.0987C17.485 61.8841 17.3296 61.625 17.1705 61.3512C16.9485 60.9737 16.6709 60.5001 16.2417 60.1707C16.4304 58.8015 16.8226 55.8744 16.8485 54.9456C16.9374 54.916 17.0484 54.8864 17.1409 54.8605C17.5072 54.7605 18.0105 54.6199 18.5952 54.3276L17.7663 52.6734C17.3444 52.8844 16.9744 52.9843 16.6487 53.0768C16.0307 53.247 14.9983 53.532 14.9983 54.8568C14.9983 55.4451 14.68 57.943 14.4173 59.8562C13.6809 60.0375 12.8779 60.5186 12.0971 60.9848C11.9305 61.0848 11.7307 61.2069 11.5346 61.3179C11.3866 59.0495 11.6086 53.1286 12.16 51.8001C13.4885 48.5843 19.6647 42.2009 20.4492 41.7346C20.5972 41.6495 20.8007 41.7531 21.5297 42.286C21.9109 42.5636 22.3475 42.8818 22.8767 43.1742C22.9803 43.2297 23.0839 43.2815 23.1876 43.3296C21.774 44.7802 19.6832 46.9487 20.8673 48.4844C21.1745 48.8804 21.637 49.1024 22.1773 49.1098C22.1847 49.1098 22.1921 49.1098 22.1995 49.1098C23.7315 49.1098 25.7816 47.3484 26.3811 46.612C26.9362 45.9274 28.0575 44.3694 27.9428 43.0927C28.99 42.7301 30.4517 42.1639 31.6729 41.483C31.906 41.6606 32.1984 41.8827 32.5314 42.138C34.1856 43.3814 36.9462 45.4944 39.1998 46.8858ZM31.5101 37.5049C31.8949 37.69 32.1651 37.9194 32.2576 38.1451C32.2835 38.208 32.3612 38.4005 32.1762 38.8001C31.943 39.3071 30.1261 40.3321 27.6134 41.2314C29.6191 39.074 30.9254 37.8232 31.5101 37.5049ZM27.9502 32.2021C27.7984 32.4278 27.68 32.6942 27.6134 33.0125C27.3359 34.3817 27.4876 37.3754 27.5653 38.5892C27.0953 39.074 26.5736 39.6253 25.9889 40.2618C25.3635 39.5365 24.69 38.7816 24.183 38.245C24.2015 38.2117 24.2237 38.1747 24.2422 38.1414C24.6752 37.2755 24.1682 36.0025 22.9137 33.3011C22.7916 33.0347 22.6695 32.7757 22.5585 32.5277C23.0728 32.5425 23.5798 32.5536 24.0609 32.5536C25.7779 32.5536 27.2137 32.4463 27.9502 32.2021ZM5.43979 11.331C4.97353 11.1645 4.61827 10.7649 4.35184 10.1099C4.0817 9.45117 3.95588 8.65555 3.91517 7.86734C4.23342 8.24109 4.64048 8.54084 5.16595 8.70736C6.75348 9.20693 10.0174 8.56304 11.9157 8.10417C11.9046 8.62595 11.9342 9.19583 12.0304 9.83602C12.123 10.4688 12.2377 11.0128 12.3783 11.4791C10.7427 11.7159 7.41218 12.0341 5.43979 11.331ZM45.7978 8.05237C44.6285 9.47337 42.571 9.38086 40.3951 9.28464C39.0888 9.22544 37.7233 8.89609 36.8314 8.64075C36.8388 8.14118 36.7722 7.66011 36.6797 7.27525C36.6612 7.16054 36.6316 7.01622 36.5983 6.85339C36.9277 6.8904 37.294 6.9385 37.6419 6.98661C40.2322 7.33076 41.9974 7.50469 42.867 6.82749C43.1668 6.59435 43.3518 6.26871 43.3962 5.90605C43.4665 5.31397 43.3666 4.46285 43.1964 3.35268C45.0355 5.42869 46.1605 7.612 45.7978 8.05237Z" fill="black" stroke="black" stroke-width="0.25"/>
<path d="M21.0339 7.27155C20.0606 7.31966 19.2872 8.13748 18.9023 9.51038L20.686 10.0062C20.8377 9.46227 21.0672 9.15512 21.1264 9.11812C21.4742 9.09962 22.0885 9.36606 22.2698 9.82122L23.9869 9.13292C23.4762 7.85624 22.0774 7.21974 21.0339 7.27155Z" fill="black" stroke="black" stroke-width="0.25"/>
<path d="M27.3433 8.66295C27.7503 8.61114 28.2684 8.91088 28.3831 9.26614L30.1409 8.68515C29.7486 7.50098 28.3905 6.66466 27.1138 6.82378C25.8224 6.9866 24.8084 8.18188 24.8084 9.54738H26.6587C26.6587 9.11441 26.9732 8.70735 27.3433 8.66295Z" fill="black" stroke="black" stroke-width="0.25"/>
<path d="M22.1847 10.9943C22.1625 10.9869 22.1403 10.9795 22.1144 10.9758C22.0441 10.961 21.9701 10.9499 21.8961 10.9499C21.737 10.9536 21.6223 10.9906 21.4816 11.0535C21.3817 11.0979 21.2966 11.1682 21.2152 11.2348C21.1301 11.3088 21.0598 11.4013 20.9969 11.4939C20.9784 11.5198 20.9636 11.5494 20.9488 11.579C20.9192 11.6456 20.8858 11.7122 20.8673 11.7825C20.8451 11.8787 20.8303 11.9823 20.8377 12.0822C20.8599 12.2858 20.9192 12.4819 21.045 12.6484C21.1079 12.7335 21.1708 12.8187 21.2485 12.889C21.3262 12.963 21.4113 13.0259 21.4927 13.0888C21.5964 13.1665 21.7074 13.2331 21.8221 13.2886C21.9109 13.333 22.0034 13.37 22.0959 13.407C22.2217 13.4551 22.4105 13.4181 22.5252 13.3515C22.5548 13.333 22.5844 13.3145 22.6103 13.2886C22.6436 13.2738 22.6769 13.259 22.7102 13.2442C22.7842 13.2072 22.8508 13.1554 22.91 13.0962C22.9915 13.0111 23.0396 12.9334 23.084 12.8298C23.2394 12.4634 23.1173 12.0711 22.9544 11.7307C22.8841 11.579 22.7842 11.4421 22.6769 11.3199C22.5437 11.1682 22.3735 11.0646 22.1847 10.9943Z" fill="black" stroke="black" stroke-width="0.25"/>
<path d="M27.3581 12.9223C27.5468 12.9778 27.7541 13.0037 27.9465 12.9889C28.0575 12.9815 28.1685 12.9667 28.2758 12.9334C28.4128 12.889 28.5349 12.8038 28.6089 12.678C28.6607 12.5892 28.6903 12.4708 28.6829 12.3635C28.6903 12.3524 28.6977 12.3413 28.7051 12.3302C28.7865 12.1748 28.8235 12.0378 28.842 11.8639C28.8642 11.6012 28.7495 11.3569 28.5867 11.1608C28.5201 11.0794 28.4313 11.0128 28.3424 10.9536C28.2536 10.8907 28.1463 10.85 28.0427 10.813C27.8244 10.7353 27.5912 10.739 27.3655 10.7723C27.2508 10.7908 27.1472 10.8352 27.0436 10.887C26.9436 10.9351 26.8511 11.0054 26.7734 11.0831C26.5662 11.2866 26.4441 11.5679 26.4293 11.8565C26.4182 12.123 26.544 12.3968 26.7364 12.5781C26.914 12.7446 27.1287 12.8557 27.3581 12.9223Z" fill="black" stroke="black" stroke-width="0.25"/>
<path d="M16.708 22.3142C16.8042 22.0404 16.6006 21.6962 16.3194 21.6296C16.0123 21.5593 15.7384 21.7221 15.6348 22.0182C15.5127 22.3697 15.6015 22.725 15.6163 23.0839C15.6274 23.4503 15.5312 23.8129 15.546 24.1793C15.5571 24.4679 15.7939 24.7492 16.1011 24.7344C16.3934 24.7196 16.6672 24.4901 16.6561 24.1793C16.6413 23.8204 16.7339 23.4725 16.7265 23.1135C16.7228 22.9581 16.7006 22.8064 16.6895 22.651C16.6821 22.5733 16.6784 22.4956 16.6821 22.4215C16.6821 22.4178 16.6821 22.4104 16.6821 22.4067C16.6932 22.3808 16.6969 22.3438 16.708 22.3142Z" fill="black" stroke="black" stroke-width="0.25"/>
<path d="M18.0771 23.3097C18.0845 23.4059 18.0845 23.4984 18.0808 23.5946C18.0734 23.8833 18.3398 24.1645 18.6359 24.1497C18.943 24.1349 19.1836 23.9055 19.191 23.5946C19.2132 22.7472 18.9097 21.9405 18.7543 21.119C18.7025 20.834 18.3398 20.6453 18.0697 20.7304C17.7626 20.8303 17.6256 21.1079 17.6811 21.415C17.7515 21.7962 17.8588 22.1736 17.9439 22.5511C17.9661 22.6473 17.9883 22.7435 18.0068 22.8397C18.0253 22.9322 18.0549 23.0358 18.0586 23.1284C18.0586 23.1358 18.0586 23.1432 18.0586 23.1469C18.0697 23.1987 18.0734 23.2542 18.0771 23.3097Z" fill="black" stroke="black" stroke-width="0.25"/>
<path d="M18.0549 29.1158C19.3316 30.0891 22.2846 27.6837 23.4022 27.8391C24.5235 27.9946 25.5633 28.7236 26.7364 28.8568C27.9094 28.9863 31.1474 28.5977 31.3028 27.1508C31.4583 25.7039 30.226 26.3293 28.7421 26.1221C27.3544 25.9259 27.0768 24.22 24.3902 24.2459C21.7074 24.2718 19.9607 25.1562 19.3908 25.6521C18.8172 26.148 16.7782 28.1426 18.0549 29.1158Z" fill="black" stroke="black" stroke-width="0.25"/>
<path d="M22.9359 53.2951C22.9322 53.2729 22.9285 53.2507 22.9211 53.2322C22.9026 53.1767 22.8767 53.1249 22.8545 53.0731C22.8508 53.0657 22.8471 53.0546 22.8397 53.0472C22.836 53.0435 22.8323 53.0361 22.8286 53.0324C22.799 52.9917 22.7657 52.951 22.7361 52.9103C22.7287 52.9029 22.725 52.8955 22.7176 52.8881C22.6991 52.8695 22.6732 52.851 22.651 52.8362C22.6325 52.8214 22.6066 52.7992 22.5844 52.7881C22.5807 52.7844 22.577 52.7844 22.5733 52.7807C22.5289 52.7585 22.4771 52.7363 22.4327 52.7215C22.3846 52.7141 22.3328 52.7067 22.2846 52.703C22.2735 52.703 22.2587 52.7067 22.2476 52.7067C22.2291 52.6956 22.2106 52.6845 22.1884 52.6771C22.1218 52.6438 22.0515 52.6253 21.9738 52.629C21.9257 52.6364 21.8739 52.6438 21.8258 52.6475C21.7333 52.6734 21.6519 52.7215 21.5815 52.7918C21.5519 52.8288 21.5223 52.8659 21.4964 52.9029C21.4446 52.988 21.4224 53.0842 21.4224 53.1841C21.4224 53.1915 21.4224 53.1952 21.4224 53.2026C21.4261 53.2581 21.4335 53.3136 21.4446 53.3691C21.4483 53.3876 21.452 53.4024 21.4557 53.4209C21.4631 53.4431 21.4668 53.4616 21.4779 53.4838C21.5038 53.5467 21.5297 53.6134 21.5593 53.6763C21.5778 53.7207 21.6038 53.7614 21.6297 53.8021C21.6667 53.8576 21.7111 53.9131 21.7555 53.9649C21.7703 53.9797 21.7814 53.9945 21.7999 54.0093C21.8406 54.0426 21.885 54.0796 21.9294 54.1092C21.9368 54.1129 21.9442 54.1203 21.9516 54.124C21.9553 54.124 21.959 54.1277 21.9627 54.1277C22.0071 54.1499 22.0589 54.1721 22.1033 54.1869C22.1107 54.1906 22.1181 54.1906 22.1255 54.1906C22.144 54.1943 22.2587 54.2091 22.2735 54.2091C22.2772 54.2091 22.2772 54.2091 22.2809 54.2091C22.2846 54.2091 22.2883 54.2091 22.2921 54.2091C22.2958 54.2091 22.2957 54.2091 22.2995 54.2091C22.3328 54.2054 22.4179 54.1943 22.4475 54.1906C22.4512 54.1906 22.4586 54.1906 22.4623 54.1869C22.466 54.1869 22.4697 54.1832 22.4771 54.1832C22.5215 54.1684 22.577 54.1462 22.6177 54.124C22.6214 54.124 22.6251 54.1203 22.6288 54.1166C22.6695 54.0907 22.7139 54.0537 22.7509 54.0241C22.7583 54.0204 22.762 54.013 22.7657 54.0093C22.7953 53.976 22.8323 53.9279 22.8582 53.8909C22.8619 53.8872 22.8619 53.8835 22.8656 53.8798C22.8804 53.8539 22.8915 53.8206 22.9026 53.7947C22.9137 53.7651 22.9322 53.7355 22.9396 53.7022C22.9433 53.6948 22.9433 53.6837 22.9433 53.6763C22.9507 53.6208 22.9618 53.5615 22.9655 53.506C22.9655 53.4949 22.9655 53.4875 22.9655 53.4764C22.9544 53.4098 22.947 53.3506 22.9359 53.2951Z" fill="black" stroke="black" stroke-width="0.25"/>
<path d="M22.4142 57.1659C22.3994 57.1252 22.3735 57.0475 22.3401 56.9994C22.3364 56.9957 22.3364 56.9919 22.3327 56.9919C22.3031 56.9549 22.2735 56.9105 22.2402 56.8735C22.2365 56.8661 22.2291 56.8624 22.2254 56.8587C22.181 56.8143 22.1292 56.7773 22.0774 56.744C21.9923 56.6922 21.8961 56.67 21.7962 56.67C21.6963 56.67 21.6037 56.6959 21.5149 56.744C21.4705 56.7736 21.4298 56.8069 21.3891 56.8402C21.3854 56.8439 21.378 56.8476 21.3743 56.8513C21.3669 56.8587 21.3558 56.8661 21.3484 56.8772C21.3447 56.8809 21.341 56.8846 21.3373 56.8883C21.3225 56.8994 21.3077 56.9105 21.2929 56.9216C21.2226 56.992 21.1782 57.0734 21.1486 57.1659C21.1227 57.2325 21.119 57.3102 21.1116 57.3805C21.1116 57.3916 21.1079 57.399 21.1116 57.4101C21.1116 57.4138 21.1116 57.4212 21.1116 57.4249C21.1153 57.4693 21.1227 57.5322 21.1301 57.5766C21.1301 57.5803 21.1301 57.584 21.1338 57.5877C21.1338 57.5914 21.1375 57.5951 21.1375 57.5988C21.1486 57.6321 21.1782 57.6988 21.193 57.7358C21.193 57.7395 21.1967 57.7395 21.1967 57.7432C21.2189 57.7913 21.2781 57.8542 21.2966 57.8764C21.304 57.8838 21.3114 57.8912 21.3188 57.8986C21.3521 57.9282 21.3965 57.9615 21.4335 57.9874C21.4372 57.9911 21.4372 57.9911 21.4409 57.9948C21.4483 57.9985 21.452 58.0022 21.4594 58.0059C21.4668 58.0096 21.4705 58.0133 21.4779 58.0133C21.526 58.0355 21.5741 58.054 21.6222 58.0762C21.6296 58.0799 21.6333 58.0799 21.6407 58.0836C21.6889 58.091 21.7407 58.0984 21.7888 58.1021C21.8665 58.1058 21.9368 58.0873 22.0034 58.054C22.0737 58.0318 22.1329 57.9948 22.181 57.9393L22.1847 57.9356C22.1958 57.9245 22.2069 57.9134 22.218 57.9023C22.2587 57.8579 22.2957 57.8098 22.329 57.7617C22.3475 57.7321 22.3586 57.695 22.3735 57.6654C22.3883 57.6358 22.4068 57.5988 22.4142 57.5618C22.4253 57.51 22.429 57.4545 22.4364 57.4027C22.4364 57.3953 22.4364 57.3916 22.4364 57.3842C22.4401 57.3287 22.4216 57.2436 22.4142 57.2066C22.4216 57.1918 22.4179 57.1807 22.4142 57.1659Z" fill="black" stroke="black" stroke-width="0.25"/>
</g>
<defs>
<clipPath id="clip0">
<rect width="47.7073" height="97.35" fill="white"/>
</clipPath>
</defs>
</svg>
