<svg width="33" height="65" viewBox="0 0 33 65" fill="none" xmlns="http://www.w3.org/2000/svg">
<path d="M32.2735 41.338L32.172 40.8204L31.6442 40.828C30.8475 40.8381 29.7183 40.8635 28.3734 40.899L28.1628 37.0675C28.4216 37.0142 28.6779 36.9507 28.9291 36.867C29.1245 36.801 29.2514 36.6056 29.1956 36.3976C29.1423 36.2073 28.9241 36.0652 28.7261 36.1311C28.5282 36.1971 28.3252 36.2504 28.1197 36.2961L27.9167 32.566C28.0182 32.604 28.1349 32.604 28.2339 32.5406C28.4013 32.4315 28.4851 32.2006 28.3709 32.0204C28.2339 31.8047 28.0562 31.6347 27.8583 31.4875L27.5919 26.6232C27.838 26.5166 28.0791 26.3948 28.3049 26.2553C28.4749 26.1512 28.5561 25.9102 28.4419 25.7351C28.3328 25.5651 28.1019 25.4864 27.9218 25.5981C27.8 25.6742 27.6756 25.7402 27.5462 25.8036L27.2544 20.4673C27.2823 20.4546 27.3102 20.4419 27.3381 20.4292C27.3483 20.4241 27.3508 20.4241 27.3483 20.4241C27.3534 20.4216 27.3559 20.4216 27.3661 20.4165C27.399 20.4038 27.4346 20.3886 27.4676 20.3759C27.5843 20.3303 27.701 20.2922 27.8203 20.2567C27.9319 20.2237 28.0436 20.1983 28.1552 20.178C28.1603 20.178 28.1831 20.1729 28.1983 20.1704C28.2136 20.1679 28.2288 20.1679 28.2339 20.1679C28.2897 20.1628 28.343 20.1602 28.3988 20.1602C28.6043 20.1602 28.7794 19.9852 28.7794 19.7796C28.7794 19.5716 28.6043 19.399 28.3988 19.399C27.9928 19.3965 27.5893 19.5081 27.2113 19.6604L26.9601 15.0751C27.0692 15.0625 27.1707 15.0092 27.229 14.8975C27.3178 14.7301 27.2849 14.4662 27.092 14.3773C27.0336 14.352 26.9753 14.3266 26.9195 14.3038L26.8484 13.0147C28.0385 12.7305 28.8936 12.5123 28.9875 12.4869L29.4214 12.3753L29.462 11.9312C29.4848 11.6851 29.9873 5.86665 26.8484 2.42329C25.3792 0.817068 23.3695 0 20.8726 0C18.5356 0 16.5665 0.791693 15.0162 2.35224C11.319 6.07726 11.3292 12.8625 11.3317 13.1492L11.3368 13.6618L11.8392 13.7658C11.928 13.7836 12.8872 13.9764 14.1813 14.1642C14.2727 14.9432 14.3488 15.7146 14.4072 16.4631C14.2397 16.4099 14.0646 16.3769 13.887 16.3515C13.8185 16.3413 13.75 16.3337 13.684 16.3236C13.6637 16.321 13.6434 16.3185 13.6256 16.316C13.6205 16.316 13.6155 16.3134 13.6104 16.3134C13.519 16.3007 13.4252 16.2855 13.3363 16.2678C13.2425 16.2475 13.1511 16.2246 13.0598 16.1916C13.0572 16.1916 13.0445 16.1866 13.0344 16.1815C13.0395 16.184 13.0344 16.1815 13.0217 16.1764C13.0141 16.1739 13.0065 16.1713 13.0065 16.1713C13.0065 16.1713 13.0115 16.1713 13.0141 16.1713C13.0115 16.1713 13.0115 16.1713 13.009 16.1688C12.9633 16.146 12.9177 16.1206 12.8745 16.0927C12.707 15.9836 12.4482 16.0521 12.3543 16.2297C12.2554 16.4175 12.3112 16.6357 12.4914 16.7499C12.8441 16.9783 13.2653 17.0265 13.6713 17.0798C13.6891 17.0823 13.7068 17.0823 13.7246 17.0874C13.7271 17.0874 13.7297 17.0874 13.7297 17.0874C13.7728 17.0924 13.8159 17.1001 13.8591 17.1077C13.9479 17.1229 14.0392 17.1407 14.1255 17.1635C14.1712 17.1762 14.2143 17.1889 14.26 17.2041C14.2676 17.2066 14.2828 17.2142 14.298 17.2193C14.2854 17.2142 14.2803 17.2066 14.3082 17.2219C14.3133 17.2244 14.3209 17.2269 14.3234 17.2269C14.3209 17.2269 14.3158 17.2269 14.3133 17.2244C14.3513 17.2447 14.3919 17.265 14.4275 17.2878C14.4325 17.2904 14.4401 17.2954 14.4452 17.298C14.4478 17.3005 14.4452 17.298 14.4478 17.3005C14.4554 17.3056 14.4604 17.3107 14.4681 17.3183C14.7015 20.9063 14.5569 23.7863 14.0443 24.1644C13.7347 24.243 13.448 24.3116 13.1739 24.3725C13.1739 24.3623 13.1739 24.3496 13.1739 24.3395C13.1765 24.2913 13.179 24.2456 13.1816 24.1974C13.1841 24.1695 13.1892 24.1416 13.1892 24.1136C13.1968 24.0781 13.2019 24.0401 13.212 24.0045C13.2196 23.9715 13.2678 23.865 13.2196 23.9665C13.3084 23.7812 13.2704 23.5554 13.0826 23.4463C12.9177 23.3499 12.6512 23.3955 12.5624 23.5833C12.4229 23.8777 12.4076 24.2101 12.4051 24.5374C9.49968 25.1109 9.14697 24.6161 9.14443 24.611C9.08353 24.3851 9.04801 23.7356 9.00994 23.0479C8.95158 21.9923 8.88053 20.6677 8.66231 19.4218C8.97949 19.2696 9.27892 19.0844 9.5149 18.8306C9.65446 18.6784 9.66461 18.4424 9.5149 18.2927C9.3728 18.1506 9.11652 18.1404 8.97696 18.2927C8.93636 18.3358 8.89576 18.3764 8.85008 18.417C8.84755 18.4195 8.83232 18.4322 8.81963 18.4424C8.80441 18.4525 8.77396 18.4779 8.76635 18.4804C8.68261 18.5413 8.59126 18.5921 8.49991 18.6428C8.09138 16.9453 7.33267 15.5598 5.84064 15.4989C5.1073 15.4685 4.4298 15.7476 3.8208 16.3287C2.99105 17.1254 2.37444 18.4652 1.94561 19.8684C1.87456 19.8329 1.80351 19.7949 1.73246 19.7593C1.50916 19.6553 1.27825 19.5487 1.02704 19.536C0.821507 19.5259 0.646421 19.7187 0.646421 19.9167C0.646421 20.1247 0.808819 20.2744 1.00421 20.2947C1.01436 20.2973 1.02704 20.2998 1.03719 20.3023C1.07779 20.3125 1.11839 20.3252 1.15645 20.3379C1.18944 20.348 1.33408 20.414 1.22497 20.3632C1.27572 20.3886 1.329 20.4089 1.37975 20.4343C1.49901 20.4927 1.61827 20.5536 1.735 20.617C1.35438 22.0963 1.17675 23.5554 1.17675 24.4435C1.17675 24.5501 1.17675 24.6592 1.17422 24.7759C1.16914 25.3672 1.16407 26.136 1.27825 26.9455C0.910319 27.1231 0.519547 27.2829 0.189675 27.5215C0.0272767 27.6357 -0.0640725 27.859 0.0526514 28.0417C0.156688 28.2015 0.400286 28.303 0.572834 28.1787C0.752995 28.0493 0.958531 27.9528 1.15645 27.8564C1.24527 27.8133 1.33661 27.7676 1.42543 27.7245C1.82889 29.3738 2.86418 31.0232 5.50569 31.6068C5.50569 31.6322 5.50569 31.655 5.50315 31.6804C5.49808 31.7794 5.48793 31.8783 5.47778 31.9773C5.47778 31.9849 5.47778 31.9874 5.47524 31.9925C5.4727 32.0052 5.47016 32.0204 5.47016 32.0331C5.46255 32.0839 5.4524 32.1321 5.44225 32.1803C5.40165 32.3757 5.49808 32.6015 5.70869 32.6497C5.899 32.6928 6.13498 32.5913 6.17812 32.3833C6.22126 32.1676 6.24663 31.9519 6.26186 31.7362C6.50292 31.7667 6.74905 31.7946 7.01295 31.8098C8.05839 31.8707 8.95158 31.8707 9.7179 31.8377C9.7179 31.9621 9.7179 32.0864 9.7179 32.2133C9.7179 32.703 10.4791 32.703 10.4791 32.2133C10.4791 32.0737 10.4791 31.9341 10.4791 31.7946C11.5144 31.7159 12.2605 31.5814 12.7679 31.4875C12.8644 31.4698 12.9659 31.452 13.0598 31.4368C13.0344 32.3198 13.0395 34.4843 13.0521 36.6259C12.3746 36.8239 11.5956 36.9863 11.0425 37.4455C10.8851 37.5775 10.9054 37.849 11.0425 37.9835C11.1998 38.1408 11.4231 38.1154 11.5804 37.9835C11.5855 37.9784 11.588 37.9784 11.5906 37.9759C11.5956 37.9733 11.6007 37.9683 11.6109 37.9632C11.6438 37.9429 11.6768 37.9226 11.7098 37.9023C11.7758 37.8642 11.8418 37.8338 11.9103 37.8008C11.9255 37.7932 11.9433 37.7856 11.9585 37.7805C11.9636 37.778 11.9712 37.7754 11.9813 37.7703C12.0169 37.7577 12.0498 37.7424 12.0854 37.7297C12.1716 37.6968 12.2554 37.6663 12.3417 37.6384C12.5776 37.5597 12.8187 37.4861 13.0572 37.4176C13.0699 39.0416 13.0851 40.5514 13.0927 41.3685C9.40833 41.4877 6.42426 41.5816 5.88124 41.5816C5.00073 41.5816 4.60996 42.7971 4.60996 45.5223C4.60996 47.0803 4.80535 52.5537 7.31237 57.5449C9.76357 62.4219 13.618 65 18.457 65C22.5474 65 25.8461 63.5105 28.2618 60.5746C32.9739 54.8526 32.9891 44.9692 32.2735 41.338ZM15.9195 3.24289C16.2544 2.90541 16.6173 2.61106 17.0005 2.35985C16.8837 3.7783 16.6655 6.70148 16.6985 8.19859C16.7213 9.19582 16.7746 9.42419 17.848 9.42419C18.9188 9.42419 18.6828 9.13745 18.9163 7.9829C19.1116 7.01866 19.1852 2.80899 19.203 1.44382C19.7308 1.3271 20.2865 1.26874 20.8726 1.26874C21.2177 1.26874 21.5476 1.28904 21.8699 1.32456C21.5705 1.92341 21.1162 3.00691 21.0756 4.13609C21.0122 5.83366 20.7432 7.40436 20.8219 8.27979C20.9006 9.15522 20.8523 9.47747 21.7379 9.56629C22.621 9.6551 22.9991 9.26179 23.0625 8.15545C23.1259 7.04911 23.0625 5.44035 23.2198 4.5294C23.3543 3.75039 24.0267 2.38015 24.2196 1.99699C24.8565 2.31925 25.4198 2.74555 25.907 3.27842C28.206 5.79813 28.2669 10.0103 28.2212 11.3755C27.7213 11.4998 26.8509 11.7155 25.8258 11.9566C24.9174 12.1672 21.3548 12.9792 19.6369 13.1822C19.6293 13.1822 19.6217 13.1847 19.6141 13.1847C18.2362 13.3421 16.3407 13.172 14.7979 12.9665L14.024 12.8498V12.8574C13.4505 12.7711 12.9608 12.6874 12.6182 12.6239C12.6893 11.0101 13.146 6.03412 15.9195 3.24289ZM14.4503 17.3056C14.4579 17.3107 14.4655 17.3157 14.4706 17.3208C14.4604 17.3132 14.4554 17.3107 14.4503 17.3056ZM14.3336 37.0015C14.4452 36.9558 14.5543 36.9076 14.6584 36.8543C14.9527 36.7046 15.2217 36.494 15.3333 36.1717C15.4932 35.7074 14.7573 35.5069 14.6 35.9687C14.5924 35.9916 14.5949 35.984 14.5975 35.9713C14.5975 35.9713 14.5975 35.9713 14.5975 35.9687C14.6051 35.9459 14.6152 35.9104 14.5924 35.9713C14.5924 35.9713 14.5924 35.9713 14.5924 35.9738C14.5645 35.9966 14.496 36.0601 14.4985 36.0601C14.4427 36.0981 14.3869 36.1337 14.326 36.1667C14.3133 33.789 14.3107 31.6728 14.3463 31.2236C14.3564 31.0815 14.3894 30.6476 14.0621 30.3508C13.8743 30.1807 13.6688 30.1224 13.4099 30.1224C13.1714 30.1224 12.8923 30.1731 12.5472 30.2366C12.0828 30.3203 11.4129 30.4421 10.4842 30.5182C10.4842 30.1528 10.4842 29.79 10.4842 29.4246C10.4842 28.9348 9.72297 28.9348 9.72297 29.4246C9.72297 29.8052 9.72297 30.1858 9.72297 30.5664C8.98203 30.5994 8.11421 30.602 7.09161 30.5411C6.80234 30.5233 6.52829 30.4954 6.27454 30.4573C6.27201 30.3279 6.26947 30.1985 6.26947 30.0666C6.26947 29.8686 6.09438 29.6758 5.88885 29.6859C5.68331 29.6961 5.50823 29.8534 5.50823 30.0666C5.50823 30.1427 5.51076 30.2188 5.5133 30.2949C3.54676 29.7519 2.83626 28.4476 2.58505 27.0774C2.79566 26.9074 2.9606 26.6968 2.98597 26.4227C3.00374 26.2248 2.7982 26.0345 2.60535 26.0421C2.55714 26.0447 2.51147 26.0573 2.47087 26.0726C2.44549 25.6234 2.44803 25.187 2.45057 24.7886C2.45057 24.6693 2.4531 24.5552 2.4531 24.446C2.4531 23.6848 2.59774 22.4998 2.88194 21.2869C3.0621 21.3935 3.2448 21.4975 3.43257 21.5939C3.66094 21.7106 3.94007 21.8324 4.15829 21.6193C4.42219 21.363 4.1862 20.9951 3.902 20.9722C3.88932 20.9672 3.87917 20.9646 3.87409 20.9621C3.86394 20.957 3.85379 20.9519 3.84872 20.9494C3.80812 20.9291 3.77005 20.9088 3.72946 20.8885C3.52392 20.7794 3.326 20.6601 3.12554 20.5409C3.11031 20.5307 3.09509 20.5231 3.07986 20.513C3.45795 19.1833 4.00097 17.9197 4.70385 17.2447C5.05656 16.9072 5.41434 16.7499 5.79242 16.7651C6.58919 16.7981 7.04847 17.8511 7.32252 19.1529C6.98504 19.2772 6.64502 19.4066 6.34052 19.5893C6.16543 19.6959 6.09946 19.9319 6.2035 20.1095C6.30753 20.2846 6.54859 20.3531 6.72368 20.2465C6.81249 20.1932 6.90638 20.145 7.00026 20.1019C7.02817 20.0892 7.05609 20.0765 7.084 20.0638C7.09161 20.0613 7.09922 20.0562 7.10684 20.0537C7.1652 20.0308 7.22356 20.0055 7.28192 19.9826C7.34028 19.9598 7.39865 19.937 7.45701 19.9141C7.63209 21.0585 7.69807 22.274 7.74374 23.1139C7.78942 23.969 7.8224 24.5856 7.91883 24.9383C8.21571 26.0447 9.60118 26.339 12.334 25.8391C12.3214 26.032 12.3112 26.2248 12.296 26.4151C12.2782 26.6207 12.4837 26.7957 12.6766 26.7957C12.8974 26.7957 13.0395 26.6207 13.0572 26.4151C13.0775 26.1715 13.0877 25.9279 13.108 25.6843C13.5064 25.5981 13.925 25.5016 14.3716 25.3875C15.1963 25.1768 16.0134 24.2532 15.818 18.9803C15.7495 17.1533 15.5769 15.3365 15.4704 14.3241C16.3483 14.4256 17.7922 14.5499 19.0812 14.4865C19.1852 14.4814 19.2918 14.4738 19.3933 14.4662C19.406 14.4662 19.4187 14.4636 19.4314 14.4636C19.5354 14.456 19.6369 14.4459 19.7359 14.4332C19.7409 14.4332 19.7435 14.4332 19.7485 14.4332C21.2431 14.2632 23.6182 13.7582 25.5873 13.304L25.6228 13.9637C25.3564 13.946 25.095 13.9739 24.8438 14.0855C24.6611 14.1667 24.6027 14.4459 24.7068 14.6057C24.8286 14.7935 25.0341 14.8315 25.227 14.7427C25.1128 14.7935 25.2168 14.7478 25.2498 14.7402C25.2777 14.7326 25.3107 14.7301 25.3411 14.7224C25.3538 14.7224 25.3665 14.7199 25.3792 14.7199C25.4198 14.7174 25.4579 14.7174 25.4985 14.7174C25.5365 14.7174 25.5721 14.7199 25.6101 14.7224C25.6304 14.725 25.6482 14.725 25.6659 14.7275L25.973 20.3201C25.8182 20.4394 25.6736 20.5713 25.5543 20.721C25.5543 20.721 25.5518 20.7236 25.5518 20.7261C25.5238 20.7591 25.501 20.7946 25.4858 20.8352C25.4249 20.9722 25.4325 21.127 25.5441 21.2463C25.5467 21.2488 25.5492 21.2514 25.5518 21.2539C25.5543 21.2564 25.5543 21.2564 25.5568 21.259C25.5594 21.2615 25.5619 21.2641 25.5644 21.2641C25.6253 21.3275 25.7116 21.3681 25.8258 21.3681C25.836 21.3681 25.8436 21.3656 25.8512 21.3656C25.9146 21.363 25.9755 21.3478 26.0288 21.3148L26.3003 26.2654C26.1328 26.3162 25.9654 26.3644 25.7954 26.4101C25.6025 26.4608 25.4655 26.6841 25.5289 26.8795C25.5924 27.0774 25.7903 27.1992 25.9984 27.1459C26.1125 27.1155 26.2267 27.0825 26.3434 27.052L26.5338 30.5512C26.5261 30.5411 26.516 30.5284 26.5109 30.5182C26.4145 30.3431 26.1582 30.2721 25.9907 30.3812C25.8131 30.4954 25.7522 30.7136 25.8537 30.9014C26.0212 31.211 26.2978 31.4266 26.5921 31.6068L26.8611 36.5371C26.549 36.598 26.2394 36.6691 25.9375 36.7706C25.7421 36.8365 25.6152 37.0319 25.671 37.24C25.7243 37.4303 25.9425 37.5724 26.1405 37.5064C26.3917 37.4227 26.6454 37.3593 26.9042 37.306L27.1022 40.932C23.4761 41.0335 18.7386 41.1858 14.6558 41.3177C14.5594 41.3203 14.4655 41.3228 14.3716 41.3279C14.3589 40.0744 14.3437 38.5189 14.3336 37.0015ZM14.5899 35.9814C14.567 36.0068 14.5746 36.0169 14.5899 35.9814V35.9814ZM25.3285 14.7301C25.3082 14.7326 25.2904 14.7326 25.3234 14.7301C25.3259 14.7301 25.3285 14.7301 25.3285 14.7301ZM6.15528 42.8478C7.15505 42.8301 10.1366 42.7336 13.8844 42.6144L27.8 42.1855C29.1118 42.15 30.2537 42.1221 31.119 42.1069C31.4463 44.2511 31.525 47.9837 30.7688 51.7493L28.074 49.4326L24.5063 54.3299L20.3804 49.3514L16.4727 54.3274L12.8238 49.5823L10.0351 54.3527L6.45217 50.9652C5.68077 47.0829 5.84825 43.6827 6.15528 42.8478ZM27.2925 59.7652C25.1305 62.3965 22.1617 63.7287 18.4671 63.7287C14.1864 63.7287 10.875 61.5617 8.62171 57.2911C7.93152 55.9843 7.40626 54.604 7.00534 53.2337L10.3244 56.37L12.9659 51.8508L16.46 56.3954L20.4083 51.3712L24.5723 56.3954L28.2922 51.29L30.4491 53.1449C29.8249 55.5555 28.8251 57.9001 27.2925 59.7652Z" fill="black"/>
<path d="M8.90845 51.6554C8.92621 51.7036 8.94651 51.7518 8.97188 51.7975C8.99726 51.8406 9.03278 51.8838 9.06323 51.9218C9.10891 51.9777 9.16981 52.0233 9.22817 52.0614C9.2916 52.1045 9.36519 52.1325 9.43624 52.1553C9.48699 52.1705 9.53774 52.1731 9.58849 52.1629C9.63924 52.1604 9.68745 52.1451 9.73059 52.1172C9.77372 52.0944 9.81179 52.0614 9.83716 52.0183C9.87015 51.9827 9.89299 51.9396 9.90567 51.8889C9.91075 51.8559 9.91582 51.8203 9.91836 51.7874C9.91836 51.7188 9.9006 51.6554 9.86761 51.5945C9.84731 51.5691 9.82701 51.5438 9.80925 51.5184C9.77372 51.4829 9.73059 51.4575 9.68237 51.4372C9.66715 51.4296 9.65193 51.4194 9.6367 51.4118C9.63416 51.4042 9.63163 51.3966 9.63163 51.389C9.62909 51.3535 9.61894 51.3179 9.60371 51.2849C9.58849 51.2367 9.56311 51.1961 9.52505 51.1631C9.48953 51.1251 9.44893 51.0997 9.40325 51.0845C9.35758 51.0616 9.30937 51.049 9.25608 51.0515C9.22309 51.0566 9.18757 51.0616 9.15458 51.0642C9.09114 51.0819 9.03532 51.1149 8.98711 51.1631C8.96681 51.1885 8.94651 51.2139 8.92875 51.2393C8.89322 51.2976 8.878 51.3636 8.878 51.4321C8.88053 51.4879 8.88815 51.5438 8.90083 51.597C8.89576 51.6173 8.90083 51.6376 8.90845 51.6554Z" fill="black"/>
<path d="M13.1638 53.8072C13.1384 53.7869 13.113 53.7666 13.0877 53.7488C13.0293 53.7133 12.9633 53.6981 12.8948 53.6981C12.8872 53.6981 12.8796 53.6981 12.872 53.6981C12.8314 53.7031 12.7908 53.7057 12.7502 53.7158C12.7426 53.7184 12.7375 53.7184 12.7299 53.7209C12.7121 53.7285 12.6918 53.7361 12.6766 53.7438C12.6588 53.7514 12.6385 53.759 12.6233 53.7666C12.6182 53.7691 12.6106 53.7742 12.6055 53.7767C12.5726 53.7996 12.5421 53.8224 12.5142 53.8478C12.5091 53.8529 12.5041 53.8579 12.499 53.863C12.4711 53.8909 12.4482 53.9264 12.4254 53.9569C12.3975 54 12.3823 54.0482 12.3797 54.099C12.3696 54.1497 12.3696 54.2005 12.3873 54.2512C12.4 54.302 12.4228 54.3451 12.4558 54.3807C12.4837 54.4213 12.5193 54.4542 12.5624 54.4796C12.5929 54.4923 12.6233 54.505 12.6538 54.5177C12.7223 54.5354 12.7882 54.5354 12.8568 54.5177C12.8872 54.505 12.9177 54.4923 12.9481 54.4796C12.9633 54.472 12.976 54.4593 12.9887 54.4492C13.009 54.4441 13.0268 54.439 13.0445 54.4289C13.0927 54.4136 13.1333 54.3883 13.1663 54.3502C13.2044 54.3147 13.2298 54.2741 13.245 54.2284C13.2678 54.1827 13.2805 54.1345 13.278 54.0812C13.2729 54.0482 13.2678 54.0127 13.2653 53.9797C13.2425 53.9087 13.2095 53.8529 13.1638 53.8072Z" fill="black"/>
<path d="M16.2621 51.5361C16.3077 51.5945 16.3585 51.6503 16.4118 51.7011C16.4473 51.7391 16.4879 51.7645 16.5336 51.7797C16.5792 51.8026 16.6274 51.8153 16.6807 51.8127C16.734 51.8153 16.7822 51.8026 16.8279 51.7797C16.8761 51.7645 16.9167 51.7391 16.9497 51.7011C16.97 51.6757 16.9903 51.6503 17.0081 51.625C17.0436 51.5666 17.0588 51.5006 17.0588 51.4321C17.0537 51.3991 17.0487 51.3636 17.0461 51.3306C17.0284 51.2672 16.9954 51.2113 16.9472 51.1631C16.8939 51.1149 16.8507 51.0591 16.8051 51.0033C16.7772 50.9627 16.7467 50.9246 16.7213 50.8815C16.6985 50.8383 16.6655 50.8003 16.6224 50.7749C16.5869 50.7419 16.5437 50.7191 16.493 50.7064C16.4422 50.6912 16.3915 50.6886 16.3407 50.6988C16.29 50.7013 16.2418 50.7165 16.1986 50.7445C16.1732 50.7648 16.1479 50.7851 16.1225 50.8028C16.0743 50.851 16.0438 50.9068 16.0235 50.9703C16.0185 51.0033 16.0134 51.0388 16.0108 51.0718C16.0108 51.1403 16.0286 51.2037 16.0616 51.2646C16.125 51.3611 16.1935 51.4499 16.2621 51.5361Z" fill="black"/>
<path d="M20.5808 53.7412C20.5479 53.6828 20.5022 53.6397 20.4438 53.6042C20.3981 53.5839 20.3525 53.5585 20.3017 53.5509C20.256 53.5433 20.1977 53.5306 20.1469 53.5357C20.0962 53.5408 20.0429 53.5458 19.9947 53.5585C19.9845 53.5611 19.9744 53.5661 19.9642 53.5687C19.9262 53.5839 19.8856 53.5991 19.85 53.6169C19.8297 53.627 19.812 53.6397 19.7917 53.6524C19.746 53.6854 19.7029 53.7184 19.6597 53.7564C19.5963 53.8148 19.5455 53.8858 19.4948 53.9544C19.4669 53.9975 19.4517 54.0457 19.4491 54.0965C19.439 54.1472 19.439 54.198 19.4567 54.2487C19.4694 54.2995 19.4923 54.3426 19.5252 54.3781C19.5532 54.4187 19.5887 54.4517 19.6318 54.4771C19.7206 54.5228 19.8272 54.5481 19.9262 54.5151C19.9566 54.5025 19.9871 54.4898 20.0175 54.4771C20.0556 54.4542 20.0886 54.4238 20.1165 54.3908C20.1419 54.3604 20.1698 54.335 20.1977 54.3071C20.2002 54.3071 20.2028 54.3071 20.2028 54.3071C20.2535 54.3172 20.3043 54.3172 20.355 54.2995C20.4058 54.2868 20.4489 54.2639 20.4844 54.2309C20.525 54.203 20.558 54.1675 20.5834 54.1244C20.6291 54.0356 20.6544 53.929 20.6214 53.83C20.6088 53.8021 20.5935 53.7717 20.5808 53.7412Z" fill="black"/>
<path d="M28.0233 53.8072C27.9979 53.7869 27.9725 53.7666 27.9471 53.7488C27.8888 53.7133 27.8228 53.6981 27.7543 53.6981C27.7213 53.7031 27.6858 53.7082 27.6528 53.7108C27.5893 53.7285 27.5335 53.7615 27.4853 53.8097C27.4625 53.83 27.4447 53.8554 27.427 53.8782C27.4092 53.9011 27.3889 53.9239 27.3762 53.9518C27.3661 53.9721 27.3559 53.995 27.3483 54.0178C27.3407 54.0381 27.3305 54.0609 27.3229 54.0812C27.3178 54.0965 27.3128 54.1117 27.3102 54.1294C27.3001 54.1777 27.295 54.2259 27.2899 54.2741C27.2874 54.2918 27.2874 54.3096 27.2899 54.3274C27.2925 54.3781 27.3001 54.4263 27.3077 54.4771C27.3102 54.4974 27.3153 54.5177 27.3178 54.538C27.3305 54.5887 27.3534 54.6319 27.3864 54.6674C27.4143 54.708 27.4498 54.741 27.4929 54.7664C27.5361 54.7943 27.5843 54.8095 27.635 54.812C27.6858 54.8222 27.7365 54.8222 27.7873 54.8044C27.8177 54.7917 27.8482 54.779 27.8786 54.7664C27.937 54.7334 27.9801 54.6877 28.0156 54.6293C28.0283 54.5989 28.041 54.5684 28.0537 54.538C28.0715 54.4771 28.0689 54.4162 28.0562 54.3527C28.0562 54.3401 28.0562 54.3274 28.0562 54.3147C28.0765 54.2868 28.0943 54.2589 28.107 54.2259C28.1298 54.1802 28.1425 54.132 28.14 54.0787C28.1425 54.0254 28.1298 53.9772 28.107 53.9315C28.0867 53.8808 28.0613 53.8402 28.0233 53.8072Z" fill="black"/>
<path d="M23.8339 51.224C23.8593 51.2545 23.8897 51.2849 23.9202 51.3103C23.9734 51.3535 24.0293 51.3991 24.0927 51.4321C24.1561 51.4651 24.2247 51.4955 24.2932 51.5133C24.3439 51.5285 24.3947 51.5311 24.4454 51.5209C24.4962 51.5184 24.5444 51.5032 24.5875 51.4752C24.6307 51.4524 24.6687 51.4194 24.6941 51.3763C24.7271 51.3408 24.7499 51.2976 24.7626 51.2469C24.7677 51.2139 24.7728 51.1784 24.7753 51.1454C24.7753 51.0769 24.7575 51.0134 24.7245 50.9525C24.7042 50.9272 24.6839 50.9018 24.6662 50.8764C24.618 50.8282 24.5621 50.7977 24.4987 50.7774C24.4936 50.7774 24.4911 50.7749 24.486 50.7724C24.4683 50.7648 24.453 50.7546 24.4353 50.7419C24.4175 50.7267 24.3997 50.7089 24.3845 50.6912C24.3794 50.6836 24.3718 50.6734 24.3668 50.6658C24.3439 50.6227 24.3109 50.5846 24.2678 50.5592C24.2323 50.5262 24.1891 50.5034 24.1384 50.4907C24.0876 50.4755 24.0369 50.4729 23.9861 50.4831C23.9354 50.4856 23.8872 50.5009 23.844 50.5288C23.8187 50.5491 23.7933 50.5694 23.7679 50.5871C23.7197 50.6353 23.6892 50.6912 23.6689 50.7546C23.6639 50.7876 23.6588 50.8231 23.6563 50.8561C23.6563 50.9246 23.674 50.988 23.707 51.049C23.7451 51.1124 23.7907 51.1707 23.8339 51.224Z" fill="black"/>
<path d="M14.298 17.2244C14.3031 17.2269 14.3082 17.2295 14.3133 17.2295C14.3107 17.2295 14.3107 17.2269 14.3082 17.2269C14.3057 17.2269 14.3031 17.2269 14.298 17.2244Z" fill="black"/>
<path d="M13.0318 16.1815C13.0268 16.1789 13.0192 16.1739 13.0115 16.1739C13.0166 16.1764 13.0166 16.1764 13.0192 16.1764C13.0217 16.1789 13.0268 16.1789 13.0318 16.1815Z" fill="black"/>
<path d="M21.3548 31.8783C21.2634 32.0509 21.3015 32.3046 21.4918 32.3985C22.1211 32.7131 22.7377 33.0506 23.3492 33.3983C23.5218 33.4972 23.773 33.4439 23.8694 33.2612C23.9658 33.0811 23.9176 32.8451 23.7324 32.7411C23.1209 32.3934 22.5042 32.0559 21.875 31.7413C21.6973 31.6525 21.4537 31.688 21.3548 31.8783Z" fill="black"/>
<path d="M21.4588 39.9044C21.4563 39.8967 21.4537 39.8917 21.4512 39.8866C21.441 39.8612 21.4309 39.8358 21.4207 39.8105C21.3751 39.6988 21.3319 39.5897 21.2863 39.4781C21.1797 39.2142 21.0706 38.9503 20.9488 38.694C20.728 38.2296 20.4565 37.7526 20.0201 37.4608C19.8551 37.3491 19.5912 37.4227 19.4999 37.5978C19.3984 37.7906 19.4593 37.9987 19.6369 38.118C19.6572 38.1307 19.7156 38.1839 19.6394 38.1154C19.6597 38.1332 19.68 38.1484 19.6978 38.1662C19.7333 38.1992 19.7688 38.2347 19.8018 38.2702C19.8196 38.2905 19.8399 38.3134 19.8577 38.3337C19.8627 38.3387 19.8653 38.3438 19.8678 38.3463C19.9008 38.392 19.9338 38.4352 19.9642 38.4834C20.1013 38.6914 20.2154 38.9147 20.3195 39.1406C20.3702 39.2471 20.4159 39.3563 20.4641 39.4654C20.4692 39.4806 20.4793 39.4984 20.4819 39.506C20.4946 39.5364 20.5073 39.5643 20.5199 39.5948C20.5428 39.6531 20.5682 39.7115 20.591 39.7699C20.6773 39.9856 20.7635 40.2012 20.86 40.4118C20.9437 40.5945 21.2203 40.6529 21.3801 40.5489C21.5679 40.4271 21.606 40.2215 21.5172 40.0287C21.4918 39.983 21.4766 39.9424 21.4588 39.9044ZM21.4639 39.9196C21.4715 39.9373 21.4766 39.9475 21.4639 39.9196V39.9196Z" fill="black"/>
<path d="M16.9497 28.5517C16.9852 28.5136 17.0233 28.4781 17.0614 28.4426C17.0639 28.44 17.0766 28.4299 17.0867 28.4223C17.0994 28.4121 17.1146 28.3994 17.1197 28.3969C17.2136 28.3284 17.3126 28.27 17.4141 28.2142C17.5257 28.1533 17.6399 28.1 17.7541 28.0467C17.7642 28.0417 17.7719 28.0391 17.7744 28.0366C17.7795 28.034 17.7845 28.0315 17.7922 28.029C17.8251 28.0163 17.8581 28.0011 17.8911 27.9884C17.952 27.9655 18.0154 27.9427 18.0763 27.9199C18.3149 27.8361 18.5559 27.7651 18.8021 27.7143C18.8579 27.7016 18.9137 27.6915 18.967 27.6839C18.9898 27.6813 19.0101 27.6763 19.033 27.6737C19.0381 27.6737 19.0406 27.6737 19.0482 27.6712C19.1396 27.6636 19.2284 27.656 19.3197 27.661C19.5252 27.6686 19.7003 27.4809 19.7003 27.2804C19.7003 27.0673 19.5252 26.9074 19.3197 26.8998C18.8249 26.8795 18.3022 27.0317 17.8404 27.1967C17.3354 27.3768 16.7822 27.6103 16.4067 28.0112C16.2671 28.1609 16.257 28.402 16.4067 28.5491C16.5539 28.6938 16.8076 28.7039 16.9497 28.5517ZM19.0279 27.6763C19.0178 27.6788 19.0203 27.6788 19.0279 27.6763V27.6763Z" fill="black"/>
<path d="M19.8881 20.4115C20.2078 20.5003 20.5631 20.5815 20.8955 20.5612C21.3852 20.5333 21.8724 20.3049 22.2809 20.0486C22.6946 19.7898 23.235 19.399 23.3315 18.8814C23.3695 18.6784 23.2756 18.4703 23.065 18.4119C22.8798 18.3612 22.6362 18.4754 22.5956 18.6784C22.5931 18.6911 22.5753 18.7494 22.5728 18.7621C22.555 18.8002 22.5322 18.8357 22.5093 18.8687C22.4738 18.9169 22.3824 19.0133 22.3063 19.0844C22.1262 19.2493 21.9206 19.3812 21.71 19.498C21.507 19.6096 21.2939 19.706 21.068 19.7644C20.9107 19.805 20.8447 19.805 20.6519 19.7898C20.6417 19.7898 20.6011 19.7847 20.5834 19.7822C20.5453 19.7771 20.5047 19.7695 20.4667 19.7619C20.3652 19.7441 20.2637 19.7213 20.1622 19.6959C20.0708 19.6731 19.9769 19.6451 19.8881 19.6172C19.8374 19.5995 19.7841 19.5817 19.7333 19.5639C19.6597 19.536 19.6851 19.5462 19.6394 19.5259C19.5481 19.4827 19.4643 19.4345 19.3806 19.3838C19.3705 19.3787 19.3654 19.3736 19.3603 19.3711C19.3578 19.3686 19.3552 19.366 19.3502 19.3609C19.3273 19.3406 19.307 19.3178 19.2842 19.2975C19.2791 19.2899 19.2639 19.2696 19.2512 19.2518C19.2512 19.2493 19.2537 19.2468 19.2537 19.2417C19.2639 19.2239 19.274 19.2062 19.2867 19.1884C19.5481 18.7723 18.8909 18.3891 18.6295 18.8052C18.089 19.6756 19.2157 20.2262 19.8881 20.4115Z" fill="black"/>
<path d="M19.0381 16.6915C19.0685 16.7169 19.0964 16.7397 19.1269 16.7651C19.1624 16.8032 19.203 16.8285 19.2487 16.8438C19.2943 16.8666 19.3426 16.8793 19.3958 16.8768C19.4491 16.8793 19.4973 16.8666 19.543 16.8438C19.5912 16.8285 19.6318 16.8032 19.6648 16.7651C19.7308 16.6915 19.7815 16.5976 19.7765 16.4961C19.7714 16.4631 19.7663 16.4276 19.7638 16.3946C19.746 16.3312 19.713 16.2754 19.6648 16.2272C19.5405 16.1282 19.4187 16.0242 19.2969 15.9227C19.2766 15.9049 19.2563 15.8897 19.236 15.8719C19.2005 15.8339 19.1599 15.8085 19.1142 15.7933C19.0685 15.7704 19.0203 15.7577 18.967 15.7603C18.9137 15.7577 18.8655 15.7704 18.8198 15.7933C18.7716 15.8085 18.731 15.8339 18.698 15.8719C18.6321 15.9455 18.5813 16.0394 18.5864 16.1409C18.5915 16.2373 18.6219 16.3439 18.698 16.4099C18.8071 16.5063 18.9239 16.5976 19.0381 16.6915Z" fill="black"/>
<path d="M21.4182 16.3946C21.4994 16.4428 21.6212 16.4631 21.7126 16.4327C21.8039 16.4022 21.8927 16.3464 21.9409 16.2576C21.9714 16.1992 21.9866 16.1383 21.9891 16.0749C22.0399 16.0216 22.0932 15.9734 22.1515 15.9277C22.253 15.8516 22.3571 15.7755 22.4535 15.6892C22.5245 15.6258 22.5651 15.5116 22.5651 15.4202C22.5651 15.3264 22.5245 15.2147 22.4535 15.1513C22.3799 15.0853 22.286 15.0345 22.1845 15.0396C22.0805 15.0447 21.9942 15.0802 21.9156 15.1513C21.8851 15.1766 21.8547 15.202 21.8242 15.2249C21.6999 15.3187 21.5705 15.4101 21.4588 15.5217C21.3979 15.5852 21.3345 15.6562 21.2964 15.7374C21.2507 15.8313 21.2355 15.8871 21.2254 15.9912C21.2203 16.0495 21.2279 16.1104 21.2431 16.1663C21.266 16.2601 21.337 16.349 21.4182 16.3946Z" fill="black"/>
</svg>
