<svg width="68" height="98" viewBox="0 0 68 98" fill="none" xmlns="http://www.w3.org/2000/svg">
<g clip-path="url(#clip0)">
<path d="M34.8071 17.9698C31.2191 16.7925 10.6891 16.8934 8.18878 20.3244C6.53681 22.593 6.39853 32.4002 7.44876 38.8398C8.1215 42.966 9.19416 45.5785 10.6406 46.6063C11.8104 47.436 14.0828 47.7724 16.841 47.7724C21.5764 47.7724 27.7358 46.7782 32.1423 45.5897C38.7314 43.8144 39.4378 42.2634 39.6695 41.7551C41.1122 38.5782 39.8601 26.465 37.5429 21.1803C36.7394 19.3601 35.8461 18.3099 34.8071 17.9698ZM37.9652 40.9814C37.7522 41.4486 36.1862 42.5624 31.6526 43.7845C23.6918 45.9298 13.8212 46.5727 11.7207 45.0814C11.2572 44.7525 10.0912 43.4556 9.29133 38.5408C8.11777 31.335 8.71202 22.7762 9.69498 21.4269C10.0912 20.885 12.9802 19.7451 21.0943 19.2891C26.7192 18.9752 32.4861 19.177 34.2203 19.7451C34.396 19.8011 35.0351 20.13 35.8237 21.9315C38.2157 27.3695 39.0117 38.6791 37.9652 40.9814Z" fill="black" stroke="black" stroke-width="0.25"/>
<path d="M15.1666 25.3102C15.1853 25.3849 15.219 25.4485 15.2676 25.5008C15.2862 25.5307 15.3161 25.5456 15.3423 25.5681C15.361 25.6017 15.3872 25.6353 15.4171 25.6615C15.4544 25.6914 15.4918 25.7213 15.5292 25.7475C15.6151 25.7998 15.7123 25.8222 15.8132 25.8222C15.8618 25.8147 15.9141 25.8073 15.9627 25.8035C16.0562 25.7774 16.1384 25.7288 16.2094 25.6578C16.2393 25.6167 16.2767 25.583 16.3141 25.5494C16.3813 25.4896 16.4337 25.4223 16.486 25.3476C16.4897 25.3401 16.4972 25.3326 16.5009 25.3251C16.5234 25.2803 16.542 25.228 16.5607 25.1831C16.5645 25.1794 16.5645 25.1719 16.5645 25.1682C16.5757 25.1383 16.5757 25.0971 16.5794 25.071C16.5832 25.0411 16.5906 25 16.5906 24.9663C16.5906 24.9626 16.5906 24.9551 16.5906 24.9514C16.5832 24.8991 16.5794 24.843 16.5682 24.7907C16.5645 24.7795 16.5607 24.7645 16.557 24.7533C16.5383 24.6972 16.5121 24.6374 16.486 24.5851C16.4785 24.5702 16.471 24.5552 16.4598 24.5403C16.4486 24.5253 16.4411 24.5066 16.4299 24.4917C16.4224 24.4805 16.415 24.473 16.4112 24.4655C16.3963 24.4468 16.3813 24.4281 16.3664 24.4094C16.3402 24.3683 16.3066 24.3347 16.2655 24.3085C16.2318 24.2749 16.1907 24.2487 16.1421 24.2375C16.0749 24.2039 16.0038 24.1852 15.9254 24.1889C15.8431 24.1927 15.7572 24.2076 15.6749 24.2188C15.6488 24.2226 15.6189 24.23 15.5927 24.2375C15.5815 24.2413 15.5703 24.245 15.5591 24.2487C15.5068 24.2674 15.4507 24.2898 15.4021 24.316C15.3946 24.3197 15.3872 24.3235 15.3834 24.3272C15.346 24.3534 15.2975 24.3908 15.2638 24.4207C15.2601 24.4244 15.2601 24.4244 15.2563 24.4281L15.2526 24.4319C15.2451 24.4393 15.1704 24.5365 15.1629 24.5477C15.1629 24.5515 15.1592 24.5515 15.1592 24.5552C15.133 24.6001 15.1106 24.6524 15.0956 24.7047C15.0956 24.7084 15.0919 24.7159 15.0919 24.7197C15.0882 24.7309 15.0732 24.8579 15.0732 24.8692V24.8729C15.0732 24.8766 15.0732 24.8804 15.0732 24.8841C15.0732 24.9476 15.0844 25.0112 15.0994 25.071C15.1143 25.1532 15.1554 25.228 15.1666 25.3102Z" fill="black" stroke="black" stroke-width="0.25"/>
<path d="M27.747 25.2354C27.7956 25.3214 27.8629 25.3849 27.9488 25.4372C28.0348 25.4784 28.1208 25.5157 28.2142 25.5456C28.2254 25.5494 28.2404 25.5494 28.2516 25.5531C28.2553 25.5568 28.2553 25.5568 28.259 25.5606C28.3637 25.6615 28.5095 25.725 28.6552 25.725C28.7337 25.7288 28.8047 25.7101 28.872 25.6764C28.943 25.654 29.0028 25.6166 29.0514 25.5606C29.1261 25.4784 29.1859 25.3774 29.2084 25.2691C29.2271 25.2429 29.2495 25.2205 29.2682 25.1906C29.313 25.127 29.3392 25.0485 29.3653 24.9775C29.3766 24.9439 29.384 24.9103 29.3915 24.8766C29.4177 24.7271 29.4289 24.5888 29.4139 24.4393C29.4139 24.3384 29.3878 24.245 29.3392 24.1553C29.3055 24.0918 29.257 24.0357 29.1934 23.9983C29.1411 23.9497 29.0776 23.9161 29.0028 23.8974C28.9019 23.8712 28.8047 23.8712 28.7038 23.8974C28.5767 23.9198 28.4571 23.9647 28.3375 24.0245C28.2665 24.0581 28.2067 24.1142 28.1469 24.1628C28.0909 24.2114 28.046 24.2749 28.0012 24.3347C27.9937 24.3459 27.9862 24.3571 27.9787 24.3683C27.96 24.4057 27.9451 24.4468 27.9301 24.4879C27.9189 24.4954 27.9077 24.5029 27.8965 24.5104C27.8367 24.5515 27.7881 24.6038 27.7507 24.6673C27.6835 24.7981 27.6461 24.9551 27.6947 25.1009C27.7096 25.1457 27.7283 25.1906 27.747 25.2354Z" fill="black" stroke="black" stroke-width="0.25"/>
<path d="M25.0336 40.7422C24.3833 40.5815 24.032 40.0844 23.8937 39.849C23.8787 38.7726 23.8787 36.8029 23.875 35.8872C24.9962 34.8893 25.7437 32.4936 25.7437 31.7087C25.7437 31.3387 25.5942 30.9949 25.3251 30.7407C24.7122 30.1652 23.6806 30.1764 22.3912 30.2511C22.1931 30.2623 22.0175 30.2735 21.8867 30.2735H21.6624C20.4963 30.2623 18.5416 30.2436 18.3286 31.7349C18.138 33.0617 19.3265 34.325 20.0516 34.9603C20.3543 35.2257 21.1616 35.8835 22.0025 36.1862C22.0025 37.3635 22.01 39.5201 22.0287 40.3348C21.8306 40.5329 21.0046 40.7721 20.3057 40.7721C19.5806 40.7721 18.579 40.5105 18.3248 40.1592L16.8186 41.258C17.611 42.3531 19.3863 42.6446 20.3132 42.6446C20.3917 42.6446 22.1296 42.6334 23.1611 41.8261C23.5424 42.1438 24.0133 42.4166 24.5888 42.5586C25.0299 42.667 25.4597 42.7193 25.8745 42.7193C26.865 42.7193 27.7732 42.4091 28.5842 41.7962L27.4555 40.3049C26.7528 40.8394 25.9829 40.9777 25.0336 40.7422ZM20.6196 32.8674C20.3991 32.5908 20.2833 32.3703 20.2272 32.2208C20.6271 32.1348 21.3709 32.1423 21.6475 32.146H21.8904C22.0474 32.146 22.2604 32.1348 22.5033 32.1199C22.8061 32.1012 23.419 32.0675 23.8152 32.1012C23.6283 32.8375 23.0677 34.097 22.7014 34.4595C22.2716 34.3324 21.2737 33.6896 20.6196 32.8674Z" fill="black" stroke="black" stroke-width="0.25"/>
<path d="M15.731 34.9529L17.0504 33.6298C15.888 32.4712 13.9968 32.5198 12.614 32.5571C12.3972 32.5646 12.1879 32.5684 11.9973 32.5684V34.4371C12.2028 34.4371 12.4271 34.4296 12.6626 34.4259C13.7053 34.396 15.1368 34.3586 15.731 34.9529Z" fill="black" stroke="black" stroke-width="0.25"/>
<path d="M13.4997 36.2386C13.2007 36.246 12.9018 36.2535 12.6028 36.2535V38.1222C12.913 38.1222 13.2269 38.1148 13.5409 38.1073C14.3967 38.0886 15.204 38.0699 15.959 38.1895L16.2468 36.3432C15.3274 36.1974 14.3967 36.2161 13.4997 36.2386Z" fill="black" stroke="black" stroke-width="0.25"/>
<path d="M14.5425 38.6044L14.4341 38.6492C13.6829 38.9557 12.2888 39.8863 12.4084 41.2131L14.2697 41.0711C14.3033 40.9216 14.707 40.5516 15.1368 40.3759L15.2825 40.3124C15.3872 40.2676 15.5778 40.1853 15.6563 40.1779C15.6301 40.1816 15.5442 40.1741 15.447 40.1181L16.3888 38.5035C15.6936 38.1036 14.9462 38.4287 14.5425 38.6044Z" fill="black" stroke="black" stroke-width="0.25"/>
<path d="M29.698 34.2502C30.0007 34.0073 30.352 33.8615 30.8042 33.7905L30.9126 33.7718C31.036 33.7494 31.3574 33.6971 31.4733 33.7195C31.4359 33.712 31.3051 33.656 31.2079 33.5102L32.7776 32.4936C32.232 31.6527 31.1294 31.8395 30.5987 31.9292L30.509 31.9442C29.7353 32.0675 29.0925 32.3441 28.5319 32.7889L28.4795 32.83C28.0609 33.1626 27.433 33.6634 27.1938 34.3063L28.9467 34.9566C29.0252 34.7847 29.4737 34.4259 29.6456 34.2913L29.698 34.2502Z" fill="black" stroke="black" stroke-width="0.25"/>
<path d="M31.4583 37.6065L32.0002 35.8162C31.3275 35.6107 30.6398 35.6368 30.0306 35.6592C29.8587 35.6667 29.6867 35.6705 29.5186 35.6705V37.5392C29.7092 37.5392 29.8998 37.5317 30.0979 37.5242C30.6024 37.5093 31.0808 37.4906 31.4583 37.6065Z" fill="black" stroke="black" stroke-width="0.25"/>
<path d="M32.4824 38.5483C31.8694 38.4848 31.2602 38.5035 30.6735 38.5222C30.4081 38.5296 30.1465 38.5371 29.8886 38.5371V40.4058C30.1652 40.4058 30.4492 40.3984 30.7333 40.3871C31.2864 40.3722 31.8059 40.3535 32.2993 40.4021C32.5048 40.4245 32.744 40.4955 32.9982 40.5703C33.0991 40.6002 33.2 40.6301 33.2972 40.6562L33.7942 38.8548C33.7083 38.8324 33.6223 38.8062 33.5326 38.78C33.2187 38.6903 32.8636 38.5857 32.4824 38.5483Z" fill="black" stroke="black" stroke-width="0.25"/>
<path d="M37.4794 53.0348C34.8743 52.6722 28.5431 52.8105 27.1751 53.0385C26.835 53.0946 18.8256 54.4401 17.4614 56.1929C16.101 57.9421 17.439 68.1491 17.7044 69.4423C17.8576 70.186 18.1977 71.6474 18.7658 73.1386C18.7471 73.176 18.7247 73.2134 18.7135 73.2358L18.8219 73.2919C19.6105 75.3176 20.8214 77.362 22.5556 77.7395C22.7761 77.7881 23.0639 77.8553 23.4003 77.9301C27.6573 78.9093 30.6099 79.3952 32.5833 79.3952C34.4146 79.3952 35.4013 78.9766 35.805 78.1394C36.1974 77.3246 36.8328 75.2877 37.4532 73.0527L37.4756 73.0377C37.4756 73.0377 37.4681 73.0265 37.4644 73.0153C38.3352 69.8684 39.1762 66.3327 39.2621 65.2488C39.2808 65.0283 39.3182 64.6882 39.3668 64.2659C39.9536 59.0446 40.3385 53.4309 37.4794 53.0348ZM18.949 57.3254C19.6254 56.5928 24.5103 55.3744 27.4779 54.8811C28.6963 54.6793 34.8631 54.5559 37.2215 54.8848C37.2289 54.8848 37.8568 55.1539 37.9092 58.0916C37.9391 59.6949 37.7821 61.5076 37.6363 62.9204C36.8216 61.1862 35.6031 58.8989 34.5342 58.1215C33.0168 57.0152 30.0717 56.4321 27.9488 56.4321C25.6876 56.4321 22.4173 58.1028 21.0868 59.9416C20.4925 60.7639 19.5806 62.1131 18.8593 63.1932C18.6836 60.5135 18.6537 57.9346 18.949 57.3254ZM19.2068 66.9531C19.1583 66.5719 19.1134 66.1683 19.0723 65.7497L19.304 65.9029C19.3264 65.8693 21.5316 62.513 22.6005 61.0367C23.49 59.8071 26.1324 58.3009 27.9451 58.3009C29.9633 58.3009 32.4226 58.8951 33.4279 59.6277C34.3698 60.3154 36.1376 63.9631 36.8253 65.7272L37.3448 65.5254C37.2701 66.0075 37.1243 66.7102 36.9337 67.5436C36.0031 66.0337 34.5567 63.7426 33.5812 62.4009C31.7947 59.9491 30.3782 59.9491 27.8105 59.9491C25.1121 59.9491 22.6117 62.5952 21.5465 63.7239C21.4568 63.8174 21.3821 63.8996 21.3223 63.9594C20.8738 64.4191 19.9543 65.7908 19.2068 66.9531ZM20.8289 73.2508C21.6698 71.7334 22.8845 69.7674 23.6059 69.162C23.8264 68.9751 24.0656 68.7621 24.3122 68.5415C25.4634 67.51 26.8986 66.2243 28.3188 66.2243C30.0679 66.2243 31.4882 67.1774 32.9234 69.3189C33.9587 70.8625 34.9192 72.4248 35.4462 73.2956C35.3378 73.6806 35.2294 74.0543 35.1248 74.4094C34.7734 73.9796 34.3623 73.475 33.9101 72.9181C32.3852 71.0419 29.9596 69.1545 28.0123 69.1956C26.5734 69.2218 24.8467 70.5037 23.0527 71.9277C22.7575 72.1632 22.4958 72.3725 22.2828 72.5257C21.8007 72.8808 21.3559 73.2769 20.9934 73.6245C20.941 73.5012 20.885 73.3778 20.8289 73.2508ZM23.8226 76.1137C23.475 76.0352 23.1835 75.9679 22.9593 75.9156C22.6416 75.8446 22.3202 75.6054 22.01 75.2503C22.3538 74.8953 22.8509 74.4243 23.3928 74.0282C23.6208 73.8637 23.9011 73.6395 24.2188 73.3853C25.2317 72.578 27.1228 71.0756 28.0497 71.0606C28.0572 71.0606 28.0647 71.0606 28.0721 71.0606C29.156 71.0606 31.0771 72.3837 32.4599 74.0917C33.3121 75.1419 34.0185 76.009 34.4445 76.5285C34.3287 76.85 34.224 77.1191 34.1343 77.3097C33.7232 77.661 31.8208 77.9562 23.8226 76.1137ZM34.4782 68.2762C32.6804 65.6002 30.7257 64.3556 28.3225 64.3556C26.1885 64.3556 24.387 65.9702 23.0677 67.1475C22.8322 67.3568 22.6117 67.5549 22.4024 67.7305C21.6512 68.3622 20.7355 69.7263 20.0029 70.9447C19.8684 70.4888 19.7488 70.0216 19.6441 69.5581L19.7413 69.6179C20.6271 68.1865 22.2006 65.7384 22.6565 65.2713C22.7238 65.204 22.806 65.1143 22.9069 65.0096C23.7329 64.1388 25.9194 61.8178 27.8143 61.8178C30.266 61.8178 30.8453 61.8178 32.075 63.5034C33.5401 65.5142 36.2198 69.9543 36.2497 69.9992L36.3619 69.9319C36.2871 70.2272 36.2086 70.5261 36.1301 70.8251C35.6405 70.0515 35.0724 69.162 34.4782 68.2762Z" fill="black" stroke="black" stroke-width="0.25"/>
<path d="M66.4822 58.9362C65.7758 58.1738 64.8265 57.7963 63.8062 57.8711C62.4457 57.972 61.0554 58.8839 60.0799 60.3079C58.6559 62.3859 58.3009 63.4287 57.0152 67.4988C55.8603 71.1578 53.6627 73.5722 50.9829 74.1253C48.8413 74.5664 45.728 74.4617 44.248 74.3795C44.1695 69.8534 44.1321 65.1255 44.2517 62.5616C45.7355 63.3427 46.8044 66.613 47.4173 68.493C47.6341 69.1545 47.821 69.7226 47.9966 70.1412C49.0842 72.7275 51.9995 72.2005 54.2532 71.3035C54.7876 71.0905 55.1801 70.6233 55.4267 69.9095C56.3387 67.2559 55.1988 60.6629 53.2403 57.3104C51.7304 54.7204 49.3309 53.6328 47.01 52.5788C45.8999 52.0742 44.8422 51.5958 43.9265 50.9679C44.4311 49.8841 45.4477 47.6154 46.5764 44.5245C48.2358 39.9835 45.9784 18.2127 45.4776 15.7123C45.4888 15.1031 45.5224 12.0235 45.2085 8.76438C44.7039 3.51696 43.6163 0.784867 41.7924 0.160709C40.8282 -0.168189 39.8415 -0.0186896 38.9407 0.594256C36.5039 2.24622 35.0426 7.02645 34.6501 10.3565C32.7814 10.222 29.683 10.8013 25.7437 11.6011C25.6802 11.4479 25.6092 11.2909 25.5269 11.1339C25.3139 10.7378 24.5365 9.31752 23.5162 7.61697C18.7845 -0.239201 17.2746 0.0186851 16.5495 0.142022C16.2244 0.198084 15.6413 0.422332 15.3722 1.28943C14.7929 3.17685 16.0973 8.83913 17.3082 12.6102C14.5649 12.8606 11.5338 13.1746 10.5471 13.2905C10.4724 13.2979 10.3079 13.3316 10.08 13.3802C9.68379 12.6439 8.95872 11.3245 7.98697 9.70622C6.33501 6.95544 3.203 5.46419 1.61458 6.02107C1.02779 6.22663 0.55687 6.72372 0.280297 7.42262C-0.205575 8.65599 -0.0486011 10.3416 0.676469 11.7132C1.28568 12.8719 1.51366 16.3066 1.51366 18.2015V20.3393L1.5473 20.3094C1.55104 20.5785 1.55104 20.8626 1.55478 21.1616C1.64821 33.0991 1.92479 45.7392 3.27401 48.9871C4.67183 52.3545 6.16308 53.2553 7.60201 54.1261C7.81505 54.2569 8.02435 54.3803 8.23365 54.5148C5.96873 56.619 2.72087 61.7468 1.98085 64.0865C1.08012 66.9456 1.46508 76.0651 3.67019 77.3246C5.46418 78.3487 8.49153 78.0422 9.67257 76.7117C10.3715 75.9268 10.5285 74.0954 10.7303 71.1727C10.8125 69.973 10.8985 68.7359 11.0442 68.0856C11.1937 67.4128 11.8366 66.699 12.4869 66.1384C12.7074 70.8999 13.3017 84.1156 13.2792 88.1596C11.4254 88.5894 8.33456 89.6882 7.20958 91.314C6.70876 92.0391 6.70876 92.6968 6.79472 93.1192C7.34039 95.7242 11.0629 97.3351 14.1949 97.3351H25.6017L25.7288 96.5539C26.6033 91.2467 27.889 85.1995 28.7412 83.013C29.6494 85.1883 31.092 91.2504 32.1012 96.5763L32.2469 97.35L33.0355 97.3388C33.5625 97.3313 46.0195 97.122 48.8862 96.6959C49.7645 96.5651 50.4671 96.0942 50.9194 95.3355C52.3957 92.8426 50.7138 87.9802 50.3625 87.0308C49.4692 84.6202 46.6325 84.3959 44.4946 84.7323C44.4722 83.996 44.4423 82.9383 44.4087 81.6676C45.3281 82.0264 46.5764 82.3964 47.8023 82.3964C50.1233 82.3964 55.6323 81.4097 57.8412 79.1261C58.0505 78.9093 58.256 78.7 58.4578 78.4982C60.1883 76.7453 61.6795 75.2316 62.1991 71.924C62.6887 68.792 64.1687 65.3871 65.5703 64.1724C66.527 63.3427 67.4166 62.4158 67.4838 61.2423C67.5212 60.4611 67.1961 59.7062 66.4822 58.9362ZM39.3556 10.4948C39.4042 10.2444 39.7593 9.68379 39.976 9.33995C40.3124 8.80923 40.6899 8.20749 40.9029 7.56838C41.2617 6.49573 41.8672 5.66601 42.7418 5.05306C43.1566 6.7723 43.4668 9.13812 43.5789 11.9861C41.9681 11.5451 40.0134 10.9246 39.3556 10.4948C39.3593 10.4948 39.3593 10.4948 39.3556 10.4948ZM39.9872 2.14905C40.5329 1.77904 40.9328 1.85005 41.187 1.93975C41.5196 2.05187 41.8522 2.49289 42.1624 3.21796C40.7048 4.07384 39.6882 5.32964 39.1351 6.97786C38.9931 7.40394 38.6903 7.88233 38.3988 8.34952C37.9092 9.12317 37.1729 10.3042 37.6289 11.2872C37.1953 11.1265 36.7917 10.9732 36.4777 10.8574C36.7954 7.52727 38.2717 3.3114 39.9872 2.14905ZM17.5586 4.12617C17.8016 3.86081 18.0071 3.52817 18.1679 3.16564C18.209 3.21423 18.2538 3.26281 18.2987 3.31514C18.1118 3.74121 17.7605 4.40274 17.3456 4.98953C17.312 4.79144 17.2783 4.59709 17.2484 4.41022C17.3493 4.33173 17.454 4.23829 17.5586 4.12617ZM17.8091 7.2806C18.5042 6.66392 19.1172 5.76318 19.5619 4.95589C19.7376 5.20256 19.9207 5.46792 20.1151 5.75571C19.9544 6.14814 19.5582 6.86948 18.8369 7.89354C18.6649 8.14022 18.3996 8.40932 18.1342 8.64851C18.0221 8.19254 17.9137 7.73283 17.8091 7.2806ZM20.3655 8.96994C20.7318 8.45043 21.0345 7.98324 21.2849 7.55717C21.4269 7.78516 21.5727 8.02436 21.7222 8.27103C21.4643 9.16802 20.6196 10.734 20.3655 11.0966C20.1711 11.3731 19.5582 11.859 19.0947 12.1094C18.9527 11.646 18.8032 11.1414 18.6575 10.6219C19.2779 10.1809 19.9731 9.52682 20.3655 8.96994ZM22.0287 12.2739C21.9651 12.2739 21.8941 12.2739 21.8156 12.2776C21.8455 12.2402 21.8717 12.2066 21.8904 12.1804C22.0586 11.945 22.5108 11.1638 22.9182 10.3005C23.3816 11.1115 23.718 11.7245 23.86 11.9898C23.0079 12.1543 22.309 12.2739 22.0287 12.2739ZM22.0287 14.1426C22.3165 14.1426 22.7425 14.0865 23.3181 13.9894C23.1462 14.1052 22.9518 14.2174 22.7276 14.3332C21.6736 14.8714 20.4178 14.9835 20.1001 14.7817C20.0254 14.6621 19.9432 14.4864 19.8497 14.2697C20.8402 14.1912 21.6325 14.1426 22.0287 14.1426ZM2.73208 11.9188C3.69635 12.5953 4.64567 13.6754 5.04932 15.0134C4.42516 15.2863 3.82716 15.589 3.30765 15.9179C3.22543 14.6509 3.06098 13.1036 2.73208 11.9188ZM2.01822 8.10658C2.11166 7.87112 2.20883 7.79263 2.23126 7.78516C2.27237 7.77021 2.32843 7.76273 2.39197 7.76273C3.12078 7.76273 5.19134 8.67841 6.38359 10.6668C7.16099 11.9599 7.78515 13.0737 8.20001 13.8287C7.78889 13.9483 7.29928 14.109 6.78724 14.3033C5.965 11.7693 3.74494 9.97906 1.89862 9.42591C1.83882 8.89892 1.89115 8.428 2.01822 8.10658ZM48.6096 87.6774C49.5028 90.0881 50.0298 93.1678 49.3122 94.3824C49.1478 94.6628 48.9385 94.801 48.6133 94.8496C46.2625 95.1972 36.6235 95.4028 33.7905 95.4551C30.8566 80.2025 29.4214 80.4118 28.5618 80.5351C27.8816 80.6323 26.4763 80.8378 24.0207 95.4701H14.1949C11.5787 95.4701 8.92134 94.1694 8.62234 92.7417C8.61487 92.7081 8.59244 92.5997 8.74194 92.3829C9.5156 91.2654 12.6214 90.1255 14.3369 89.8601L15.0919 89.7442L15.1256 88.9818C15.2825 85.5059 14.307 65.1928 14.2659 64.3294L14.1912 62.7933L12.8606 63.567C12.5392 63.7538 9.70621 65.4619 9.21286 67.6894C9.0372 68.478 8.95124 69.7263 8.86154 71.0531C8.76063 72.5369 8.58871 75.0186 8.27102 75.4783C7.76646 76.0464 5.75944 76.3753 4.61951 75.7287C3.72625 74.9438 2.81804 67.6333 3.75615 64.6546C4.68678 61.6982 9.03346 55.8154 10.065 55.4268L11.7431 54.9484L10.4126 53.8159C9.7548 53.2553 9.11943 52.8741 8.55881 52.5339C7.21331 51.7192 6.14813 51.0763 4.98952 48.277C3.59918 44.9282 3.46463 27.6573 3.4123 21.1541C3.40109 19.9095 3.39735 19.0985 3.38614 18.6164C3.98414 18.0968 5.32963 16.9868 6.47703 16.4561C7.37776 16.0861 8.34951 15.7422 9.19791 15.4993C9.5455 15.4059 9.76227 15.3573 9.76975 15.3573L10.6331 15.1704C10.6742 15.1629 10.7191 15.1592 10.7602 15.1517C11.9562 15.0097 15.1928 14.6808 17.9361 14.4341C18.2688 15.3012 18.564 15.9142 18.7621 16.1048C19.2442 16.572 19.9282 16.7476 20.6533 16.7476C21.6886 16.7476 22.8098 16.3888 23.5685 16.0001C24.8467 15.3461 25.6017 14.5874 25.8857 13.6829C25.9082 13.6156 25.9194 13.5483 25.9343 13.4811C25.9605 13.4773 25.9829 13.4699 26.0091 13.4661C28.5094 12.9578 33.6111 11.9188 34.9342 12.2776L35.1248 12.3486C35.7415 12.6364 36.6796 12.9728 37.7672 13.3652C38.283 13.5521 39.0155 13.8137 39.7854 14.109C40.4694 14.4005 42.3979 15.5703 43.6948 16.3888C44.2554 19.6143 46.2251 40.0209 44.8086 43.8892C43.2687 48.0976 41.9158 50.8147 41.9046 50.8446L41.5719 51.5099L42.1475 51.9845C43.3734 52.9937 44.8235 53.6514 46.2288 54.2868C48.3779 55.2623 50.4036 56.1817 51.6145 58.256C52.5302 59.8295 53.3225 62.4158 53.6813 65.0059C54.0813 67.9062 53.7486 69.3227 53.5132 69.5843C50.3064 70.8513 49.8691 69.8123 49.7047 69.4199C49.5589 69.0723 49.3832 68.5378 49.1814 67.9137C48.1798 64.8452 46.6624 60.2145 43.2837 60.5359L42.5138 60.6106L42.4428 61.3805C42.2447 63.5819 42.2746 69.0274 42.3643 74.23H42.3605L42.3755 74.8766C42.4129 76.8836 42.4577 78.8345 42.4988 80.5239L42.5026 80.7519C42.5736 83.5998 42.6408 85.6554 42.6483 85.9096L42.6857 87.0981L43.8331 86.7767C43.8854 86.7692 47.8808 85.7115 48.6096 87.6774ZM64.3444 62.7597C62.5952 64.2734 60.9171 68.0071 60.349 71.6362C59.9267 74.3496 58.8129 75.4783 57.1236 77.1863C56.918 77.3919 56.7087 77.6049 56.4957 77.8292C54.7802 79.6007 49.9252 80.5276 47.8023 80.5276C46.4979 80.5276 45.0739 79.9483 44.3563 79.6157L44.2816 76.2557C45.8962 76.3454 49.0581 76.4351 51.3566 75.9567C54.7166 75.2615 57.43 72.3837 58.7942 68.0631C60.0612 64.0491 60.3415 63.2343 61.6197 61.3656C62.2663 60.42 63.1558 59.7959 63.9407 59.7361C64.4004 59.7024 64.7816 59.8557 65.1068 60.2107C65.4507 60.5845 65.6226 60.8947 65.6076 61.1451C65.5852 61.6272 64.8751 62.3 64.3444 62.7597Z" fill="black"/>
<path d="M39.3556 10.4948C39.4042 10.2444 39.7593 9.68379 39.976 9.33995C40.3124 8.80923 40.6899 8.20749 40.9029 7.56838C41.2617 6.49573 41.8672 5.66601 42.7418 5.05306C43.1566 6.7723 43.4668 9.13812 43.579 11.9861C41.9681 11.5451 40.0134 10.9246 39.3556 10.4948ZM39.3556 10.4948C39.3593 10.4948 39.3593 10.4948 39.3556 10.4948ZM66.4822 58.9362C65.7758 58.1738 64.8265 57.7963 63.8062 57.8711C62.4457 57.972 61.0554 58.8839 60.0799 60.3079C58.6559 62.3859 58.3009 63.4287 57.0152 67.4988C55.8603 71.1578 53.6627 73.5722 50.9829 74.1253C48.8413 74.5664 45.728 74.4617 44.248 74.3795C44.1695 69.8534 44.1321 65.1255 44.2517 62.5616C45.7355 63.3427 46.8044 66.613 47.4173 68.493C47.6341 69.1545 47.821 69.7226 47.9966 70.1412C49.0842 72.7275 51.9995 72.2005 54.2532 71.3035C54.7876 71.0905 55.1801 70.6233 55.4267 69.9095C56.3387 67.2559 55.1988 60.6629 53.2403 57.3104C51.7304 54.7204 49.3309 53.6328 47.01 52.5788C45.8999 52.0742 44.8422 51.5958 43.9265 50.9679C44.4311 49.8841 45.4477 47.6154 46.5764 44.5245C48.2358 39.9835 45.9784 18.2127 45.4776 15.7123C45.4888 15.1031 45.5224 12.0235 45.2085 8.76438C44.7039 3.51696 43.6163 0.784867 41.7924 0.160709C40.8282 -0.168189 39.8415 -0.0186896 38.9407 0.594256C36.5039 2.24622 35.0426 7.02645 34.6501 10.3565C32.7814 10.222 29.683 10.8013 25.7437 11.6011C25.6802 11.4479 25.6092 11.2909 25.5269 11.1339C25.3139 10.7378 24.5365 9.31752 23.5162 7.61697C18.7845 -0.239201 17.2746 0.0186851 16.5495 0.142022C16.2244 0.198084 15.6413 0.422332 15.3722 1.28943C14.7929 3.17685 16.0973 8.83913 17.3082 12.6102C14.5649 12.8606 11.5338 13.1746 10.5471 13.2905C10.4724 13.2979 10.3079 13.3316 10.08 13.3802C9.68379 12.6439 8.95872 11.3245 7.98697 9.70622C6.33501 6.95544 3.203 5.46419 1.61458 6.02107C1.02779 6.22663 0.55687 6.72372 0.280297 7.42262C-0.205575 8.65599 -0.0486011 10.3416 0.676469 11.7132C1.28568 12.8719 1.51366 16.3066 1.51366 18.2015V20.3393L1.5473 20.3094C1.55104 20.5785 1.55104 20.8626 1.55478 21.1616C1.64821 33.0991 1.92479 45.7392 3.27401 48.9871C4.67183 52.3545 6.16308 53.2553 7.60201 54.1261C7.81505 54.2569 8.02435 54.3803 8.23365 54.5148C5.96873 56.619 2.72087 61.7468 1.98085 64.0865C1.08012 66.9456 1.46508 76.0651 3.67019 77.3246C5.46418 78.3487 8.49153 78.0422 9.67257 76.7117C10.3715 75.9268 10.5285 74.0954 10.7303 71.1727C10.8125 69.973 10.8985 68.7359 11.0442 68.0856C11.1937 67.4128 11.8366 66.699 12.4869 66.1384C12.7074 70.8999 13.3017 84.1156 13.2792 88.1596C11.4254 88.5894 8.33456 89.6882 7.20958 91.314C6.70876 92.0391 6.70875 92.6968 6.79472 93.1192C7.34039 95.7242 11.0629 97.335 14.1949 97.335H25.6017L25.7288 96.5539C26.6033 91.2467 27.889 85.1995 28.7412 83.013C29.6494 85.1883 31.092 91.2504 32.1012 96.5763L32.2469 97.35L33.0355 97.3388C33.5625 97.3313 46.0195 97.122 48.8862 96.6959C49.7645 96.5651 50.4671 96.0942 50.9194 95.3355C52.3957 92.8426 50.7138 87.9802 50.3625 87.0308C49.4692 84.6202 46.6325 84.3959 44.4946 84.7323C44.4722 83.996 44.4423 82.9383 44.4087 81.6676C45.3281 82.0264 46.5764 82.3964 47.8023 82.3964C50.1233 82.3964 55.6323 81.4097 57.8412 79.1261C58.0505 78.9093 58.256 78.7 58.4578 78.4982C60.1883 76.7453 61.6795 75.2316 62.1991 71.924C62.6887 68.792 64.1687 65.3871 65.5703 64.1724C66.527 63.3427 67.4166 62.4158 67.4838 61.2423C67.5212 60.4611 67.1961 59.7062 66.4822 58.9362ZM39.9872 2.14905C40.5329 1.77904 40.9328 1.85005 41.187 1.93975C41.5196 2.05187 41.8522 2.49289 42.1624 3.21796C40.7048 4.07384 39.6882 5.32964 39.1351 6.97786C38.9931 7.40394 38.6903 7.88233 38.3988 8.34952C37.9092 9.12317 37.1729 10.3042 37.6289 11.2872C37.1953 11.1265 36.7917 10.9732 36.4777 10.8574C36.7954 7.52727 38.2717 3.3114 39.9872 2.14905ZM17.5586 4.12617C17.8016 3.86081 18.0071 3.52817 18.1679 3.16564C18.209 3.21423 18.2538 3.26281 18.2987 3.31514C18.1118 3.74121 17.7605 4.40274 17.3456 4.98953C17.312 4.79144 17.2783 4.59709 17.2484 4.41022C17.3493 4.33173 17.454 4.23829 17.5586 4.12617ZM17.8091 7.2806C18.5042 6.66392 19.1172 5.76318 19.5619 4.95589C19.7376 5.20256 19.9207 5.46792 20.1151 5.75571C19.9544 6.14814 19.5582 6.86948 18.8369 7.89354C18.6649 8.14022 18.3996 8.40932 18.1342 8.64851C18.0221 8.19254 17.9137 7.73283 17.8091 7.2806ZM20.3655 8.96994C20.7318 8.45043 21.0345 7.98324 21.2849 7.55717C21.4269 7.78516 21.5727 8.02436 21.7222 8.27103C21.4643 9.16802 20.6196 10.734 20.3655 11.0966C20.1711 11.3731 19.5582 11.859 19.0947 12.1094C18.9527 11.646 18.8032 11.1414 18.6575 10.6219C19.2779 10.1809 19.9731 9.52682 20.3655 8.96994ZM22.0287 12.2739C21.9651 12.2739 21.8941 12.2739 21.8156 12.2776C21.8455 12.2402 21.8717 12.2066 21.8904 12.1804C22.0586 11.945 22.5108 11.1638 22.9182 10.3005C23.3816 11.1115 23.718 11.7245 23.86 11.9898C23.0079 12.1543 22.309 12.2739 22.0287 12.2739ZM22.0287 14.1426C22.3165 14.1426 22.7425 14.0865 23.3181 13.9894C23.1462 14.1052 22.9518 14.2174 22.7276 14.3332C21.6736 14.8714 20.4178 14.9835 20.1001 14.7817C20.0254 14.6621 19.9432 14.4864 19.8497 14.2697C20.8402 14.1912 21.6325 14.1426 22.0287 14.1426ZM2.73208 11.9188C3.69635 12.5953 4.64567 13.6754 5.04932 15.0134C4.42516 15.2863 3.82716 15.589 3.30765 15.9179C3.22543 14.6509 3.06098 13.1036 2.73208 11.9188ZM2.01822 8.10658C2.11166 7.87112 2.20883 7.79263 2.23126 7.78516C2.27237 7.77021 2.32843 7.76273 2.39197 7.76273C3.12078 7.76273 5.19134 8.67841 6.38359 10.6668C7.16099 11.9599 7.78515 13.0737 8.20001 13.8287C7.78889 13.9483 7.29928 14.109 6.78724 14.3033C5.965 11.7693 3.74494 9.97906 1.89862 9.42591C1.83882 8.89892 1.89115 8.428 2.01822 8.10658ZM48.6096 87.6774C49.5028 90.0881 50.0298 93.1678 49.3122 94.3824C49.1478 94.6628 48.9385 94.801 48.6133 94.8496C46.2625 95.1972 36.6235 95.4028 33.7905 95.4551C30.8566 80.2025 29.4214 80.4118 28.5618 80.5351C27.8816 80.6323 26.4763 80.8378 24.0207 95.4701H14.1949C11.5787 95.4701 8.92134 94.1694 8.62234 92.7417C8.61487 92.7081 8.59244 92.5997 8.74194 92.3829C9.5156 91.2654 12.6214 90.1255 14.3369 89.8601L15.0919 89.7442L15.1256 88.9818C15.2825 85.5059 14.307 65.1928 14.2659 64.3294L14.1912 62.7933L12.8606 63.567C12.5392 63.7538 9.70621 65.4619 9.21286 67.6894C9.0372 68.478 8.95124 69.7263 8.86154 71.0531C8.76063 72.5369 8.5887 75.0186 8.27102 75.4783C7.76646 76.0464 5.75944 76.3753 4.61951 75.7287C3.72625 74.9438 2.81804 67.6333 3.75615 64.6546C4.68678 61.6982 9.03346 55.8154 10.065 55.4267L11.7431 54.9484L10.4126 53.8159C9.7548 53.2553 9.11943 52.8741 8.55881 52.5339C7.21331 51.7192 6.14813 51.0763 4.98952 48.277C3.59918 44.9282 3.46463 27.6573 3.4123 21.1541C3.40109 19.9095 3.39735 19.0985 3.38614 18.6164C3.98414 18.0969 5.32963 16.9868 6.47703 16.4561C7.37776 16.0861 8.34951 15.7422 9.19791 15.4993C9.5455 15.4059 9.76227 15.3573 9.76975 15.3573L10.6331 15.1704C10.6742 15.1629 10.7191 15.1592 10.7602 15.1517C11.9562 15.0097 15.1928 14.6808 17.9361 14.4341C18.2688 15.3012 18.564 15.9142 18.7621 16.1048C19.2442 16.572 19.9282 16.7476 20.6533 16.7476C21.6886 16.7476 22.8098 16.3888 23.5685 16.0001C24.8467 15.3461 25.6017 14.5874 25.8857 13.6829C25.9082 13.6156 25.9194 13.5483 25.9343 13.4811C25.9605 13.4773 25.9829 13.4699 26.0091 13.4661C28.5094 12.9578 33.6111 11.9188 34.9342 12.2776L35.1248 12.3486C35.7415 12.6364 36.6796 12.9728 37.7672 13.3652C38.2829 13.5521 39.0155 13.8137 39.7854 14.109C40.4694 14.4005 42.3979 15.5703 43.6948 16.3888C44.2554 19.6143 46.2251 40.0209 44.8086 43.8892C43.2687 48.0976 41.9158 50.8147 41.9046 50.8446L41.5719 51.5099L42.1475 51.9845C43.3734 52.9937 44.8235 53.6514 46.2288 54.2868C48.3779 55.2623 50.4036 56.1817 51.6145 58.256C52.5302 59.8295 53.3225 62.4158 53.6813 65.0059C54.0813 67.9062 53.7486 69.3227 53.5132 69.5843C50.3064 70.8513 49.8691 69.8123 49.7047 69.4199C49.5589 69.0723 49.3832 68.5378 49.1814 67.9137C48.1798 64.8452 46.6624 60.2145 43.2837 60.5359L42.5138 60.6106L42.4428 61.3805C42.2447 63.5819 42.2746 69.0274 42.3643 74.23H42.3605L42.3755 74.8766C42.4129 76.8836 42.4577 78.8346 42.4988 80.5239L42.5026 80.7519C42.5736 83.5998 42.6408 85.6554 42.6483 85.9096L42.6857 87.0981L43.8331 86.7767C43.8854 86.7692 47.8808 85.7115 48.6096 87.6774ZM64.3444 62.7597C62.5952 64.2734 60.9171 68.0071 60.349 71.6362C59.9267 74.3496 58.8129 75.4783 57.1236 77.1863C56.918 77.3919 56.7087 77.6049 56.4957 77.8292C54.7802 79.6007 49.9252 80.5276 47.8023 80.5276C46.4979 80.5276 45.0739 79.9483 44.3563 79.6157L44.2816 76.2557C45.8962 76.3454 49.0581 76.4351 51.3566 75.9567C54.7166 75.2615 57.43 72.3837 58.7942 68.0632C60.0612 64.0491 60.3415 63.2343 61.6197 61.3656C62.2663 60.42 63.1558 59.7959 63.9407 59.7361C64.4004 59.7024 64.7816 59.8557 65.1068 60.2107C65.4507 60.5845 65.6226 60.8947 65.6076 61.1451C65.5852 61.6272 64.8751 62.3 64.3444 62.7597Z" stroke="black" stroke-width="0.25"/>
</g>
<defs>
<clipPath id="clip0">
<rect width="67.4838" height="97.35" fill="white"/>
</clipPath>
</defs>
</svg>
