<svg width="64" height="58" viewBox="0 0 64 58" fill="none" xmlns="http://www.w3.org/2000/svg">
<path d="M32.4851 15.3492C32.3993 15.3492 32.3161 15.3492 32.2303 15.3492C25.648 15.3492 20.7172 16.829 19.227 18.3114C18.8915 18.6443 18.7225 18.9901 18.7225 19.3412C18.7225 21.518 25.3359 24.0536 32.0742 24.4619C32.6516 24.4957 33.2237 24.5139 33.7881 24.5139C39.4497 24.5139 44.3155 22.8547 45.7017 21.5492C46.0554 21.2163 46.2348 20.8678 46.2348 20.5141C46.24 18.5142 40.3339 15.396 32.4851 15.3492ZM32.1549 23.1642C29.0731 22.9769 25.9887 22.3502 23.4739 21.4009C21.1151 20.5089 20.1528 19.6559 20.0332 19.3594C20.4181 18.6469 24.6572 16.6027 32.4773 16.6495C40.2663 16.6938 44.651 19.6923 44.9293 20.4803C44.3961 21.3853 38.8984 23.5751 32.1549 23.1642Z" fill="black"/>
<path d="M34.264 37.9541C34.1912 38.0243 34.1209 38.092 34.0429 38.157C34.0013 38.1908 33.9103 38.2558 33.8089 38.326C33.6814 38.4118 33.5514 38.4951 33.4188 38.5757C32.9298 38.8722 32.3863 39.1634 31.9104 39.3273C31.822 39.3585 31.7335 39.3845 31.6451 39.4053C31.6347 39.4079 31.6295 39.4079 31.6243 39.4105C31.6165 39.4105 31.6035 39.4105 31.5853 39.4131C31.4969 39.4183 31.4059 39.4183 31.3174 39.4157C30.9768 39.4027 30.6413 39.3195 30.3188 39.2155C29.6504 39.0022 28.969 38.6563 28.5113 38.1128C28.3085 37.8709 27.895 37.9021 27.6843 38.1128C27.4451 38.352 27.4789 38.6979 27.6843 38.9398C28.2669 39.6316 29.1641 40.0737 30.0093 40.3441C30.7323 40.5756 31.5437 40.7004 32.2745 40.4378C32.9585 40.1907 33.619 39.8448 34.2276 39.4521C34.6983 39.1478 35.4031 38.7213 35.4187 38.0868C35.4369 37.382 34.4096 37.3378 34.264 37.9541ZM34.2562 38.0165C34.2536 38.04 34.2484 38.0634 34.2484 38.0894C34.2484 38.0582 34.2536 38.0374 34.2562 38.0165Z" fill="black"/>
<path d="M28.1993 32.8282C28.2435 32.9557 28.2877 33.0311 28.3761 33.1325C28.3761 33.1325 28.3761 33.1325 28.3787 33.1351C28.4333 33.2157 28.4931 33.299 28.5659 33.3614C28.6128 33.4004 28.6622 33.4368 28.709 33.4732C28.7194 33.481 28.7298 33.4862 28.7402 33.494C28.748 33.4992 28.7584 33.5044 28.7688 33.5096C28.8208 33.5356 28.878 33.559 28.9326 33.5798C28.9508 33.5876 28.969 33.5902 28.9899 33.5954C29.0471 33.6058 29.1095 33.6162 29.1667 33.6188C29.1771 33.6188 29.1849 33.6188 29.1953 33.6188C29.3513 33.6058 29.445 33.5824 29.5854 33.5122C29.6036 33.5044 29.6192 33.494 29.6348 33.481C29.6894 33.442 29.7466 33.403 29.7935 33.3536C29.8065 33.3406 29.8195 33.325 29.8325 33.3094C29.8741 33.2547 29.9209 33.2027 29.9573 33.1429C30.0041 33.0649 30.0379 32.9765 30.0691 32.8933C30.0847 32.8516 30.0951 32.81 30.1003 32.7658C30.1133 32.6774 30.1341 32.5812 30.1237 32.4902C30.1159 32.4017 30.1081 32.3055 30.0743 32.2197C30.0509 32.1573 30.0275 32.0897 29.9911 32.0324C29.9859 32.0246 29.9807 32.0168 29.9755 32.009C29.9417 31.9622 29.9079 31.9128 29.8663 31.8712C29.8195 31.8218 29.7596 31.7802 29.705 31.7438C29.6868 31.7308 29.6686 31.7204 29.6504 31.7126C29.588 31.6839 29.5178 31.6501 29.4502 31.6319C29.4372 31.6293 29.4268 31.6267 29.4138 31.6241C29.3539 31.6137 29.2889 31.6033 29.2291 31.6007C29.2187 31.6007 29.2057 31.6007 29.1953 31.6007C29.1329 31.6059 29.0705 31.6137 29.0107 31.6267C28.9873 31.6319 28.9638 31.6371 28.943 31.6449C28.8494 31.6813 28.7532 31.7178 28.6726 31.775C28.592 31.8348 28.5035 31.8946 28.4385 31.9726C28.3761 32.0454 28.3085 32.1235 28.2695 32.2119C28.2409 32.2743 28.2071 32.3419 28.1915 32.4095C28.1784 32.4693 28.1706 32.5318 28.1654 32.5916C28.1654 32.602 28.1628 32.6124 28.1654 32.6228C28.1654 32.628 28.1654 32.6332 28.168 32.6384C28.1732 32.6904 28.181 32.7528 28.1915 32.8022C28.1941 32.8074 28.1967 32.8178 28.1993 32.8282Z" fill="black"/>
<path d="M32.792 33.1533C32.909 33.3146 33.0339 33.4498 33.2081 33.5538C33.2939 33.6058 33.3876 33.6422 33.4812 33.6735C33.619 33.7203 33.8089 33.6865 33.9311 33.6136C33.9727 33.5902 34.0091 33.5564 34.0455 33.52C34.1079 33.4966 34.173 33.4706 34.2276 33.4368C34.407 33.325 34.5527 33.1689 34.6593 32.9869C34.7711 32.797 34.8283 32.5942 34.8439 32.3757C34.8465 32.3497 34.8465 32.3211 34.8439 32.2951C34.8361 32.2223 34.8309 32.1417 34.8101 32.0688C34.7659 31.9206 34.6957 31.801 34.5917 31.6891C34.5423 31.6345 34.4798 31.5903 34.42 31.5513C34.355 31.5097 34.2796 31.4811 34.2094 31.4551C34.1782 31.4421 34.1444 31.4343 34.1131 31.4291C34.0273 31.4135 33.9363 31.4005 33.8479 31.3979C33.6996 31.3953 33.5462 31.4161 33.4006 31.4499C33.2081 31.4915 33.0261 31.5955 32.8856 31.7308C32.87 31.7464 32.8544 31.762 32.8414 31.7802C32.7972 31.8348 32.7504 31.8868 32.7166 31.9492C32.6724 32.0272 32.6334 32.1157 32.6152 32.2041C32.571 32.3939 32.5736 32.576 32.6178 32.7658C32.6386 32.8568 32.6802 32.9479 32.7192 33.0311C32.7374 33.0727 32.7634 33.1143 32.792 33.1533Z" fill="black"/>
<path d="M28.3423 3.23276C28.5868 3.67487 28.7922 4.1898 28.7636 4.70473C28.735 5.20926 28.4411 5.60716 28.0978 5.95305C27.7727 6.27813 27.4243 6.5746 27.1642 6.9595C26.8911 7.3652 26.7741 7.86193 26.7923 8.34825C26.8339 9.46914 27.5257 10.2389 28.1186 11.1232C28.5373 11.7447 29.5516 11.1596 29.1303 10.5328C28.631 9.78901 27.804 8.99842 27.9782 8.01277C28.0484 7.61487 28.3423 7.3392 28.6232 7.07393C28.9925 6.72284 29.3669 6.36135 29.6088 5.90623C30.2044 4.78015 29.8871 3.49282 29.2473 2.45776C28.6674 1.52153 27.7753 0.90517 26.9899 0.163983C26.4412 -0.353548 25.6142 0.473461 26.1629 0.990992C26.9197 1.70617 27.8248 2.29912 28.3423 3.23276Z" fill="black"/>
<path d="M31.3721 2.57739C31.5697 2.84786 31.77 3.12093 31.952 3.4044C32.0196 3.50843 32.0846 3.61506 32.1445 3.72428C32.1497 3.73469 32.1653 3.76849 32.1783 3.7945C32.2043 3.88292 32.2303 3.97395 32.2537 4.06237C32.3655 4.50188 32.4175 4.9622 32.2875 5.40171C32.1705 5.79961 31.8922 6.1637 31.7023 6.53299C31.3643 7.18316 31.0444 7.91134 31.0808 8.66033C31.1328 9.67199 31.8168 10.3924 32.6464 10.8917C33.2939 11.2818 33.8817 10.2701 33.2367 9.88004C32.6542 9.52635 32.1991 9.07644 32.2537 8.41067C32.3031 7.78911 32.701 7.12594 33.0183 6.5668C33.2575 6.14549 33.4422 5.73979 33.5046 5.25607C33.5696 4.75154 33.5046 4.24181 33.3824 3.75029C33.2315 3.14954 32.8804 2.67362 32.5241 2.17949C32.147 1.65676 31.6919 1.14703 31.3981 0.572286C31.0548 -0.0986838 30.0431 0.494266 30.3864 1.16263C30.6465 1.66976 31.0392 2.11968 31.3721 2.57739Z" fill="black"/>
<path d="M63.8153 30.4668C63.5006 26.324 61.2744 24.761 59.4592 24.1811C56.5308 23.2448 52.8587 24.2617 50.8562 25.4606C50.9238 21.1773 50.7261 18.418 49.9173 17.3413C47.171 13.6796 42.4249 12.3091 33.5384 12.6159C23.6923 12.954 18.7173 13.9137 16.3663 15.9292L16.2856 16.0124C15.261 17.2711 15.3624 21.9107 15.6277 30.0039C15.6901 31.9102 15.7551 33.8815 15.7967 35.8346C15.8019 36.1025 15.8071 36.3677 15.8097 36.6356H6.92848C6.68662 36.451 6.45776 36.2923 6.26791 36.1727C6.29912 35.5303 6.11707 34.7059 5.64115 34.0558C5.18344 33.4316 4.52287 33.0883 3.78168 33.0857C3.77908 33.0857 3.77908 33.0857 3.77648 33.0857C3.13672 33.0857 2.60618 33.4134 2.2863 34.0115C1.79218 34.9296 1.8676 36.4796 2.17187 37.3066C2.03144 37.4054 1.83379 37.525 1.68555 37.616C0.902753 38.092 -0.280546 38.8123 0.0601404 39.9202C0.398226 41.0281 2.16147 43.8498 4.18478 43.8498C4.22899 43.8498 4.27581 43.8472 4.32002 43.8446C6.27051 43.7224 8.55649 40.5886 8.55649 39.0516C8.55649 38.6641 8.41085 38.287 8.1898 37.9385H15.8279C15.8383 39.5691 15.8279 41.1633 15.8149 42.6223C15.7733 48.0369 15.7837 50.908 16.5119 51.8937C18.8317 55.0431 29.4736 58 34.5735 58C36.9375 58 40.6538 57.7503 44.0035 57.0534C47.8888 56.2446 49.9199 55.1315 50.2164 53.6517C50.3725 52.8793 50.3569 50.9548 50.3387 48.0421C50.323 45.8185 50.3048 43.1606 50.3595 40.2739C51.5063 40.4066 52.5882 40.4768 53.5947 40.4768C57.1212 40.4768 59.7686 39.6628 61.4903 38.04C63.2847 36.3469 64.0675 33.7983 63.8153 30.4668ZM4.2368 42.5417C4.11456 42.5495 3.98453 42.5261 3.8519 42.4845C4.00794 42.3622 4.15358 42.227 4.29141 42.0918C4.62429 41.7563 4.92337 41.3792 5.19124 40.9891C5.36548 40.7368 5.24845 40.3285 4.98058 40.1881C4.68411 40.0321 4.36423 40.1283 4.17958 40.3988C4.11196 40.4976 4.03915 40.5964 3.96633 40.6926C3.71406 41.0125 3.43579 41.3168 3.12111 41.5742C3.01709 41.6523 2.90526 41.7199 2.79083 41.7771C2.59578 41.5872 2.40593 41.3766 2.23169 41.1555C2.52816 41.0385 2.81944 40.9163 3.10291 40.7706C3.59703 40.5184 4.10156 40.1803 4.38243 39.6888C4.53327 39.4235 4.45525 39.036 4.17178 38.8878C3.89351 38.7421 3.53202 38.8124 3.37078 39.0984C3.34997 39.1348 3.32657 39.166 3.30316 39.1998C3.28756 39.2155 3.27455 39.2337 3.25895 39.2493C3.22254 39.2883 3.18353 39.3247 3.14452 39.3611C3.12632 39.3793 3.10551 39.3949 3.08731 39.4105C3.0743 39.4209 3.0561 39.4339 3.0483 39.4391C3.02229 39.4573 2.99628 39.4755 2.97028 39.4937C2.91566 39.5301 2.86105 39.5639 2.80643 39.5978C2.70241 39.6602 2.59318 39.72 2.48395 39.7746C2.37473 39.8292 2.2629 39.8838 2.14847 39.9332C2.12246 39.9436 2.09646 39.9566 2.07305 39.967C2.02364 39.9878 1.97682 40.0061 1.92741 40.0269C1.81038 40.0737 1.69075 40.1153 1.57372 40.1595C1.45409 39.9384 1.36307 39.7304 1.30586 39.5509C1.35267 39.3377 2.06265 38.9086 2.36432 38.7239C2.96507 38.3598 3.43839 38.0712 3.54762 37.5822C3.59703 37.3534 3.55282 37.1219 3.42539 36.9269C3.26675 36.6616 3.0769 35.2573 3.4488 34.6045C3.56323 34.4016 3.67765 34.3834 3.78168 34.3834H3.78428C4.11717 34.3834 4.38503 34.5265 4.60089 34.8203C4.94938 35.2937 5.0404 36.0166 4.94938 36.3079L4.79334 36.8098L5.24845 37.0699C6.09367 37.5484 7.26136 38.5029 7.26136 39.049C7.25356 39.98 5.40189 42.4689 4.2368 42.5417ZM50.6091 32.9037C50.6351 32.2587 50.6611 31.6319 50.6871 31.0234C51.5141 30.5423 53.9952 29.7959 55.5322 30.3836C56.2681 30.6645 56.6504 31.1924 56.7337 32.0454C56.8273 33.0051 56.6244 33.7203 56.1095 34.2326C55.2123 35.1246 53.3346 35.4575 50.5207 35.2286L50.5857 33.455C50.5935 33.2703 50.6013 33.0857 50.6091 32.9037ZM48.9395 53.3942C48.5728 55.2251 40.7786 56.6971 34.5709 56.6971C28.5868 56.6971 19.1776 53.3214 17.5548 51.1187C17.0502 50.4347 17.0814 46.4661 17.1101 42.6275C17.1257 40.5366 17.1439 38.1648 17.0944 35.8034C17.0528 33.8451 16.9878 31.8686 16.9254 29.9571C16.7408 24.3189 16.5301 17.9395 17.2635 16.8706C19.9162 14.6678 26.9951 14.1399 33.5826 13.9137C41.9879 13.625 46.4195 14.8447 48.8771 18.1215C49.5611 19.0344 49.6313 22.7065 49.522 26.9638C49.5038 27.4267 49.4544 28.7582 49.3946 30.3966L49.3842 30.6515C49.3504 31.5487 49.314 32.5292 49.2802 33.4992C49.2204 34.966 49.158 36.464 49.1111 37.9203C49.0955 38.4509 49.0799 38.9736 49.0695 39.4911C49.0695 39.5015 49.0695 39.5119 49.0695 39.5197L49.0539 40.1023H49.0565C48.9993 43.0592 49.0175 45.7769 49.0331 48.0447C49.0539 50.6765 49.0669 52.7519 48.9395 53.3942ZM60.5956 37.0907C58.6582 38.9164 55.2253 39.5483 50.3881 38.9684C50.4063 38.391 50.4375 37.5276 50.4739 36.5264C51.0512 36.5732 51.5974 36.5966 52.1071 36.5966C54.4373 36.5966 56.0575 36.1181 57.0275 35.1532C57.8259 34.36 58.1614 33.2704 58.0288 31.9154C57.8962 30.5735 57.194 29.6216 55.9951 29.1665C54.3671 28.5476 52.1383 29.0027 50.7418 29.5722C50.773 28.6984 50.8016 27.8662 50.8224 27.0782C51.9303 26.0405 55.9509 24.4229 59.0639 25.419C61.147 26.0847 62.3095 27.8168 62.5175 30.5631C62.7386 33.4862 62.091 35.6812 60.5956 37.0907Z" fill="black"/>
</svg>
