<svg width="100" height="77" viewBox="0 0 100 77" fill="none" xmlns="http://www.w3.org/2000/svg">
<g clip-path="url(#clip0)">
<path d="M5.84712 54.8544C5.32344 54.8544 4.90525 55.2726 4.90148 55.7925C4.89772 57.0395 4.89772 58.3092 4.90148 59.5449C4.90148 60.0648 5.32344 60.483 5.84335 60.483C5.84335 60.483 5.84335 60.483 5.84712 60.483C6.36703 60.483 6.78899 60.0573 6.78522 59.5374C6.78145 58.3016 6.78145 57.0395 6.78522 55.7963C6.78899 55.2801 6.36703 54.8582 5.84712 54.8544Z" fill="black" stroke="black" stroke-width="0.25"/>
<path d="M9.17379 55.7134C8.71039 55.4798 8.14151 55.6606 7.90792 56.124C7.70825 56.5158 7.6442 56.9792 7.59522 57.3485C7.58392 57.4426 7.56885 57.5293 7.55755 57.6122L7.51987 57.8345C7.42945 58.3468 7.33527 58.8743 7.32397 59.4281C7.3089 60.2645 7.37671 61.1122 7.94937 61.6208C8.1302 61.779 8.35249 61.8581 8.57477 61.8581C8.83472 61.8581 9.09091 61.7526 9.27928 61.5417C9.60705 61.1762 9.59198 60.6224 9.26421 60.272C9.23031 60.1778 9.1964 59.9593 9.2077 59.4545C9.21524 59.0514 9.29435 58.5955 9.37347 58.1585L9.41491 57.9286C9.43375 57.8269 9.44882 57.7177 9.46389 57.6009C9.49026 57.4087 9.53547 57.081 9.59198 56.9717C9.8218 56.5158 9.63719 55.9507 9.17379 55.7134Z" fill="black" stroke="black" stroke-width="0.25"/>
<path d="M12.1049 59.9292C12.0333 59.6843 11.9655 59.4507 11.9429 59.2548C11.909 58.9346 11.9203 58.5729 11.9354 58.1924C11.9429 57.9814 11.9504 57.7742 11.9504 57.567C11.9504 57.0471 11.5285 56.6251 11.0086 56.6251C10.4886 56.6251 10.0667 57.0471 10.0667 57.567C10.0667 57.7516 10.0591 57.9362 10.0516 58.1246C10.0365 58.5541 10.0215 58.9986 10.0705 59.4545C10.1081 59.8199 10.2098 60.1628 10.2965 60.4604C10.3342 60.596 10.3756 60.7279 10.4095 60.8635C10.5112 61.2968 10.8993 61.5869 11.325 61.5869C11.3966 61.5869 11.472 61.5793 11.5435 61.5605C12.0484 61.4399 12.3611 60.9313 12.2405 60.4265C12.2028 60.2569 12.1539 60.0912 12.1049 59.9292Z" fill="black" stroke="black" stroke-width="0.25"/>
<path d="M97.2535 53.0573C98.4365 52.722 99.7476 52.2548 99.7476 51.0229C99.7476 49.9115 98.5834 49.5008 97.133 49.2183C97.909 48.5778 98.444 47.7753 98.6889 47.0482C98.9715 46.208 98.8999 45.4545 98.4855 44.9271C97.6792 43.8948 95.9274 44.5202 93.1432 45.6467C93.957 43.9024 94.6125 42.4067 93.5124 41.7059C92.7213 41.2011 91.6513 41.6569 89.5716 43.39C88.7051 44.1096 87.7972 44.9572 87.2396 45.5261C86.9872 45.4772 86.7234 45.447 86.4333 45.447C84.7719 45.447 83.2122 45.7748 82.1686 46.0611C82.1723 45.059 82.0819 44.0417 81.8747 43.0208C81.2305 39.8787 79.294 37.0456 76.4156 35.045C73.7483 33.1914 70.4894 32.2157 67.4679 32.3664L67.5621 34.2463C72.6256 33.9864 78.8456 37.6069 80.0286 43.3937C81.238 49.3087 77.7455 55.5363 77.0373 56.7155C76.879 56.934 76.3817 57.2618 75.6697 57.6423C74.7127 51.7161 71.5443 51.0982 71.1449 51.0455C70.4027 50.9438 69.5626 51.166 68.8204 51.6332C68.617 48.6531 67.174 42.4895 66.1191 40.6623C66.85 39.9578 67.4114 39.1252 67.7655 38.1193C69.2348 33.9336 63.7042 32.6451 61.4814 33.0709C61.0067 33.1613 60.8371 34.7097 61.3495 34.9734C61.8619 35.2372 63.6665 33.96 65.1961 35.9454C65.991 36.9815 64.3559 39.1177 61.244 40.9524C57.7892 42.9831 51.3431 43.5821 48.0466 44.151C47.3873 44.264 46.1854 44.5202 44.6784 44.8291C44.5617 44.0229 44.2904 43.228 43.9174 42.4632C45.7861 42.3012 48.2651 41.1295 48.299 41.1107C48.7586 40.8808 49.9378 40.2893 50.3372 39.3927C50.4389 39.3852 50.5482 39.3776 50.665 39.3663C53.6865 39.1365 56.6854 38.7635 57.2957 36.9853C58.0379 34.8265 55.0955 30.8179 53.7015 29.7743C53.3022 29.4729 52.5864 29.1866 51.4599 29.5294C49.5611 30.1059 47.2516 32.2496 46.2608 34.2576C46.2231 34.2652 46.1854 34.2727 46.144 34.2802C45.2247 34.5326 41.3254 35.9266 40.4664 37.622C40.4099 37.7312 40.3722 37.8367 40.3421 37.9422C39.3136 37.0079 38.285 36.2506 37.4675 35.742C39.4718 33.6021 41.2802 31.0666 42.1618 29.601C42.5084 29.0246 42.8211 28.4708 43.1074 27.932L42.9567 29.3976C43.616 29.4654 44.2866 29.5031 44.9535 29.5031C48.1068 29.5031 51.0982 28.6705 51.6144 26.297L49.7721 25.8976C49.4594 27.3368 46.2419 27.8115 43.3109 27.5402C44.5843 25.0499 45.1607 23.0193 45.0552 21.3691L43.1752 21.4859C43.2807 23.1511 42.3954 25.5585 40.5455 28.6328C38.9406 31.3002 34.9923 36.3071 32.4568 37.4298C32.4605 37.3771 32.4681 37.3243 32.4681 37.2678C32.4568 36.4202 29.7216 34.7587 29.4767 34.7587C29.3976 34.7587 29.2469 34.8453 29.0849 34.9546C28.9191 34.6344 28.7986 34.3556 28.7533 34.1597C29.8421 33.9299 30.7275 33.5908 31.4471 33.1801C32.6037 34.0504 34.5326 34.9132 34.6118 34.9471L35.3766 33.2253C35.3615 33.2178 33.9713 32.5962 32.9654 31.9444C33.5041 31.3228 33.8583 30.6295 34.0919 29.9024C35.094 30.5467 36.1037 30.6974 36.1564 30.7049L36.4239 28.84C36.4126 28.84 35.2635 28.6554 34.5439 27.8416L34.4648 27.9094C34.51 27.3745 34.5251 26.8432 34.5251 26.3271C35.192 26.6925 35.8889 27.0391 36.7102 27.0391C36.7781 27.0391 36.8496 27.0354 36.9212 27.0316L36.7856 25.1516C36.3486 25.1818 35.8663 24.9143 35.2522 24.579C35.0224 24.4509 34.7775 24.3228 34.5213 24.1947C34.6193 20.8341 35.629 20.657 36.0622 20.5855L35.7533 18.7281C34.559 18.9278 33.8206 19.6135 33.3647 20.5063C32.7431 18.7017 32.7582 17.029 33.1688 13.5441C33.2894 12.5306 33.5267 11.6566 33.8394 10.8955C35.58 11.1706 36.4126 11.4795 36.4201 11.4833C36.5332 11.5247 36.6462 11.5473 36.7592 11.5473C37.136 11.5473 37.4939 11.3175 37.637 10.9445C37.8254 10.4585 37.5843 9.91222 37.0983 9.72761C37.0606 9.71254 36.3147 9.42998 34.7964 9.15119C35.5913 8.02095 36.5369 7.21848 37.3281 6.5441C37.3771 6.50266 37.4223 6.46498 37.4675 6.42354C37.3959 6.91708 37.298 7.3428 37.1661 7.6442L38.8954 8.39393C39.2118 7.65927 39.3927 6.58554 39.453 5.43646C39.7732 5.38372 40.116 5.34228 40.4739 5.3159C40.4815 5.84712 40.4852 6.32558 40.4852 6.67219L42.369 6.66843C42.369 6.17865 42.3652 5.70772 42.3577 5.26316C42.8437 5.26693 43.2958 5.282 43.6838 5.2933C43.6424 5.80567 43.6349 6.31805 43.6688 6.81159L45.447 6.6835C45.2624 7.12429 45.1343 7.47466 45.0627 7.67811L46.8372 8.30351C47.8846 5.33851 49.482 3.27393 50.2618 3.27393C51.6407 3.27393 54.3835 4.00859 54.4852 5.70772C54.5379 6.62322 54.0783 8.12644 53.5885 9.71631C52.9141 11.9127 52.2209 14.1808 52.4357 16.0833C52.6504 17.9859 53.3173 19.5042 53.856 20.7249C54.18 21.4671 54.4889 22.164 54.4852 22.5483C54.4852 22.9929 54.3269 24.4396 52.3792 24.4396V26.3233C53.2532 26.3233 53.9728 26.1236 54.5492 25.7921C57.2957 27.6796 59.0438 33.6586 59.2925 35.8814L61.1649 35.6742C60.9238 33.5004 59.187 27.0128 55.8791 24.4358C56.2031 23.8519 56.3651 23.1963 56.3651 22.5559C56.3689 21.7722 55.9997 20.9358 55.574 19.9676C55.088 18.8637 54.4852 17.4886 54.3006 15.8686C54.1273 14.3541 54.7941 12.1802 55.3818 10.2626C55.9206 8.50318 56.4292 6.8455 56.3576 5.59093C56.2747 4.20073 55.3818 3.01021 53.8409 2.24165C52.5751 1.60871 51.1585 1.38266 50.2543 1.38266C48.0466 1.38266 46.3512 4.55111 45.5299 6.45368C45.4696 4.84497 45.9707 2.55811 46.792 0.783634L45.0853 0C44.6709 0.892891 44.2377 2.11355 43.9551 3.42086C43.9212 3.42086 43.8873 3.4171 43.8496 3.4171C43.3146 3.39826 42.7872 3.38696 42.271 3.38319C42.1957 2.23034 42.0525 1.31862 41.8076 0.68568L40.0558 1.37513C40.2291 1.81592 40.3308 2.58825 40.3873 3.43593C40.0595 3.45854 39.7431 3.49245 39.4379 3.53389C39.3701 2.29439 39.1855 1.14154 38.8954 0.406887L37.1435 1.09257C37.4035 1.75941 37.5504 2.88212 37.5768 4.03496C37.2377 4.18943 36.9325 4.3778 36.6801 4.60762C36.5068 4.76585 36.3109 4.93162 36.0961 5.11246C35.6742 5.47037 35.1731 5.89986 34.657 6.41224C33.6398 5.88856 31.27 4.78092 29.3109 4.72064C26.2781 4.62646 24.6317 6.87187 23.3093 9.31319C21.9192 11.8751 23.7238 14.3164 25.0424 16.0984C25.4003 16.5844 25.7394 17.044 25.9956 17.4622C26.4213 18.163 25.8976 20.009 25.5171 21.3616C24.952 23.3659 24.4622 25.0951 25.5698 26.037C26.1161 26.5004 26.6925 26.6775 27.2765 26.6775C28.2937 26.6775 29.3222 26.1425 30.2114 25.6791C30.6032 25.4756 30.9762 25.2797 31.3341 25.129L30.6069 23.3922C30.1737 23.5731 29.7517 23.7954 29.3411 24.0101C28.1091 24.6543 27.3179 25.016 26.8169 24.628C26.6624 24.2361 27.0768 22.7631 27.3292 21.8777C27.8831 19.9186 28.4557 17.8917 27.608 16.4902C27.3104 15.9967 26.945 15.5031 26.5607 14.9832C25.1516 13.0731 24.2098 11.6151 24.9708 10.2136C26.425 7.53118 27.5892 6.55917 29.2582 6.60438C30.6258 6.64582 32.3739 7.39178 33.3911 7.88532C33.0671 8.32611 32.7582 8.81965 32.4756 9.36217C32.4455 9.41115 32.4191 9.46012 32.3965 9.51287C31.8728 10.5715 31.4622 11.8223 31.2851 13.3293C30.7124 18.2082 30.8179 20.0316 32.6527 23.5542C32.6376 23.8142 32.6263 24.0666 32.6225 24.3115C32.615 24.7259 32.6188 25.1516 32.6225 25.5811C32.6564 28.7609 32.6828 31.5036 28.0865 32.3701L28.0036 32.389C27.4649 32.5397 27.0806 32.9051 26.9186 33.4099C26.6737 34.1747 27.0391 35.1807 27.5327 36.0773C23.0984 37.4223 12.071 42.4255 10.2136 43.8835C9.85571 44.1661 9.37347 44.4976 8.81212 44.8857C6.35196 46.5848 2.63346 49.1542 2.49784 52.3641C2.45639 53.3436 2.3396 54.4174 2.23034 55.4572C1.95909 57.9588 1.74057 60.0083 2.36221 61.2553C2.26048 61.4362 2.13616 61.6547 2.0156 61.8544C0.745961 64.0244 -2.22657 69.103 2.88588 72.4522C3.92194 73.1304 4.9806 73.4657 6.03549 73.4657C7.4709 73.4657 8.88747 72.8403 10.2023 71.6046C11.6113 70.2747 12.8998 68.1046 13.1522 66.5486C13.6006 66.6089 14.0414 66.639 14.4709 66.639C14.7873 66.639 15.198 66.6315 15.6915 66.6164C13.3067 71.1261 13.691 72.0529 13.8831 72.5088C14.7572 74.5997 18.7356 76.6681 21.0677 76.6869C21.0715 76.6869 21.079 76.6869 21.0828 76.6869C22.6048 76.6869 24.1759 74.773 24.9783 73.6315C26.5569 71.3785 27.8605 68.3419 27.6947 65.9986C27.9697 65.9835 28.2447 65.9684 28.5198 65.9496C35.3879 65.5578 42.4933 65.1509 44.0606 65.2225C45.8275 65.3054 51.3921 64.8382 56.4443 64.3409C56.4669 66.6202 57.0245 70.0034 58.6143 71.5669C59.2247 72.1659 59.9555 72.4786 60.7467 72.4786C60.8032 72.4786 60.8597 72.4786 60.9163 72.4749C62.3667 72.392 63.8398 71.322 64.9587 69.5362C65.2865 69.0163 65.5578 68.47 65.7763 67.9124C66.2359 69.0992 66.7596 70.2031 67.2607 70.9415C67.8936 71.8834 68.5341 72.3769 69.2122 72.4485C69.3818 72.4673 69.5475 72.4749 69.7095 72.4749C71.4878 72.4749 72.7047 71.3936 73.6993 70.512L74.0007 70.2445C75.6094 68.8392 76.2122 65.5314 75.8995 59.835C75.8957 59.7634 75.8882 59.6994 75.8844 59.6315C77.2106 58.9572 78.2203 58.3016 78.5932 57.7629C78.985 57.7403 79.3806 57.6951 79.7649 57.6536C80.6578 57.5519 81.5808 57.4464 82.1045 57.6913C82.7827 58.0115 83.7283 58.4561 84.8171 58.4561C85.5819 58.4561 86.4183 58.2338 87.2735 57.5971C87.443 57.4728 87.6126 57.3598 87.7783 57.2543C88.9123 57.3635 91.1163 58.6181 92.6082 59.4658C94.2885 60.4227 95.2982 60.9954 96.0366 60.9954C96.3041 60.9954 96.5377 60.92 96.7524 60.758C97.8902 59.9066 96.8617 58.4561 95.9989 57.2731C97.4042 57.5142 98.8358 57.7365 99.6119 56.9566C99.8945 56.6741 100.034 56.2973 99.9962 55.9017C99.9058 54.9486 98.8509 54.1536 97.2535 53.0573ZM70.4593 59.9141C70.8887 59.6918 71.4087 59.3188 72.068 58.7839C71.8909 59.025 71.7138 59.2623 71.5405 59.4997C71.1826 59.6391 70.8209 59.7785 70.4593 59.9141ZM63.5045 68.2967C62.9281 68.3758 62.2914 68.455 61.7225 68.5115C62.0578 68.2967 62.4157 68.0669 62.7322 67.871C63.2521 67.5432 63.7042 67.2531 64.1073 66.9894C63.9415 67.4566 63.7343 67.8974 63.5045 68.2967ZM64.4464 63.4781C64.5217 63.821 64.5594 64.1789 64.5594 64.5406C63.7645 64.7214 62.4684 65.1358 60.2532 65.8931C59.7898 66.0513 59.2774 66.2284 58.8291 66.3753C59.4394 65.6068 60.3549 64.5632 61.018 63.8699C62.4157 63.7193 63.6062 63.5836 64.4464 63.4781ZM68.7413 56.772C68.8619 56.9152 69.118 57.1224 69.5739 57.032C69.7887 56.9906 70.0034 56.9077 70.2219 56.8022C69.0615 58.3657 68.4926 59.3904 69.1896 59.9669C69.3818 60.1289 69.6078 60.1741 69.8753 60.1289C69.2499 60.3549 68.632 60.5659 68.0368 60.7542C68.4625 59.5863 68.6546 58.1735 68.7413 56.772ZM73.8877 58.5088C73.7822 58.5578 73.6729 58.603 73.5637 58.652C73.6654 58.5126 73.7633 58.377 73.85 58.2564C73.8651 58.3393 73.8764 58.4222 73.8877 58.5088ZM73.4017 56.1994C73.1379 56.4066 72.8177 56.6778 72.407 57.0282C71.8758 57.4803 70.9302 58.2828 70.2822 58.7198C70.6589 58.0869 71.3597 57.1676 71.7553 56.6515C72.5276 55.6456 72.8215 55.2387 72.8968 54.9222C73.0814 55.2801 73.251 55.7058 73.4017 56.1994ZM72.4183 54.1084C72.0793 54.0406 71.7477 54.3043 71.2203 54.7376C70.8059 55.0729 70.2294 55.5438 69.7359 55.785C69.9356 55.1106 70.561 53.8711 71.0809 52.9631C71.435 53.0837 71.9323 53.419 72.4183 54.1084ZM69.5061 53.4604C69.2461 53.9615 68.9899 54.5116 68.8129 55.0239C68.8166 54.9147 68.8166 54.8054 68.8166 54.6962H68.8392C68.8807 54.1084 69.2499 53.6865 69.5061 53.4604ZM40.4061 45.6505C39.9013 44.9459 39.08 44.249 38.059 43.6688C38.982 42.9303 40.2027 42.0638 41.0617 41.5138C41.9696 42.6779 42.6628 43.9513 42.8173 45.2021C42.0525 45.3491 41.2425 45.5035 40.4061 45.6505ZM28.241 43.6085C27.8115 42.5122 27.4385 41.1898 27.4649 40.2065C27.9358 41.3555 28.5311 42.4368 28.9417 43.1564C28.7006 43.3033 28.467 43.454 28.241 43.6085ZM30.6861 42.418C30.2302 41.623 29.3222 40.0181 28.8739 38.5827C28.9832 38.5299 29.1037 38.4734 29.2356 38.4094C29.7781 38.9067 30.5467 39.3852 31.4396 39.4831C31.4848 40.3459 31.5752 41.2877 31.6882 42.2221C31.3378 42.2597 31.0063 42.3313 30.6861 42.418ZM25.438 41.7813C25.4945 41.5138 25.5585 41.2576 25.6263 41.0052C25.7733 42.4556 26.3271 43.9438 26.7076 44.8254C26.6549 44.8706 26.6021 44.9158 26.5456 44.961C26.2028 45.2549 25.875 45.5299 25.5359 45.7974C25.2232 44.7576 25.1742 43.0547 25.438 41.7813ZM26.0031 46.6225C25.8938 46.5396 25.7959 46.4115 25.7092 46.242L26.0031 46.6225ZM27.7663 46.3964C29.1037 45.2549 30.2679 44.264 31.9444 44.0907C32.1026 45.1494 32.2609 46.0988 32.3777 46.7619C30.1925 46.9917 28.3578 47.1009 27.122 46.9389C27.3405 46.7581 27.5553 46.5735 27.7663 46.3964ZM34.2539 46.5471C34.1484 45.9632 34.0052 45.1192 33.862 44.1623C35.6101 44.4373 37.2076 45.221 38.1758 46.0197C37.4939 46.1252 36.8044 46.2231 36.1263 46.3135C35.4858 46.3964 34.8604 46.4755 34.2539 46.5471ZM44.9987 40.3609C44.7086 39.4982 44.2188 38.1946 43.6386 37.3469C44.4336 36.9137 45.4169 36.4804 46.2985 36.2016C46.7053 36.9589 47.4438 38.1494 48.4007 38.8464C47.8318 39.3173 46.2909 39.9917 44.9987 40.3609ZM52.0024 31.3341C52.3754 31.221 52.5412 31.2662 52.5638 31.2813C53.9238 32.3023 55.7925 35.5386 55.5062 36.3749C55.427 36.601 54.779 37.1661 50.5143 37.4901C50.3071 37.5052 50.1224 37.5203 49.9604 37.5353C49.9303 37.5353 49.9002 37.5316 49.8663 37.524C49.708 37.3658 49.531 37.2226 49.3576 37.0795C49.109 36.876 48.8528 36.665 48.672 36.4315C48.6607 36.4164 48.6494 36.4013 48.6418 36.39C48.5288 36.2355 48.4271 35.9982 48.3291 35.7646C48.25 35.5762 48.1332 35.3087 47.9637 35.045C48.7699 33.425 50.729 31.7183 52.0024 31.3341ZM39.7996 40.0859C38.658 40.8356 37.1058 41.9621 36.1602 42.806C35.8098 42.6855 35.4481 42.58 35.0752 42.4895C35.7834 41.608 37.0983 39.9503 38.1193 38.5638C38.6656 39.0084 39.242 39.5208 39.7996 40.0859ZM36.0811 37.1134C36.2355 37.2038 36.4126 37.313 36.6085 37.4411C35.5612 38.8652 34.1634 40.6209 33.5004 41.446C33.4099 40.6284 33.3384 39.8259 33.312 39.1064C34.1936 38.6882 35.1392 37.9761 36.0811 37.1134ZM6.9962 70.4065C7.21471 69.4948 7.4822 68.4437 7.69695 67.5997C7.91546 66.7445 8.1189 65.9421 8.2583 65.3506C8.27714 65.2677 8.29597 65.1923 8.31481 65.117C8.44291 65.1735 8.571 65.2262 8.69909 65.279C8.69533 65.2903 8.68779 65.2978 8.68779 65.3091C8.21686 67.6789 7.56132 69.3328 6.9962 70.4065ZM3.75617 69.0352C3.98599 68.6094 4.23087 68.1611 4.46069 67.7467C5.4327 65.9722 6.01665 64.8834 6.34442 64.1789C6.57047 64.2994 6.80406 64.4162 7.04517 64.5368C5.70019 66.7408 4.57748 68.1611 3.75617 69.0352ZM2.3396 69.2876C1.99676 68.6961 1.8649 68.0669 1.87997 67.4189C2.68998 66.3866 4.0651 65.0718 5.04465 64.2618C4.59632 65.1434 3.95961 66.3075 3.46984 67.2004C2.9763 68.1008 2.61086 68.7714 2.3396 69.2876ZM2.44132 65.1283C2.76533 64.356 3.19105 63.5761 3.64315 62.8038C3.68082 62.7359 3.71473 62.6794 3.7524 62.6192C4.00106 62.7962 4.28362 62.9808 4.59632 63.1767C3.9144 63.6966 3.14207 64.4087 2.44132 65.1283ZM3.66198 70.6966C4.44562 70.0411 5.46284 68.9071 6.61568 67.2644C6.61191 67.2833 6.60438 67.3021 6.60061 67.3247C6.31428 68.455 5.99028 69.7359 5.76423 70.7117C5.69265 71.0244 5.6286 71.2994 5.57963 71.5368C5.03334 71.4576 4.47953 71.2429 3.92194 70.8774C3.83152 70.8134 3.74487 70.7569 3.66198 70.6966ZM7.97574 70.9603C8.44291 70.0825 8.92891 68.9108 9.33956 67.4377C9.4865 67.984 9.6485 68.6057 9.80296 69.2273C9.30189 69.8941 8.68779 70.5195 7.97574 70.9603ZM10.6469 67.9313C10.3907 66.9329 10.2023 66.251 10.0478 65.7914C10.4698 65.9345 10.8955 66.0664 11.3213 66.1794C11.2798 66.5411 11.0425 67.1966 10.6469 67.9313ZM4.10655 60.5056C3.63184 60.0309 3.9144 57.3974 4.10278 55.6569C4.17436 54.9825 4.24594 54.2968 4.30245 53.6224C6.29168 52.5939 9.69747 51.6332 11.6905 53.6526C15.1603 57.1714 15.5333 60.1665 15.5333 61.293C15.5333 62.5965 15.085 64.0018 14.8024 64.7553C14.6818 64.7553 14.5688 64.7591 14.4709 64.7591C10.5941 64.7553 5.1313 61.5304 4.10655 60.5056ZM23.445 62.6116C23.2152 63.2106 22.9891 63.8021 22.7706 64.3899C22.5332 64.4012 22.2997 64.4162 22.0699 64.4275C22.213 63.8134 22.3411 63.2408 22.4541 62.7322C22.5069 62.4986 22.5521 62.2876 22.5935 62.0917C22.8761 62.2349 23.1624 62.4082 23.445 62.6116ZM16.9499 71.597C17.3153 70.2709 17.8917 68.4173 18.5284 66.4959C18.7507 66.4846 18.9843 66.4733 19.2179 66.462C18.2873 68.7639 17.5263 70.4781 16.9499 71.597ZM20.4122 66.5411C20.3557 66.7747 20.3029 67.0045 20.2502 67.2268C19.3573 70.998 18.8939 73.0249 18.6904 74.1514C18.1743 73.914 17.6732 73.6315 17.2249 73.3338C17.9143 72.343 18.8713 70.3613 20.4122 66.5411ZM21.3503 67.4867C21.4407 67.0987 21.5349 66.7144 21.6215 66.3376C21.7685 66.3301 21.9154 66.3226 22.0623 66.315C21.6215 67.5282 21.2109 68.681 20.8454 69.7208C20.8228 69.7811 20.804 69.8414 20.7814 69.9017C20.9735 69.0766 21.1694 68.2478 21.3503 67.4867ZM23.9423 66.2133C24.0327 66.2095 24.1269 66.202 24.2173 66.1982C24.1495 66.4168 24.0779 66.6315 24.0101 66.85C23.8029 67.4943 23.5768 68.2101 23.347 68.9071C23.5316 68.0179 23.7426 67.0798 23.9423 66.2133ZM24.8427 64.2731C24.6882 64.2806 24.5375 64.2919 24.3868 64.2994C24.4471 64.0395 24.5036 63.8059 24.5526 63.6025C24.6807 63.7456 24.805 63.8926 24.9218 64.0508C24.8917 64.1224 24.8691 64.1977 24.8427 64.2731ZM21.0074 61.9297C20.6533 62.8565 20.3142 63.723 19.994 64.5368C19.7152 64.5519 19.4477 64.5632 19.1802 64.5782C19.2292 64.4351 19.2782 64.2881 19.3309 64.145L19.2895 64.1299C20.0166 62.9507 20.642 62.0239 20.9358 61.6622C20.966 61.6547 21.03 61.6434 21.1129 61.6434C21.079 61.7376 21.0451 61.8317 21.0074 61.9297ZM16.3697 69.5099C16.057 70.5384 15.8422 71.322 15.6991 71.921C15.6765 71.8834 15.6538 71.8457 15.635 71.8118C15.6275 71.7138 15.635 71.16 16.3697 69.5099ZM23.4751 72.4937C22.2771 74.223 21.3314 74.8032 21.0828 74.8032C20.8153 74.7994 20.5177 74.7579 20.2087 74.6826C20.5666 73.85 21.0715 72.456 21.9079 70.0938C21.938 70.0147 21.9644 69.9318 21.9945 69.8489C21.4671 72.5314 21.5876 72.8931 21.8174 73.1379C21.9568 73.2886 22.164 73.3602 22.3675 73.3301C23.0155 73.2283 23.3885 72.4523 24.8276 67.9878C24.7222 68.9259 24.6129 69.8904 24.5112 70.772C24.2098 71.3559 23.8632 71.9361 23.4751 72.4937ZM44.151 63.3425C42.482 63.2672 35.6516 63.6552 28.4143 64.0696C28.0036 64.0922 27.5892 64.1186 27.1785 64.1412C26.9525 63.6778 26.6812 63.2446 26.3761 62.8414C26.3384 62.687 26.2668 62.6192 26.1651 62.5815C25.1742 61.3872 23.8971 60.5244 22.7103 60.0874C22.6463 60.0121 22.5596 59.9593 22.4466 59.9179C22.3486 59.884 22.2356 59.8689 22.1151 59.899C21.9945 59.8689 21.8739 59.8425 21.7609 59.8237C20.4498 59.5976 19.7981 60.0987 19.5306 60.4189C19.037 61.0029 17.9671 62.6305 16.8858 64.484C17.1571 63.5912 17.4208 62.4345 17.4208 61.293C17.4208 59.6089 16.8519 56.2031 13.0355 52.3302C10.8918 50.1564 7.53494 50.2581 4.64529 51.4034C5.45907 49.5008 8.06616 47.6962 9.88961 46.4379C10.4736 46.0347 10.9784 45.6844 11.3853 45.3679C12.6813 44.3507 20.4348 40.7565 25.3438 38.8426C24.2286 41.3141 23.5241 45.5299 24.4547 46.9126C25.7959 48.9131 29.7442 48.3517 33.199 48.3517C35.03 48.3517 38.0967 47.9863 41.4987 47.4551C42.1128 49.1504 42.8851 51.5352 42.8851 53.0799C42.8851 53.4303 42.8701 53.8862 42.855 54.4061C42.7307 58.3657 42.7495 61.7413 44.2263 62.9318L45.4131 61.4663C44.5466 60.7656 44.686 56.1843 44.7425 54.4626C44.7576 53.9163 44.7726 53.4416 44.7726 53.0761C44.7726 51.4335 44.1435 49.2635 43.39 47.1461C47.0934 46.5283 50.9814 45.7635 53.9916 45.0966C58.0869 44.1849 61.9561 43.4352 64.6197 41.8076C65.3656 43.3335 67.0309 49.9604 66.9668 52.3792C66.9593 52.7182 66.9555 53.1214 66.9517 53.5621C66.9367 55.7586 66.9065 60.8823 65.2601 61.4701C65.166 61.4851 65.0755 61.5002 64.9851 61.5115C61.5492 61.9787 46.9879 63.4744 44.151 63.3425ZM59.3075 64.0508C58.9948 64.3936 58.6671 64.7666 58.3657 65.1358C58.3431 64.7892 58.328 64.4577 58.3318 64.1525C58.6595 64.1186 58.9873 64.0847 59.3075 64.0508ZM60.8108 70.5949C60.6111 70.6062 60.2984 70.5798 59.9367 70.2257C59.3829 69.6832 58.9911 68.6923 58.7274 67.5997C59.1531 67.4641 59.7521 67.2644 60.6186 66.9668C61.4663 66.6767 62.6191 66.2811 63.5799 65.9835C63.0825 66.315 62.5438 66.6503 62.1256 66.9141C59.9066 68.3118 59.4394 68.6283 59.5713 69.2047C59.6202 69.4157 59.7973 69.6568 60.1552 69.6982C60.2607 69.7095 60.3888 69.7171 60.5395 69.7171C61.0783 69.7171 61.8544 69.6455 62.5739 69.5588C61.99 70.1805 61.3608 70.5648 60.8108 70.5949ZM72.7612 68.8279L72.4447 69.1067C71.484 69.962 70.6476 70.6966 69.442 70.5836C69.1595 70.4555 68.3193 69.4157 67.4076 66.9216C66.8161 65.3016 66.4996 63.9001 66.4168 63.1428C67.2908 62.9319 68.3721 62.6154 69.5249 62.2273C67.2644 65.3393 67.1062 65.8027 67.3323 66.2472C67.4377 66.4582 67.6563 66.5901 67.8974 66.5901C68.3909 66.5901 69.0879 66.0626 70.5158 64.7968C68.6433 66.9404 67.9953 67.7693 68.1234 68.3947C68.1686 68.6132 68.3118 68.7978 68.5115 68.892C68.6245 68.9485 68.7526 68.9749 68.8995 68.9749C69.54 68.9749 70.5534 68.4437 72.5314 67.336C72.9044 67.125 73.3376 66.8839 73.7332 66.673C73.4619 67.9727 73.0664 68.5642 72.7612 68.8279ZM73.9555 65.2978C73.4808 65.5163 72.8516 65.8629 71.9813 66.3527C71.3145 66.7257 70.35 67.2682 69.6606 67.5884C70.1466 66.9404 70.9453 66.0287 71.5405 65.3506C73.2472 63.4028 73.9479 62.5476 74.0082 61.9636C74.0459 61.6057 73.8538 61.3721 73.6616 61.2779C73.1304 61.0067 72.6595 61.3683 70.4743 63.3274C70.188 63.5836 69.8565 63.8813 69.5249 64.1713C70.0863 63.3689 70.7757 62.427 71.4162 61.5605C72.3053 61.229 73.1982 60.871 74.0384 60.5018C74.1363 62.5513 74.0873 64.1111 73.9555 65.2978ZM87.2396 55.3781C86.9118 55.574 86.5388 55.7963 86.1508 56.0864C85.062 56.9001 84.1163 56.5573 82.907 55.9884C81.9387 55.5325 80.7972 55.6418 79.6858 55.7699C80.5938 53.9088 81.6826 51.1434 82.0442 48.0616C82.858 47.8055 84.5986 47.3307 86.4333 47.3307C86.9909 47.3307 88.6825 47.3307 88.7428 52.6956C88.7616 54.4739 88.2832 54.7564 87.2396 55.3781ZM96.1911 55.3969C94.9139 55.1784 93.7083 54.9674 93.4333 56.0675C93.2675 56.7306 93.7046 57.3296 94.4279 58.3242C94.4317 58.3318 94.4392 58.3355 94.443 58.3431C94.134 58.1698 93.8214 57.9927 93.5388 57.8345C92.2842 57.1186 90.9279 56.3501 89.6997 55.8641C90.2536 55.2236 90.6378 54.2855 90.619 52.6806C90.6039 51.377 90.5625 48.137 88.95 46.4755C89.7148 45.7371 90.8978 44.6973 91.802 44.0342C91.6475 44.3884 91.4818 44.75 91.3574 45.0138C90.7132 46.3889 90.4231 47.0143 90.781 47.6171C90.9543 47.9072 91.2632 48.0955 91.6023 48.1144C91.9941 48.1295 92.4613 47.9562 93.7498 47.4362C94.5108 47.1273 96.1308 46.4718 96.9408 46.3211C96.9069 46.4605 96.8391 46.6488 96.711 46.8711C96.2777 47.6208 95.5205 48.201 94.6766 48.4196C94.3337 48.51 93.422 48.7473 93.4634 49.6176C93.5049 50.5256 94.3337 50.6612 95.7088 50.8872C96.0592 50.9438 96.613 51.0342 97.0953 51.1434C96.8466 51.2225 96.6017 51.2904 96.4284 51.3393C95.4715 51.6068 94.7783 51.7952 94.5522 52.4658C94.4354 52.8087 94.4995 53.1779 94.7293 53.4755C94.9554 53.7694 95.3622 54.0557 96.127 54.5756C96.4887 54.8243 97.0877 55.2311 97.5436 55.5966C97.0764 55.5476 96.5302 55.4534 96.1911 55.3969Z" fill="black" stroke="black" stroke-width="0.25"/>
<path d="M62.1708 44.0304L61.9636 44.1397C61.7187 44.2678 61.4927 44.3884 61.293 44.426C61.1724 44.4486 60.969 44.4411 60.7693 44.4336C60.385 44.4147 59.9066 44.3959 59.4394 44.5767C58.9572 44.7689 58.716 45.3152 58.9082 45.7974C59.0551 46.1666 59.4093 46.3927 59.786 46.3927C59.9028 46.3927 60.0196 46.37 60.1326 46.3286C60.223 46.2909 60.4943 46.3022 60.6864 46.3135C60.9841 46.3248 61.3231 46.3399 61.6735 46.2683C62.1294 46.1741 62.5024 45.9782 62.8339 45.8049L63.0185 45.7107C63.4819 45.4772 63.6703 44.9083 63.4329 44.4449C63.1956 43.9815 62.6342 43.7969 62.1708 44.0304Z" fill="black" stroke="black" stroke-width="0.25"/>
<path d="M52.0552 9.00425C51.799 8.32611 51.2565 7.91546 50.6009 7.90792C50.5971 7.90792 50.5896 7.90792 50.5858 7.90792C49.5536 7.90792 48.5175 8.95528 48.1106 9.97626L49.8587 10.677C49.9642 10.4171 50.1413 10.1835 50.3033 10.0215C50.2769 10.4284 50.1677 11.0387 50.0885 11.487C49.7871 13.2088 49.4443 15.1641 50.4728 16.3207L51.8819 15.0699C51.4599 14.5952 51.7651 12.8546 51.9459 11.8148C52.1493 10.628 52.3151 9.6937 52.0552 9.00425Z" fill="black" stroke="black" stroke-width="0.25"/>
<path d="M47.052 21.3917C46.9992 22.7066 46.3776 23.6145 46.1176 23.7803C45.6429 23.9234 45.3566 24.4132 45.4734 24.903C45.5789 25.3362 45.9632 25.6226 46.3889 25.6226C46.4605 25.6226 46.5358 25.615 46.6112 25.5962C47.7941 25.3099 48.8566 23.4186 48.9357 21.4671C48.9583 20.9471 48.5514 20.5101 48.0315 20.4875C47.5267 20.4687 47.0708 20.8718 47.052 21.3917Z" fill="black" stroke="black" stroke-width="0.25"/>
<path d="M22.8761 41.2048C22.8384 41.1747 22.8007 41.1446 22.7631 41.1182C22.6764 41.0654 22.5785 41.0428 22.4767 41.0428C22.3976 41.0428 22.3185 41.0391 22.2394 41.0428C22.1527 41.0466 22.0661 41.0579 21.9832 41.073C21.9455 41.0805 21.9078 41.0881 21.8702 41.0994C21.7948 41.1182 21.7308 41.1521 21.678 41.2011C21.6178 41.2425 21.5688 41.2953 21.5311 41.3593C21.4897 41.4234 21.4671 41.4949 21.4633 41.5703C21.4482 41.6456 21.4482 41.721 21.4746 41.7963C21.4934 41.8415 21.5123 41.8868 21.5311 41.932C21.5801 42.0186 21.6479 42.0827 21.7345 42.1354C21.7798 42.1542 21.825 42.1731 21.8702 42.1919C21.9719 42.2183 22.0698 42.2183 22.1716 42.1919C22.1904 42.1844 22.2055 42.1844 22.2243 42.1806C22.311 42.1769 22.3976 42.1769 22.4805 42.1769C22.5596 42.1806 22.6312 42.1618 22.699 42.1279C22.7706 42.1053 22.8309 42.0676 22.8799 42.0111C22.9364 41.9583 22.974 41.8981 22.9966 41.8302C23.0306 41.7624 23.0494 41.6908 23.0456 41.6117C23.0381 41.5628 23.0306 41.51 23.0268 41.461C22.9929 41.3593 22.9477 41.2764 22.8761 41.2048Z" fill="black" stroke="black" stroke-width="0.25"/>
<path d="M43.4201 9.86701C43.4201 9.3471 42.9982 8.92514 42.4782 8.92514H39.7732C39.2533 8.92514 38.8313 9.3471 38.8313 9.86701C38.8313 10.3869 39.2533 10.8089 39.7732 10.8089H42.4782C42.9982 10.8089 43.4201 10.3869 43.4201 9.86701Z" fill="black" stroke="black" stroke-width="0.25"/>
<path d="M35.8814 12.8094C35.5951 12.7529 35.207 13.1296 35.1317 13.2012C35.0526 13.2766 34.9885 13.3632 34.9282 13.4499C34.8906 13.5026 34.8567 13.5629 34.8303 13.6232C34.7888 13.7136 34.7436 13.8115 34.7248 13.9095C34.6984 14.0451 34.6909 14.1582 34.706 14.29C34.7399 14.5575 34.8906 14.761 35.1091 14.9079C35.1882 14.9644 35.2824 14.9983 35.3728 15.0322C35.4293 15.051 35.4858 15.0699 35.5423 15.0812C35.6441 15.1 35.7495 15.1189 35.8513 15.1151C35.9455 15.1113 36.0434 15.1 36.1301 15.0699C36.2129 15.0435 36.2996 15.0096 36.3712 14.9569C36.4428 14.9079 36.5143 14.8551 36.5709 14.7911C36.6839 14.6555 36.7781 14.5048 36.8082 14.3315C36.8233 14.2373 36.8421 14.1356 36.8346 14.0376C36.827 13.9434 36.8157 13.8379 36.7818 13.7475C36.7103 13.5516 36.5332 12.9413 35.8814 12.8094Z" fill="black" stroke="black" stroke-width="0.25"/>
<path d="M41.4648 12.0861C40.9449 12.0597 40.3722 12.3008 40.0407 12.7039C39.9503 12.8132 39.8674 12.9224 39.8071 13.0505C39.7242 13.2314 39.6828 13.3821 39.6602 13.578C39.6263 13.853 39.6978 14.1619 39.8372 14.403C39.9804 14.6442 40.2027 14.8099 40.4664 14.8966C40.6925 14.9719 40.9373 14.9569 41.1709 14.9117C41.3668 14.874 41.5627 14.7911 41.7285 14.6894C41.9357 14.5613 42.1053 14.403 42.2409 14.2034C42.4104 13.9547 42.4669 13.6307 42.3954 13.3406C42.3388 13.107 41.9847 12.1124 41.4648 12.0861Z" fill="black" stroke="black" stroke-width="0.25"/>
<path d="M29.2205 11.1781C29.7404 11.1781 30.1624 10.7561 30.1624 10.2362C30.1624 9.71631 29.7404 9.29436 29.2205 9.29436C28.4482 9.29436 27.7851 9.71255 27.4084 10.4359C26.6888 11.8148 27.0542 14.015 27.8341 15.1302C28.3766 15.9025 29.002 16.0645 29.4277 16.0645C29.5068 16.0645 29.5822 16.057 29.6462 16.0494C30.1624 15.9816 30.5241 15.5107 30.46 14.9945C30.396 14.5048 29.9665 14.1582 29.4805 14.177C29.1489 13.917 28.7307 12.5344 28.9907 11.5548C29.0171 11.4418 29.0999 11.1781 29.2205 11.1781Z" fill="black" stroke="black" stroke-width="0.25"/>
</g>
<defs>
<clipPath id="clip0">
<rect width="100" height="76.6869" fill="white"/>
</clipPath>
</defs>
</svg>
