<svg width="282" height="207" viewBox="0 0 282 207" fill="none" xmlns="http://www.w3.org/2000/svg">
<g clip-path="url(#clip0)">
<path fill-rule="evenodd" clip-rule="evenodd" d="M273.342 155.656C184.531 159.795 93.5865 164.325 5.60971 167.617C3.85695 157.334 4.39887 146.466 4.65289 135.75C5.1059 116.539 6.37178 98.0321 6.55383 79.4527C6.77822 56.9456 7.9933 32.1802 8.90355 8.06301C20.885 6.56733 33.4634 7.58846 46.2365 7.63507C58.6287 7.68167 71.7617 7.2156 84.4713 8.30452C91.4824 8.90617 98.2733 10.8764 105.344 11.3298C119.213 12.2195 133.591 11.6475 148.075 12.4314C184.404 14.4016 220.611 15.1049 256.496 16.8548C263.922 17.2192 270.975 18.842 277.517 18.3802C282.258 18.0454 281.75 19.0666 281.928 24.8586C282.457 41.8321 279.786 66.4747 278.638 85.0625C276.975 112.052 275.434 133.644 273.342 155.656ZM252.762 19.0115C251.894 21.3842 252.906 25.8543 252.25 29.5532C261.665 29.8244 271.251 30.3074 279.947 29.7057C280.637 26.0746 279.964 23.5621 279.82 20.6131C271.704 21.1808 262.076 19.9055 252.762 19.0115ZM219.663 17.3251C219.523 21.2741 219.455 25.1594 219.553 28.9134C229.946 29.2609 239.921 29.0871 250.251 29.3583C249.32 26.9051 250.734 22.5197 250.713 19.3166C240.984 19.4055 230.429 18.4946 219.663 17.3251ZM182.427 16.7574C182.41 20.6046 182.668 24.2273 182.867 27.8923C194.468 28.2143 205.835 28.2524 217.559 28.7228C217.537 25.062 218.007 20.9902 217.622 17.6345C206.077 17.5667 193.663 16.4523 182.427 16.7574ZM140.297 14.7024C139.776 18.8081 140.488 21.9011 139.688 26.2399C152.677 25.8289 166.711 26.689 180.869 27.6974C180.793 23.9307 181.11 19.8335 180.433 16.5625C167.541 16.5371 153.159 14.6982 140.297 14.7024ZM98.1632 12.6475C98.4511 16.4015 98.0065 20.7487 98.5527 24.2823C112.465 25.9221 124.886 25.7568 137.689 26.045C138.451 21.7401 137.926 18.4903 138.299 14.5075C124.141 12.9441 112.681 14.6516 98.1632 12.6475ZM58.1248 9.79171C57.6803 14.91 57.5872 19.7445 58.273 23.9264C71.4696 24.6976 83.5653 24.1298 96.5078 24.5959C96.512 20.6046 95.9447 17.0836 96.6645 12.5076C83.6627 9.42309 71.1139 11.0586 58.1248 9.79171ZM25.9316 9.20276C25.2754 14.4948 25.902 18.7318 24.9832 24.24C35.3728 24.0239 45.1442 23.0536 55.8259 23.185C56.0207 18.7318 55.7286 14.6812 56.08 10.101C45.2078 8.79601 36.9478 10.6773 25.9316 9.20276ZM271.623 32.4344C270.434 35.7266 271.771 40.8915 270.87 45.476C273.969 46.0776 276.191 45.6073 278.909 45.7471C279.566 41.0652 278.804 37.557 279.659 32.7098C277.047 32.6971 273.516 31.57 271.623 32.4344ZM234.434 31.3624C233.951 36.2096 234.434 40.2517 233.583 45.3997C244.773 44.8489 256.593 45.0607 268.82 45.781C269.337 40.9084 269.506 36.3197 269.125 32.1929C258.24 32.7437 246.221 31.909 234.434 31.3624ZM10.3049 9.20276C11.1263 14.3508 9.28035 21.702 10.6648 26.3881C13.8993 25.295 18.7554 26.1636 22.3414 25.4984C22.8579 20.1682 23.3702 14.838 23.8825 9.50783C18.9375 8.89346 14.4582 8.84685 10.3049 9.20276ZM231.936 31.1209C222.715 32.4556 212.601 29.8413 202.74 30.8243C202.525 35.7562 202.004 40.9381 202.342 45.4124C211.009 44.2176 222.313 46.2259 231.543 45.7132C231.471 41.0144 232.419 35.4808 231.936 31.1209ZM161.11 28.816C160.708 34.0529 160.962 38.7476 160.115 44.3531C174.264 45.9081 186.233 44.815 199.798 45.6666C200.721 40.15 200.001 35.9977 200.746 30.6294C188.16 30.7904 174.328 29.4346 161.11 28.816ZM117.334 28.1169C117.511 33.0276 117.113 38.4171 116.838 43.7049C131.203 44.9675 143.519 43.7345 157.567 44.6116C157.414 39.5272 160.081 32.1166 158.113 28.5279C144.569 28.4558 130.682 27.9559 117.334 28.1169ZM76.6474 26.7102C76.2791 32.0319 76.7702 38.7179 75.5593 43.2473C88.6796 43.5566 101.267 43.2134 114.789 44.0142C115.555 37.5697 114.971 34.7648 115.831 27.977C102.156 26.8034 89.0353 26.3076 76.6474 26.7102ZM41.0079 25.2823C40.7031 31.0531 40.1019 37.0697 40.3686 42.3702C51.0164 42.0948 62.8836 43.2939 74.0098 43.6032C73.4763 38.6798 74.8227 32.2014 75.1487 26.5661C63.2095 26.6678 52.4305 24.7399 41.0079 25.2823ZM253.058 47.2809C253.456 53.3907 252.038 61.0004 251.576 67.8136C260.158 67.6314 269.032 67.8009 277.33 67.2755C277.512 60.8394 278.49 53.7466 278.211 47.6919C270.467 48.3317 262.364 48.5351 253.058 47.2809ZM24.7885 26.2399C24.2254 32.0658 23.6623 37.9002 23.1035 43.7261C28.2009 43.2219 33.5819 43.0566 38.3703 42.1796C37.4219 37.2858 40.7285 28.8838 37.9638 25.4941C33.9503 26.2017 28.7174 25.4221 24.7885 26.2399ZM217.275 47.3572C216.521 54.1068 216.945 59.8903 215.89 66.8899C225.696 66.2247 238.554 68.1864 249.587 67.6271C249.565 61.0513 252.402 52.1239 250.565 47.0437C239.506 47.1962 229.714 48.8825 217.275 47.3572ZM10.0721 27.3372C9.50897 33.1632 9.87307 38.2306 8.92895 44.3743C13.3109 44.6709 16.321 43.3024 21.0586 44.0311C21.6936 37.9891 22.2356 32.0234 21.6979 26.9474C18.7427 28.1974 14.1957 27.5067 10.0721 27.3372ZM181.982 47.4758C181.546 54.5813 182.105 60.8648 182.05 67.6568C192.364 66.9704 204.256 68.2076 213.892 66.6992C214.586 63.8986 214.133 60.5894 214.307 57.1574C214.502 53.3695 216.326 48.5775 214.273 47.0691C203.922 47.7004 193.202 47.8953 181.982 47.4758ZM138.21 46.7767C138.633 53.6322 138.138 61.2462 138.68 68.0042C153.176 69.0508 165.467 67.4195 179.506 67.9153C180.564 60.4496 179.362 54.8483 179.933 47.7851C165.59 46.9123 151.521 46.3869 138.21 46.7767ZM93.4384 45.9802C93.3494 53.4119 92.7356 61.2758 92.219 69.0635C106.897 68.8389 121.08 68.0212 136.14 68.2627C135.767 61.0597 137.571 52.0561 135.217 46.4886C121.919 47.0818 106.482 45.0777 93.4384 45.9802ZM53.7514 44.6667C54.052 52.7001 53.2476 61.6402 53.3365 69.8431C64.9666 68.894 78.8913 70.7456 90.1699 69.3643C91.004 61.1699 90.8304 53.7975 91.4358 45.7853C78.7389 45.2472 67.1766 46.0903 53.7514 44.6667ZM22.9087 45.7259C23.3279 53.5009 21.7444 62.708 21.592 69.805C31.4481 69.8643 41.1095 69.6948 51.2916 70.1524C50.936 62.1656 52.2019 52.8442 51.7023 44.976C40.7835 43.6117 32.1933 45.0946 22.9087 45.7259ZM270.552 69.6524C270.04 74.9826 269.523 80.3128 269.011 85.643C271.708 86.1302 273.198 85.1472 276.047 85.8167C276.835 80.1052 276.136 75.6267 277.093 69.7796C275.141 70.0126 273.02 70.0465 270.552 69.6524ZM232.266 69.483C232.211 74.5886 232.203 79.6561 231.771 85.0667C241.75 86.8675 255.052 85.2744 266.962 85.9481C267.728 80.7365 267.508 74.3301 269.003 70.0041C256.678 69.7329 245.145 70.4193 232.266 69.483ZM9.18721 46.9208C8.89508 54.9839 8.66646 62.9918 8.3701 71.0507C12.5065 71.4193 15.3007 70.1609 19.4963 70.6143C19.8604 62.6486 20.4489 54.4966 20.813 46.5352C16.4311 46.0522 10.9484 45.9081 9.18721 46.9208ZM196.983 69.6016C197.237 75.2157 196.822 81.3848 197.338 86.7828C207.969 86.2997 218.668 85.893 229.675 85.8718C230.26 80.1772 229.828 75.3174 230.768 69.3347C219.4 67.7076 208.867 70.1778 196.983 69.6016ZM158.604 70.4321C159.243 75.7241 158.274 82.3551 158.413 88.0666C171.187 88.3208 182.977 87.3844 194.845 86.5412C195.154 80.7662 195.107 75.2877 194.938 69.9067C182.19 69.3135 170.678 70.216 158.604 70.4321ZM112.236 70.4956C111.216 77.0122 111.8 82.1983 111 88.5326C127.308 89.9224 141.699 88.9775 156.368 88.3759C156.309 82.0839 157.059 76.1436 157.059 70.7922C141.576 70.0295 127.295 70.7329 112.236 70.4956ZM74.3104 71.8684C73.3324 78.1943 73.7642 83.3592 73.1249 89.4097C85.5171 89.7614 97.5535 89.6809 108.959 88.8377C109.535 82.8381 110.115 76.8469 110.695 70.8473C98.0108 70.5168 87.4476 72.7582 74.3104 71.8684ZM248.058 88.6555C248.435 94.634 247.148 101.977 247.173 108.239C256.378 108.438 265.209 108.197 274.375 108.349C274.735 101.612 276.386 93.8162 275.853 87.8123C266.877 88.4479 256.547 87.431 248.058 88.6555ZM209.726 88.9902C210.048 94.8585 209.586 101.371 208.896 108.074C219.337 110.391 233.609 108.548 245.133 108.548C245.018 102.201 245.967 94.9856 246.61 88.0157C246.276 87.9818 245.946 87.9522 245.611 87.9183C233.757 87.7234 221.432 87.6768 209.726 88.9902ZM36.0248 71.7032C35.7411 78.0672 35.2966 84.5625 35.7411 90.3376C47.2399 89.791 58.5059 88.9606 71.0758 89.7148C71.8125 83.588 71.2663 78.5205 72.2613 72.1735C59.1917 70.8134 48.9334 72.8641 36.0248 71.7032ZM207.779 88.2996C196.242 88.9945 182.304 89.719 171.847 89.8715C172.215 95.8542 170.814 103.294 170.966 109.455C182.855 108.828 195.53 109.146 207.347 108.43C206.144 102.828 209.891 93.1468 207.779 88.2996ZM21.4015 71.8049C20.7029 78.207 21.1306 83.677 20.1187 90.3376C22.9765 90.7317 28.7428 90.0961 33.1967 90.5961C33.3703 86.1175 34.2932 77.152 33.4846 71.9616C29.2593 71.6693 25.7665 72.2667 21.4015 71.8049ZM8.72573 72.5972C8.50135 79.0671 8.50558 85.3506 8.39127 91.7274C11.9857 90.8122 14.5894 91.918 18.5226 91.1935C19.056 84.7744 19.454 78.4655 19.3058 72.6099C15.4616 72.2158 12.6546 73.0887 8.72573 72.5972ZM130.373 91.4096C129.912 97.9219 129.946 104.027 128.993 110.947C142.152 110.175 156.322 110.65 168.964 109.26C169.73 102.65 169.252 97.066 170.297 90.2274C169.963 90.1978 169.633 90.1639 169.298 90.13C155.962 90.1088 143.765 91.4816 130.373 91.4096ZM91.0463 91.6469C90.3435 98.3583 91.0336 103.922 90.2165 110.73C102.888 111.239 114.781 110.794 126.999 110.752C127.334 103.239 128.265 97.4601 127.88 91.1681C115.259 90.9096 103.167 91.2952 91.0463 91.6469ZM54.759 91.668C54.886 98.1549 53.798 105.646 54.3314 111.798C65.2375 110.9 76.8718 110.891 88.6669 111.082C88.3706 105.044 89.1792 98.0871 89.0014 91.9519C77.5576 91.8248 65.7794 91.2825 54.759 91.668ZM262.605 110.235C262.284 114.082 261.068 122.497 261.462 127.276C265.988 127.746 269.671 127.2 273.592 126.933C273.541 121.764 274.049 116.133 274.684 110.396C270.408 110.04 267.356 111.171 262.605 110.235ZM227.224 111.358C227.389 116.891 226.411 123.369 226.534 128.941C237.77 128.632 248.054 127.17 259.468 127.081C259.553 123.446 259.409 115.34 261.06 110.591C249.354 110.328 238.376 110.951 227.224 111.358ZM19.9282 92.3375C19.6276 98.871 18.8274 105.815 19.0476 111.921C30.6437 112.425 41.5413 112.078 52.3373 111.607C52.35 108.235 52.2992 103.727 52.4982 99.5193C52.621 96.8584 54.3992 92.7273 51.77 91.3799C41.7192 92.3883 30.8173 92.3587 19.9282 92.3375ZM224.726 111.116C212.969 110.79 201.551 110.879 189.988 110.786C189.044 116.929 189.413 121.997 188.85 127.823C200.471 127.128 214.84 129.784 225.035 128.797C223.223 124.31 226.788 115.395 224.726 111.116ZM17.3329 93.0959C15.017 94.1891 10.0213 92.0282 8.20075 93.7272C9.33116 98.7735 7.65037 106.142 7.96366 111.862C10.868 111.485 14.3862 111.849 17.0958 111.23C17.1932 105.171 18.7639 97.8965 17.3329 93.0959ZM151.559 112.116C151.03 117.611 150.496 123.107 149.967 128.602C161.758 130.068 174.709 128.149 186.8 128.128C186.436 123.759 189.421 115.357 186.94 110.993C175.183 111.413 163.532 111.955 151.559 112.116ZM114.726 112.595C114.201 116.908 113.595 125.141 112.939 131.081C125.86 131.704 136.364 129.386 148.422 128.962C147.109 124.522 150.75 116.001 148.515 112.328C137.397 112.59 126.699 113.362 114.726 112.595ZM72.3544 113.035C72.8709 118.899 72.0157 125.886 72.0242 132.17C83.6627 132.344 97.833 130.78 111.402 131.437C110.136 126.348 113.883 117.128 111.686 112.807C98.6247 112.942 85.4578 112.951 72.3544 113.035ZM240.514 130.293C241.047 133.382 240.217 137.589 239.951 141.334C250.742 140.487 262.381 140.669 272.889 139.47C272.889 135.941 274.032 131.475 272.356 129.335C262.262 130.284 250.243 128.899 240.514 130.293ZM35.521 113.514C34.7504 118.484 35.1738 126.34 35.2373 132.149C46.6049 132 58.8276 132.894 69.975 132.479C70.4704 125.937 70.2587 119.98 70.8049 113.396C58.3154 112.548 48.4804 114.925 35.521 113.514ZM203.227 130.221C203.342 134.115 202.635 138.682 203.071 142.313C215.103 142.597 226.428 142.025 237.91 141.644C237.622 138.199 240.061 132.509 237.969 130.551C227.495 131.784 215.857 131.602 203.227 130.221ZM18.3067 114.37C18.5268 120.315 17.8579 127.005 17.4726 133.454C22.7478 133.157 27.3414 132.038 33.1924 132.449C32.7098 126.403 34.3101 118.645 32.4769 113.722C28.4126 114.739 22.5234 113.544 18.3067 114.37ZM168.392 130.89C167.626 135.504 168.507 138.767 167.685 143.428C178.515 144.894 190.272 141.457 201.022 142.614C201.17 138.504 201.403 134.331 201.182 130.522C188.756 128.827 179.54 131.03 168.392 130.89ZM7.77315 113.857C8.01447 120.56 6.32098 128.856 7.79431 134.538C9.37773 132.928 12.9044 133.674 15.4743 133.263C16.3718 126.39 16.5031 120.149 16.8545 113.726C13.7088 113.633 10.4616 113.408 7.77315 113.857ZM129.92 132.721C129.395 136.987 130.428 139.966 129.81 144.309C141.529 143.847 153.938 144.216 165.645 143.733C165.395 139.801 167.905 133.585 165.852 131.144C153.485 131.204 140.767 130.827 129.92 132.721ZM252.385 143.042C253.084 145.991 251.979 150.427 251.822 154.084C258.681 154.224 265.052 153.783 271.987 154.016C271.953 150.465 272.279 146.813 272.644 141.974C265.942 142.385 258.922 142.415 252.385 143.042ZM218.998 144.355C218.105 147.919 219.248 153.961 216.89 155.753C214.591 153.139 217.719 148.465 217.453 144.711C205.649 144.144 194.781 144.707 183.663 144.978C183.909 148.915 183.557 153.346 183.456 157.567C205.061 155.524 230.052 157.592 250.323 153.94C250.488 149.893 251.754 144.343 250.383 142.851C239.904 143.322 229.87 144.343 218.998 144.355ZM52.1638 134.288C52.1299 139.521 52.7734 143.847 51.3128 148.33C64.9369 148.317 77.3248 146.8 90.788 146.593C90.6695 143.55 90.2461 136.102 92.4942 134.148C94.8016 136.695 91.1098 144.182 93.2859 146.834C104.455 145.703 116.025 145.055 127.77 144.618C128.337 142.059 128.087 136.458 127.88 133.03C101.969 132.636 78.434 135.123 52.1638 134.288ZM181.119 145.233C172.55 146.919 161.081 145.08 152.274 146.482C152.727 149.94 152.512 153.952 152.164 158.071C160.962 159.058 171.961 157.944 181.411 157.867C181.597 155.181 182.778 147.91 181.119 145.233ZM17.3244 134.954C17.3244 139.703 17.1847 144.576 16.9265 149.542C28.8486 150.253 38.8318 148.609 50.2671 148.728C49.3991 144.533 50.7582 138.513 50.1654 134.093C38.709 133.759 28.2093 134.589 17.3244 134.954ZM150.78 146.334C138.21 145.402 123.574 146.775 110.856 147.521C110.593 151.876 110.847 155.804 110.098 160.562C124.158 160.893 136.254 158.833 150.073 158.876C150.941 155.918 150.056 150.681 150.78 146.334ZM7.15079 135.992C6.76128 140.758 7.16349 144.872 6.84596 149.576C9.98738 150.228 11.7401 149.194 14.8816 149.851C13.7427 145.728 17.0492 137.941 14.2804 135.165C11.9772 135.526 9.19568 135.309 7.15079 135.992ZM66.2875 149.77C66.4314 154.096 65.6143 159.219 65.9869 163.359C80.0555 162.21 94.12 161.058 108.599 160.414C108.045 156.884 109.04 152.08 109.306 147.872C94.8185 148.326 80.3646 148.817 66.2875 149.77ZM30.8597 151.393C30.5675 155.978 31.8884 161.511 31.0544 165.028C42.1722 164.761 51.9648 162.888 63.942 163.668C63.7218 159.405 64.7295 154.126 64.2426 150.084C52.6845 149.991 42.0917 151.08 30.8597 151.393ZM17.2355 151.592C16.6724 156.461 17.3117 161.884 16.3845 165.63C20.5632 165.121 25.36 165.367 29.5599 164.884C29.0476 160.71 29.001 156.143 28.8148 151.698C24.6361 151.279 21.1941 151.749 17.2355 151.592ZM6.79939 165.71C9.77146 166.337 10.7833 164.596 13.8866 165.384C14.7503 162.494 14.9324 156.338 14.6911 151.847C11.4861 151.012 8.90778 152.351 6.70201 151.075C7.19312 155.575 6.76975 160.829 6.79939 165.71Z" fill="black"/>
<path fill-rule="evenodd" clip-rule="evenodd" d="M226.487 84.8507C229.011 77.135 232.402 69.3431 232.817 61.475C233.913 40.5441 223.875 23.7993 211.678 14.8846C193.621 1.68204 153.608 0.762604 131.859 7.96132C115.648 13.3254 102.075 21.7486 91.6432 33.0022C80.6694 44.8446 70.4026 58.687 68.87 80.2069C66.9691 106.976 77.8201 124.954 91.3892 138.483C104.844 151.902 126.254 156.122 148.663 151.732C154.425 150.605 160.581 149.8 166.009 148.143C169.214 147.169 172.063 144.194 177.321 144.224C177.3 161.448 174.396 180.129 174.777 199.611C194.027 165.88 212.914 126.378 226.487 84.8507Z" fill="white"/>
<path fill-rule="evenodd" clip-rule="evenodd" d="M174.226 154.66C155.145 161.503 125.386 166.07 104.531 156.372C84.9116 147.249 72.185 125.746 67.6296 102.854C63.0995 80.0967 69.6575 57.0939 80.589 41.4847C97.092 17.9056 126.499 0.321972 161.55 0.00843177C197.834 -0.317819 221.199 11.5628 231.716 35.6757C236.487 46.6157 240.891 61.4792 238.609 75.4275C237.703 80.9696 234.904 87.8293 232.554 93.7739C221.369 122.073 209.358 150.27 195.636 178.057C193.261 182.866 190.069 188.878 187.207 193.742C184.65 198.094 180.505 206.602 176.432 206.275C168.485 205.631 171.686 191.658 172.143 183.323C172.732 172.688 172.914 163.079 174.226 154.66ZM226.487 84.8507C229.011 77.135 232.402 69.3432 232.817 61.475C233.913 40.5441 223.875 23.7993 211.678 14.8846C193.621 1.68206 153.608 0.762623 131.859 7.96133C115.648 13.3254 102.075 21.7486 91.6432 33.0022C80.6694 44.8447 70.4026 58.687 68.87 80.2069C66.9691 106.976 77.8201 124.954 91.3892 138.483C104.844 151.902 126.254 156.122 148.663 151.732C154.425 150.605 160.581 149.8 166.009 148.143C169.214 147.169 172.063 144.194 177.321 144.224C177.3 161.448 174.396 180.129 174.777 199.611C194.027 165.88 212.914 126.378 226.487 84.8507Z" fill="black"/>
<path d="M103.968 69.0593C100.64 69.0593 97.3799 71.5591 94.1961 76.5546H93.76C91.5881 72.2074 89.3443 70.0338 87.0284 70.0338L82.0326 71.1185H81.5965C81.0165 67.4958 79.8226 65.6866 78.0148 65.6866C76.207 65.6866 75.047 66.5933 74.5389 68.4026C75.6228 72.4574 76.3848 77.2029 76.8209 82.6347L76.1689 93.1722L76.605 105.993C77.0411 108.527 78.0148 109.798 79.5347 109.798C81.2706 109.798 82.3925 108.892 82.9005 107.082L83.3366 90.4605V84.7024C83.3366 80.6476 84.2426 77.9316 86.0504 76.5546H86.3764C87.9683 76.5546 88.8743 81.0797 89.0902 90.1343L87.6804 103.282C87.6804 105.311 88.8024 106.468 91.0462 106.76C91.0462 106.252 91.6601 105.998 92.8921 105.998C93.76 105.998 94.882 100.566 96.2579 89.6979C99.0099 80.2069 101.36 75.4657 103.316 75.4657C106.719 75.4657 108.417 79.0883 108.417 86.3294L107.113 105.993C107.113 111.281 108.235 113.925 110.479 113.925C112.723 113.637 113.845 112.586 113.845 110.773V108.709L114.823 86.7616L114.607 82.9567C114.611 74.9954 111.063 70.3601 103.968 69.0593Z" fill="black"/>
<path d="M161.097 91.4265L160.941 90.4096C160.941 86.4565 158.731 84.2956 154.311 83.9312C152.753 83.9312 151.267 84.4015 149.865 85.3379L148.227 85.1049L147.448 85.3379C145.678 85.3379 144.798 90.3842 144.798 100.481V108.286C144.848 110.057 145.577 110.938 146.982 110.938C148.803 110.938 149.713 109.142 149.713 105.553C149.713 95.1975 151.013 89.4987 153.612 88.4564H154.548C155.848 88.4564 156.5 89.2106 156.5 90.7189L156.267 101.489V101.646L156.034 101.96L156.267 102.117V103.133C156.267 107.506 157.88 110.366 161.102 111.722C162.194 111.722 162.947 110.968 163.362 109.459V109.303C161.749 106.909 160.945 105.01 160.945 103.604L161.097 91.4265Z" fill="black"/>
<path d="M185.661 105.502C183.684 105.502 182.698 102.328 182.698 95.9771V89.8885L186.131 68.1865C185.403 66.5213 184.599 65.6866 183.714 65.6866C181.792 65.6866 180.255 69.9279 179.112 78.4104C179.112 82.6263 178.358 84.7321 176.851 84.7321C169.26 91.0791 165.462 97.0915 165.462 102.765C166.14 107.659 168.087 110.103 171.313 110.103C174.069 110.103 176.411 107.998 178.333 103.782H179.112C180.412 107.998 182.207 110.103 184.493 110.103C186.572 109.896 187.613 109.192 187.613 107.998C187.613 106.96 186.961 106.125 185.661 105.502ZM171.779 105.502H171.309L170.06 104.252V102.146C170.06 99.0744 172.427 95.1721 177.16 90.4351H177.63C175.395 100.477 173.443 105.502 171.779 105.502Z" fill="black"/>
<path d="M211.585 87.7023C209.607 81.978 206.695 79.1138 202.85 79.1138C201.601 79.1138 200.458 79.3723 199.417 79.8934C193.435 84.1601 190.446 90.4055 190.446 98.6296V99.5659C190.446 100.816 190.678 102.273 191.148 103.939C192.448 107.527 194.658 109.324 197.778 109.324C199.912 109.324 202.016 108.362 204.095 106.434C209.294 100.604 211.894 94.9052 211.894 89.3378L211.585 87.7023ZM207.215 90.1216C204.717 99.8541 201.572 104.718 197.778 104.718C195.958 104.718 195.048 102.947 195.048 99.4092C195.048 94.7781 195.958 90.9266 197.778 87.8548C199.857 87.3336 200.899 86.6303 200.899 85.749C200.899 84.4482 201.369 83.7957 202.304 83.7957C204.696 83.7957 206.335 85.41 207.22 88.6344V90.1216H207.215Z" fill="black"/>
<path fill-rule="evenodd" clip-rule="evenodd" d="M175.458 49.3361C177.139 47.4591 176.847 44.8575 178.938 43.133C181.004 43.2051 182.617 44.4974 184.929 43.8915C184.772 41.7518 182.118 41.1628 181.216 38.9045C181.411 37.447 183.443 36.6673 183.337 35.0996C182.101 34.3031 180.098 35.6038 178.286 36.3792C177.291 34.9259 176.318 33.4133 175.263 32.1295C174.971 32.2651 174.683 32.4007 174.391 32.532C175.268 36.4767 174.218 39.7095 169.391 41.5526C173.104 41.9636 174.37 45.7812 175.458 49.3361ZM175.467 34.8581C176.369 35.464 176.982 36.858 177.816 37.6546C178.718 37.5995 179.76 37.1758 180.856 36.6038C180.67 37.5783 179.544 38.2139 179.628 39.2901C180.297 40.7561 181.394 41.0527 182.114 42.3746C179.281 40.7179 176.326 43.0441 175.992 45.9168C174.65 44.1711 174.408 40.9552 171.673 41.917C174.62 40.1798 176.225 37.9512 175.467 34.8581Z" fill="black"/>
<path fill-rule="evenodd" clip-rule="evenodd" d="M219.972 45.6709C209.502 26.9518 186.043 22.2571 169.129 21.9055C169.404 26.2696 171.661 31.3625 171.576 35.5953C166.466 38.2223 161.309 40.828 158.282 44.2219C162.363 44.921 166.661 45.0439 170.378 46.7387C171.161 50.8867 172.469 55.2297 173.854 59.6023C183.117 58.1575 195.861 52.929 203.638 59.9328C205.569 61.6742 208.058 64.3944 208.985 67.695C210.514 73.1311 204.396 76.7241 199.315 79.5841C208.1 87.7192 221.331 75.148 223.16 67.8391C224.701 61.7081 224.659 54.0603 219.972 45.6709ZM171.407 45.9167C169.108 42.8025 164.277 44.7896 161.03 43.3067C164.078 40.5653 169.48 38.6926 172.855 36.0698C173.714 32.765 171.356 28.2779 171.055 24.5451C173.528 27.2229 175.679 30.782 177.927 34.07C181.754 33.7225 185.746 32.9175 190.044 31.2862C188.079 33.7013 185.526 35.9004 183.388 38.2519C185.492 41.7093 188.359 43.1033 190.751 45.7853C187.186 45.8701 183.629 45.9125 179.997 46.1752C177.63 49.73 176.834 53.8611 175.065 57.6363C172.397 54.1281 173.655 48.9631 171.407 45.9167ZM193.215 30.5236C200.581 32.1591 211.322 41.6627 215.323 52.4121C217.868 59.2549 217.559 71.716 212.884 76.1352C211.868 77.0928 209.934 77.8639 208.659 78.4444C220.776 69.5932 211.267 51.7977 201.407 43.6795C196.563 39.6925 190.683 39.0993 186.868 36.6461C189.002 34.6081 191.132 32.5743 193.215 30.5236ZM176.335 58.1066C177.639 54.967 178.799 51.7723 180.06 48.6157C186.593 48.7682 192.304 51.1621 197.482 55.0221C191.356 53.5476 183.714 56.183 176.335 58.1066ZM203.765 79.296C207.982 75.5293 212.101 72.271 210.306 66.7417C208.549 61.3225 203.194 57.2253 198.803 54.0645C194.087 50.6664 189.129 48.5182 184.959 47.7683C186.86 46.5946 191.102 48.0352 193.007 46.8658C191.686 43.1923 187.554 41.6161 185.243 38.4595C193.477 39.2476 205.217 46.2641 210.746 57.0092C215.107 65.4833 213.63 76.097 203.765 79.296ZM220.937 51.5816C224.946 62.5597 221.725 76.1945 208.172 80.4315C219.252 75.8555 220.539 61.4157 216.644 51.446C212.076 39.7476 200.975 30.6719 193.126 28.7991C188.045 30.8117 183.299 31.9133 178.684 32.659C176.402 29.6804 174.4 25.9349 171.949 23.4223C171.779 23.1977 171.936 23.0961 172.105 22.9986C187.834 24.5748 212.995 29.816 220.937 51.5816Z" fill="black"/>
<path fill-rule="evenodd" clip-rule="evenodd" d="M12.0366 106.587C15.4024 114.268 18.8571 121.764 23.0654 128.861C32.3161 144.474 38.3534 160.99 45.5888 172.481C58.3493 171.079 69.8438 172.142 83.6585 168.68C86.0548 163.643 86.0717 157.062 85.225 150.826C84.3401 144.292 83.451 137.106 81.6051 130.013C80.7076 126.564 79.2935 123.137 77.4011 121.734C72.9048 118.408 58.3366 119.463 52.0368 118.344C48.019 117.633 39.0816 115.912 38.5524 121.925C38.0274 127.895 47.6041 128.84 51.6981 129.246C57.2824 129.806 62.0411 129.149 66.1732 131.132C64.7337 135.835 63.1503 143.059 66.9353 147.851C68.8108 150.228 71.2452 149.499 72.9218 152.088C63.2689 153.402 61.3298 138.072 64.0775 131.81C61.1478 131.653 58.6965 130.56 55.3899 131.14C58.1376 137.42 50.8387 143.106 46.7404 137.788C46.4144 140.068 45.0681 141.682 43.1036 142.046C37.7226 143.034 24.3271 119.616 27.858 112.65C24.2974 106.621 19.979 100.129 16.2237 93.2697C12.4642 86.4057 10.0086 78.0927 4.23804 74.004C-3.73406 80.9993 7.76474 96.8288 12.0366 106.587Z" fill="white"/>
<path fill-rule="evenodd" clip-rule="evenodd" d="M75.3392 118.938C85.7415 122.92 84.9625 139.682 86.2707 150.495C86.9989 156.516 89.6069 166.706 84.5645 170.32C80.9277 172.926 68.6923 173.159 64.3569 173.371C61.3637 173.511 58.4678 173.672 54.4966 173.849C52.2061 173.951 45.8132 174.849 44.6362 174.333C41.2789 172.85 34.9706 156.914 33.0231 152.63C25.1611 135.352 17.9341 123.755 10.7495 107.387C7.42178 99.8032 1.76552 92.7951 0.194806 84.1897C-0.499525 80.3806 0.592776 73.1396 3.67493 72.2752C9.02636 70.7711 14.2211 85.9481 17.0535 91.0876C21.2153 98.6422 25.5548 104.667 29.1366 111.866C33.6116 110.048 38.8021 109.972 41.5287 113.264C38.5608 104.506 50.0342 99.0998 54.9369 105.854C54.124 94.5662 52.24 78.8553 51.7489 64.8604C51.6219 61.1869 51.1646 52.7171 54.7802 51.5434C60.356 49.7385 61.9606 59.5557 63.3408 64.9748C68.0995 83.5923 72.5703 102.019 75.3392 118.938ZM55.0046 53.4035C53.6583 55.7084 53.1121 60.8437 53.2688 64.7587C53.5313 71.36 54.6066 79.7154 55.0046 88.1005C55.4957 98.3922 56.3975 108.006 57.6084 117.717C63.4043 117.209 68.3409 118.378 73.7134 118.692C70.4027 102.35 66.1562 82.9313 61.7151 65.89C60.373 60.7378 60.1571 53.7085 55.3475 53.2933C55.2375 53.3272 55.1232 53.3696 55.0046 53.4035ZM12.0365 106.587C15.4023 114.268 18.8571 121.764 23.0654 128.861C32.3161 144.474 38.3534 160.99 45.5888 172.481C58.3493 171.078 69.8438 172.142 83.6585 168.68C86.0548 163.642 86.0717 157.062 85.225 150.825C84.3401 144.292 83.451 137.106 81.6051 130.013C80.7076 126.564 79.2935 123.136 77.401 121.734C72.9048 118.408 58.3366 119.463 52.0368 118.344C48.019 117.633 39.0816 115.912 38.5524 121.925C38.0274 127.895 47.6041 128.84 51.6981 129.246C57.2824 129.806 62.0411 129.149 66.1732 131.132C64.7337 135.835 63.1503 143.059 66.9353 147.851C68.8108 150.228 71.2452 149.499 72.9217 152.088C63.2689 153.402 61.3298 138.072 64.0775 131.81C61.1478 131.653 58.6964 130.56 55.3899 131.14C58.1376 137.42 50.8386 143.106 46.7404 137.788C46.4144 140.068 45.0681 141.682 43.1036 142.046C37.7225 143.034 24.327 119.616 27.858 112.65C24.2974 106.621 19.979 100.129 16.2237 93.2697C12.4641 86.4057 10.0086 78.0926 4.23801 74.0039C-3.73409 80.9992 7.76471 96.8288 12.0365 106.587ZM48.2391 104.163C43.0655 104.566 42.0028 110.061 43.836 115.607C48.1883 115.264 51.3975 117.15 55.5338 117.23C55.5465 111.819 53.3281 103.765 48.2391 104.163ZM28.3025 115.217C30.1399 125.348 36.4397 135.932 43.0062 140.546C47.1426 138.877 44.3229 133.64 43.6963 129.53C38.1713 128.924 34.0646 118.692 41.8504 116.633C39.6997 111.226 32.1086 110.68 28.3025 115.217ZM53.6583 130.556C50.7582 130.526 48.1968 129.844 45.3179 129.776C47.1172 140.22 56.0461 140.716 53.6583 130.556Z" fill="#3C3C3B"/>
<path fill-rule="evenodd" clip-rule="evenodd" d="M55.0046 53.4035C53.6583 55.7084 53.1122 60.8437 53.2688 64.7587C53.5313 71.36 54.6067 79.7154 55.0046 88.1005C55.4958 98.3922 56.3975 108.006 57.6084 117.717C63.4044 117.209 68.3409 118.378 73.7135 118.692C70.4027 102.35 66.1563 82.9313 61.7151 65.89C60.373 60.7378 60.1571 53.7085 55.3476 53.2933C55.2375 53.3272 55.1232 53.3696 55.0046 53.4035Z" fill="white"/>
<path fill-rule="evenodd" clip-rule="evenodd" d="M48.2391 104.163C43.0655 104.566 42.0028 110.061 43.836 115.607C48.1883 115.264 51.3975 117.15 55.5338 117.23C55.5465 111.819 53.328 103.765 48.2391 104.163Z" fill="white"/>
<path fill-rule="evenodd" clip-rule="evenodd" d="M28.3025 115.218C30.14 125.348 36.4398 135.932 43.0063 140.546C47.1426 138.877 44.323 133.64 43.6964 129.53C38.1713 128.924 34.0646 118.692 41.8505 116.633C39.6997 111.226 32.1086 110.68 28.3025 115.218Z" fill="white"/>
<path fill-rule="evenodd" clip-rule="evenodd" d="M53.6584 130.556C50.7583 130.526 48.1969 129.844 45.3179 129.776C47.1172 140.22 56.0462 140.716 53.6584 130.556Z" fill="white"/>
<path fill-rule="evenodd" clip-rule="evenodd" d="M119.137 83.3212C119.51 83.05 122.016 79.6561 122.782 80.3086C128.358 85.0499 136.203 90.7105 141.322 95.8501C141.47 97.5279 141.008 98.5999 141.004 100.129C137.211 102.723 131.838 106.252 127.219 108.849C125.873 109.608 123.663 111.735 122.465 111.705C121.711 111.684 119.336 110.002 118.98 108.692C118.599 107.307 119.26 105.718 118.98 104.095C122.274 101.261 126.8 99.6591 130.073 96.7992C126.525 93.5833 122.52 90.8292 118.824 87.7616C118.794 86.1176 119.006 84.3296 119.137 83.3212ZM120.09 83.9567C124.891 87.2913 129.709 90.6131 133.714 94.74C130.242 98.9304 124.59 100.939 120.246 104.252C120.949 105.188 121.779 105.993 122.782 106.629C129.023 103.464 134.311 99.3498 140.213 95.8458C134.624 90.7105 128.57 86.0371 122.626 81.2577C121.601 81.9823 120.589 82.711 120.09 83.9567Z" fill="black"/>
<path fill-rule="evenodd" clip-rule="evenodd" d="M225.289 160.227C220.827 167.189 215.801 175.379 212.935 183.523C214.73 184.938 218.117 183.51 219.794 184.751C217.097 191.997 212.05 199.678 211.085 207.004C216.585 203.026 220.746 197.132 225.619 191.959C227.995 189.433 230.226 186.781 232.622 184.222C234.993 181.692 237.77 179.146 239.104 176.057C236.551 174.07 231.779 174.667 227.952 173.244C234.967 166.053 241.754 158.507 248.244 150.491C244.785 147.953 238.122 147.444 234.244 145.178C236.885 138 241.953 132.572 243.896 125.619C237.419 124.187 231.475 123.598 225.556 123.056C220.471 133.699 215.061 145.94 211.115 157.05C214.747 158.177 221.61 159.007 225.289 160.227ZM212.99 155.609C217.601 145.69 221.847 135.195 226.111 124.73C231 125.115 236.25 126.073 241.204 126.564C240.992 129.776 238.338 132.886 236.589 136.076C234.773 139.402 232.99 142.801 231.775 146.478C235.463 147.754 240.564 149.698 245.683 150.842C239.54 159.007 232.169 165.231 226.276 173.794C228.126 175.917 233.223 175.977 236.708 177.065C229.032 185.612 221.195 193.899 213.85 202.962C215.801 196.975 219.387 190.107 221.894 183.667C220.387 181.858 217.105 182.985 214.743 182.37C218.795 174.371 223.062 166.714 227.389 159.143C224.468 157.605 216.47 156.728 212.99 155.609Z" fill="black"/>
<path fill-rule="evenodd" clip-rule="evenodd" d="M212.99 155.609C217.601 145.69 221.847 135.195 226.111 124.73C231 125.115 236.25 126.073 241.204 126.564C240.992 129.776 238.338 132.886 236.589 136.076C234.773 139.403 232.99 142.801 231.775 146.478C235.463 147.754 240.564 149.699 245.683 150.843C239.54 159.007 232.169 165.231 226.276 173.794C228.126 175.917 233.223 175.977 236.708 177.065C229.032 185.612 221.195 193.899 213.85 202.962C215.801 196.975 219.387 190.107 221.894 183.667C220.387 181.858 217.105 182.985 214.743 182.37C218.795 174.371 223.062 166.714 227.389 159.143C224.468 157.605 216.47 156.728 212.99 155.609Z" fill="white"/>
<path d="M17.6672 194.349L17.2746 184.403L20.5259 184.275C21.6052 184.232 22.4246 184.423 22.9841 184.848C23.5481 185.273 23.8474 185.922 23.8819 186.797C23.9003 187.261 23.7845 187.679 23.5346 188.049C23.2845 188.414 22.9356 188.704 22.488 188.918C23.0312 189.047 23.4661 189.317 23.7924 189.728C24.1232 190.135 24.3001 190.63 24.3231 191.212C24.3583 192.105 24.0968 192.818 23.5386 193.351C22.9804 193.883 22.1731 194.171 21.1166 194.212L17.6672 194.349ZM18.795 189.645L18.9363 193.224L21.1016 193.139C21.7118 193.115 22.1861 192.939 22.5243 192.611C22.8669 192.278 23.0272 191.834 23.0053 191.278C22.958 190.081 22.2832 189.507 20.9808 189.559L18.795 189.645ZM18.7535 188.593L20.7344 188.515C21.3082 188.492 21.7601 188.331 22.0903 188.03C22.4251 187.73 22.5828 187.334 22.5634 186.842C22.5418 186.295 22.3668 185.906 22.0383 185.672C21.7096 185.434 21.2197 185.328 20.5685 185.354L18.6286 185.431L18.7535 188.593Z" fill="black"/>
<path d="M28.5299 192.066L30.0326 186.458L31.385 186.405L28.7505 195.053C28.3391 196.301 27.6325 196.945 26.6307 196.984L26.3908 196.973L25.916 196.903L25.8755 195.878L26.2181 195.892C26.6462 195.875 26.9752 195.776 27.2052 195.593C27.4397 195.411 27.6253 195.087 27.7619 194.62L28.0123 193.858L25.0872 186.653L26.467 186.599L28.5299 192.066Z" fill="black"/>
<path d="M36.9022 193.589L36.649 187.175L35.481 187.221L35.4424 186.245L36.6104 186.198L36.5805 185.44C36.5492 184.648 36.7368 184.027 37.1432 183.578C37.5496 183.128 38.1399 182.888 38.914 182.858C39.2055 182.846 39.4962 182.874 39.7861 182.94L39.7583 183.967C39.5426 183.935 39.3141 183.923 39.0728 183.933C38.6629 183.949 38.3512 184.082 38.1376 184.332C37.9238 184.578 37.8257 184.924 37.8434 185.37L37.8741 186.149L39.452 186.086L39.4905 187.063L37.9127 187.125L38.1659 193.539L36.9022 193.589Z" fill="black"/>
<path d="M44.4694 187.024C44.2769 187 44.0691 186.992 43.8459 187.001C43.0172 187.033 42.4687 187.408 42.2006 188.126L42.4077 193.372L41.144 193.422L40.8522 186.031L42.0818 185.982L42.136 186.835C42.5243 186.159 43.0987 185.805 43.8592 185.775C44.1051 185.766 44.293 185.79 44.423 185.849L44.4694 187.024Z" fill="black"/>
<path d="M47.2574 193.18L45.9938 193.23L45.702 185.84L46.9656 185.79L47.2574 193.18ZM45.5221 183.883C45.514 183.678 45.5687 183.503 45.6861 183.357C45.808 183.211 45.9919 183.133 46.2378 183.123C46.4837 183.113 46.6732 183.176 46.8063 183.313C46.9394 183.449 47.0099 183.619 47.018 183.824C47.0261 184.029 46.9691 184.202 46.847 184.344C46.7249 184.486 46.5409 184.561 46.295 184.571C46.0491 184.581 45.8597 184.52 45.7268 184.388C45.5984 184.256 45.5302 184.088 45.5221 183.883Z" fill="black"/>
<path d="M52.3585 193.116C51.3566 193.155 50.5286 192.86 49.8743 192.229C49.2198 191.593 48.8708 190.725 48.8273 189.623L48.8181 189.39C48.7892 188.657 48.9023 187.998 49.1574 187.413C49.4169 186.824 49.7907 186.358 50.2789 186.015C50.7714 185.667 51.3114 185.481 51.8988 185.458C52.8596 185.42 53.6189 185.707 54.1767 186.319C54.7345 186.931 55.0367 187.827 55.0832 189.006L55.104 189.532L50.0971 189.73C50.1441 190.458 50.3792 191.039 50.8022 191.474C51.2297 191.904 51.7576 192.107 52.386 192.082C52.8323 192.064 53.2067 191.958 53.5091 191.764C53.8116 191.569 54.073 191.317 54.2934 191.008L55.089 191.578C54.5072 192.554 53.5971 193.067 52.3585 193.116ZM51.9398 186.496C51.4298 186.516 51.0091 186.72 50.6777 187.107C50.3462 187.49 50.1527 188.017 50.0971 188.69L53.7993 188.544L53.7956 188.448C53.7338 187.807 53.5411 187.318 53.2176 186.98C52.894 186.637 52.468 186.475 51.9398 186.496Z" fill="black"/>
<path d="M57.6078 185.37L57.6854 186.297C58.222 185.564 58.9457 185.18 59.8565 185.144C61.4184 185.082 62.241 185.932 62.3242 187.694L62.517 192.578L61.2534 192.628L61.0603 187.737C61.0347 187.205 60.8962 186.815 60.6448 186.57C60.3979 186.324 60.0217 186.211 59.5163 186.231C59.1064 186.248 58.751 186.371 58.45 186.602C58.149 186.833 57.9189 187.129 57.7599 187.491L57.9678 192.758L56.7042 192.807L56.4124 185.417L57.6078 185.37Z" fill="black"/>
<path d="M63.9671 188.758C63.9223 187.624 64.155 186.703 64.6652 185.994C65.1752 185.281 65.8651 184.907 66.7349 184.872C67.6001 184.838 68.2971 185.107 68.826 185.679L68.6739 181.827L69.9375 181.777L70.3517 192.269L69.1905 192.315L69.0978 191.525C68.6168 192.164 67.9254 192.501 67.0238 192.537C66.1677 192.571 65.4548 192.248 64.8853 191.568C64.3202 190.888 64.0154 189.983 63.9708 188.854L63.9671 188.758ZM65.2364 188.852C65.2695 189.689 65.4684 190.338 65.8332 190.798C66.198 191.258 66.6855 191.476 67.2957 191.452C68.0971 191.42 68.6681 191.038 69.0085 190.304L68.8745 186.909C68.469 186.227 67.8747 185.901 67.0914 185.932C66.4721 185.957 65.9989 186.215 65.6717 186.707C65.3445 187.199 65.1994 187.914 65.2364 188.852Z" fill="black"/>
<path d="M76.5448 190.061C76.5314 189.719 76.3912 189.46 76.1242 189.284C75.8617 189.103 75.4066 188.956 74.7592 188.845C74.1163 188.734 73.602 188.59 73.2165 188.413C72.8356 188.237 72.5488 188.02 72.3562 187.763C72.1682 187.506 72.067 187.195 72.0526 186.831C72.0287 186.225 72.2635 185.703 72.757 185.264C73.255 184.825 73.9025 184.589 74.6994 184.558C75.5373 184.525 76.2243 184.714 76.7605 185.127C77.3013 185.538 77.585 186.081 77.6116 186.755L76.3411 186.806C76.3274 186.459 76.1677 186.167 75.8618 185.928C75.5604 185.689 75.1866 185.579 74.7404 185.596C74.2805 185.614 73.9247 185.729 73.673 185.939C73.4214 186.15 73.3019 186.417 73.3147 186.74C73.3267 187.045 73.4565 187.271 73.7039 187.416C73.9514 187.561 74.3921 187.692 75.0261 187.808C75.6647 187.925 76.1836 188.073 76.5829 188.253C76.9823 188.433 77.2808 188.659 77.4785 188.929C77.6805 189.195 77.7894 189.526 77.805 189.922C77.8311 190.582 77.5879 191.123 77.0755 191.545C76.5629 191.962 75.8854 192.187 75.0429 192.22C74.4509 192.244 73.9231 192.16 73.4595 191.968C72.9958 191.777 72.6269 191.499 72.3526 191.136C72.0826 190.768 71.939 190.366 71.9218 189.929L73.1854 189.879C73.2249 190.301 73.4067 190.632 73.7308 190.87C74.0593 191.103 74.4831 191.209 75.0022 191.189C75.4804 191.17 75.8591 191.059 76.1384 190.857C76.4221 190.649 76.5576 190.384 76.5448 190.061Z" fill="black"/>
<path d="M79.5693 193.889L78.8327 193.425C79.2372 192.812 79.436 192.188 79.4293 191.555L79.3842 190.414L80.6206 190.365L80.6597 191.355C80.6778 191.815 80.5821 192.28 80.3726 192.749C80.1676 193.217 79.8999 193.597 79.5693 193.889Z" fill="black"/>
<path d="M86.3695 191.636L86.1163 185.222L84.9483 185.268L84.9097 184.292L86.0778 184.246L86.0478 183.487C86.0166 182.695 86.2041 182.074 86.6105 181.625C87.017 181.176 87.6072 180.936 88.3814 180.905C88.6728 180.894 88.9635 180.921 89.2534 180.987L89.2256 182.014C89.0099 181.982 88.7815 181.97 88.5401 181.98C88.1303 181.996 87.8185 182.129 87.6049 182.379C87.3912 182.625 87.2931 182.971 87.3107 183.417L87.3414 184.196L88.9193 184.133L88.9579 185.11L87.38 185.172L87.6332 191.586L86.3695 191.636Z" fill="black"/>
<path d="M90.1281 187.718C90.0995 186.994 90.2149 186.338 90.4744 185.748C90.7385 185.158 91.1171 184.697 91.6101 184.362C92.1077 184.028 92.6821 183.848 93.3333 183.822C94.3397 183.783 95.1663 184.099 95.8131 184.771C96.4645 185.443 96.813 186.358 96.8586 187.514L96.8622 187.603C96.8906 188.323 96.7772 188.975 96.5221 189.559C96.2713 190.139 95.8949 190.599 95.393 190.938C94.8955 191.277 94.3144 191.46 93.6495 191.486C92.6477 191.525 91.8211 191.209 91.1697 190.537C90.5229 189.865 90.1769 188.955 90.1316 187.807L90.1281 187.718ZM91.4045 187.819C91.4368 188.638 91.6518 189.289 92.0494 189.77C92.4515 190.251 92.9713 190.48 93.6088 190.454C94.2509 190.429 94.751 190.158 95.1092 189.643C95.4672 189.122 95.6283 188.409 95.5926 187.503C95.5606 186.692 95.3411 186.044 94.9343 185.558C94.5318 185.068 94.0118 184.835 93.3743 184.861C92.7504 184.885 92.257 185.153 91.8941 185.665C91.5312 186.176 91.368 186.894 91.4045 187.819Z" fill="black"/>
<path d="M101.915 184.756C101.722 184.732 101.515 184.724 101.291 184.733C100.463 184.765 99.9142 185.141 99.6461 185.858L99.8532 191.104L98.5895 191.154L98.2977 183.763L99.5272 183.715L99.5814 184.568C99.9698 183.891 100.544 183.538 101.305 183.508C101.551 183.498 101.739 183.522 101.869 183.581L101.915 184.756Z" fill="black"/>
<path d="M107.421 190.805L107.168 184.391L106 184.437L105.962 183.461L107.13 183.415L107.1 182.656C107.069 181.864 107.256 181.243 107.663 180.794C108.069 180.344 108.659 180.105 109.433 180.074C109.725 180.062 110.015 180.09 110.305 180.156L110.278 181.183C110.062 181.151 109.833 181.139 109.592 181.149C109.182 181.165 108.871 181.298 108.657 181.548C108.443 181.794 108.345 182.14 108.363 182.586L108.393 183.365L109.971 183.302L110.01 184.279L108.432 184.341L108.685 190.755L107.421 190.805Z" fill="black"/>
<path d="M114.989 184.24C114.796 184.216 114.588 184.208 114.365 184.217C113.536 184.249 112.988 184.624 112.72 185.342L112.927 190.588L111.663 190.638L111.372 183.247L112.601 183.199L112.655 184.052C113.044 183.375 113.618 183.022 114.378 182.992C114.624 182.982 114.812 183.006 114.942 183.065L114.989 184.24Z" fill="black"/>
<path d="M117.777 190.396L116.513 190.446L116.221 183.056L117.485 183.006L117.777 190.396ZM116.041 181.099C116.033 180.894 116.088 180.719 116.205 180.573C116.327 180.427 116.511 180.349 116.757 180.339C117.003 180.329 117.193 180.393 117.326 180.529C117.459 180.665 117.529 180.835 117.537 181.04C117.545 181.245 117.488 181.418 117.366 181.56C117.244 181.702 117.06 181.777 116.814 181.787C116.568 181.797 116.379 181.736 116.246 181.604C116.118 181.473 116.05 181.304 116.041 181.099Z" fill="black"/>
<path d="M122.878 190.332C121.876 190.371 121.048 190.076 120.394 189.445C119.739 188.809 119.39 187.941 119.347 186.839L119.337 186.606C119.308 185.873 119.422 185.214 119.677 184.63C119.936 184.04 120.31 183.574 120.798 183.231C121.291 182.883 121.831 182.697 122.418 182.674C123.379 182.636 124.138 182.923 124.696 183.535C125.254 184.147 125.556 185.043 125.603 186.222L125.623 186.748L120.616 186.946C120.663 187.674 120.898 188.255 121.322 188.69C121.749 189.12 122.277 189.323 122.905 189.298C123.352 189.28 123.726 189.174 124.028 188.98C124.331 188.785 124.592 188.533 124.813 188.224L125.608 188.794C125.027 189.77 124.116 190.283 122.878 190.332ZM122.459 183.712C121.949 183.733 121.528 183.936 121.197 184.323C120.866 184.706 120.672 185.233 120.616 185.906L124.319 185.76L124.315 185.664C124.253 185.024 124.06 184.534 123.737 184.196C123.413 183.853 122.987 183.692 122.459 183.712Z" fill="black"/>
<path d="M128.127 182.586L128.205 183.513C128.741 182.78 129.465 182.396 130.376 182.36C131.938 182.298 132.76 183.148 132.844 184.91L133.036 189.794L131.773 189.844L131.58 184.953C131.554 184.421 131.415 184.032 131.164 183.786C130.917 183.54 130.541 183.428 130.036 183.448C129.626 183.464 129.27 183.587 128.969 183.818C128.668 184.049 128.438 184.345 128.279 184.707L128.487 189.974L127.223 190.024L126.932 182.633L128.127 182.586Z" fill="black"/>
<path d="M134.486 185.974C134.442 184.84 134.674 183.919 135.185 183.21C135.695 182.497 136.384 182.123 137.254 182.088C138.119 182.054 138.816 182.323 139.345 182.895L139.193 179.043L140.457 178.993L140.871 189.485L139.71 189.531L139.617 188.741C139.136 189.38 138.445 189.717 137.543 189.753C136.687 189.787 135.974 189.464 135.405 188.784C134.84 188.104 134.535 187.199 134.49 186.07L134.486 185.974ZM135.756 186.068C135.789 186.906 135.988 187.554 136.352 188.014C136.717 188.474 137.205 188.692 137.815 188.668C138.616 188.636 139.187 188.254 139.528 187.52L139.394 184.125C138.988 183.443 138.394 183.118 137.611 183.148C136.991 183.173 136.518 183.431 136.191 183.923C135.864 184.415 135.719 185.13 135.756 186.068Z" fill="black"/>
<path d="M147.064 187.277C147.051 186.935 146.91 186.676 146.644 186.5C146.381 186.319 145.926 186.172 145.278 186.061C144.636 185.95 144.121 185.806 143.736 185.629C143.355 185.453 143.068 185.236 142.876 184.979C142.687 184.722 142.586 184.412 142.572 184.047C142.548 183.442 142.783 182.919 143.276 182.48C143.774 182.041 144.422 181.805 145.219 181.774C146.057 181.741 146.744 181.93 147.28 182.343C147.821 182.755 148.104 183.297 148.131 183.971L146.86 184.022C146.847 183.675 146.687 183.383 146.381 183.144C146.08 182.905 145.706 182.795 145.26 182.812C144.8 182.83 144.444 182.945 144.192 183.155C143.941 183.366 143.821 183.633 143.834 183.956C143.846 184.261 143.976 184.487 144.223 184.632C144.471 184.777 144.911 184.908 145.545 185.024C146.184 185.141 146.703 185.289 147.102 185.469C147.502 185.65 147.8 185.875 147.998 186.145C148.2 186.411 148.309 186.742 148.324 187.138C148.35 187.798 148.107 188.339 147.595 188.761C147.082 189.178 146.405 189.403 145.562 189.436C144.97 189.46 144.442 189.376 143.979 189.184C143.515 188.993 143.146 188.715 142.872 188.352C142.602 187.984 142.458 187.582 142.441 187.145L143.705 187.095C143.744 187.517 143.926 187.848 144.25 188.086C144.579 188.319 145.002 188.425 145.522 188.405C146 188.386 146.378 188.275 146.658 188.073C146.941 187.865 147.077 187.6 147.064 187.277Z" fill="black"/>
<path d="M151.354 186.259L150.214 186.304L149.843 179.17L151.168 179.117L151.354 186.259ZM150.163 188.482C150.155 188.277 150.21 188.104 150.327 187.962C150.449 187.816 150.633 187.738 150.879 187.728C151.125 187.719 151.314 187.782 151.447 187.918C151.58 188.049 151.651 188.218 151.659 188.423C151.667 188.628 151.61 188.801 151.488 188.942C151.365 189.08 151.181 189.153 150.935 189.163C150.69 189.172 150.5 189.114 150.368 188.987C150.239 188.855 150.171 188.687 150.163 188.482Z" fill="black"/>
</g>
<defs>
<clipPath id="clip0">
<path d="M0 0H282V207H0V0Z" fill="white"/>
</clipPath>
</defs>
</svg>
