<svg width="42" height="40" viewBox="0 0 42 40" fill="none" xmlns="http://www.w3.org/2000/svg">
<path d="M21 0.208008L13.5417 11.7913L0.166687 15.2913L8.91669 25.9997L8.12502 39.7913L21 34.7705L33.875 39.7913L33.0834 25.9997L41.8334 15.2913L28.4584 11.7913L21 0.208008ZM15.5417 16.8747C16.8334 16.8747 17.875 17.9163 17.875 19.2288C17.875 19.8477 17.6292 20.4412 17.1916 20.8788C16.754 21.3163 16.1605 21.5622 15.5417 21.5622C14.2292 21.5622 13.1875 20.5205 13.1875 19.2288C13.1875 17.9163 14.2292 16.8747 15.5417 16.8747ZM26.4792 16.8747C27.7709 16.8747 28.8125 17.9163 28.8125 19.2288C28.8125 19.8477 28.5667 20.4412 28.1291 20.8788C27.6915 21.3163 27.098 21.5622 26.4792 21.5622C25.1667 21.5622 24.125 20.5205 24.125 19.2288C24.125 17.9163 25.1667 16.8747 26.4792 16.8747ZM14.75 26.2497H27.25C26.2084 28.7705 23.7292 30.4163 21 30.4163C18.2709 30.4163 15.7917 28.7705 14.75 26.2497Z" fill="#E8863F"/>
</svg>
