<svg width="75" height="75" viewBox="0 0 75 75" fill="none" xmlns="http://www.w3.org/2000/svg">
<path d="M6.39574 42.5064C9.0138 39.2338 11.6864 35.9612 14.3045 32.6887C14.959 31.8705 16.7043 29.907 19.1042 30.9978C22.1041 32.3069 23.6313 36.343 21.1223 39.6702C20.086 41.0337 15.1226 45.779 13.9227 46.8698C13.2681 47.4698 12.8318 48.5607 13.8136 49.3243C14.5226 50.0879 15.9953 51.2333 17.0316 51.9423C18.9406 53.1968 20.2497 54.0695 21.6132 55.8694C22.7586 57.233 22.7041 58.9238 21.8314 60.3419C21.1769 61.3783 19.7042 61.651 17.7952 60.5056C13.3772 57.7239 10.4865 55.3785 7.21387 52.3241C5.79575 50.9606 4.48673 49.5424 4.43219 46.9789C4.48673 45.6699 5.30487 43.9245 6.39574 42.5064Z" fill="#EF7116"/>
<path d="M38.854 54.5391C32.7854 55.9602 14.1633 53.4715 12.7491 47.8147C11.3349 42.1579 28.4498 44.1349 33.5311 43.5297C38.6124 42.9245 42.8012 41.8044 48.8116 35.794C54.8221 29.7836 54.9447 23.6008 55.5397 23.12C56.4421 22.3319 57.2874 21.4866 58.2272 20.8894C61.9489 18.3099 65.9611 19.0946 67.5382 21.2864C69.8951 24.4118 69.5634 25.6135 67.6892 30.3514C65.8151 35.0894 64.0144 38.9759 57.2969 45.6934C50.5793 52.4109 44.9226 53.1181 38.854 54.5391Z" fill="#EF7116"/>
</svg>
