<svg width="63" height="98" viewBox="0 0 63 98" fill="none" xmlns="http://www.w3.org/2000/svg">
<g clip-path="url(#clip0)">
<path d="M35.5089 73.3412C36.7325 71.6442 38.4586 67.6057 40.7892 60.9926L40.9094 60.6576L39.1942 60.0494L39.074 60.3881C36.8308 66.7463 35.1375 70.7447 34.0341 72.2778C31.9147 75.2202 26.6818 81.3672 24.4895 82.5725L25.3672 84.1675C28.0983 82.6599 33.7282 75.8138 35.5089 73.3412Z" fill="black" stroke="black" stroke-width="0.25"/>
<path d="M28.9359 64.7726C28.3387 66.5132 24.6826 73.8401 23.6192 75.0891C23.357 75.395 22.9856 75.8793 22.5122 76.4875C21.0555 78.3629 18.0258 82.2703 16.5801 82.8274L17.2355 84.5281C19.0053 83.8471 21.5253 80.7335 23.9506 77.6054C24.3912 77.0374 24.7736 76.5457 25.0066 76.269C26.3213 74.7286 30.0393 67.176 30.6584 65.3625L28.9359 64.7726Z" fill="black" stroke="black" stroke-width="0.25"/>
<path d="M23.3388 45.0789C23.8304 42.9923 23.8341 34.1943 23.3461 31.8164L21.5617 32.1842C22.0351 34.4783 21.966 42.9705 21.569 44.6602L23.3388 45.0789Z" fill="black" stroke="black" stroke-width="0.25"/>
<path d="M12.7855 62.3545C13.4556 62.3545 14.3223 62.3072 15.4585 62.1943C16.2997 62.1106 17.1445 62.005 17.8947 61.8994C18.6885 62.3036 19.8101 62.4347 20.8116 62.2999C20.3709 64.8053 19.7118 67.2525 18.7614 68.8547C18.2697 69.6814 17.7927 70.5372 17.3339 71.3601C15.4475 74.7468 13.6668 77.9441 10.9575 79.266L11.755 80.9011C14.9741 79.3279 16.9806 75.7264 18.9216 72.245C19.3768 71.4293 19.8465 70.5881 20.3236 69.7833C21.7584 67.369 22.5085 63.549 22.8873 60.7668C23.2987 57.748 23.4371 54.6854 23.357 53.338L21.5399 53.4436C21.569 53.9243 21.5654 54.6854 21.5253 55.6249C20.4875 55.5667 18.8706 55.9381 18.0112 56.153C17.5414 56.1093 16.9879 56.0437 16.4089 55.9709C13.1643 55.5739 11.1396 55.4064 10.353 56.4552C9.39161 57.7407 9.25687 60.6175 10.4367 61.7974C10.7171 62.0814 11.1687 62.3545 12.7855 62.3545ZM11.7805 57.6059C12.3704 57.3183 14.945 57.6351 16.1941 57.788C16.3871 57.8099 16.5691 57.8354 16.7512 57.8572C16.5764 58.6001 16.5254 59.4777 16.6857 60.2315C14.6391 60.4828 12.3376 60.6612 11.6785 60.4573C11.3471 59.9766 11.2816 58.3415 11.7805 57.6059Z" fill="black" stroke="black" stroke-width="0.25"/>
<path d="M60.8397 52.4932C59.729 51.6775 55.3591 52.9374 53.4072 53.5602C53.3526 53.4291 53.2907 53.3489 53.2251 53.3344C52.8027 53.247 52.3257 53.1851 51.8086 53.1596C51.9215 50.8253 51.3607 45.5451 50.9492 42.5444C50.4393 38.8337 48.746 32.9343 48.0213 31.15L46.3353 31.8346C46.9398 33.3203 48.6295 39.0048 49.1466 42.792C49.6637 46.5574 50.1116 51.499 49.9805 53.2433C49.4816 53.3089 48.9572 53.4109 48.4073 53.5674C46.9034 53.9899 45.119 55.6249 45.4286 57.4275C45.7381 59.2228 47.2202 59.7982 49.3614 60.3517C48.6768 64.809 43.8408 73.028 40.4105 77.4343C39.8533 77.3287 39.2852 77.4743 38.8701 78.1808C38.6516 78.5559 38.5314 79.0839 38.4732 79.6666C35.1229 83.1552 31.8965 85.6824 28.8776 87.1718C24.8719 89.1492 15.6806 90.6022 13.7724 90.5658C12.4542 90.533 11.0849 90.2417 10.0471 87.1864C9.20953 84.7174 10.2401 82.7036 10.8555 81.5019C10.9393 81.338 11.0157 81.1851 11.0813 81.0503L9.43895 80.2638C9.38068 80.3839 9.31149 80.5223 9.23502 80.668C8.90728 81.3125 8.4448 82.2193 8.16076 83.33C5.8338 84.1602 0.921321 86.3088 0.382369 87.1318C-0.236697 88.0786 -0.436983 91.2686 2.33061 91.7784C4.44272 92.168 7.82573 90.8207 9.66472 90.4165C10.6625 91.7092 11.9735 92.3319 13.7214 92.3792C13.7578 92.3792 13.7943 92.3792 13.838 92.3792C15.9537 92.3792 24.373 91.112 28.9942 89.1128C28.9832 89.1747 28.976 89.2329 28.965 89.2949C28.2586 90.4492 28.1275 93.2095 28.1056 93.8395C28.0437 95.7477 28.3314 96.7236 29.0706 97.0987C29.4129 97.2735 29.8354 97.3464 30.3015 97.3464C31.8382 97.3464 33.8156 96.5416 34.6968 95.8897C35.2686 95.4673 35.5308 95.267 33.324 89.6372C33.3859 89.3203 33.4077 88.938 33.3786 88.4755C33.3531 88.064 33.2548 87.2774 33.131 86.7348C34.8716 85.5222 36.6524 84.0255 38.4622 82.2557C38.4768 82.6162 38.4914 82.9403 38.4914 83.1952C38.4914 84.3314 37.5992 85.6205 38.688 85.748C38.4549 89.1929 38.9138 91.1302 40.05 91.5126C40.4214 91.6364 40.9858 91.7092 41.6195 91.7092C42.7156 91.7092 44.0229 91.4944 44.8932 90.9554C45.6616 90.482 45.8947 89.8921 45.9529 89.4806C46.0877 88.5738 45.8655 86.6511 45.5924 85.1471C45.0316 82.0955 44.449 81.5165 43.8955 81.3708C43.4803 80.1472 42.6682 79.0912 42.2859 78.6178C42.224 78.5377 42.1256 78.4393 42.0055 78.3264C42.8685 77.1976 43.8081 75.8538 44.7512 74.3863C45.1809 75.1801 45.8801 75.8975 46.8087 76.4875C47.2129 76.7424 47.6754 76.9754 48.1597 77.1575C48.4547 78.3155 49.1466 79.255 50.1626 79.7612C50.9055 80.1327 51.6884 80.2783 52.4604 80.2783C55.3992 80.2783 58.2396 78.1589 58.3889 78.0461L57.2891 76.5967C57.2527 76.6258 53.491 79.3898 50.9747 78.1334C50.6979 77.9951 50.4758 77.7984 50.3046 77.5617C50.6323 77.5472 50.9419 77.4925 51.2259 77.3833C52.5915 76.8662 55.1807 74.0003 54.8384 72.0375C54.7546 71.5531 54.3613 70.4279 52.5078 70.3915C50.2099 70.3587 48.6805 72.347 48.1889 74.3462C48.1269 74.6011 48.0796 74.856 48.0468 75.1037C47.9558 75.0527 47.8684 75.0017 47.7774 74.9434C46.7614 74.3025 46.1387 73.4613 46.0695 72.6347L45.8255 72.6529C48.3891 68.4214 50.7197 63.6145 51.1713 60.4099C51.9579 60.2971 52.6789 60.0421 53.1924 59.8164L53.196 59.922C53.4473 59.911 53.8369 59.9111 54.3103 59.9111C58.0102 59.9074 60.3408 59.7581 61.3058 59.0152C61.9212 58.5382 62.2271 57.697 62.2125 56.5098C62.2089 55.2935 61.7573 53.1669 60.8397 52.4932ZM30.032 95.5219C29.7844 94.7827 29.9992 92.3283 30.2723 90.9991C30.7749 91.0683 31.383 91.163 31.9293 91.0792C32.4791 92.5213 32.9926 93.9779 33.1929 94.6989C32.1805 95.2452 30.6147 95.6312 30.032 95.5219ZM43.3201 83.4538C43.7789 84.8157 44.3069 88.206 44.1576 89.2184C44.1504 89.2402 44.0702 89.3495 43.8153 89.4769C42.9814 89.8957 41.4338 89.9758 40.7528 89.8192C40.4797 89.2803 40.3813 87.2592 40.5452 85.3292L40.4287 85.3183C41.4301 84.8849 42.5808 84.1785 43.3201 83.4538ZM49.9659 74.7832C50.2864 73.4868 51.1786 72.1868 52.4823 72.2159C52.861 72.2232 53.0249 72.3033 53.0467 72.3251C53.0649 72.3652 53.0868 72.5764 52.9193 72.9879C52.4568 74.1459 51.1567 75.4678 50.585 75.6863C50.4102 75.7519 50.148 75.7664 49.8348 75.7264C49.8458 75.4059 49.8895 75.0891 49.9659 74.7832ZM60.399 56.8339C60.3699 57.3401 60.2461 57.5477 60.206 57.5804C59.5433 58.0939 55.614 58.0975 54.3213 58.0975C54.1902 58.0975 54.0627 58.0975 53.9462 58.0975C53.9098 57.2964 53.8442 56.2658 53.7495 55.3627C55.8689 54.689 58.9606 53.928 59.7982 54.0117C60.064 54.4086 60.4646 55.7342 60.399 56.8339Z" fill="black" stroke="black" stroke-width="0.25"/>
<path d="M29.7225 40.0682C29.5805 40.0754 29.4348 40.1191 29.3365 40.2284C29.2381 40.334 29.1762 40.4651 29.1762 40.6144C29.1762 40.9676 29.1762 41.3209 29.1762 41.6741C29.1762 41.8125 29.2381 41.9618 29.3365 42.0601C29.4311 42.1548 29.5877 42.2276 29.7225 42.2203C29.8645 42.213 30.0102 42.1693 30.1085 42.0601C30.2068 41.9545 30.2687 41.8234 30.2687 41.6741C30.2687 41.3209 30.2687 40.9676 30.2687 40.6144C30.2687 40.476 30.2068 40.3267 30.1085 40.2284C30.0138 40.1337 29.8572 40.0609 29.7225 40.0682Z" fill="black" stroke="black" stroke-width="0.25"/>
<path d="M32.3335 40.0936C32.2825 39.9589 32.2097 39.8424 32.0822 39.7659C31.9657 39.6967 31.7909 39.6676 31.6598 39.7113C31.5287 39.755 31.4012 39.8351 31.3321 39.9625C31.2665 40.0864 31.2264 40.2466 31.2774 40.385C31.3976 40.7091 31.536 41.0332 31.5833 41.3755C31.6015 41.5029 31.729 41.6413 31.8346 41.7032C31.9511 41.7724 32.1259 41.8015 32.257 41.7578C32.3881 41.7141 32.5156 41.634 32.5848 41.5066C32.603 41.4629 32.6212 41.4192 32.6394 41.3755C32.6649 41.2772 32.6649 41.1825 32.6394 41.0842C32.592 40.7418 32.45 40.4141 32.3335 40.0936Z" fill="black" stroke="black" stroke-width="0.25"/>
<path d="M25.2033 47.6317C24.9083 47.6463 24.6571 47.872 24.6571 48.1779C24.6571 48.7242 24.6571 49.2704 24.6571 49.8166C24.6571 50.1007 24.9083 50.3774 25.2033 50.3629C25.4983 50.3483 25.7495 50.1225 25.7495 49.8166C25.7495 49.2704 25.7495 48.7242 25.7495 48.1779C25.7495 47.8939 25.4983 47.6208 25.2033 47.6317Z" fill="black" stroke="black" stroke-width="0.25"/>
<path d="M27.6832 47.5989C27.3882 47.6135 27.137 47.8393 27.137 48.1451C27.137 48.5894 27.137 49.0337 27.137 49.478C27.137 49.6163 27.1989 49.7656 27.2972 49.864C27.3919 49.9586 27.5485 50.0315 27.6832 50.0242C27.9782 50.0096 28.2294 49.7839 28.2294 49.478C28.2294 49.0337 28.2294 48.5894 28.2294 48.1451C28.2294 48.0068 28.1675 47.8575 28.0692 47.7591C27.9782 47.6645 27.8216 47.5916 27.6832 47.5989Z" fill="black" stroke="black" stroke-width="0.25"/>
<path d="M38.1381 52.5624C37.825 52.4786 37.5773 52.668 37.4644 52.9447C37.1622 53.6986 36.4375 54.6454 35.5818 54.7546C34.6859 54.8711 33.6845 54.3468 33.0472 53.7605C32.5301 53.2871 31.7545 54.0554 32.2752 54.5325C33.182 55.3627 34.5111 56 35.7638 55.8216C37.0748 55.6359 38.0544 54.3904 38.5169 53.2324C38.6297 52.9593 38.4003 52.6352 38.1381 52.5624Z" fill="black" stroke="black" stroke-width="0.25"/>
<path d="M45.363 47.2311C45.363 47.0163 45.3666 46.7868 45.3666 46.5501C45.3849 44.4817 45.4067 41.6486 44.296 38.1563C43.0178 34.1506 38.7244 31.2446 33.852 31.0881C28.8303 30.9242 26.3395 36.4557 25.5055 38.8409C24.8501 40.72 25.0467 43.2946 25.2579 45.2319C24.5515 45.4504 23.8231 45.7818 23.1495 46.2042C22.3519 46.7067 21.0082 47.7336 20.9864 48.9791C20.9718 49.8093 21.3906 50.7234 22.1335 51.4954C23.1895 52.5879 24.7226 53.2288 26.3395 53.2506C26.405 53.2506 26.4669 53.2506 26.5288 53.2506C26.8056 53.2506 27.0751 53.2397 27.3336 53.2215C27.9891 55.3627 30.0429 58.5709 34.1543 58.6074C34.2125 58.6074 34.2708 58.6074 34.3291 58.6074C38.6698 58.6074 41.066 57.1726 42.315 55.9563C43.8882 54.4378 45.363 49.4015 45.363 47.2311ZM26.365 51.4335C25.2324 51.4153 24.1654 50.9783 23.4408 50.2318C22.9674 49.7438 22.8035 49.285 22.8071 49.0191C22.8581 48.5749 24.0999 47.5953 25.4509 47.0891C25.4546 47.1437 25.4546 47.1911 25.4546 47.2311L27.2753 47.242C27.2753 47.1109 27.2681 46.9544 27.2535 46.7796C28.3678 46.8451 29.6387 47.3549 30.3415 48.0432C30.7239 48.4219 30.9169 48.8188 30.9096 49.2303C30.8878 50.7015 28.5463 51.4699 26.365 51.4335ZM34.3291 56.7939C34.2781 56.7939 34.2271 56.7939 34.1725 56.7939C31.2519 56.7684 29.7188 54.5507 29.1544 52.9338C31.5615 52.282 32.7049 50.7343 32.7304 49.2558C32.745 48.3418 32.359 47.4715 31.6161 46.7431C30.5345 45.6798 28.6919 44.977 27.0569 44.9551C26.8748 43.2509 26.7036 40.9276 27.2207 39.4491C27.9199 37.4426 29.9592 32.7959 33.7901 32.9161C37.8395 33.0436 41.5248 35.4834 42.5554 38.7171C43.5786 41.9326 43.5568 44.5983 43.5422 46.5429C43.5386 46.7868 43.5386 47.0163 43.5386 47.2384C43.5386 49.0956 42.122 53.6184 41.0441 54.6635C40.2248 55.4611 38.2619 56.7939 34.3291 56.7939Z" fill="black" stroke="black" stroke-width="0.25"/>
<path d="M29.7261 26.314C30.1595 23.124 26.8966 15.0615 24.9629 12.8438L23.5901 14.0419C25.6658 16.4198 28.2039 23.9615 27.9199 26.07L29.7261 26.314Z" fill="black" stroke="black" stroke-width="0.25"/>
<path d="M37.4244 27.0641C37.4899 23.8377 36.4484 22.2755 35.01 20.1087C34.7879 19.7737 34.5512 19.4168 34.3072 19.0345L32.7741 20.0177C33.0254 20.4073 33.2657 20.7715 33.4951 21.1138C34.8425 23.1458 35.6582 24.3694 35.6036 27.0277L37.4244 27.0641Z" fill="black" stroke="black" stroke-width="0.25"/>
<path d="M15.6223 8.3137C14.1111 10.3129 16.449 13.7287 18.9762 17.0498L19.1437 17.2719C20.8116 19.4715 20.9427 23.3971 20.9427 24.5478H22.7634C22.7634 22.8872 22.5522 18.7504 20.5967 16.1722L20.4256 15.9501C19.3986 14.5954 16.2705 10.4804 17.0753 9.40981C18.2697 7.82937 21.4852 6.08506 22.6797 6.67135C24.4531 7.54168 28.63 9.94876 30.7057 11.8278C32.9052 13.8161 41.787 22.5923 43.1999 25.1596L44.7949 24.282C43.189 21.3614 34.005 12.3558 31.9293 10.4768C29.5877 8.3574 25.1487 5.85564 23.4845 5.03629C23.1422 4.86877 22.7598 4.78138 22.3592 4.75589C21.5763 3.63428 20.309 2.01743 19.3477 1.75159C17.851 1.3401 16.5546 0.214853 16.0593 0.00728346C15.5641 -0.196644 13.1934 2.34881 13.3427 3.3903C13.452 4.15139 15.0069 6.72233 15.8372 8.04786C15.7607 8.14254 15.6879 8.22994 15.6223 8.3137Z" fill="black" stroke="black" stroke-width="0.25"/>
<path d="M43.1999 28.6555C42.996 29.0233 43.0106 29.4566 43.24 29.8426C43.6296 30.5018 44.6602 30.997 45.6361 30.997C46.6958 30.997 47.1182 30.2032 47.344 29.7771C47.3731 29.7261 47.4059 29.6606 47.4387 29.6023C47.639 29.6933 47.9303 29.8681 48.1051 29.9701C48.7861 30.3743 49.4925 30.7931 50.1407 30.3597C50.3592 30.2141 50.7088 29.8608 50.6032 29.1362C50.4394 28.0255 48.9317 24.3329 47.2093 24.0016C45.6689 23.703 44.5691 25.917 43.6005 27.8689C43.4475 28.1821 43.3128 28.4552 43.1999 28.6555ZM45.2356 28.6773C45.5742 27.9964 46.4373 26.2557 46.9507 25.8442C47.3331 26.1282 47.9267 27.0896 48.3418 28.0146C47.8575 27.7742 47.3695 27.6286 46.8888 27.7888C46.2261 28.0109 45.9347 28.5608 45.7417 28.9213C45.698 29.0014 45.6398 29.1143 45.5961 29.1762C45.3921 29.1689 45.1991 29.1107 45.0535 29.0451C45.1081 28.9286 45.17 28.8084 45.2356 28.6773Z" fill="black" stroke="black" stroke-width="0.25"/>
<path d="M18.4373 31.4085C18.4373 31.7435 18.4955 32.0167 18.6084 32.2497C18.816 32.6612 19.2093 32.9088 19.6608 32.9088C20.8261 32.9088 21.4998 31.9547 21.9441 31.3248C22.0388 31.19 22.1662 31.0079 22.2682 30.8914C22.3301 30.946 22.4029 31.0152 22.4575 31.0662C22.8108 31.4049 23.55 32.1113 24.5478 31.6197C24.9593 31.4158 25.5893 30.8295 25.2033 29.1726C24.8755 27.7706 23.7758 25.6876 22.0861 25.6876C19.9121 25.6912 18.4373 29.9847 18.4373 31.4085ZM22.7052 27.9964C23.0548 28.4552 23.2842 29.016 23.4043 29.4676C23.0766 29.1981 22.6214 28.9359 22.0351 29.0124C21.285 29.107 20.848 29.7297 20.462 30.276C20.4583 30.2796 20.4583 30.2833 20.4547 30.2833C20.8443 29.0888 21.6892 27.614 22.0934 27.5084C22.2099 27.512 22.4466 27.6613 22.7052 27.9964Z" fill="black" stroke="black" stroke-width="0.25"/>
</g>
<defs>
<clipPath id="clip0">
<rect width="62.2271" height="97.35" fill="white"/>
</clipPath>
</defs>
</svg>
