<svg width="68" height="98" viewBox="0 0 68 98" fill="none" xmlns="http://www.w3.org/2000/svg">
<g clip-path="url(#clip0)">
<mask id="path-2-outside-1" maskUnits="userSpaceOnUse" x="-1" y="-1" width="69" height="99" fill="black">
<rect fill="white" x="-1" y="-1" width="69" height="99"/>
<path d="M39.1196 12.7418L36.1365 11.2679L42.0461 4.50999L33.3548 0L31.0822 8.77256L28.3748 7.43653L27.5936 9.01998L38.342 14.3288L39.1196 12.7418ZM32.2945 5.44662L37.78 8.82205L37.0024 9.46179L32.0188 6.51757L32.2945 5.44662Z"/>
<path d="M51.4125 58.5026C51.8083 58.5097 52.2077 58.5167 52.6071 58.5167C53.2468 58.5167 53.8937 58.4991 54.5369 58.4319C55.47 58.3365 56.2229 58.0431 56.9545 57.7604L57.2867 57.6331L56.6576 55.9825L56.3148 56.1133C55.6361 56.3748 55.053 56.6011 54.3567 56.6717C53.4165 56.7672 52.4127 56.7495 51.4407 56.7318C51.0449 56.7248 50.649 56.7177 50.2567 56.7177H49.2635C49.1363 56.2759 49.0161 55.7811 48.9843 55.4736C48.9419 55.0883 48.8287 54.7349 48.7298 54.4203C48.6237 54.0916 48.5248 53.7805 48.5425 53.5437L46.7823 53.4024C46.7363 53.9855 46.9025 54.5016 47.0474 54.9575C47.1287 55.2155 47.2064 55.4559 47.2276 55.6644C47.2594 55.9719 47.3407 56.3501 47.4326 56.7212H42.9827V58.4885H50.2531C50.6419 58.4885 51.0272 58.4955 51.4125 58.5026Z"/>
<path d="M32.7893 57.4104C32.4641 57.6685 30.8171 57.8911 29.7108 57.3539C29.1205 57.0676 29.0463 56.7248 29.0463 56.4597L27.2791 56.4526C27.2755 57.5377 27.8658 58.4213 28.9403 58.9409C29.6295 59.2766 30.5272 59.4392 31.3932 59.4392C32.3934 59.4392 33.3478 59.2201 33.8885 58.7924C35.8784 57.2161 36.9034 54.4839 37.1968 52.4516L35.4472 52.1971C35.1397 54.3319 34.0935 56.3784 32.7893 57.4104Z"/>
<path d="M21.7688 35.0231L22.914 36.3697C23.476 35.8926 25.526 36.0234 26.346 36.4722L27.1942 34.9206C26.0526 34.295 23.1296 33.8638 21.7688 35.0231Z"/>
<path d="M35.9244 34.7615C34.348 34.7615 32.2768 34.9171 30.248 36.1294L31.1564 37.6457C32.4677 36.861 33.8956 36.5252 35.9279 36.5252V34.7615H35.9244Z"/>
<path d="M35.0337 43.4952C34.9489 43.3715 34.857 43.269 34.7262 43.1877C34.6096 43.1135 34.4753 43.0817 34.3409 43.0782C34.2031 43.0711 34.0794 43.117 33.9557 43.1736C33.8709 43.2125 33.7931 43.2761 33.7259 43.3397C33.6553 43.4069 33.5952 43.4846 33.5422 43.5659C33.5103 43.6119 33.4821 43.6614 33.4609 43.7144C33.422 43.7992 33.3796 43.8911 33.3619 43.983C33.3407 44.0996 33.3266 44.2092 33.3407 44.3258C33.3513 44.4142 33.3619 44.5026 33.3866 44.5874C33.4114 44.6651 33.4432 44.7394 33.4785 44.8136C33.4962 44.8489 33.5174 44.8843 33.5386 44.9161C33.581 44.9762 33.6234 45.0398 33.68 45.0857C33.7931 45.1847 33.9097 45.2519 34.0511 45.2801C34.0935 45.2907 34.1359 45.2978 34.1784 45.2978C34.2208 45.2978 34.2667 45.2907 34.3127 45.2801C34.3268 45.2766 34.3374 45.2731 34.3515 45.2695C34.3657 45.266 34.3798 45.2589 34.394 45.2554C34.5035 45.213 34.599 45.1494 34.6838 45.0645C34.7792 44.9656 34.864 44.8489 34.9347 44.7288C35.1079 44.4283 35.2069 44.089 35.1362 43.7462C35.1327 43.725 35.1256 43.7038 35.1185 43.6826C35.0938 43.6154 35.069 43.5482 35.0337 43.4952Z"/>
<path d="M24.1228 46.086C24.1935 46.1532 24.2783 46.2203 24.3702 46.2663C24.4586 46.3122 24.5575 46.3546 24.6565 46.3723C24.7307 46.3829 24.8085 46.397 24.8827 46.397C24.9322 46.397 24.9781 46.39 25.0276 46.3829C25.0488 46.3829 25.07 46.3758 25.0948 46.3723C25.1018 46.3723 25.1124 46.3688 25.1195 46.3688C25.123 46.3688 25.1266 46.3652 25.1301 46.3652C25.1442 46.3617 25.1584 46.3546 25.1725 46.3511C25.1973 46.344 25.2185 46.3334 25.2397 46.3193C25.2397 46.3193 25.2432 46.3193 25.2432 46.3157C25.2467 46.3122 25.2503 46.3122 25.2503 46.3087C25.2786 46.291 25.3033 46.2733 25.328 46.2486C25.3351 46.2415 25.3422 46.238 25.3528 46.2309C25.3563 46.2274 25.3598 46.2203 25.3669 46.2132C25.3952 46.185 25.4199 46.1532 25.4376 46.1213V46.1178C25.4553 46.086 25.4694 46.0507 25.48 46.0153C25.4836 46.0082 25.4871 46.0047 25.4871 45.9976C25.5189 45.9128 25.5401 45.8244 25.5578 45.7326C25.5861 45.5912 25.6073 45.4498 25.6108 45.3084C25.6179 44.9762 25.5083 44.6227 25.2079 44.446C25.017 44.3364 24.7873 44.3258 24.5787 44.3824C24.4798 44.4107 24.3843 44.4531 24.296 44.5026C24.2076 44.552 24.1228 44.6157 24.0556 44.6899C23.893 44.8666 23.8082 45.0716 23.7976 45.3119C23.787 45.4957 23.8471 45.6937 23.939 45.8492C23.9885 45.9376 24.0521 46.0188 24.1228 46.086Z"/>
<path d="M56.1592 47.6129C55.2438 46.2451 54.392 44.9691 53.678 43.8805L63.0055 38.4303L62.7616 35.419L65.8119 34.9029L65.5185 33.1604L63.306 33.5351L63.5534 32.9872L61.9416 32.2591L61.4009 33.4573L59.9129 32.6585L59.0752 34.2172L60.9732 35.2387L61.1535 37.469L52.7167 42.3995C52.4056 41.9118 52.1512 41.4947 51.9674 41.1731C50.6596 38.8827 46.185 31.6866 41.3993 25.2291C32.7328 13.537 29.527 12.9326 27.8693 13.4946C26.9786 13.795 25.5613 14.9791 22.4828 21.4825C20.5565 25.5578 18.2662 31.1246 15.8627 37.5856C14.5161 41.2049 13.2083 44.902 12.0031 48.4788L2.17724 52.4587L2.50948 53.2787C2.51655 53.2928 3.07499 54.7278 2.53775 55.8023C1.90862 57.0605 0.498361 58.34 0.0706895 58.439C0.0706895 58.439 0.1025 58.4319 0.159051 58.4355L0 60.1921C0.0353447 60.1956 0.0742239 60.1956 0.113103 60.1956C0.643274 60.1956 1.24767 59.8704 1.82732 59.3968L1.99698 60.2769L3.7324 59.9376L3.3224 57.8311L5.53852 58.4814L6.03688 56.7849L4.26258 56.2653C4.65137 55.2474 4.55594 54.1835 4.40395 53.466L11.275 50.6843C8.68774 58.5309 6.67662 65.5397 5.95912 69.4347C5.41835 72.3683 5.63042 73.206 6.17826 73.662C7.37645 74.6551 12.1975 74.9945 17.7996 74.9945C23.7481 74.9945 30.5661 74.6127 34.8464 74.2204C34.3622 75.0439 33.8709 75.8145 33.422 76.5178C32.1036 78.5784 31.3048 79.8261 31.577 80.8794C31.683 81.2894 31.941 81.6145 32.3263 81.8231C32.6727 82.0104 33.1392 82.3002 33.6305 82.6183C32.5702 84.0604 31.835 85.8205 31.835 87.8635C31.835 94.0276 38.2218 97.3535 40.8338 97.3535C43.2549 97.3535 49.161 96.0352 50.96 92.1119C52.7591 88.1851 50.5465 83.35 49.32 81.9962C49.2494 81.9185 49.1751 81.8337 49.0938 81.7418C48.2314 80.7521 46.602 78.8859 43.269 78.2462C43.6543 76.6981 44.1314 74.9096 44.6157 73.1813C44.7394 73.1707 44.8666 73.1601 44.9903 73.1495C60.6304 71.7746 67.6074 70.647 67.6074 67.6109C67.6074 64.9636 62.4223 56.9899 56.1592 47.6129ZM55.9189 50.4405C55.4771 50.6101 54.901 50.6914 54.4592 50.7515C54.3036 50.7727 54.1481 50.7833 53.9962 50.801C53.7381 49.8184 53.6003 48.5248 53.5826 46.9378C53.9325 47.4644 54.3036 48.0194 54.6889 48.5955C55.0777 49.1787 55.4912 49.7972 55.9189 50.4405ZM7.73343 69.4842C9.43704 69.4877 11.1725 69.562 12.8478 69.6327C12.9644 69.6362 13.0811 69.6433 13.1977 69.6468V73.1424C9.01998 72.9657 7.76524 72.5451 7.41533 72.3683C7.33403 71.923 7.44713 70.9298 7.73343 69.4842ZM36.3061 84.4456L37.3346 83.0071C37.2922 82.9753 36.861 82.6713 36.2778 82.2684C37.5467 81.0808 38.9923 80.2891 39.9855 79.9604L40.2329 86.4391L33.6694 86.9021C33.8532 85.6509 34.3869 84.5411 35.0903 83.5938C35.7759 84.0674 36.2955 84.4386 36.3061 84.4456ZM42.29 86.5522C42.2122 86.4426 42.1274 86.3507 42.0108 86.28C42.0072 86.2765 42.0001 86.2765 41.9966 86.273L41.9189 84.1912C42.4879 84.5799 43.1877 84.944 43.8946 85.2692L42.29 86.5522ZM33.6517 88.6764L40.1622 88.2169L38.5046 94.837C36.497 93.8332 34.0264 91.8009 33.6517 88.6764ZM40.8302 95.5828C40.6641 95.5828 40.4344 95.5474 40.1658 95.4803L41.8446 88.7648L48.5601 92.5466C46.5066 94.8052 42.2935 95.5828 40.8302 95.5828ZM49.4826 91.0304L43.6366 87.7398L48.4788 83.8624C49.3306 85.3469 50.4369 88.4785 49.4826 91.0304ZM47.3867 82.4734L45.4569 84.0215C44.082 83.4524 42.7459 82.7173 42.4207 82.3568C42.4314 81.9856 42.5975 81.1162 42.859 79.9639C45.2448 80.4022 46.5667 81.5827 47.3867 82.4734ZM41.4912 78.0376C41.2756 78.027 41.06 78.0164 40.8302 78.0164C39.6108 78.0164 36.914 79.1545 34.7898 81.2611C34.249 80.9076 33.7189 80.5719 33.2947 80.335C33.4008 79.8084 34.2278 78.5183 34.8994 77.465C35.5533 76.4401 36.2955 75.2807 36.9918 73.9907C37.3983 73.9412 37.7517 73.8952 38.0451 73.8493C39.116 73.6832 40.7666 73.5171 42.7282 73.3403C42.2264 75.1606 41.8128 76.7263 41.4912 78.0376ZM44.8383 71.3822C41.8658 71.6438 39.2998 71.87 37.78 72.1033C35.0443 72.5274 28.0072 73.0505 20.963 73.1883C18.5701 73.2343 16.5979 73.2343 14.965 73.1989V69.714C16.0819 69.7528 17.2129 69.7811 18.3368 69.7811C18.5595 69.7811 18.7857 69.7811 19.0119 69.7846C19.224 69.7882 19.4361 69.7882 19.6481 69.7882C20.6661 69.7882 21.7017 69.7458 22.7337 69.4489C23.0836 69.3499 23.4159 69.2262 23.7375 69.106C24.1016 68.9717 24.448 68.8409 24.7908 68.7561C24.8933 68.7314 25.0029 68.7172 25.1195 68.7031C25.4729 68.6536 25.9148 68.5935 26.3036 68.3426L25.3457 66.8581C25.275 66.897 25.0276 66.9323 24.8827 66.9535C24.7166 66.9747 24.5434 66.9995 24.3702 67.0419C23.9319 67.1515 23.5219 67.3034 23.1261 67.4484C22.8221 67.5615 22.5358 67.6675 22.2495 67.7488C22.1682 67.77 22.0869 67.7912 22.0056 67.8089C22.0268 67.1409 22.0657 66.4764 22.1046 65.7836C22.1647 64.748 22.2283 63.6771 22.2283 62.5743H20.4611C20.4611 63.6241 20.401 64.6667 20.3409 65.6776C20.2949 66.4375 20.249 67.2186 20.2278 68.0103C19.8355 68.0209 19.4361 68.0174 19.0261 68.0139C18.7928 68.0103 18.5595 68.0103 18.3298 68.0103C16.5272 68.0103 14.6963 67.9361 12.922 67.8619C11.3492 67.7947 9.72687 67.7311 8.11162 67.717C8.65593 65.3701 9.50066 62.2704 10.6034 58.6122L12.0349 59.054C12.1657 58.6369 12.459 58.2411 12.7701 57.8204C12.9044 57.6402 13.0387 57.4599 13.1624 57.2761C13.8799 56.2158 14.6928 55.3145 15.6436 54.5193C16.5413 53.7699 17.4709 52.9924 18.4818 52.3456C18.7009 52.2077 18.9872 52.0487 19.2876 51.879C19.6093 51.6987 19.9344 51.515 20.2349 51.3276C21.274 51.8401 22.8822 52.1794 24.4939 52.1794C26.0067 52.1794 27.5194 51.8825 28.5515 51.1509C30.7888 49.5675 31.9941 47.2842 32.1672 45.8315C32.3828 44.0148 31.7855 42.502 31.1034 40.9858C30.4247 39.4836 27.7386 38.1865 25.5542 37.7234C24.1935 37.4371 22.3909 37.9178 20.7368 39.0135C20.097 39.4377 18.5843 40.5722 18.3121 41.9542C18.1142 42.9686 17.8031 47.7437 18.9377 50.0481C18.7716 50.1436 18.5984 50.239 18.4287 50.338C18.1036 50.5182 17.7925 50.6914 17.531 50.8575C16.4212 51.5644 15.4492 52.3774 14.509 53.1656C13.431 54.0668 12.512 55.0883 11.6991 56.2865C11.5895 56.4491 11.4694 56.6081 11.3527 56.7672C11.2467 56.9121 11.1371 57.0605 11.0276 57.2161C12.3212 53.01 13.9329 48.1431 15.8062 42.8838C22.0551 25.3846 26.8867 15.6931 28.4384 15.1664C28.7317 15.0675 29.9264 14.972 32.9484 17.9092C34.0016 18.9342 35.1786 20.2243 36.4581 21.7688C36.0057 21.9173 35.426 21.988 34.9595 22.048C34.7509 22.0728 34.553 22.0975 34.3728 22.1258C32.5949 22.4015 30.6898 22.3591 28.8484 22.3202C28.1698 22.3061 27.4911 22.2919 26.8196 22.2919V24.0592C27.477 24.0592 28.1415 24.0733 28.8095 24.0874C29.4881 24.1016 30.1773 24.1157 30.8666 24.1157C32.1248 24.1157 33.3972 24.0662 34.6449 23.8718C34.8075 23.8471 34.9878 23.8259 35.1751 23.8011C35.9527 23.7057 36.8646 23.5926 37.6174 23.1932C38.3738 24.144 39.162 25.1725 39.982 26.2788C40.24 26.6287 40.498 26.9786 40.756 27.3321C40.7065 27.3392 40.6571 27.3462 40.6076 27.3568C40.2859 27.4063 39.9502 27.4593 39.6497 27.5477C38.4975 27.887 37.4866 28.1592 36.4227 28.2652C36.2708 27.9824 36.1082 27.5654 36.0234 27.3498C35.9668 27.2013 35.9138 27.067 35.8643 26.9574L35.8466 26.9186C35.5921 26.3283 35.4755 26.0632 35.5144 25.5295L33.7507 25.3987C33.68 26.3636 33.9309 26.9468 34.2208 27.6184L34.2384 27.6573C34.2809 27.7527 34.3233 27.8658 34.3728 27.993C34.4152 28.1026 34.4576 28.2051 34.5 28.3111C33.9769 28.3111 33.4503 28.3111 32.9272 28.3111L31.3967 28.3076V30.0748L32.9236 30.0784C33.4326 30.0784 33.9451 30.0819 34.454 30.0819C34.8216 30.0819 35.1892 30.0819 35.5533 30.0784C37.1897 30.0713 38.6 29.6966 40.1446 29.2442C40.3354 29.1877 40.6005 29.1453 40.8797 29.1029C41.2014 29.0534 41.5477 28.9968 41.8835 28.9049C43.2054 30.7676 44.4672 32.6267 45.6018 34.348C45.3473 34.4611 45.0822 34.5672 44.8065 34.6732C44.4213 34.8216 44.0219 34.9771 43.6295 35.1645C43.1948 35.373 42.7035 35.5462 42.1239 35.7017C41.9754 35.3235 41.8022 34.864 41.7669 34.6308C41.7033 34.1996 41.7139 33.7224 41.7245 33.2205C41.728 33.0226 41.7351 32.8247 41.7351 32.6267H39.9678C39.9678 32.8105 39.9643 32.9943 39.9608 33.1781C39.9466 33.7365 39.936 34.3091 40.0244 34.8959C40.0739 35.214 40.2011 35.6028 40.346 35.988C39.9996 35.9915 39.6391 35.9739 39.2715 35.9562C38.8227 35.935 38.3632 35.9103 37.8896 35.9244L37.9461 37.6916C38.3455 37.681 38.752 37.6987 39.1832 37.7199C39.5366 37.7376 39.8936 37.7552 40.2577 37.7552C40.7525 37.7552 41.2544 37.7234 41.7669 37.6103C42.8272 37.3806 43.6614 37.112 44.3965 36.7585C44.7252 36.5995 45.0787 36.4652 45.4498 36.3203C45.828 36.1753 46.2097 36.0234 46.5879 35.8466C48.4718 38.7484 49.8856 41.0777 50.4405 42.0461C50.854 42.7707 51.5574 43.8699 52.4657 45.2448C50.4475 45.9411 48.3657 46.2415 46.1779 46.3758C46.1532 46.2839 46.1284 46.1956 46.1037 46.1037C45.7962 44.9868 45.4251 43.6401 45.5276 42.6293C45.6301 42.5975 45.7361 42.5692 45.8386 42.5303C46.2345 42.3925 46.6621 42.3006 47.1145 42.2016C47.4786 42.1239 47.8532 42.0426 48.2244 41.933L47.7295 40.2364C47.4185 40.3283 47.0933 40.399 46.7434 40.4733C46.2592 40.5793 45.7573 40.6853 45.2589 40.8585C44.1385 41.2473 43.0605 41.2473 41.8058 41.2473H41.5583V43.0145H41.8022C41.88 43.0145 41.9613 43.0145 42.039 43.0145C42.6151 43.0145 43.1771 43.0075 43.7462 42.958C43.7426 44.1244 44.0714 45.372 44.3682 46.4501C43.5942 46.4677 42.8095 46.4713 42.0072 46.4713V48.2385C45.372 48.2385 48.6662 48.1466 51.8295 47.2842C51.8613 48.7227 51.9886 49.928 52.2148 50.9282C51.5114 50.9494 50.8081 50.953 50.1153 50.953V52.7202C51.6033 52.7202 53.1443 52.7202 54.7101 52.5081C55.3463 52.4198 56.2017 52.2996 56.9192 51.9356C59.5417 55.8942 62.5213 60.496 64.2885 63.7725L63.0727 62.5566C62.0088 63.6205 60.4183 64.4405 58.3436 64.9919C58.0113 65.0803 57.6755 65.1722 57.3362 65.2676C56.951 65.3736 56.5622 65.4832 56.1734 65.5822C56.1168 64.8929 56.0108 64.3663 55.8482 64.0058C55.6821 63.6382 55.4594 63.26 55.2438 62.8995C54.8444 62.2244 54.3955 61.4645 54.4274 60.899L52.6637 60.7929C52.5965 61.8992 53.1938 62.9101 53.7205 63.8008C53.9184 64.1366 54.1057 64.4547 54.233 64.7303C54.2718 64.8152 54.3814 65.1333 54.4274 65.9851C53.8937 66.0841 53.3599 66.1583 52.8368 66.1865C49.6735 66.3562 46.4076 66.5294 43.1453 66.5294V68.2966C44.0607 68.2966 44.9726 68.2825 45.881 68.2577C45.8916 68.4557 45.8951 68.6677 45.8987 68.8586C45.9057 69.2898 45.9163 69.6998 45.98 70.0568C46.0153 70.2477 46.0542 70.442 46.0966 70.6329C46.1426 70.8521 46.185 71.0606 46.2168 71.2656C45.7432 71.3045 45.2837 71.3433 44.8383 71.3822ZM20.0546 42.297C20.1288 41.9082 20.6837 41.1801 21.7193 40.4945C22.7514 39.8123 23.8754 39.4164 24.7307 39.4164C24.8968 39.4164 25.0488 39.4306 25.1937 39.4624C27.4417 39.936 29.216 41.0989 29.4987 41.7245C30.0996 43.057 30.5838 44.2693 30.4212 45.6371C30.3187 46.5031 29.4457 48.3763 27.5406 49.723C25.8547 50.9141 21.8112 50.3839 20.7368 49.5887C19.9238 48.9878 19.6835 44.2092 20.0546 42.297ZM58.7677 69.8377C55.4948 70.3714 51.575 70.7743 47.9769 71.103C47.9345 70.8167 47.878 70.5375 47.8214 70.2689C47.7861 70.0921 47.7472 69.9154 47.7154 69.7422C47.6765 69.5196 47.6694 69.1626 47.6624 68.8197C47.6588 68.6112 47.6518 68.4027 47.6412 68.1977C49.4225 68.1305 51.1933 68.0386 52.9252 67.9467C54.5899 67.8584 56.2193 67.4059 57.7992 66.9677C58.1315 66.8758 58.4602 66.7839 58.7889 66.6991C61.1605 66.0699 63.0161 65.0979 64.3027 63.8149C65.2464 65.5645 65.8402 66.9323 65.8402 67.6074C65.8331 67.6463 65.5468 68.7314 58.7677 69.8377Z"/>
<path d="M63.3979 86.0786C64.1083 85.2409 64.6314 84.382 64.6314 83.7175C64.6314 82.8975 63.9457 81.4166 59.365 80.692C58.5026 80.5542 57.5624 81.2151 57.0782 81.6216C56.0002 82.5264 54.8338 84.1487 54.7949 85.9973C54.749 88.2134 52.7768 90.7617 51.3347 92.6209L52.7308 93.7024C53.3317 92.9284 54.0174 92.0448 54.6394 91.094C56.8025 92.073 61.7791 92.7021 64.3027 90.6557C65.4302 89.7403 65.5009 88.383 64.4865 87.1142C64.2143 86.7784 63.8361 86.4214 63.3979 86.0786ZM63.1893 89.2879C61.2878 90.8289 57.103 90.175 55.5407 89.5671C56.1274 88.4255 56.5374 87.2308 56.5622 86.0326C56.6011 84.0887 58.5733 82.5052 59.1176 82.4416C60.9803 82.7385 62.5814 83.3605 62.8535 83.7423C62.7723 84.0356 62.3976 84.5446 61.9028 85.0924C60.4748 84.3113 58.9373 83.8766 58.234 84.435C57.4635 85.0465 57.2443 86.1811 57.2938 87.0399C57.3504 88.0084 57.725 88.7754 58.3188 89.1359C58.9303 89.5105 59.6301 89.1995 60.1037 88.9344C60.6162 88.6481 61.4009 88.0579 62.1714 87.3474C62.7404 87.7645 63.2105 88.2311 63.3908 88.6729C63.4685 88.8743 63.5004 89.0334 63.1893 89.2879ZM60.5738 86.4073C60.0366 86.8844 59.5135 87.2803 59.153 87.457C59.0929 87.2874 59.0363 87.0223 59.0505 86.6936C59.0646 86.3366 59.153 86.0786 59.2378 85.9336C59.5311 85.969 60.026 86.1422 60.5738 86.4073Z"/>
</mask>
<path d="M39.1196 12.7418L36.1365 11.2679L42.0461 4.50999L33.3548 0L31.0822 8.77256L28.3748 7.43653L27.5936 9.01998L38.342 14.3288L39.1196 12.7418ZM32.2945 5.44662L37.78 8.82205L37.0024 9.46179L32.0188 6.51757L32.2945 5.44662Z" fill="black"/>
<path d="M51.4125 58.5026C51.8083 58.5097 52.2077 58.5167 52.6071 58.5167C53.2468 58.5167 53.8937 58.4991 54.5369 58.4319C55.47 58.3365 56.2229 58.0431 56.9545 57.7604L57.2867 57.6331L56.6576 55.9825L56.3148 56.1133C55.6361 56.3748 55.053 56.6011 54.3567 56.6717C53.4165 56.7672 52.4127 56.7495 51.4407 56.7318C51.0449 56.7248 50.649 56.7177 50.2567 56.7177H49.2635C49.1363 56.2759 49.0161 55.7811 48.9843 55.4736C48.9419 55.0883 48.8287 54.7349 48.7298 54.4203C48.6237 54.0916 48.5248 53.7805 48.5425 53.5437L46.7823 53.4024C46.7363 53.9855 46.9025 54.5016 47.0474 54.9575C47.1287 55.2155 47.2064 55.4559 47.2276 55.6644C47.2594 55.9719 47.3407 56.3501 47.4326 56.7212H42.9827V58.4885H50.2531C50.6419 58.4885 51.0272 58.4955 51.4125 58.5026Z" fill="black"/>
<path d="M32.7893 57.4104C32.4641 57.6685 30.8171 57.8911 29.7108 57.3539C29.1205 57.0676 29.0463 56.7248 29.0463 56.4597L27.2791 56.4526C27.2755 57.5377 27.8658 58.4213 28.9403 58.9409C29.6295 59.2766 30.5272 59.4392 31.3932 59.4392C32.3934 59.4392 33.3478 59.2201 33.8885 58.7924C35.8784 57.2161 36.9034 54.4839 37.1968 52.4516L35.4472 52.1971C35.1397 54.3319 34.0935 56.3784 32.7893 57.4104Z" fill="black"/>
<path d="M21.7688 35.0231L22.914 36.3697C23.476 35.8926 25.526 36.0234 26.346 36.4722L27.1942 34.9206C26.0526 34.295 23.1296 33.8638 21.7688 35.0231Z" fill="black"/>
<path d="M35.9244 34.7615C34.348 34.7615 32.2768 34.9171 30.248 36.1294L31.1564 37.6457C32.4677 36.861 33.8956 36.5252 35.9279 36.5252V34.7615H35.9244Z" fill="black"/>
<path d="M35.0337 43.4952C34.9489 43.3715 34.857 43.269 34.7262 43.1877C34.6096 43.1135 34.4753 43.0817 34.3409 43.0782C34.2031 43.0711 34.0794 43.117 33.9557 43.1736C33.8709 43.2125 33.7931 43.2761 33.7259 43.3397C33.6553 43.4069 33.5952 43.4846 33.5422 43.5659C33.5103 43.6119 33.4821 43.6614 33.4609 43.7144C33.422 43.7992 33.3796 43.8911 33.3619 43.983C33.3407 44.0996 33.3266 44.2092 33.3407 44.3258C33.3513 44.4142 33.3619 44.5026 33.3866 44.5874C33.4114 44.6651 33.4432 44.7394 33.4785 44.8136C33.4962 44.8489 33.5174 44.8843 33.5386 44.9161C33.581 44.9762 33.6234 45.0398 33.68 45.0857C33.7931 45.1847 33.9097 45.2519 34.0511 45.2801C34.0935 45.2907 34.1359 45.2978 34.1784 45.2978C34.2208 45.2978 34.2667 45.2907 34.3127 45.2801C34.3268 45.2766 34.3374 45.2731 34.3515 45.2695C34.3657 45.266 34.3798 45.2589 34.394 45.2554C34.5035 45.213 34.599 45.1494 34.6838 45.0645C34.7792 44.9656 34.864 44.8489 34.9347 44.7288C35.1079 44.4283 35.2069 44.089 35.1362 43.7462C35.1327 43.725 35.1256 43.7038 35.1185 43.6826C35.0938 43.6154 35.069 43.5482 35.0337 43.4952Z" fill="black"/>
<path d="M24.1228 46.086C24.1935 46.1532 24.2783 46.2203 24.3702 46.2663C24.4586 46.3122 24.5575 46.3546 24.6565 46.3723C24.7307 46.3829 24.8085 46.397 24.8827 46.397C24.9322 46.397 24.9781 46.39 25.0276 46.3829C25.0488 46.3829 25.07 46.3758 25.0948 46.3723C25.1018 46.3723 25.1124 46.3688 25.1195 46.3688C25.123 46.3688 25.1266 46.3652 25.1301 46.3652C25.1442 46.3617 25.1584 46.3546 25.1725 46.3511C25.1973 46.344 25.2185 46.3334 25.2397 46.3193C25.2397 46.3193 25.2432 46.3193 25.2432 46.3157C25.2467 46.3122 25.2503 46.3122 25.2503 46.3087C25.2786 46.291 25.3033 46.2733 25.328 46.2486C25.3351 46.2415 25.3422 46.238 25.3528 46.2309C25.3563 46.2274 25.3598 46.2203 25.3669 46.2132C25.3952 46.185 25.4199 46.1532 25.4376 46.1213V46.1178C25.4553 46.086 25.4694 46.0507 25.48 46.0153C25.4836 46.0082 25.4871 46.0047 25.4871 45.9976C25.5189 45.9128 25.5401 45.8244 25.5578 45.7326C25.5861 45.5912 25.6073 45.4498 25.6108 45.3084C25.6179 44.9762 25.5083 44.6227 25.2079 44.446C25.017 44.3364 24.7873 44.3258 24.5787 44.3824C24.4798 44.4107 24.3843 44.4531 24.296 44.5026C24.2076 44.552 24.1228 44.6157 24.0556 44.6899C23.893 44.8666 23.8082 45.0716 23.7976 45.3119C23.787 45.4957 23.8471 45.6937 23.939 45.8492C23.9885 45.9376 24.0521 46.0188 24.1228 46.086Z" fill="black"/>
<path d="M56.1592 47.6129C55.2438 46.2451 54.392 44.9691 53.678 43.8805L63.0055 38.4303L62.7616 35.419L65.8119 34.9029L65.5185 33.1604L63.306 33.5351L63.5534 32.9872L61.9416 32.2591L61.4009 33.4573L59.9129 32.6585L59.0752 34.2172L60.9732 35.2387L61.1535 37.469L52.7167 42.3995C52.4056 41.9118 52.1512 41.4947 51.9674 41.1731C50.6596 38.8827 46.185 31.6866 41.3993 25.2291C32.7328 13.537 29.527 12.9326 27.8693 13.4946C26.9786 13.795 25.5613 14.9791 22.4828 21.4825C20.5565 25.5578 18.2662 31.1246 15.8627 37.5856C14.5161 41.2049 13.2083 44.902 12.0031 48.4788L2.17724 52.4587L2.50948 53.2787C2.51655 53.2928 3.07499 54.7278 2.53775 55.8023C1.90862 57.0605 0.498361 58.34 0.0706895 58.439C0.0706895 58.439 0.1025 58.4319 0.159051 58.4355L0 60.1921C0.0353447 60.1956 0.0742239 60.1956 0.113103 60.1956C0.643274 60.1956 1.24767 59.8704 1.82732 59.3968L1.99698 60.2769L3.7324 59.9376L3.3224 57.8311L5.53852 58.4814L6.03688 56.7849L4.26258 56.2653C4.65137 55.2474 4.55594 54.1835 4.40395 53.466L11.275 50.6843C8.68774 58.5309 6.67662 65.5397 5.95912 69.4347C5.41835 72.3683 5.63042 73.206 6.17826 73.662C7.37645 74.6551 12.1975 74.9945 17.7996 74.9945C23.7481 74.9945 30.5661 74.6127 34.8464 74.2204C34.3622 75.0439 33.8709 75.8145 33.422 76.5178C32.1036 78.5784 31.3048 79.8261 31.577 80.8794C31.683 81.2894 31.941 81.6145 32.3263 81.8231C32.6727 82.0104 33.1392 82.3002 33.6305 82.6183C32.5702 84.0604 31.835 85.8205 31.835 87.8635C31.835 94.0276 38.2218 97.3535 40.8338 97.3535C43.2549 97.3535 49.161 96.0352 50.96 92.1119C52.7591 88.1851 50.5465 83.35 49.32 81.9962C49.2494 81.9185 49.1751 81.8337 49.0938 81.7418C48.2314 80.7521 46.602 78.8859 43.269 78.2462C43.6543 76.6981 44.1314 74.9096 44.6157 73.1813C44.7394 73.1707 44.8666 73.1601 44.9903 73.1495C60.6304 71.7746 67.6074 70.647 67.6074 67.6109C67.6074 64.9636 62.4223 56.9899 56.1592 47.6129ZM55.9189 50.4405C55.4771 50.6101 54.901 50.6914 54.4592 50.7515C54.3036 50.7727 54.1481 50.7833 53.9962 50.801C53.7381 49.8184 53.6003 48.5248 53.5826 46.9378C53.9325 47.4644 54.3036 48.0194 54.6889 48.5955C55.0777 49.1787 55.4912 49.7972 55.9189 50.4405ZM7.73343 69.4842C9.43704 69.4877 11.1725 69.562 12.8478 69.6327C12.9644 69.6362 13.0811 69.6433 13.1977 69.6468V73.1424C9.01998 72.9657 7.76524 72.5451 7.41533 72.3683C7.33403 71.923 7.44713 70.9298 7.73343 69.4842ZM36.3061 84.4456L37.3346 83.0071C37.2922 82.9753 36.861 82.6713 36.2778 82.2684C37.5467 81.0808 38.9923 80.2891 39.9855 79.9604L40.2329 86.4391L33.6694 86.9021C33.8532 85.6509 34.3869 84.5411 35.0903 83.5938C35.7759 84.0674 36.2955 84.4386 36.3061 84.4456ZM42.29 86.5522C42.2122 86.4426 42.1274 86.3507 42.0108 86.28C42.0072 86.2765 42.0001 86.2765 41.9966 86.273L41.9189 84.1912C42.4879 84.5799 43.1877 84.944 43.8946 85.2692L42.29 86.5522ZM33.6517 88.6764L40.1622 88.2169L38.5046 94.837C36.497 93.8332 34.0264 91.8009 33.6517 88.6764ZM40.8302 95.5828C40.6641 95.5828 40.4344 95.5474 40.1658 95.4803L41.8446 88.7648L48.5601 92.5466C46.5066 94.8052 42.2935 95.5828 40.8302 95.5828ZM49.4826 91.0304L43.6366 87.7398L48.4788 83.8624C49.3306 85.3469 50.4369 88.4785 49.4826 91.0304ZM47.3867 82.4734L45.4569 84.0215C44.082 83.4524 42.7459 82.7173 42.4207 82.3568C42.4314 81.9856 42.5975 81.1162 42.859 79.9639C45.2448 80.4022 46.5667 81.5827 47.3867 82.4734ZM41.4912 78.0376C41.2756 78.027 41.06 78.0164 40.8302 78.0164C39.6108 78.0164 36.914 79.1545 34.7898 81.2611C34.249 80.9076 33.7189 80.5719 33.2947 80.335C33.4008 79.8084 34.2278 78.5183 34.8994 77.465C35.5533 76.4401 36.2955 75.2807 36.9918 73.9907C37.3983 73.9412 37.7517 73.8952 38.0451 73.8493C39.116 73.6832 40.7666 73.5171 42.7282 73.3403C42.2264 75.1606 41.8128 76.7263 41.4912 78.0376ZM44.8383 71.3822C41.8658 71.6438 39.2998 71.87 37.78 72.1033C35.0443 72.5274 28.0072 73.0505 20.963 73.1883C18.5701 73.2343 16.5979 73.2343 14.965 73.1989V69.714C16.0819 69.7528 17.2129 69.7811 18.3368 69.7811C18.5595 69.7811 18.7857 69.7811 19.0119 69.7846C19.224 69.7882 19.4361 69.7882 19.6481 69.7882C20.6661 69.7882 21.7017 69.7458 22.7337 69.4489C23.0836 69.3499 23.4159 69.2262 23.7375 69.106C24.1016 68.9717 24.448 68.8409 24.7908 68.7561C24.8933 68.7314 25.0029 68.7172 25.1195 68.7031C25.4729 68.6536 25.9148 68.5935 26.3036 68.3426L25.3457 66.8581C25.275 66.897 25.0276 66.9323 24.8827 66.9535C24.7166 66.9747 24.5434 66.9995 24.3702 67.0419C23.9319 67.1515 23.5219 67.3034 23.1261 67.4484C22.8221 67.5615 22.5358 67.6675 22.2495 67.7488C22.1682 67.77 22.0869 67.7912 22.0056 67.8089C22.0268 67.1409 22.0657 66.4764 22.1046 65.7836C22.1647 64.748 22.2283 63.6771 22.2283 62.5743H20.4611C20.4611 63.6241 20.401 64.6667 20.3409 65.6776C20.2949 66.4375 20.249 67.2186 20.2278 68.0103C19.8355 68.0209 19.4361 68.0174 19.0261 68.0139C18.7928 68.0103 18.5595 68.0103 18.3298 68.0103C16.5272 68.0103 14.6963 67.9361 12.922 67.8619C11.3492 67.7947 9.72687 67.7311 8.11162 67.717C8.65593 65.3701 9.50066 62.2704 10.6034 58.6122L12.0349 59.054C12.1657 58.6369 12.459 58.2411 12.7701 57.8204C12.9044 57.6402 13.0387 57.4599 13.1624 57.2761C13.8799 56.2158 14.6928 55.3145 15.6436 54.5193C16.5413 53.7699 17.4709 52.9924 18.4818 52.3456C18.7009 52.2077 18.9872 52.0487 19.2876 51.879C19.6093 51.6987 19.9344 51.515 20.2349 51.3276C21.274 51.8401 22.8822 52.1794 24.4939 52.1794C26.0067 52.1794 27.5194 51.8825 28.5515 51.1509C30.7888 49.5675 31.9941 47.2842 32.1672 45.8315C32.3828 44.0148 31.7855 42.502 31.1034 40.9858C30.4247 39.4836 27.7386 38.1865 25.5542 37.7234C24.1935 37.4371 22.3909 37.9178 20.7368 39.0135C20.097 39.4377 18.5843 40.5722 18.3121 41.9542C18.1142 42.9686 17.8031 47.7437 18.9377 50.0481C18.7716 50.1436 18.5984 50.239 18.4287 50.338C18.1036 50.5182 17.7925 50.6914 17.531 50.8575C16.4212 51.5644 15.4492 52.3774 14.509 53.1656C13.431 54.0668 12.512 55.0883 11.6991 56.2865C11.5895 56.4491 11.4694 56.6081 11.3527 56.7672C11.2467 56.9121 11.1371 57.0605 11.0276 57.2161C12.3212 53.01 13.9329 48.1431 15.8062 42.8838C22.0551 25.3846 26.8867 15.6931 28.4384 15.1664C28.7317 15.0675 29.9264 14.972 32.9484 17.9092C34.0016 18.9342 35.1786 20.2243 36.4581 21.7688C36.0057 21.9173 35.426 21.988 34.9595 22.048C34.7509 22.0728 34.553 22.0975 34.3728 22.1258C32.5949 22.4015 30.6898 22.3591 28.8484 22.3202C28.1698 22.3061 27.4911 22.2919 26.8196 22.2919V24.0592C27.477 24.0592 28.1415 24.0733 28.8095 24.0874C29.4881 24.1016 30.1773 24.1157 30.8666 24.1157C32.1248 24.1157 33.3972 24.0662 34.6449 23.8718C34.8075 23.8471 34.9878 23.8259 35.1751 23.8011C35.9527 23.7057 36.8646 23.5926 37.6174 23.1932C38.3738 24.144 39.162 25.1725 39.982 26.2788C40.24 26.6287 40.498 26.9786 40.756 27.3321C40.7065 27.3392 40.6571 27.3462 40.6076 27.3568C40.2859 27.4063 39.9502 27.4593 39.6497 27.5477C38.4975 27.887 37.4866 28.1592 36.4227 28.2652C36.2708 27.9824 36.1082 27.5654 36.0234 27.3498C35.9668 27.2013 35.9138 27.067 35.8643 26.9574L35.8466 26.9186C35.5921 26.3283 35.4755 26.0632 35.5144 25.5295L33.7507 25.3987C33.68 26.3636 33.9309 26.9468 34.2208 27.6184L34.2384 27.6573C34.2809 27.7527 34.3233 27.8658 34.3728 27.993C34.4152 28.1026 34.4576 28.2051 34.5 28.3111C33.9769 28.3111 33.4503 28.3111 32.9272 28.3111L31.3967 28.3076V30.0748L32.9236 30.0784C33.4326 30.0784 33.9451 30.0819 34.454 30.0819C34.8216 30.0819 35.1892 30.0819 35.5533 30.0784C37.1897 30.0713 38.6 29.6966 40.1446 29.2442C40.3354 29.1877 40.6005 29.1453 40.8797 29.1029C41.2014 29.0534 41.5477 28.9968 41.8835 28.9049C43.2054 30.7676 44.4672 32.6267 45.6018 34.348C45.3473 34.4611 45.0822 34.5672 44.8065 34.6732C44.4213 34.8216 44.0219 34.9771 43.6295 35.1645C43.1948 35.373 42.7035 35.5462 42.1239 35.7017C41.9754 35.3235 41.8022 34.864 41.7669 34.6308C41.7033 34.1996 41.7139 33.7224 41.7245 33.2205C41.728 33.0226 41.7351 32.8247 41.7351 32.6267H39.9678C39.9678 32.8105 39.9643 32.9943 39.9608 33.1781C39.9466 33.7365 39.936 34.3091 40.0244 34.8959C40.0739 35.214 40.2011 35.6028 40.346 35.988C39.9996 35.9915 39.6391 35.9739 39.2715 35.9562C38.8227 35.935 38.3632 35.9103 37.8896 35.9244L37.9461 37.6916C38.3455 37.681 38.752 37.6987 39.1832 37.7199C39.5366 37.7376 39.8936 37.7552 40.2577 37.7552C40.7525 37.7552 41.2544 37.7234 41.7669 37.6103C42.8272 37.3806 43.6614 37.112 44.3965 36.7585C44.7252 36.5995 45.0787 36.4652 45.4498 36.3203C45.828 36.1753 46.2097 36.0234 46.5879 35.8466C48.4718 38.7484 49.8856 41.0777 50.4405 42.0461C50.854 42.7707 51.5574 43.8699 52.4657 45.2448C50.4475 45.9411 48.3657 46.2415 46.1779 46.3758C46.1532 46.2839 46.1284 46.1956 46.1037 46.1037C45.7962 44.9868 45.4251 43.6401 45.5276 42.6293C45.6301 42.5975 45.7361 42.5692 45.8386 42.5303C46.2345 42.3925 46.6621 42.3006 47.1145 42.2016C47.4786 42.1239 47.8532 42.0426 48.2244 41.933L47.7295 40.2364C47.4185 40.3283 47.0933 40.399 46.7434 40.4733C46.2592 40.5793 45.7573 40.6853 45.2589 40.8585C44.1385 41.2473 43.0605 41.2473 41.8058 41.2473H41.5583V43.0145H41.8022C41.88 43.0145 41.9613 43.0145 42.039 43.0145C42.6151 43.0145 43.1771 43.0075 43.7462 42.958C43.7426 44.1244 44.0714 45.372 44.3682 46.4501C43.5942 46.4677 42.8095 46.4713 42.0072 46.4713V48.2385C45.372 48.2385 48.6662 48.1466 51.8295 47.2842C51.8613 48.7227 51.9886 49.928 52.2148 50.9282C51.5114 50.9494 50.8081 50.953 50.1153 50.953V52.7202C51.6033 52.7202 53.1443 52.7202 54.7101 52.5081C55.3463 52.4198 56.2017 52.2996 56.9192 51.9356C59.5417 55.8942 62.5213 60.496 64.2885 63.7725L63.0727 62.5566C62.0088 63.6205 60.4183 64.4405 58.3436 64.9919C58.0113 65.0803 57.6755 65.1722 57.3362 65.2676C56.951 65.3736 56.5622 65.4832 56.1734 65.5822C56.1168 64.8929 56.0108 64.3663 55.8482 64.0058C55.6821 63.6382 55.4594 63.26 55.2438 62.8995C54.8444 62.2244 54.3955 61.4645 54.4274 60.899L52.6637 60.7929C52.5965 61.8992 53.1938 62.9101 53.7205 63.8008C53.9184 64.1366 54.1057 64.4547 54.233 64.7303C54.2718 64.8152 54.3814 65.1333 54.4274 65.9851C53.8937 66.0841 53.3599 66.1583 52.8368 66.1865C49.6735 66.3562 46.4076 66.5294 43.1453 66.5294V68.2966C44.0607 68.2966 44.9726 68.2825 45.881 68.2577C45.8916 68.4557 45.8951 68.6677 45.8987 68.8586C45.9057 69.2898 45.9163 69.6998 45.98 70.0568C46.0153 70.2477 46.0542 70.442 46.0966 70.6329C46.1426 70.8521 46.185 71.0606 46.2168 71.2656C45.7432 71.3045 45.2837 71.3433 44.8383 71.3822ZM20.0546 42.297C20.1288 41.9082 20.6837 41.1801 21.7193 40.4945C22.7514 39.8123 23.8754 39.4164 24.7307 39.4164C24.8968 39.4164 25.0488 39.4306 25.1937 39.4624C27.4417 39.936 29.216 41.0989 29.4987 41.7245C30.0996 43.057 30.5838 44.2693 30.4212 45.6371C30.3187 46.5031 29.4457 48.3763 27.5406 49.723C25.8547 50.9141 21.8112 50.3839 20.7368 49.5887C19.9238 48.9878 19.6835 44.2092 20.0546 42.297ZM58.7677 69.8377C55.4948 70.3714 51.575 70.7743 47.9769 71.103C47.9345 70.8167 47.878 70.5375 47.8214 70.2689C47.7861 70.0921 47.7472 69.9154 47.7154 69.7422C47.6765 69.5196 47.6694 69.1626 47.6624 68.8197C47.6588 68.6112 47.6518 68.4027 47.6412 68.1977C49.4225 68.1305 51.1933 68.0386 52.9252 67.9467C54.5899 67.8584 56.2193 67.4059 57.7992 66.9677C58.1315 66.8758 58.4602 66.7839 58.7889 66.6991C61.1605 66.0699 63.0161 65.0979 64.3027 63.8149C65.2464 65.5645 65.8402 66.9323 65.8402 67.6074C65.8331 67.6463 65.5468 68.7314 58.7677 69.8377Z" fill="black"/>
<path d="M63.3979 86.0786C64.1083 85.2409 64.6314 84.382 64.6314 83.7175C64.6314 82.8975 63.9457 81.4166 59.365 80.692C58.5026 80.5542 57.5624 81.2151 57.0782 81.6216C56.0002 82.5264 54.8338 84.1487 54.7949 85.9973C54.749 88.2134 52.7768 90.7617 51.3347 92.6209L52.7308 93.7024C53.3317 92.9284 54.0174 92.0448 54.6394 91.094C56.8025 92.073 61.7791 92.7021 64.3027 90.6557C65.4302 89.7403 65.5009 88.383 64.4865 87.1142C64.2143 86.7784 63.8361 86.4214 63.3979 86.0786ZM63.1893 89.2879C61.2878 90.8289 57.103 90.175 55.5407 89.5671C56.1274 88.4255 56.5374 87.2308 56.5622 86.0326C56.6011 84.0887 58.5733 82.5052 59.1176 82.4416C60.9803 82.7385 62.5814 83.3605 62.8535 83.7423C62.7723 84.0356 62.3976 84.5446 61.9028 85.0924C60.4748 84.3113 58.9373 83.8766 58.234 84.435C57.4635 85.0465 57.2443 86.1811 57.2938 87.0399C57.3504 88.0084 57.725 88.7754 58.3188 89.1359C58.9303 89.5105 59.6301 89.1995 60.1037 88.9344C60.6162 88.6481 61.4009 88.0579 62.1714 87.3474C62.7404 87.7645 63.2105 88.2311 63.3908 88.6729C63.4685 88.8743 63.5004 89.0334 63.1893 89.2879ZM60.5738 86.4073C60.0366 86.8844 59.5135 87.2803 59.153 87.457C59.0929 87.2874 59.0363 87.0223 59.0505 86.6936C59.0646 86.3366 59.153 86.0786 59.2378 85.9336C59.5311 85.969 60.026 86.1422 60.5738 86.4073Z" fill="black"/>
<path d="M39.1196 12.7418L36.1365 11.2679L42.0461 4.50999L33.3548 0L31.0822 8.77256L28.3748 7.43653L27.5936 9.01998L38.342 14.3288L39.1196 12.7418ZM32.2945 5.44662L37.78 8.82205L37.0024 9.46179L32.0188 6.51757L32.2945 5.44662Z" stroke="black" stroke-width="0.5" mask="url(#path-2-outside-1)"/>
<path d="M51.4125 58.5026C51.8083 58.5097 52.2077 58.5167 52.6071 58.5167C53.2468 58.5167 53.8937 58.4991 54.5369 58.4319C55.47 58.3365 56.2229 58.0431 56.9545 57.7604L57.2867 57.6331L56.6576 55.9825L56.3148 56.1133C55.6361 56.3748 55.053 56.6011 54.3567 56.6717C53.4165 56.7672 52.4127 56.7495 51.4407 56.7318C51.0449 56.7248 50.649 56.7177 50.2567 56.7177H49.2635C49.1363 56.2759 49.0161 55.7811 48.9843 55.4736C48.9419 55.0883 48.8287 54.7349 48.7298 54.4203C48.6237 54.0916 48.5248 53.7805 48.5425 53.5437L46.7823 53.4024C46.7363 53.9855 46.9025 54.5016 47.0474 54.9575C47.1287 55.2155 47.2064 55.4559 47.2276 55.6644C47.2594 55.9719 47.3407 56.3501 47.4326 56.7212H42.9827V58.4885H50.2531C50.6419 58.4885 51.0272 58.4955 51.4125 58.5026Z" stroke="black" stroke-width="0.5" mask="url(#path-2-outside-1)"/>
<path d="M32.7893 57.4104C32.4641 57.6685 30.8171 57.8911 29.7108 57.3539C29.1205 57.0676 29.0463 56.7248 29.0463 56.4597L27.2791 56.4526C27.2755 57.5377 27.8658 58.4213 28.9403 58.9409C29.6295 59.2766 30.5272 59.4392 31.3932 59.4392C32.3934 59.4392 33.3478 59.2201 33.8885 58.7924C35.8784 57.2161 36.9034 54.4839 37.1968 52.4516L35.4472 52.1971C35.1397 54.3319 34.0935 56.3784 32.7893 57.4104Z" stroke="black" stroke-width="0.5" mask="url(#path-2-outside-1)"/>
<path d="M21.7688 35.0231L22.914 36.3697C23.476 35.8926 25.526 36.0234 26.346 36.4722L27.1942 34.9206C26.0526 34.295 23.1296 33.8638 21.7688 35.0231Z" stroke="black" stroke-width="0.5" mask="url(#path-2-outside-1)"/>
<path d="M35.9244 34.7615C34.348 34.7615 32.2768 34.9171 30.248 36.1294L31.1564 37.6457C32.4677 36.861 33.8956 36.5252 35.9279 36.5252V34.7615H35.9244Z" stroke="black" stroke-width="0.5" mask="url(#path-2-outside-1)"/>
<path d="M35.0337 43.4952C34.9489 43.3715 34.857 43.269 34.7262 43.1877C34.6096 43.1135 34.4753 43.0817 34.3409 43.0782C34.2031 43.0711 34.0794 43.117 33.9557 43.1736C33.8709 43.2125 33.7931 43.2761 33.7259 43.3397C33.6553 43.4069 33.5952 43.4846 33.5422 43.5659C33.5103 43.6119 33.4821 43.6614 33.4609 43.7144C33.422 43.7992 33.3796 43.8911 33.3619 43.983C33.3407 44.0996 33.3266 44.2092 33.3407 44.3258C33.3513 44.4142 33.3619 44.5026 33.3866 44.5874C33.4114 44.6651 33.4432 44.7394 33.4785 44.8136C33.4962 44.8489 33.5174 44.8843 33.5386 44.9161C33.581 44.9762 33.6234 45.0398 33.68 45.0857C33.7931 45.1847 33.9097 45.2519 34.0511 45.2801C34.0935 45.2907 34.1359 45.2978 34.1784 45.2978C34.2208 45.2978 34.2667 45.2907 34.3127 45.2801C34.3268 45.2766 34.3374 45.2731 34.3515 45.2695C34.3657 45.266 34.3798 45.2589 34.394 45.2554C34.5035 45.213 34.599 45.1494 34.6838 45.0645C34.7792 44.9656 34.864 44.8489 34.9347 44.7288C35.1079 44.4283 35.2069 44.089 35.1362 43.7462C35.1327 43.725 35.1256 43.7038 35.1185 43.6826C35.0938 43.6154 35.069 43.5482 35.0337 43.4952Z" stroke="black" stroke-width="0.5" mask="url(#path-2-outside-1)"/>
<path d="M24.1228 46.086C24.1935 46.1532 24.2783 46.2203 24.3702 46.2663C24.4586 46.3122 24.5575 46.3546 24.6565 46.3723C24.7307 46.3829 24.8085 46.397 24.8827 46.397C24.9322 46.397 24.9781 46.39 25.0276 46.3829C25.0488 46.3829 25.07 46.3758 25.0948 46.3723C25.1018 46.3723 25.1124 46.3688 25.1195 46.3688C25.123 46.3688 25.1266 46.3652 25.1301 46.3652C25.1442 46.3617 25.1584 46.3546 25.1725 46.3511C25.1973 46.344 25.2185 46.3334 25.2397 46.3193C25.2397 46.3193 25.2432 46.3193 25.2432 46.3157C25.2467 46.3122 25.2503 46.3122 25.2503 46.3087C25.2786 46.291 25.3033 46.2733 25.328 46.2486C25.3351 46.2415 25.3422 46.238 25.3528 46.2309C25.3563 46.2274 25.3598 46.2203 25.3669 46.2132C25.3952 46.185 25.4199 46.1532 25.4376 46.1213V46.1178C25.4553 46.086 25.4694 46.0507 25.48 46.0153C25.4836 46.0082 25.4871 46.0047 25.4871 45.9976C25.5189 45.9128 25.5401 45.8244 25.5578 45.7326C25.5861 45.5912 25.6073 45.4498 25.6108 45.3084C25.6179 44.9762 25.5083 44.6227 25.2079 44.446C25.017 44.3364 24.7873 44.3258 24.5787 44.3824C24.4798 44.4107 24.3843 44.4531 24.296 44.5026C24.2076 44.552 24.1228 44.6157 24.0556 44.6899C23.893 44.8666 23.8082 45.0716 23.7976 45.3119C23.787 45.4957 23.8471 45.6937 23.939 45.8492C23.9885 45.9376 24.0521 46.0188 24.1228 46.086Z" stroke="black" stroke-width="0.5" mask="url(#path-2-outside-1)"/>
<path d="M56.1592 47.6129C55.2438 46.2451 54.392 44.9691 53.678 43.8805L63.0055 38.4303L62.7616 35.419L65.8119 34.9029L65.5185 33.1604L63.306 33.5351L63.5534 32.9872L61.9416 32.2591L61.4009 33.4573L59.9129 32.6585L59.0752 34.2172L60.9732 35.2387L61.1535 37.469L52.7167 42.3995C52.4056 41.9118 52.1512 41.4947 51.9674 41.1731C50.6596 38.8827 46.185 31.6866 41.3993 25.2291C32.7328 13.537 29.527 12.9326 27.8693 13.4946C26.9786 13.795 25.5613 14.9791 22.4828 21.4825C20.5565 25.5578 18.2662 31.1246 15.8627 37.5856C14.5161 41.2049 13.2083 44.902 12.0031 48.4788L2.17724 52.4587L2.50948 53.2787C2.51655 53.2928 3.07499 54.7278 2.53775 55.8023C1.90862 57.0605 0.498361 58.34 0.0706895 58.439C0.0706895 58.439 0.1025 58.4319 0.159051 58.4355L0 60.1921C0.0353447 60.1956 0.0742239 60.1956 0.113103 60.1956C0.643274 60.1956 1.24767 59.8704 1.82732 59.3968L1.99698 60.2769L3.7324 59.9376L3.3224 57.8311L5.53852 58.4814L6.03688 56.7849L4.26258 56.2653C4.65137 55.2474 4.55594 54.1835 4.40395 53.466L11.275 50.6843C8.68774 58.5309 6.67662 65.5397 5.95912 69.4347C5.41835 72.3683 5.63042 73.206 6.17826 73.662C7.37645 74.6551 12.1975 74.9945 17.7996 74.9945C23.7481 74.9945 30.5661 74.6127 34.8464 74.2204C34.3622 75.0439 33.8709 75.8145 33.422 76.5178C32.1036 78.5784 31.3048 79.8261 31.577 80.8794C31.683 81.2894 31.941 81.6145 32.3263 81.8231C32.6727 82.0104 33.1392 82.3002 33.6305 82.6183C32.5702 84.0604 31.835 85.8205 31.835 87.8635C31.835 94.0276 38.2218 97.3535 40.8338 97.3535C43.2549 97.3535 49.161 96.0352 50.96 92.1119C52.7591 88.1851 50.5465 83.35 49.32 81.9962C49.2494 81.9185 49.1751 81.8337 49.0938 81.7418C48.2314 80.7521 46.602 78.8859 43.269 78.2462C43.6543 76.6981 44.1314 74.9096 44.6157 73.1813C44.7394 73.1707 44.8666 73.1601 44.9903 73.1495C60.6304 71.7746 67.6074 70.647 67.6074 67.6109C67.6074 64.9636 62.4223 56.9899 56.1592 47.6129ZM55.9189 50.4405C55.4771 50.6101 54.901 50.6914 54.4592 50.7515C54.3036 50.7727 54.1481 50.7833 53.9962 50.801C53.7381 49.8184 53.6003 48.5248 53.5826 46.9378C53.9325 47.4644 54.3036 48.0194 54.6889 48.5955C55.0777 49.1787 55.4912 49.7972 55.9189 50.4405ZM7.73343 69.4842C9.43704 69.4877 11.1725 69.562 12.8478 69.6327C12.9644 69.6362 13.0811 69.6433 13.1977 69.6468V73.1424C9.01998 72.9657 7.76524 72.5451 7.41533 72.3683C7.33403 71.923 7.44713 70.9298 7.73343 69.4842ZM36.3061 84.4456L37.3346 83.0071C37.2922 82.9753 36.861 82.6713 36.2778 82.2684C37.5467 81.0808 38.9923 80.2891 39.9855 79.9604L40.2329 86.4391L33.6694 86.9021C33.8532 85.6509 34.3869 84.5411 35.0903 83.5938C35.7759 84.0674 36.2955 84.4386 36.3061 84.4456ZM42.29 86.5522C42.2122 86.4426 42.1274 86.3507 42.0108 86.28C42.0072 86.2765 42.0001 86.2765 41.9966 86.273L41.9189 84.1912C42.4879 84.5799 43.1877 84.944 43.8946 85.2692L42.29 86.5522ZM33.6517 88.6764L40.1622 88.2169L38.5046 94.837C36.497 93.8332 34.0264 91.8009 33.6517 88.6764ZM40.8302 95.5828C40.6641 95.5828 40.4344 95.5474 40.1658 95.4803L41.8446 88.7648L48.5601 92.5466C46.5066 94.8052 42.2935 95.5828 40.8302 95.5828ZM49.4826 91.0304L43.6366 87.7398L48.4788 83.8624C49.3306 85.3469 50.4369 88.4785 49.4826 91.0304ZM47.3867 82.4734L45.4569 84.0215C44.082 83.4524 42.7459 82.7173 42.4207 82.3568C42.4314 81.9856 42.5975 81.1162 42.859 79.9639C45.2448 80.4022 46.5667 81.5827 47.3867 82.4734ZM41.4912 78.0376C41.2756 78.027 41.06 78.0164 40.8302 78.0164C39.6108 78.0164 36.914 79.1545 34.7898 81.2611C34.249 80.9076 33.7189 80.5719 33.2947 80.335C33.4008 79.8084 34.2278 78.5183 34.8994 77.465C35.5533 76.4401 36.2955 75.2807 36.9918 73.9907C37.3983 73.9412 37.7517 73.8952 38.0451 73.8493C39.116 73.6832 40.7666 73.5171 42.7282 73.3403C42.2264 75.1606 41.8128 76.7263 41.4912 78.0376ZM44.8383 71.3822C41.8658 71.6438 39.2998 71.87 37.78 72.1033C35.0443 72.5274 28.0072 73.0505 20.963 73.1883C18.5701 73.2343 16.5979 73.2343 14.965 73.1989V69.714C16.0819 69.7528 17.2129 69.7811 18.3368 69.7811C18.5595 69.7811 18.7857 69.7811 19.0119 69.7846C19.224 69.7882 19.4361 69.7882 19.6481 69.7882C20.6661 69.7882 21.7017 69.7458 22.7337 69.4489C23.0836 69.3499 23.4159 69.2262 23.7375 69.106C24.1016 68.9717 24.448 68.8409 24.7908 68.7561C24.8933 68.7314 25.0029 68.7172 25.1195 68.7031C25.4729 68.6536 25.9148 68.5935 26.3036 68.3426L25.3457 66.8581C25.275 66.897 25.0276 66.9323 24.8827 66.9535C24.7166 66.9747 24.5434 66.9995 24.3702 67.0419C23.9319 67.1515 23.5219 67.3034 23.1261 67.4484C22.8221 67.5615 22.5358 67.6675 22.2495 67.7488C22.1682 67.77 22.0869 67.7912 22.0056 67.8089C22.0268 67.1409 22.0657 66.4764 22.1046 65.7836C22.1647 64.748 22.2283 63.6771 22.2283 62.5743H20.4611C20.4611 63.6241 20.401 64.6667 20.3409 65.6776C20.2949 66.4375 20.249 67.2186 20.2278 68.0103C19.8355 68.0209 19.4361 68.0174 19.0261 68.0139C18.7928 68.0103 18.5595 68.0103 18.3298 68.0103C16.5272 68.0103 14.6963 67.9361 12.922 67.8619C11.3492 67.7947 9.72687 67.7311 8.11162 67.717C8.65593 65.3701 9.50066 62.2704 10.6034 58.6122L12.0349 59.054C12.1657 58.6369 12.459 58.2411 12.7701 57.8204C12.9044 57.6402 13.0387 57.4599 13.1624 57.2761C13.8799 56.2158 14.6928 55.3145 15.6436 54.5193C16.5413 53.7699 17.4709 52.9924 18.4818 52.3456C18.7009 52.2077 18.9872 52.0487 19.2876 51.879C19.6093 51.6987 19.9344 51.515 20.2349 51.3276C21.274 51.8401 22.8822 52.1794 24.4939 52.1794C26.0067 52.1794 27.5194 51.8825 28.5515 51.1509C30.7888 49.5675 31.9941 47.2842 32.1672 45.8315C32.3828 44.0148 31.7855 42.502 31.1034 40.9858C30.4247 39.4836 27.7386 38.1865 25.5542 37.7234C24.1935 37.4371 22.3909 37.9178 20.7368 39.0135C20.097 39.4377 18.5843 40.5722 18.3121 41.9542C18.1142 42.9686 17.8031 47.7437 18.9377 50.0481C18.7716 50.1436 18.5984 50.239 18.4287 50.338C18.1036 50.5182 17.7925 50.6914 17.531 50.8575C16.4212 51.5644 15.4492 52.3774 14.509 53.1656C13.431 54.0668 12.512 55.0883 11.6991 56.2865C11.5895 56.4491 11.4694 56.6081 11.3527 56.7672C11.2467 56.9121 11.1371 57.0605 11.0276 57.2161C12.3212 53.01 13.9329 48.1431 15.8062 42.8838C22.0551 25.3846 26.8867 15.6931 28.4384 15.1664C28.7317 15.0675 29.9264 14.972 32.9484 17.9092C34.0016 18.9342 35.1786 20.2243 36.4581 21.7688C36.0057 21.9173 35.426 21.988 34.9595 22.048C34.7509 22.0728 34.553 22.0975 34.3728 22.1258C32.5949 22.4015 30.6898 22.3591 28.8484 22.3202C28.1698 22.3061 27.4911 22.2919 26.8196 22.2919V24.0592C27.477 24.0592 28.1415 24.0733 28.8095 24.0874C29.4881 24.1016 30.1773 24.1157 30.8666 24.1157C32.1248 24.1157 33.3972 24.0662 34.6449 23.8718C34.8075 23.8471 34.9878 23.8259 35.1751 23.8011C35.9527 23.7057 36.8646 23.5926 37.6174 23.1932C38.3738 24.144 39.162 25.1725 39.982 26.2788C40.24 26.6287 40.498 26.9786 40.756 27.3321C40.7065 27.3392 40.6571 27.3462 40.6076 27.3568C40.2859 27.4063 39.9502 27.4593 39.6497 27.5477C38.4975 27.887 37.4866 28.1592 36.4227 28.2652C36.2708 27.9824 36.1082 27.5654 36.0234 27.3498C35.9668 27.2013 35.9138 27.067 35.8643 26.9574L35.8466 26.9186C35.5921 26.3283 35.4755 26.0632 35.5144 25.5295L33.7507 25.3987C33.68 26.3636 33.9309 26.9468 34.2208 27.6184L34.2384 27.6573C34.2809 27.7527 34.3233 27.8658 34.3728 27.993C34.4152 28.1026 34.4576 28.2051 34.5 28.3111C33.9769 28.3111 33.4503 28.3111 32.9272 28.3111L31.3967 28.3076V30.0748L32.9236 30.0784C33.4326 30.0784 33.9451 30.0819 34.454 30.0819C34.8216 30.0819 35.1892 30.0819 35.5533 30.0784C37.1897 30.0713 38.6 29.6966 40.1446 29.2442C40.3354 29.1877 40.6005 29.1453 40.8797 29.1029C41.2014 29.0534 41.5477 28.9968 41.8835 28.9049C43.2054 30.7676 44.4672 32.6267 45.6018 34.348C45.3473 34.4611 45.0822 34.5672 44.8065 34.6732C44.4213 34.8216 44.0219 34.9771 43.6295 35.1645C43.1948 35.373 42.7035 35.5462 42.1239 35.7017C41.9754 35.3235 41.8022 34.864 41.7669 34.6308C41.7033 34.1996 41.7139 33.7224 41.7245 33.2205C41.728 33.0226 41.7351 32.8247 41.7351 32.6267H39.9678C39.9678 32.8105 39.9643 32.9943 39.9608 33.1781C39.9466 33.7365 39.936 34.3091 40.0244 34.8959C40.0739 35.214 40.2011 35.6028 40.346 35.988C39.9996 35.9915 39.6391 35.9739 39.2715 35.9562C38.8227 35.935 38.3632 35.9103 37.8896 35.9244L37.9461 37.6916C38.3455 37.681 38.752 37.6987 39.1832 37.7199C39.5366 37.7376 39.8936 37.7552 40.2577 37.7552C40.7525 37.7552 41.2544 37.7234 41.7669 37.6103C42.8272 37.3806 43.6614 37.112 44.3965 36.7585C44.7252 36.5995 45.0787 36.4652 45.4498 36.3203C45.828 36.1753 46.2097 36.0234 46.5879 35.8466C48.4718 38.7484 49.8856 41.0777 50.4405 42.0461C50.854 42.7707 51.5574 43.8699 52.4657 45.2448C50.4475 45.9411 48.3657 46.2415 46.1779 46.3758C46.1532 46.2839 46.1284 46.1956 46.1037 46.1037C45.7962 44.9868 45.4251 43.6401 45.5276 42.6293C45.6301 42.5975 45.7361 42.5692 45.8386 42.5303C46.2345 42.3925 46.6621 42.3006 47.1145 42.2016C47.4786 42.1239 47.8532 42.0426 48.2244 41.933L47.7295 40.2364C47.4185 40.3283 47.0933 40.399 46.7434 40.4733C46.2592 40.5793 45.7573 40.6853 45.2589 40.8585C44.1385 41.2473 43.0605 41.2473 41.8058 41.2473H41.5583V43.0145H41.8022C41.88 43.0145 41.9613 43.0145 42.039 43.0145C42.6151 43.0145 43.1771 43.0075 43.7462 42.958C43.7426 44.1244 44.0714 45.372 44.3682 46.4501C43.5942 46.4677 42.8095 46.4713 42.0072 46.4713V48.2385C45.372 48.2385 48.6662 48.1466 51.8295 47.2842C51.8613 48.7227 51.9886 49.928 52.2148 50.9282C51.5114 50.9494 50.8081 50.953 50.1153 50.953V52.7202C51.6033 52.7202 53.1443 52.7202 54.7101 52.5081C55.3463 52.4198 56.2017 52.2996 56.9192 51.9356C59.5417 55.8942 62.5213 60.496 64.2885 63.7725L63.0727 62.5566C62.0088 63.6205 60.4183 64.4405 58.3436 64.9919C58.0113 65.0803 57.6755 65.1722 57.3362 65.2676C56.951 65.3736 56.5622 65.4832 56.1734 65.5822C56.1168 64.8929 56.0108 64.3663 55.8482 64.0058C55.6821 63.6382 55.4594 63.26 55.2438 62.8995C54.8444 62.2244 54.3955 61.4645 54.4274 60.899L52.6637 60.7929C52.5965 61.8992 53.1938 62.9101 53.7205 63.8008C53.9184 64.1366 54.1057 64.4547 54.233 64.7303C54.2718 64.8152 54.3814 65.1333 54.4274 65.9851C53.8937 66.0841 53.3599 66.1583 52.8368 66.1865C49.6735 66.3562 46.4076 66.5294 43.1453 66.5294V68.2966C44.0607 68.2966 44.9726 68.2825 45.881 68.2577C45.8916 68.4557 45.8951 68.6677 45.8987 68.8586C45.9057 69.2898 45.9163 69.6998 45.98 70.0568C46.0153 70.2477 46.0542 70.442 46.0966 70.6329C46.1426 70.8521 46.185 71.0606 46.2168 71.2656C45.7432 71.3045 45.2837 71.3433 44.8383 71.3822ZM20.0546 42.297C20.1288 41.9082 20.6837 41.1801 21.7193 40.4945C22.7514 39.8123 23.8754 39.4164 24.7307 39.4164C24.8968 39.4164 25.0488 39.4306 25.1937 39.4624C27.4417 39.936 29.216 41.0989 29.4987 41.7245C30.0996 43.057 30.5838 44.2693 30.4212 45.6371C30.3187 46.5031 29.4457 48.3763 27.5406 49.723C25.8547 50.9141 21.8112 50.3839 20.7368 49.5887C19.9238 48.9878 19.6835 44.2092 20.0546 42.297ZM58.7677 69.8377C55.4948 70.3714 51.575 70.7743 47.9769 71.103C47.9345 70.8167 47.878 70.5375 47.8214 70.2689C47.7861 70.0921 47.7472 69.9154 47.7154 69.7422C47.6765 69.5196 47.6694 69.1626 47.6624 68.8197C47.6588 68.6112 47.6518 68.4027 47.6412 68.1977C49.4225 68.1305 51.1933 68.0386 52.9252 67.9467C54.5899 67.8584 56.2193 67.4059 57.7992 66.9677C58.1315 66.8758 58.4602 66.7839 58.7889 66.6991C61.1605 66.0699 63.0161 65.0979 64.3027 63.8149C65.2464 65.5645 65.8402 66.9323 65.8402 67.6074C65.8331 67.6463 65.5468 68.7314 58.7677 69.8377Z" stroke="black" stroke-width="0.5" mask="url(#path-2-outside-1)"/>
<path d="M63.3979 86.0786C64.1083 85.2409 64.6314 84.382 64.6314 83.7175C64.6314 82.8975 63.9457 81.4166 59.365 80.692C58.5026 80.5542 57.5624 81.2151 57.0782 81.6216C56.0002 82.5264 54.8338 84.1487 54.7949 85.9973C54.749 88.2134 52.7768 90.7617 51.3347 92.6209L52.7308 93.7024C53.3317 92.9284 54.0174 92.0448 54.6394 91.094C56.8025 92.073 61.7791 92.7021 64.3027 90.6557C65.4302 89.7403 65.5009 88.383 64.4865 87.1142C64.2143 86.7784 63.8361 86.4214 63.3979 86.0786ZM63.1893 89.2879C61.2878 90.8289 57.103 90.175 55.5407 89.5671C56.1274 88.4255 56.5374 87.2308 56.5622 86.0326C56.6011 84.0887 58.5733 82.5052 59.1176 82.4416C60.9803 82.7385 62.5814 83.3605 62.8535 83.7423C62.7723 84.0356 62.3976 84.5446 61.9028 85.0924C60.4748 84.3113 58.9373 83.8766 58.234 84.435C57.4635 85.0465 57.2443 86.1811 57.2938 87.0399C57.3504 88.0084 57.725 88.7754 58.3188 89.1359C58.9303 89.5105 59.6301 89.1995 60.1037 88.9344C60.6162 88.6481 61.4009 88.0579 62.1714 87.3474C62.7404 87.7645 63.2105 88.2311 63.3908 88.6729C63.4685 88.8743 63.5004 89.0334 63.1893 89.2879ZM60.5738 86.4073C60.0366 86.8844 59.5135 87.2803 59.153 87.457C59.0929 87.2874 59.0363 87.0223 59.0505 86.6936C59.0646 86.3366 59.153 86.0786 59.2378 85.9336C59.5311 85.969 60.026 86.1422 60.5738 86.4073Z" stroke="black" stroke-width="0.5" mask="url(#path-2-outside-1)"/>
</g>
<defs>
<clipPath id="clip0">
<rect width="67.6074" height="97.35" fill="white"/>
</clipPath>
</defs>
</svg>
