<svg width="50" height="65" viewBox="0 0 50 65" fill="none" xmlns="http://www.w3.org/2000/svg">
<path d="M49.4652 11.1592C49.2655 11.0012 49.018 10.9388 48.7517 10.9804C48.0757 11.0844 47.2416 11.9621 46.6239 12.7359C46.3743 11.4837 45.8938 10.1879 44.9827 10.1879C44.6229 10.1879 43.8575 10.4292 43.5184 12.3594C42.9839 11.7437 42.2413 11.2133 41.4176 11.5815C41.1389 11.7063 40.9413 11.933 40.8456 12.2388C40.5087 13.3224 41.6735 15.4357 42.0915 16.1429C41.4967 20.5463 41.9355 20.927 42.1248 21.0913C42.3474 21.2826 42.8903 21.3929 43.5205 21.4553C43.7451 23.4625 43.8658 25.7047 43.7015 26.2601C42.9818 26.5201 39.3251 26.8446 35.8973 27.0338C35.5458 24.3818 35.1547 24.1218 34.9322 23.9762C34.0856 23.423 29.8632 23.3377 25.9569 23.3876L25.7136 18.3623C27.9142 18.3623 29.0249 18.3436 29.4409 18.1689C29.8902 17.9796 30.1606 17.4117 30.3187 16.3281C30.5933 14.4248 30.5142 9.67619 29.78 9.07715C29.3453 8.72355 28.4696 8.80467 26.5331 9.02307C25.4598 9.14371 24.2617 9.27891 23.1905 9.28723L23.228 6.63522C23.7147 6.53746 24.1515 6.32114 24.4572 6.0133C24.7526 5.71794 24.9065 5.36018 24.9044 4.97746C24.9003 3.99153 23.8582 3.33009 22.8889 3.33009C22.034 3.33009 20.7403 3.98737 20.7403 4.97954C20.7403 5.70338 21.2436 6.46674 22.1859 6.65186L22.1484 9.27059C19.5838 9.24147 16.2599 9.51187 15.5943 9.71363C15.2366 9.82387 14.9828 10.1775 14.7498 11.6668C14.6063 12.5799 14.5127 13.6989 14.4898 14.7348C14.4274 17.5511 14.883 18.094 15.3385 18.2562C15.6442 18.3644 16.4513 18.3997 18.0841 18.3997C18.5292 18.3997 19.0367 18.3977 19.6108 18.3935C19.5671 19.4501 19.5089 21.5905 19.4611 23.5873C17.042 23.71 14.7977 23.891 14.3151 24.1343C14.0614 24.2633 13.9012 24.5337 13.7598 25.0724C13.7327 25.1743 13.7057 25.2929 13.6807 25.4219C12.8362 25.4655 10.6689 25.5799 8.49319 25.7422C2.6442 26.1769 2.42996 26.4972 2.24276 26.778C1.83508 27.3895 2.01812 31.4726 2.26148 34.9795C1.45028 35.096 1.2714 35.2852 1.18404 35.3768C1.02596 35.5432 0.553797 36.0486 1.49604 40.2731C1.01764 40.9928 -0.226206 42.9979 0.0358748 44.0941C0.110755 44.404 0.289636 44.6453 0.557957 44.7888C0.817958 44.9282 1.11332 44.951 1.417 44.8554C1.86004 44.7139 2.3114 44.2938 2.72116 43.7904C2.66084 44.5704 2.70244 45.3275 2.97908 45.7851C3.14341 46.0555 3.38053 46.2323 3.66549 46.2968C3.74869 46.3155 3.82981 46.3238 3.91093 46.3238C4.14597 46.3238 4.37061 46.249 4.57653 46.0992C5.12773 45.6998 5.46261 44.7638 5.65813 43.936C6.56502 45.2214 7.22438 45.2589 7.57382 45.1299C7.70902 45.08 7.89206 44.9677 8.00854 44.7139C8.39542 43.8673 7.58006 41.4462 7.16198 40.3189C7.76726 35.8676 7.32422 35.4828 7.13494 35.3206C6.91238 35.1292 6.3695 35.019 5.73925 34.9566C5.51461 32.9494 5.39397 30.7092 5.55829 30.1518C6.26966 29.8939 9.84311 29.5756 13.2335 29.3863C12.7718 35.5452 12.6407 45.5605 13.3542 46.6296C13.9636 47.5427 16.0644 47.8651 19.4423 48.071V59.2802C15.0182 59.6837 14.8705 60.185 14.781 60.4887C14.7665 60.5407 14.7436 60.6093 14.7186 60.6925C14.2673 62.134 13.9012 63.5713 14.7956 63.929C15.4342 64.1849 17.6743 64.4137 18.9452 64.4137C19.0825 64.4137 19.2073 64.4116 19.3196 64.4053L19.5963 64.3929C21.7116 64.293 23.1094 64.1661 23.2883 63.3196C23.4172 62.7122 23.6502 60.4305 23.6502 59.6109C23.6502 58.91 23.7459 50.1115 23.7646 48.2832C24.0475 48.2978 24.3241 48.3123 24.5924 48.3269C25.8113 48.3976 26.9116 48.4558 27.9038 48.5016C27.8539 50.3445 27.6147 59.222 27.6147 59.9437C27.6147 60.1018 27.6022 60.3743 27.5856 60.6905C27.4691 63.1157 27.5128 64.1828 28.0827 64.5114C28.5944 64.8068 29.6489 64.8401 31.1985 64.8567C31.6104 64.8609 31.9993 64.865 32.3072 64.8796C32.4923 64.8879 32.7794 64.8983 33.1226 64.8983C34.2603 64.8983 36.0242 64.7818 36.7771 64.1204C37.449 63.5297 37.8712 60.7404 37.6944 60.1372C37.5862 59.7711 37.4406 59.2761 32.2385 59.5673V48.6243C32.251 48.6243 32.2635 48.6243 32.2739 48.6243C34.2187 48.6243 35.2816 48.5037 35.7122 48.2603C36.0013 48.0981 36.3299 47.913 36.4693 43.6344C36.5816 40.2419 36.5171 35.5952 36.305 31.7971C36.2883 31.5142 36.2738 31.2438 36.2571 30.9796C37.1661 30.9297 39.088 30.8195 41.0203 30.6697C46.6156 30.235 46.8277 29.9147 47.017 29.6339C47.4247 29.0223 47.2416 24.9372 46.9983 21.4303C47.8074 21.3138 47.9884 21.1246 48.0757 21.033C48.2338 20.8666 48.7039 20.3612 47.7637 16.1388C48.0632 15.702 48.8016 14.6245 48.9556 14.3999L49.0512 14.2584C49.7272 13.2684 50.5696 12.037 49.4652 11.1592ZM31.1965 59.6193L28.6589 59.7357C28.6589 59.6796 28.6609 59.6151 28.663 59.5423L31.1985 58.2797V59.6193H31.1965ZM31.1965 49.1526L28.8877 50.6357C28.9085 49.8474 28.9272 49.1859 28.9376 48.7533L31.1965 48.9405V49.1526ZM28.7317 56.6428L31.1985 55.5008V57.117L28.6901 58.365C28.7005 57.8679 28.715 57.2813 28.7317 56.6428ZM31.1965 54.3547L28.7608 55.4821C28.7712 55.1056 28.7795 54.7208 28.7899 54.334L31.1965 52.7885V54.3547ZM31.1965 51.553L28.8232 53.0755C28.8336 52.672 28.844 52.2747 28.8544 51.8899L31.1965 50.3861V51.553ZM36.7126 60.6135C36.7251 61.3436 36.3091 63.097 36.0907 63.3341C35.6685 63.7044 34.0669 63.9207 32.3613 63.8354C32.0347 63.8188 31.6353 63.8146 31.2131 63.8105C30.4081 63.8021 29.0957 63.7876 28.6776 63.6357C28.5153 63.1865 28.5944 61.4829 28.6277 60.7757L31.2006 60.6572V60.6655L31.7539 60.6301C33.7029 60.5116 36.0096 60.4783 36.7126 60.6135ZM44.4087 13.8778C44.4586 12.7255 44.7311 11.5004 44.9827 11.2487C45.2698 11.5045 45.64 12.8191 45.7794 14.117L45.8938 15.1924C45.5256 15.1362 45.12 15.0946 44.7103 15.0946C44.652 15.0946 44.5917 15.0967 44.5293 15.1009C44.4711 15.1029 44.4108 15.1029 44.3525 15.105L44.4087 13.8778ZM41.8419 12.5279C41.8794 12.5112 41.9168 12.5029 41.9584 12.5029C42.3994 12.5029 43.0795 13.389 43.4227 14.0816L43.9448 15.1404C43.4935 15.1965 43.1211 15.2964 42.857 15.3837C42.0832 14.0276 41.6818 12.7692 41.8419 12.5279ZM46.133 24.4796L44.7311 26.3682C44.7976 26.0167 44.8392 25.4655 44.8163 24.5878L46.0685 23.217C46.0914 23.6434 46.1143 24.0678 46.133 24.4796ZM41.0016 27.6995L39.5935 29.7337C38.9674 29.7774 38.3246 29.819 37.6778 29.8585L38.9216 27.8763C39.1525 27.8596 39.3855 27.8409 39.6205 27.8222C40.1343 27.7785 40.5919 27.739 41.0016 27.6995ZM20.5697 21.1558L24.7297 19.5125L24.7755 20.4735L20.5343 22.4329C20.5468 22.0065 20.5572 21.5759 20.5697 21.1558ZM24.4552 23.4084C23.4152 23.4292 22.0424 23.4708 20.6404 23.529L24.8296 21.5926L24.9169 23.4001C24.763 23.4022 24.6091 23.4063 24.4552 23.4084ZM21.7844 4.97746C21.7844 4.7965 22.3648 4.36802 22.8931 4.36802C23.334 4.36802 23.8665 4.6405 23.8686 4.97954C23.8686 5.07938 23.8208 5.17922 23.7251 5.27698C23.4984 5.50578 23.072 5.65346 22.6435 5.65346C22.0528 5.65346 21.7844 5.30194 21.7844 4.97746ZM15.7545 17.2869C15.2927 16.4799 15.6193 11.6127 16.0374 10.6746C16.8694 10.5144 20.2265 10.242 22.6768 10.3189C23.9352 10.3584 25.3787 10.1962 26.6516 10.0527C27.5773 9.94868 28.7129 9.82179 29.0915 9.88835C29.2329 10.3085 29.4139 11.777 29.4285 13.57C29.4472 15.8289 29.1872 16.9833 29.0104 17.2162C28.6027 17.3244 26.7702 17.3223 25.1499 17.3181C24.4739 17.3161 23.7563 17.3161 23.0304 17.3202H19.7439L19.7377 17.3493C17.978 17.3639 16.21 17.366 15.7545 17.2869ZM20.9628 18.3789C21.6451 18.3727 22.346 18.3644 23.0366 18.3602H24.6756L24.6777 18.4164L20.603 20.0263C20.6238 19.3482 20.6425 18.7658 20.6571 18.3831C20.7569 18.381 20.8567 18.3789 20.9628 18.3789ZM19.4403 24.6231L19.4361 24.7874L26.011 24.463L26.0089 24.4318C30.0109 24.386 33.6904 24.4858 34.3414 24.8332C34.4725 25.01 34.6347 25.607 34.797 26.6886C34.5266 27.0588 33.603 28.2049 32.4507 28.2049C31.1195 28.2049 30.3083 26.6345 30.3 26.6199L29.9589 25.9377L29.4493 26.5055C29.079 26.9174 27.9038 27.9719 26.9116 27.9158C25.7011 27.8471 24.5862 26.5326 24.5758 26.5201L24.1619 26.0209L23.7646 26.5326C23.7542 26.5471 22.6643 27.9137 21.5078 27.9137C20.3492 27.9137 19.3342 26.5575 19.3259 26.5451L18.9431 26.023L18.5147 26.5097C18.1569 26.9153 17.0399 27.9595 16.1559 27.9116C15.3946 27.8679 14.8081 27.1503 14.5314 26.7364L14.5522 26.5201C14.6583 25.7505 14.7665 25.2492 14.8684 25.037C15.3842 24.8831 17.1585 24.7354 19.4403 24.6231ZM3.11013 27.4145C3.44293 27.3001 4.29365 27.1753 5.45845 27.0505L3.06853 30.2683C3.02901 28.8871 3.03525 27.8118 3.11013 27.4145ZM4.44965 31.822L3.19749 33.1928C3.17253 32.7643 3.15173 32.342 3.13301 31.9302L4.53493 30.0415C4.46837 30.391 4.42677 30.9422 4.44965 31.822ZM3.30149 34.8817C3.29525 34.8006 3.29109 34.7174 3.28485 34.6363L4.53077 33.2739C4.56821 33.7481 4.62021 34.2806 4.68677 34.8817H4.01909C3.98789 34.8817 3.95669 34.8817 3.92549 34.8817H3.30149ZM1.07588 43.8778C1.07172 43.8778 1.06548 43.8778 1.06132 43.8778C0.899078 43.6178 1.39204 42.3385 2.27604 40.9824C2.4986 41.0427 2.80228 41.1155 3.15381 41.1779C2.3634 42.7129 1.39828 43.8778 1.07588 43.8778ZM4.86773 42.403C4.76997 43.3619 4.41637 44.9323 3.97125 45.2526C3.92757 45.2838 3.91301 45.2797 3.89845 45.2797C3.61141 45.0675 3.68837 43.3016 4.22085 41.3443L4.09189 41.2965C4.16885 41.3006 4.24789 41.3027 4.32485 41.3048C4.40389 41.3089 4.47877 41.3131 4.54949 41.3131C4.62021 41.3131 4.69509 41.3089 4.76997 41.3048C4.83861 41.3027 4.91141 41.3027 4.97589 41.2985L4.86773 42.403ZM5.84741 42.2179L5.35029 41.2611C5.74133 41.2091 6.07206 41.128 6.32374 41.0489C6.74806 42.2574 7.05174 43.443 7.08502 44.0067C6.7543 43.7051 6.23638 42.9688 5.84741 42.2179ZM6.1615 39.9777C5.72053 40.1046 5.02581 40.2731 4.55365 40.2731C4.03781 40.2731 3.07061 40.0776 2.49444 39.9465C2.15332 38.372 1.88708 36.5956 1.97652 36.0944C2.66708 35.8406 5.66645 35.8905 6.40694 36.1048C6.50262 36.6331 6.36534 38.399 6.1615 39.9777ZM5.16933 29.1846L6.85414 26.9153C7.31798 26.8737 7.81094 26.8342 8.3247 26.7947L6.89574 28.858C5.93062 28.9807 5.43973 29.0889 5.16933 29.1846ZM8.26438 28.7083L9.65591 26.6969C10.2799 26.6532 10.9226 26.6137 11.5716 26.5742L10.3423 28.5315C10.1114 28.5481 9.87847 28.5668 9.64343 28.5855C9.12967 28.6292 8.67206 28.6687 8.26438 28.7083ZM11.6298 28.442L12.8466 26.5035C13.0671 26.491 13.2876 26.4806 13.5081 26.4681L13.4748 26.8321C13.4207 27.2835 13.3708 27.7889 13.3209 28.338C12.934 28.3609 12.3329 28.3963 11.6298 28.442ZM22.6123 59.1096L20.4844 59.2074V58.3837L22.6331 56.8944C22.6248 57.8346 22.6164 58.6208 22.6123 59.1096ZM20.4844 55.4738L22.6622 54.1155C22.656 54.6272 22.6518 55.1348 22.6456 55.6256L20.4844 57.1232V55.4738ZM22.6747 52.88L20.4844 54.2466V52.8135L22.6934 51.2077C22.6872 51.7381 22.6809 52.3018 22.6747 52.88ZM22.7059 49.9118L20.4844 51.528V50.5608L22.7163 48.9613C22.7142 49.2379 22.71 49.5562 22.7059 49.9118ZM20.4844 49.2816V48.331L21.7283 48.3893L20.4844 49.2816ZM19.5463 63.3487L19.2676 63.3612C18.1798 63.4153 15.9479 63.1844 15.2865 62.993C15.2594 62.7996 15.3052 62.2983 15.7129 60.9983C15.7212 60.9713 15.7295 60.9442 15.7378 60.9193C16.2495 60.6946 18.2838 60.4138 20.0019 60.2682L22.5894 60.1476C22.5332 61.0482 22.3835 62.4668 22.2878 63.0034C21.8759 63.2405 20.1953 63.3196 19.5463 63.3487ZM35.1027 47.393C34.2853 47.6758 30.7742 47.6384 24.6528 47.2848C23.9227 47.2432 23.1448 47.2078 22.3211 47.1725C19.4881 47.0477 14.7478 46.8418 14.2298 46.0659C13.9657 45.5314 13.793 41.4337 13.9594 35.5036C14.0281 33.0472 14.1362 30.9734 14.2631 29.3302L14.286 29.3281L14.3942 28.1716C14.833 28.571 15.4009 28.9079 16.0956 28.9454C17.2105 29.0078 18.3004 28.1612 18.8807 27.6163C19.3924 28.1487 20.3534 28.9516 21.5078 28.9516C22.6643 28.9516 23.6606 28.1404 24.1889 27.6121C24.7214 28.1155 25.7156 28.8871 26.8534 28.9516C28.0057 29.0161 29.1248 28.2091 29.7405 27.6683C30.2105 28.3089 31.1257 29.2449 32.4528 29.2449C33.5177 29.2449 34.3914 28.6355 34.9738 28.0697C34.9758 28.0863 34.9779 28.103 34.98 28.1217L35.213 31.0337H35.2213C35.3128 32.4544 35.3877 34.135 35.4376 36.1089C35.5811 41.9704 35.3835 46.5526 35.1027 47.393ZM36.0221 28.0655C36.409 28.0427 36.9789 28.0094 37.6362 27.9657L36.4027 29.9292C36.3299 29.9334 36.2592 29.9375 36.1864 29.9417C36.1344 29.2324 36.0782 28.6105 36.0221 28.0655ZM40.9267 29.6318L42.3703 27.5476C43.3354 27.4249 43.8263 27.3167 44.0967 27.2211L42.3994 29.507C41.9314 29.5507 41.4384 29.5923 40.9267 29.6318ZM46.1538 28.9953C45.821 29.1139 44.9661 29.2428 43.7971 29.3697L46.1975 26.1374C46.237 27.5247 46.2308 28.6001 46.1538 28.9953ZM45.9624 21.526C45.9687 21.6071 45.9728 21.6903 45.9791 21.7714L44.7331 23.1338C44.6957 22.6596 44.6437 22.1271 44.5771 21.526H45.2407C45.249 21.526 45.2573 21.526 45.2656 21.526C45.2698 21.526 45.2719 21.526 45.276 21.526H45.9624ZM47.2895 20.3154C46.5989 20.5692 43.5995 20.5193 42.8591 20.305C42.7634 19.7746 42.8986 18.0087 43.1024 16.43C43.5434 16.3031 44.2381 16.1346 44.7103 16.1346C45.2261 16.1346 46.1933 16.3301 46.7695 16.4612C47.1127 18.0357 47.3789 19.8141 47.2895 20.3154ZM48.1943 13.6719L48.0965 13.8154C47.9572 14.0213 47.329 14.9365 46.9941 15.4274C46.7778 15.3692 46.4804 15.2964 46.1372 15.234L46.73 14.352C47.4996 13.206 48.4876 12.1327 48.8661 12.0162C49.0887 12.2596 48.8786 12.6672 48.1943 13.6719Z" fill="black"/>
<path d="M34.0586 35.5307L33.1267 35.5702C31.8808 35.6222 30.9926 37.151 30.7576 38.2201C30.691 38.5259 30.6869 38.8982 30.6848 39.3267C30.6765 40.2273 30.6661 41.3505 30.0067 41.8393C29.2829 42.376 28.6235 42.6256 28.2865 42.4945C28.1014 42.4217 27.9704 42.1909 27.8997 41.8123C27.7769 41.155 28.0681 40.8347 28.6381 40.2814C29.0728 39.8592 29.5637 39.3808 29.7321 38.6257C29.7841 38.3907 29.8507 38.1265 29.9193 37.8437C30.2771 36.4064 30.768 34.4408 30.2584 33.0596L29.7113 31.5766L29.6781 31.5059C29.6281 31.4164 28.4321 29.3052 25.4452 29.4799C24.5404 29.5319 19.954 31.1668 19.6878 33.8916C19.4465 36.3356 20.0643 38.971 20.7569 39.6096C21.1604 39.9819 22.0112 41.1862 21.5411 41.6979C21.2374 42.0265 20.1516 43.0229 18.9203 42.0245C17.8719 41.1717 17.6619 39.1083 18.4356 37.2238L18.7726 36.4022L17.8907 36.5104C16.5179 36.6788 14.7623 38.7859 14.779 40.7973C14.7935 42.611 16.1851 44.6806 17.8158 45.315C19.5775 46.0014 21.5099 45.8434 22.6227 44.9178C22.7745 44.793 22.9243 44.6245 23.074 44.4456C23.0033 44.7909 22.9846 45.2152 23.151 45.6042C23.2716 45.885 23.54 46.2614 24.1328 46.4486C24.8587 46.6774 25.31 46.4861 25.5617 46.2864C26.1171 45.8454 26.14 45.0363 26.1171 44.6661C26.5622 45.2131 27.18 45.7643 27.7749 45.9557C28.1784 46.0846 28.6734 46.3467 29.1102 46.5797C29.6947 46.8896 30.067 47.0872 30.3728 47.0872C30.4851 47.0872 30.5891 47.0602 30.6889 47.004C30.8678 46.9021 30.9801 46.717 30.9926 46.5048C31.0197 45.9931 30.6619 45.5043 30.3249 45.0675C31.2131 44.9282 32.1699 44.4539 32.7024 43.8507C33.3576 43.1082 34.1251 41.232 33.7736 39.387C33.7195 39.1021 33.6654 38.8421 33.6155 38.6029C33.3701 37.4256 33.2827 36.9243 33.6093 36.3419L34.0586 35.5307ZM31.9161 43.1643C31.4606 43.6802 30.4373 44.1024 29.728 44.0691C29.2808 44.0462 29.0915 44.2771 29.0208 44.4144C28.8232 44.795 29.0624 45.1466 29.3702 45.5438C28.9542 45.3254 28.5029 45.0987 28.0869 44.9656C27.4566 44.7638 26.6017 43.6947 26.4915 43.3494C26.3251 42.8294 26.0276 42.7337 25.8321 42.7337C25.7864 42.7337 25.7468 42.74 25.7156 42.7441C25.0084 42.8835 25.0313 44.1606 25.075 44.7035C25.102 45.0467 25.0313 45.3774 24.9128 45.471C24.8358 45.5314 24.6652 45.5251 24.4448 45.4565C24.2118 45.3837 24.1411 45.2734 24.1078 45.1965C23.9726 44.8845 24.1619 44.3624 24.2388 44.2043L24.2867 44.1066L24.2908 43.9963C24.3075 43.599 24.2617 43.0707 23.9414 42.8149C23.775 42.6818 23.5608 42.6381 23.3507 42.6942C23.0761 42.7691 22.8848 43 22.5145 43.4721C22.3252 43.7134 22.111 43.9859 21.955 44.1149C21.1375 44.793 19.59 44.8866 18.1902 44.3437C16.9588 43.8632 15.8273 42.168 15.8148 40.7869C15.8065 39.7843 16.4222 38.7193 17.0774 38.0933C16.6676 40.0193 17.1003 41.8893 18.2588 42.8315C19.7959 44.0816 21.3975 43.3806 22.3003 42.403C23.3465 41.2694 22.1838 39.516 21.4579 38.8462C21.1271 38.5405 20.4886 36.3336 20.7195 33.9936C20.9171 31.9947 24.9044 30.5532 25.5035 30.5179C27.675 30.391 28.6152 31.7617 28.7504 31.9801L29.2808 33.4195C29.6781 34.5011 29.2329 36.2878 28.9085 37.5941C28.8357 37.8853 28.7691 38.1577 28.715 38.4011C28.6152 38.8525 28.2886 39.1686 27.9121 39.5368C27.3484 40.0859 26.6475 40.7681 26.8763 42.0037C27.051 42.9459 27.5336 43.3182 27.9059 43.4638C28.8024 43.8154 29.8798 43.2309 30.6265 42.6776C31.7019 41.8789 31.7144 40.4104 31.7248 39.3392C31.7289 38.9814 31.731 38.6445 31.7747 38.4448C31.8662 38.0288 32.0846 37.5629 32.3509 37.2051C32.355 37.696 32.4632 38.216 32.5901 38.8213C32.64 39.0563 32.692 39.3101 32.7461 39.5867C33.0165 41.0011 32.4382 42.5736 31.9161 43.1643Z" fill="black"/>
<path d="M23.3153 33.7481C23.3195 33.7772 23.3236 33.8043 23.3257 33.8334C23.3257 33.8355 23.3257 33.8376 23.3278 33.8396C23.3278 33.8396 23.3278 33.8396 23.3278 33.8417C23.3299 33.8459 23.3569 33.9124 23.359 33.9166C23.359 33.9166 23.359 33.9187 23.3611 33.9187C23.3611 33.9187 23.3611 33.9208 23.3632 33.9208C23.3715 33.9312 23.3902 33.9561 23.3881 33.952C23.3798 33.9395 23.4048 33.9728 23.4131 33.9832C23.4131 33.9832 23.4131 33.9832 23.4152 33.9852L23.4172 33.9873C23.438 34.006 23.4588 34.0227 23.4817 34.0372C23.4817 34.0372 23.4838 34.0372 23.4838 34.0393C23.5088 34.0518 23.5337 34.0622 23.5608 34.0726C23.5628 34.0726 23.5649 34.0747 23.567 34.0747H23.5691C23.5836 34.0768 23.5961 34.0788 23.6107 34.0809C23.6252 34.083 23.6377 34.0851 23.6523 34.0872C23.6544 34.0872 23.6544 34.0872 23.6564 34.0872C23.6606 34.0872 23.6627 34.0872 23.6668 34.0872C23.7105 34.0892 23.75 34.0788 23.7875 34.0601C23.827 34.0476 23.8603 34.0268 23.8873 33.9956C23.9185 33.9665 23.9393 33.9332 23.9518 33.8958C23.9705 33.8584 23.9809 33.8188 23.9788 33.7752C23.9747 33.7481 23.9705 33.719 23.9684 33.692C23.9539 33.64 23.9268 33.5942 23.8873 33.5547C23.8811 33.5505 23.8748 33.5464 23.8686 33.5401C23.8624 33.5318 23.8561 33.5235 23.8478 33.5152C23.8187 33.484 23.7854 33.4632 23.748 33.4507C23.7105 33.432 23.671 33.4216 23.6273 33.4236C23.6003 33.4278 23.5712 33.432 23.5441 33.434C23.4921 33.4486 23.4464 33.4756 23.4068 33.5152C23.3902 33.536 23.3736 33.5568 23.359 33.5776C23.3299 33.6254 23.3174 33.6795 23.3174 33.7356C23.3174 33.7377 23.3174 33.7419 23.3174 33.744C23.3132 33.744 23.3132 33.744 23.3153 33.7481C23.3132 33.746 23.3132 33.746 23.3153 33.7481Z" fill="black"/>
<path d="M25.0667 33.9707C25.4681 33.9707 25.4681 33.3467 25.0667 33.3467C24.6652 33.3467 24.6652 33.9707 25.0667 33.9707Z" fill="black"/>
<path d="M23.6668 36.1006C23.6606 36.1006 23.6544 36.1006 23.6481 36.1006C23.5795 36.1006 23.5233 36.0881 23.5088 36.0694C23.3944 35.9404 23.4588 35.4121 23.4817 35.2124C23.4963 35.098 23.5067 34.9982 23.5108 34.9192L22.4708 34.8734C22.4688 34.9316 22.4584 35.0044 22.448 35.0897C22.3918 35.5619 22.3065 36.2753 22.7246 36.7537C22.8764 36.9264 23.1552 37.1323 23.6315 37.1406C23.6419 37.1406 23.6544 37.1406 23.6648 37.1406C24.9252 37.1406 25.6262 36.0652 25.724 35.2936L24.6923 35.1646C24.6694 35.3643 24.4219 36.1006 23.6668 36.1006Z" fill="black"/>
<path d="M18.5958 3.86673C18.6582 3.85425 18.7289 3.83553 18.8017 3.81681C18.9244 3.78561 19.1782 3.71905 19.2427 3.74193C19.3591 3.82513 19.4985 4.07473 19.5027 4.15793C19.5027 4.15793 19.5027 4.14337 19.5089 4.12257L20.1017 4.32018C20.2203 3.96449 19.8812 3.43201 19.6067 3.23649C19.3259 3.03681 18.9473 3.13457 18.6436 3.21569C18.6166 3.22401 18.5895 3.23025 18.5625 3.23649C18.498 3.10753 18.4543 2.82465 18.4814 2.72897L17.8823 2.55217C17.7929 2.85169 17.8948 3.44449 18.1382 3.70865C18.2609 3.84385 18.4294 3.90209 18.5958 3.86673Z" fill="black"/>
<path d="M22.6643 0.890243C22.5332 1.01504 22.3336 1.20432 22.3544 1.60577C22.3876 2.23185 22.7766 2.59377 23.1281 2.61873L23.1739 1.99681C23.1344 1.98849 22.9929 1.86785 22.9784 1.57457C22.9721 1.46017 22.9908 1.44144 23.0948 1.34368C23.1884 1.25424 23.3195 1.13152 23.4048 0.917283C23.6086 0.407681 23.228 0.205921 23.0657 0.12064C22.995 0.0832003 22.9305 0.0478402 22.8764 0L22.4563 0.461762C22.5665 0.563682 22.6809 0.624002 22.7724 0.671842C22.787 0.680162 22.8036 0.688482 22.8203 0.696802C22.7849 0.775843 22.735 0.823683 22.6643 0.890243Z" fill="black"/>
<path d="M25.9465 4.17665C26.2273 4.17665 26.5539 4.12049 26.7224 3.76689C26.8243 3.55057 26.868 3.46113 27.2923 3.41745L27.2278 2.79761C26.5123 2.87041 26.3188 3.15953 26.1587 3.50065C26.1316 3.55681 26.0193 3.55889 25.7739 3.54641L25.6948 3.54225L25.6657 4.16625L25.7406 4.17041C25.8009 4.17249 25.8716 4.17665 25.9465 4.17665Z" fill="black"/>
<path d="M26.0963 7.23635C26.2419 7.18018 26.3355 7.10946 26.4 7.0429C26.504 7.29043 26.6683 7.35283 26.8056 7.35283C26.8555 7.35283 26.9033 7.34451 26.9428 7.33411C27.0073 7.31747 27.0697 7.31122 27.1342 7.30706C27.2964 7.29458 27.5419 7.27378 27.7249 7.0013L27.2049 6.65394C27.1987 6.66434 27.1924 6.67058 27.1924 6.67058C27.1758 6.67682 27.1217 6.68098 27.0822 6.68514C27.0406 6.6893 26.9948 6.69138 26.9428 6.6997C26.8513 6.41682 26.6828 6.2837 26.4395 6.30658C26.167 6.33154 26.0568 6.47506 25.9902 6.56242C25.9777 6.57906 25.9673 6.59362 25.9548 6.60402C25.9465 6.53954 25.9465 6.44802 25.9736 6.36482L25.3808 6.17554C25.283 6.4813 25.308 6.90978 25.5472 7.13443C25.6948 7.27587 25.8945 7.31123 26.0963 7.23635Z" fill="black"/>
<path d="M19.8604 6.11314C19.6566 6.08402 19.5276 6.1589 19.4569 6.22754C19.2801 6.3981 19.3113 6.6477 19.3363 6.8453C19.3363 6.84946 19.3363 6.85362 19.3383 6.8557C19.2801 6.83906 19.2177 6.81826 19.1699 6.80162C19.1012 6.77874 19.0305 6.75586 18.9639 6.73714C18.5646 6.62274 18.2401 6.62274 17.874 6.73922L18.0633 7.33411C18.3108 7.25506 18.5084 7.25506 18.7892 7.33618C18.8495 7.35282 18.9099 7.37363 18.9723 7.39443C19.1553 7.45475 19.3342 7.51299 19.4964 7.51299C19.59 7.51299 19.6795 7.49427 19.7606 7.44434C19.8708 7.37778 19.9436 7.26754 19.9644 7.13234C19.9831 7.0117 19.9686 6.88066 19.954 6.76626C19.954 6.76418 19.954 6.76002 19.9519 6.75794C20.3076 6.81618 20.6675 6.85986 20.8214 6.55826L20.266 6.2733C20.3014 6.20466 20.3596 6.17762 20.3783 6.17554C20.3201 6.18802 20.1287 6.15474 20.0019 6.13394L19.8604 6.11314Z" fill="black"/>
<path d="M20.9919 15.7145C21.3955 15.3068 21.5993 14.7826 21.566 14.2376C21.4891 12.9688 20.5614 12.1472 19.2011 12.1472C17.9614 12.1472 17.2209 13.0208 17.2188 14.4852C17.2188 15.729 18.2775 16.3364 19.3259 16.3884C19.355 16.3905 19.3862 16.3905 19.4153 16.3905C19.979 16.3925 20.5759 16.1367 20.9919 15.7145ZM18.2588 14.4873C18.2588 13.1976 18.9577 13.1893 19.1948 13.1893C19.1969 13.1893 19.199 13.1893 19.199 13.1893C20.0123 13.1893 20.4844 13.5845 20.526 14.3021C20.5447 14.6162 20.3867 14.8471 20.2494 14.9844C20.0143 15.2215 19.6711 15.3671 19.3737 15.3505C19.1907 15.3421 18.2588 15.2569 18.2588 14.4873Z" fill="black"/>
<path d="M24.3532 15.9162C24.7048 16.1866 25.0729 16.3031 25.4328 16.3031C26.0838 16.3031 26.7078 15.9266 27.1467 15.4108C27.5294 14.9636 27.7145 14.3001 27.6313 13.6802C27.5544 13.1103 27.2632 12.6298 26.8139 12.324C25.7614 11.6085 24.5446 11.8436 23.7147 12.9189C22.9555 13.9007 23.1947 15.0218 24.3532 15.9162ZM24.5363 13.5554C24.8441 13.156 25.1915 12.9543 25.5534 12.9543C25.776 12.9543 26.0027 13.0312 26.2294 13.1831C26.4894 13.3599 26.5747 13.6261 26.6017 13.8196C26.6454 14.1503 26.5497 14.5101 26.3563 14.7369C26.2356 14.8783 25.5992 15.5647 24.9897 15.0946C23.9622 14.3001 24.3948 13.7384 24.5363 13.5554Z" fill="black"/>
</svg>
