<svg width="34" height="65" viewBox="0 0 34 65" fill="none" xmlns="http://www.w3.org/2000/svg">
<path d="M10.9744 13.3857C11.4443 13.4234 11.9168 13.1494 12.2084 12.7976C12.5125 12.4306 12.7211 11.9959 12.7512 11.5133C12.7437 11.463 12.7386 11.4128 12.7311 11.3625C12.7135 11.2896 12.6808 11.2243 12.6306 11.169C12.5602 11.076 12.4547 10.9906 12.3365 10.9654C12.2511 10.9478 12.1606 10.9328 12.0726 10.9353C12.0274 10.9353 11.9847 10.9378 11.9394 10.9353C11.9746 10.9403 12.0098 10.9453 12.045 10.9503C11.8992 10.9302 11.766 10.9302 11.6303 11.0107C11.5122 11.0785 11.4016 11.2142 11.3714 11.3474C11.3388 11.4932 11.3463 11.6541 11.4292 11.7822C11.4468 11.8099 11.4669 11.8375 11.4896 11.8627C11.4594 11.9129 11.4267 11.9607 11.3941 12.0084C11.3438 12.0687 11.2885 12.124 11.2282 12.1743C11.1955 12.1969 11.1603 12.217 11.1251 12.2346C11.1101 12.2396 11.0925 12.2447 11.0774 12.2497C11.0447 12.2522 11.0095 12.2547 10.9769 12.2522C10.8386 12.2421 10.6728 12.3226 10.5773 12.4181C10.4792 12.5161 10.4064 12.6769 10.4114 12.8177C10.4189 12.9634 10.4667 13.1168 10.5773 13.2173C10.6904 13.3254 10.8185 13.3706 10.9744 13.3857Z" fill="black"/>
<path d="M31.0853 5.09702C28.4212 2.97334 24.3322 2.97333 22.8494 3.19701C20.6956 1.07081 17.5867 -0.444667 13.2513 0.118298C8.19723 0.779279 3.46481 3.87056 1.19284 7.99729C-0.0838839 10.317 -0.350287 12.6518 0.464002 14.4035C1.06969 15.7079 2.08001 17.236 3.14814 18.852C4.09563 20.2845 5.09841 21.805 5.9127 23.3079L5.80714 23.3657C5.88756 23.5115 5.98307 23.5944 6.09114 23.6397C6.90291 25.1878 7.49101 26.7058 7.57646 28.0755C7.76244 31.0361 7.21455 33.2076 6.7295 35.1252C6.51587 35.9646 6.31984 36.7613 6.2168 37.5153C5.38994 39.0961 4.77169 46.2588 5.11097 47.347C5.30701 47.9728 5.92526 48.5559 6.66667 49.051C6.43545 50.3051 5.76944 53.9996 5.64629 55.3592C5.52566 56.7113 5.97553 60.0489 6.25198 61.3407L6.25701 61.3684C6.58122 62.8964 7.109 64.6884 8.30278 64.9673C8.4008 64.99 8.4963 65 8.59181 65C10.0646 65 11.3765 62.4817 11.57 61.9791C12.6909 59.0688 14.518 52.8108 15.0056 51.1244C15.3474 51.0842 15.6213 51.0088 15.8324 50.8982C15.9757 50.9611 16.1416 51.0189 16.3225 51.0716C16.1692 52.4816 15.7545 56.553 15.9606 57.9152C16.0938 58.7898 16.3577 60.3128 16.6266 61.582C17.1695 64.1656 17.4233 64.4873 17.8707 64.6079C17.9461 64.628 18.0164 64.6431 18.0918 64.6431C18.4914 64.6431 18.974 64.241 20.2507 62.1626C21.0826 60.8104 21.8868 59.305 22.3015 58.3274C22.7815 57.1939 24.395 52.9943 24.4629 50.9787C24.7092 50.8882 24.9278 50.7851 25.1088 50.667C26.1945 49.9709 26.5464 47.9954 26.6519 46.4624C26.8228 43.9366 26.4257 40.7774 25.3827 39.2921C27.1445 36.1104 27.0942 30.8099 27.0641 27.6332C27.0566 26.9898 27.0515 26.4344 27.0641 26.0448L27.0968 25.1351C27.2023 22.1242 27.4059 16.384 27.1043 12.6342C29.2154 12.1014 30.8515 11.6314 32.9551 10.9604L33.3798 10.8247L33.3924 10.3798C33.4578 8.14557 32.6787 6.36872 31.0853 5.09702ZM26.011 18.3116C25.2973 18.3393 24.018 18.4021 22.4473 18.5403C22.4523 17.6054 22.5176 15.6928 22.9072 13.9989C23.249 12.5161 24.6438 11.1439 25.5134 10.41C25.5863 10.7141 25.6491 11.0107 25.6969 11.2821C25.7396 11.5636 25.7773 11.8727 25.8125 12.1994L25.8477 12.9559L25.8753 12.9484C25.9909 14.5041 26.0211 16.4091 26.011 18.3116ZM2.29364 8.60298C3.87698 5.72533 7.73982 2.10375 13.4122 1.36486C13.9651 1.29198 14.4929 1.25931 15.0031 1.25931C18.2854 1.25931 20.6729 2.6818 22.3518 4.49636C22.7489 4.999 23.7341 6.28829 24.5031 7.66806C24.7469 8.16568 24.953 8.65074 25.1188 9.10814C24.2392 9.79174 22.1733 11.5912 21.6833 13.7174C21.2409 15.63 21.1881 17.7285 21.1881 18.666C19.6023 18.8369 17.8305 19.0832 16.0963 19.4401C13.2966 20.0131 10.155 20.9606 6.76217 22.2473C5.98558 20.8701 5.08333 19.5029 4.22632 18.2061C4.95767 18.0905 5.67394 17.8617 6.33241 17.5426C7.30252 17.0726 8.1922 16.3035 8.49882 15.2354C8.69988 14.5342 7.60913 14.2351 7.40807 14.9338C7.39299 14.9866 7.3754 15.0369 7.36032 15.0896C7.35278 15.1098 7.35027 15.1198 7.34775 15.1273C7.34524 15.1324 7.34021 15.1424 7.33519 15.155C7.28995 15.253 7.23717 15.3485 7.17937 15.439C7.15423 15.4767 7.1291 15.5144 7.10397 15.5496C7.09643 15.5596 7.04114 15.6275 7.04114 15.63C6.96826 15.7154 6.89286 15.7959 6.80992 15.8713C6.61892 16.0522 6.54855 16.105 6.33492 16.2432C6.13386 16.3739 5.92526 16.487 5.70912 16.59C5.06071 16.8967 4.26401 17.1002 3.53266 17.148C2.75105 15.9517 2.04985 14.8308 1.60752 13.8758C0.961622 12.4884 1.21295 10.5683 2.29364 8.60298ZM6.31481 46.9751C6.05092 46.1331 6.53347 41.2801 7.00595 39.1036C7.15424 39.2092 7.32262 39.3122 7.51363 39.4127C7.51865 39.4153 7.52368 39.4203 7.52871 39.4228C7.54127 39.4303 7.55635 39.4354 7.56892 39.4429C7.6418 39.4806 7.71469 39.5158 7.7926 39.5535C8.68228 39.9732 9.94644 40.3452 11.4091 40.6342C11.8565 40.7272 12.4044 40.8202 13.0126 40.9056C14.1084 41.0614 15.2644 41.172 16.4205 41.2198C16.7221 41.2323 17.0514 41.2424 17.4032 41.2474C17.4158 41.3253 17.4233 41.4133 17.4283 41.5138C17.4334 42.0994 17.2675 43.0946 16.9885 44.2633C16.5387 46.108 15.8274 48.2995 15.2619 49.6969C15.2469 49.7346 15.2318 49.7748 15.2142 49.8125C15.0885 49.8703 14.8598 49.9005 14.5633 49.908C14.3396 49.8854 12.1807 49.6718 10.7004 49.438C10.6979 49.438 10.6979 49.438 10.6954 49.438C10.5195 49.3978 10.3486 49.3576 10.1877 49.3149C9.41363 49.1113 8.4385 48.6715 7.65688 48.194L7.36032 48.003C6.81244 47.6386 6.40529 47.2666 6.31481 46.9751ZM10.4013 61.5317C10.0369 62.4817 8.93612 63.8213 8.59181 63.7459C8.4963 63.7233 7.99617 63.4921 7.4885 61.1095L7.48347 61.0819C7.22209 59.8554 6.79736 56.6435 6.9004 55.4723C7.00344 54.3137 7.54881 51.2425 7.82276 49.7296C8.48122 50.0689 9.4639 50.4986 10.4516 50.667C11.2156 50.8354 12.2486 51.0138 13.2086 51.1043C13.3795 51.1194 13.5404 51.132 13.6987 51.142C13.0955 53.2154 11.4217 58.8828 10.4013 61.5317ZM21.1504 57.8373C20.502 59.3628 19.0368 61.8509 18.2401 62.9391C17.9285 61.8258 17.4836 59.5588 17.2072 57.7292C17.0438 56.6535 17.363 53.1752 17.5615 51.3381C18.3959 51.4662 19.366 51.5341 20.3437 51.5341C21.3339 51.5341 22.3292 51.4612 23.1887 51.3079C23.0102 52.7455 22.0678 55.6809 21.1504 57.8373ZM25.4054 46.382C25.2671 48.3976 24.7997 49.3828 24.4378 49.614C24.2669 49.7246 24.0507 49.8175 23.8044 49.898L23.6838 49.9256C22.4146 50.2046 20.9418 50.2624 20.4065 50.2749C20.3135 50.2749 20.2205 50.2724 20.1276 50.2724L17.7299 50.0965C17.2373 50.0287 16.8252 49.9482 16.5487 49.8628C16.8101 49.1867 17.1117 48.3347 17.4057 47.4149C17.8229 46.1357 18.2527 44.6327 18.4814 43.3083C18.6523 42.3809 18.6975 41.7299 18.6649 41.265C19.6601 41.2424 20.776 41.1142 21.6053 40.9634C21.7436 40.9408 21.8793 40.9131 22.015 40.8855C22.1256 40.8654 22.2337 40.8453 22.3392 40.8277C23.0153 40.7096 23.6587 40.594 24.4453 40.1315C25.1364 41.2298 25.5737 43.9215 25.4054 46.382ZM25.8125 27.6508C25.8401 30.4857 25.8929 35.7384 24.3171 38.6412C23.7919 39.0634 23.0128 39.375 22.0778 39.5937C21.9195 39.6213 21.7536 39.6515 21.5777 39.6867C21.2183 39.7596 20.7684 39.8274 20.2884 39.8827C19.6048 39.9531 18.8785 39.9908 18.132 40.0008L18.127 39.9958H17.8305L16.2195 39.9053L16.2697 39.9556C14.9252 39.8877 13.6208 39.742 12.5879 39.5761C12.4898 39.561 12.3943 39.5434 12.2963 39.5284C12.1983 39.5108 12.1053 39.4957 12.0148 39.4781C11.9796 39.4731 11.947 39.4655 11.9118 39.458C11.8188 39.4404 11.7283 39.4228 11.6429 39.4052C10.2229 39.1061 9.28295 38.8196 8.66218 38.5708C8.13942 38.3547 7.82276 38.1637 7.64432 38.0229C7.48347 37.8872 7.45331 37.8018 7.44828 37.7817C7.53625 37.0754 7.72725 36.319 7.94842 35.4418C8.43096 33.5368 9.02911 31.1643 8.83056 28.0052C8.73757 26.5274 8.15953 24.9516 7.35781 23.3682C10.63 22.1342 13.6535 21.227 16.3477 20.6715C20.2809 19.8623 24.4302 19.6336 25.996 19.5733C25.9658 21.6844 25.8954 23.6925 25.8452 25.0999L25.8125 26.0122C25.8024 26.4269 25.8075 26.9948 25.8125 27.6508ZM26.9837 11.3751C26.9736 11.3022 26.9585 11.2243 26.946 11.1489C26.9233 11.0006 26.9007 10.8574 26.8756 10.7242C26.8153 10.3924 26.7223 10.0079 26.5991 9.59068C26.3805 8.78896 26.094 7.97467 25.7522 7.3338C25.6969 7.23076 25.6391 7.12771 25.5813 7.02467C25.139 6.14001 24.5785 5.22771 23.8924 4.36567C25.5235 4.31038 28.4087 4.57427 30.2986 6.07969C31.4648 7.00959 32.0805 8.29637 32.1358 9.90735C30.3263 10.4804 28.8334 10.9051 26.9837 11.3751Z" fill="black"/>
<path d="M9.37091 53.8136C9.37091 55.7764 8.47368 57.6412 8.66218 59.6167C8.70742 60.0942 9.46139 60.0992 9.41615 59.6167C9.22766 57.6463 10.1224 55.7764 10.1249 53.8136C10.1249 53.3285 9.37091 53.3285 9.37091 53.8136Z" fill="black"/>
<path d="M19.258 53.7131C19.1047 54.4645 18.9061 55.2084 18.7553 55.9599C18.602 56.7289 18.5392 57.5055 18.5367 58.2871C18.5342 58.7722 19.2881 58.7722 19.2907 58.2871C19.2932 57.5508 19.3485 56.8244 19.4942 56.1031C19.6425 55.3693 19.8335 54.6455 19.9843 53.9141C20.0823 53.4416 19.356 53.2381 19.258 53.7131Z" fill="black"/>
<path d="M20.8614 30.0283L21.2711 29.9077V29.4377C21.2711 29.302 21.2434 26.075 19.3736 24.6123C18.494 23.9262 17.3856 23.7402 16.0762 24.0644C14.8045 24.3811 13.9324 25.0496 13.4876 26.0549C12.4949 28.2967 14.1184 31.3629 14.1888 31.491L14.4301 31.9409L14.9025 31.8002C15.1388 32.348 15.5484 33.2578 16.0586 34.2154C17.1996 36.3567 18.215 37.5906 19.1625 37.9852C19.3912 38.0807 19.6224 38.1285 19.8461 38.1285C20.0522 38.1285 20.2532 38.0883 20.4442 38.0078C21.6053 37.5153 21.9597 35.9068 21.5299 33.092C21.3389 31.8705 21.0474 30.7094 20.8614 30.0283ZM14.6336 26.5601C14.9176 25.9217 15.4881 25.5045 16.3753 25.2833C16.6945 25.2054 16.9885 25.1652 17.26 25.1652C17.7802 25.1652 18.22 25.3085 18.5945 25.6C19.6325 26.4093 19.9114 28.1384 19.9843 28.9702L15.0709 30.438C14.6537 29.4754 14.1134 27.7312 14.6336 26.5601ZM19.9491 36.8543C19.9114 36.8694 19.8285 36.907 19.6425 36.8291C18.5392 36.3692 17.0011 33.5092 16.1089 31.4408L19.6576 30.3852C20.4719 33.2855 20.786 36.4999 19.9491 36.8543Z" fill="black"/>
</svg>
