<svg width="41" height="98" viewBox="0 0 41 98" fill="none" xmlns="http://www.w3.org/2000/svg">
<g clip-path="url(#clip0)">
<path d="M11.5355 27.9014C11.785 27.4613 11.7434 26.9104 11.6706 26.4287C11.6672 26.4045 11.6602 26.3802 11.6568 26.356C11.636 25.9817 11.5182 25.604 11.3588 25.2922C11.2999 25.1813 11.1994 25.1085 11.0816 25.0704C10.8771 24.9179 10.5756 24.8937 10.3851 25.0981C10.3331 25.1536 10.2915 25.2159 10.2499 25.2783C9.92765 25.4793 9.69895 25.7946 9.64005 26.1862C9.62619 26.2763 9.62272 26.3594 9.64005 26.4391C9.52223 26.9797 9.57074 27.6311 10.0004 28.0227C10.0108 28.0296 10.0212 28.0366 10.0316 28.0469C10.1182 28.137 10.2257 28.2063 10.3504 28.2514C10.3677 28.2583 10.3851 28.2653 10.4058 28.2722C10.4162 28.2756 10.4232 28.2791 10.4301 28.2826C10.4336 28.2826 10.4405 28.2826 10.444 28.286C10.5652 28.3276 10.69 28.3553 10.8147 28.345C11.1197 28.3311 11.3865 28.1682 11.5355 27.9014ZM10.7835 27.3366V27.3331V27.3366Z" fill="black" stroke="black" stroke-width="0.25"/>
<path d="M15.3437 28.3068C15.4892 28.4697 15.6521 28.6118 15.8392 28.7192C16.1407 28.8924 16.4976 28.7261 16.6015 28.4073C16.6604 28.2341 16.6951 28.0573 16.7193 27.8806C16.7263 27.8737 16.7332 27.8633 16.7367 27.8564C16.8129 27.7247 16.8233 27.5895 16.7852 27.4613C16.7921 27.4336 16.8025 27.4059 16.806 27.3747C16.8337 27.2015 16.8372 27.0282 16.8302 26.8549C16.9688 26.453 16.9203 25.9783 16.7193 25.5798C16.6362 25.4169 16.5114 25.2644 16.3624 25.1466C16.3451 25.1224 16.3347 25.0946 16.3174 25.0704C16.2862 25.0288 16.255 24.9872 16.2238 24.9491C16.203 24.8798 16.1822 24.8105 16.1614 24.7412C16.0471 24.3427 15.5862 24.263 15.2917 24.5125C15.2363 24.561 15.1877 24.6164 15.1392 24.6684C14.9417 24.7689 14.7823 24.9526 14.668 25.1397C14.3249 25.701 14.2418 26.4322 14.3388 27.0698C14.4254 27.6138 14.8066 28.189 15.3437 28.3068Z" fill="black" stroke="black" stroke-width="0.25"/>
<path d="M14.5571 33.962C14.3631 34.1525 14.3527 34.5095 14.5571 34.6966C14.765 34.8872 15.0838 34.901 15.2917 34.6966C15.3229 34.6654 15.3541 34.6377 15.3888 34.6065C15.3991 34.5996 15.4095 34.5892 15.4165 34.5822C15.4858 34.5337 15.5551 34.4852 15.6313 34.4436C15.7145 34.3951 15.8011 34.3535 15.8877 34.3119C15.8912 34.3119 15.8947 34.3085 15.8981 34.3085C15.912 34.305 15.9224 34.2981 15.9293 34.2981C15.9744 34.2808 16.0229 34.2634 16.0679 34.2461C16.2481 34.1837 16.4352 34.1352 16.6223 34.104C16.6431 34.1006 16.6639 34.0971 16.6847 34.0936C16.6847 34.0936 16.6882 34.0936 16.6916 34.0936C16.7159 34.0902 16.7679 34.0832 16.7817 34.0832C16.8788 34.0728 16.9723 34.0694 17.0694 34.0694C17.3396 34.0694 17.603 33.8303 17.5891 33.5496C17.5753 33.2689 17.3604 33.0298 17.0694 33.0298C16.6293 33.0298 16.1753 33.1095 15.7595 33.2551C15.3194 33.411 14.8932 33.6293 14.5571 33.962Z" fill="black" stroke="black" stroke-width="0.25"/>
<path d="M15.8635 41.3566C16.1892 42.1085 16.5322 42.8085 16.8441 43.3387L18.3376 42.462C18.0604 41.9907 17.7485 41.3601 17.4574 40.6844C17.8698 40.5111 18.2821 40.3413 18.691 40.1715C18.7742 40.9269 18.8262 41.6789 18.84 42.4585L20.5726 42.4308C20.5587 41.4224 20.4825 40.4661 20.3612 39.4958C21.2171 39.1528 21.9864 38.8617 22.5547 38.6642L21.9864 37.0286C21.4701 37.2088 20.8186 37.4548 20.0979 37.739C20.0286 37.3336 19.9558 36.9247 19.8761 36.5019L18.1747 36.8207C18.2787 37.3647 18.3688 37.888 18.4519 38.4008C17.9148 38.6226 17.3708 38.8478 16.8337 39.0731C16.6397 38.5048 16.4872 37.9642 16.411 37.5207L14.7026 37.8152C14.7997 38.3731 14.9902 39.0488 15.2363 39.7488C14.5086 40.0606 13.8537 40.3448 13.3443 40.5665L14.0408 42.1536C14.5675 41.9145 15.1947 41.6442 15.8635 41.3566Z" fill="black" stroke="black" stroke-width="0.25"/>
<path d="M32.0145 83.7839C32.1601 83.7597 32.3091 83.7389 32.4581 83.7181C33.1927 83.6176 34.0209 83.5067 34.4748 82.7929C34.7728 82.3216 34.8074 81.7395 34.5822 81.0153C34.2773 80.045 33.3278 77.5813 32.6244 75.7829C32.9085 75.8487 33.1858 75.8626 33.4491 75.7967C33.8095 75.7067 34.1006 75.4883 34.2877 75.1626C34.5926 74.6394 35.2926 73.437 28.487 67.5324C28.6291 67.3037 28.74 67.0715 28.8058 66.8428L28.8301 66.725C29.0172 65.4325 29.1211 61.108 29.1731 57.9616C29.8835 59.0947 30.625 59.8328 31.474 59.8328C32.7457 59.8328 35.5525 57.5631 36.3945 55.8513C36.9039 54.8187 36.6544 54.143 36.3564 53.7549C36.1623 53.502 35.6218 52.7258 34.9391 51.7382C29.9736 44.5861 26.7856 40.2685 25.3372 39.5305C25.3649 39.1562 25.4377 38.879 25.5936 38.8166C26.595 38.4112 29.1281 37.1672 30.9958 34.4055C32.9397 31.5294 33.5323 27.995 32.7526 23.8992C31.9903 19.883 29.53 16.2308 25.8292 13.6111C22.4819 11.2444 18.3999 9.99004 14.914 10.2603C10.7524 10.5791 6.38626 13.5037 3.24337 18.0777C0.488573 22.08 -0.60295 26.3282 0.322246 29.4399C2.15185 35.5975 3.92254 38.432 9.5742 38.9726C9.8029 38.9934 10.0766 39.9601 10.2672 40.7467C8.84999 42.2645 7.11394 46.3533 6.00163 49.8012C4.88585 53.2594 3.83591 57.674 5.1596 59.0705C8.26091 62.3416 9.95537 63.6583 11.1301 63.6583C11.2479 63.6583 11.3622 63.6445 11.4731 63.6167C11.9582 63.4989 12.3221 63.1351 12.4745 62.6188C12.6235 62.1129 13.0394 61.1842 13.5314 60.1551C15.5516 65.876 16.3486 67.6883 17.0312 68.1457C17.0416 68.1526 17.0555 68.1595 17.0659 68.1699C16.8094 68.9219 16.4595 69.8159 16.0956 70.755C14.5294 74.778 14.0512 76.2576 14.8343 77.0407C15.2778 77.4843 15.7803 77.4808 16.3035 77.2556C15.7595 79.4906 15.2016 81.9613 16.7575 82.8137C16.8926 82.8865 17.1317 82.9869 17.4401 82.9869C17.8005 82.9869 18.2579 82.8518 18.7569 82.384C19.5365 81.6529 20.4513 79.9237 20.9711 78.257C21.2726 78.6694 21.6017 78.9223 22.0176 78.9223C22.1181 78.9223 22.2255 78.9085 22.3398 78.8738C23.2061 78.6278 23.2546 77.6679 23.3413 75.9319C23.3828 75.1245 23.4591 73.5479 23.712 72.9449C23.9823 73.4162 24.2561 74.5805 24.4155 75.2493C24.7654 76.7358 25.0461 77.914 25.7946 78.4164C26.0926 78.6139 26.446 78.659 26.7718 78.5377C27.0975 78.4164 27.3262 78.1531 27.5133 77.7823C27.8771 78.659 28.3103 79.5946 28.7469 80.4227C30.2265 83.2468 31.0928 83.8082 31.772 83.8082C31.8551 83.8082 31.9383 83.7978 32.0145 83.7839ZM27.3608 61.7109C26.5569 62.2653 23.1472 63.2771 21.4424 63.4435C20.1221 63.5717 17.1733 62.5841 16.0818 62.1475C15.9917 61.898 15.9016 61.652 15.8115 61.4094C17.2495 61.8114 19.2385 62.2411 20.8637 62.2411C21.3176 62.2411 21.7438 62.2064 22.1215 62.1302C24.8382 61.5688 26.4252 61.0872 27.3851 60.6852C27.3782 61.0283 27.3712 61.3713 27.3608 61.7109ZM21.2206 65.1864C21.3592 65.1864 21.4909 65.1795 21.6156 65.1691C22.7764 65.0548 25.5104 64.4276 27.2985 63.6618C27.2881 63.9529 27.2742 64.2301 27.2638 64.4934C26.446 64.9231 24.5298 65.5642 22.2567 65.9141C20.0182 66.2572 18.2995 65.7755 17.3881 65.4879C17.2322 65.131 17.0659 64.7187 16.8891 64.2786C18.2302 64.7187 19.9766 65.1864 21.2206 65.1864ZM20.6939 67.768C21.2587 67.768 21.8686 67.7264 22.52 67.6259C24.0308 67.3938 25.7877 66.9675 27.1009 66.4582C26.7787 67.2032 25.2263 68.4333 23.1437 68.319C22.1388 68.2635 21.1686 68.0313 20.3404 67.7576C20.4582 67.7611 20.5726 67.768 20.6939 67.768ZM34.9564 54.7702C34.9564 55.5603 32.3472 57.9062 31.5086 58.0898C31.124 57.9027 30.4933 56.9117 29.6305 55.1375C30.9577 54.3405 32.4546 53.3148 33.4214 52.5837C33.4526 52.6287 33.4872 52.6807 33.5184 52.7223C34.2114 53.7272 34.7208 54.4583 34.9564 54.7702ZM28.7954 46.0831C29.3845 46.8801 29.9805 47.7048 30.5522 48.5052L30.4102 48.4463C29.8488 49.5344 22.4299 52.154 18.5524 52.3862C15.5689 52.5594 9.93458 50.8061 7.80005 49.8947C8.00449 49.2779 8.22279 48.6646 8.44456 48.0721C10.4855 49.2294 14.9071 51.215 18.2059 51.215C18.5316 51.215 18.8435 51.1942 19.1415 51.156C24.1833 50.463 27.3816 47.7359 28.7954 46.0831ZM27.7281 44.6554C26.7718 45.8786 23.7987 48.7686 18.9059 49.4373C16.0332 49.8289 10.9118 47.5419 9.08562 46.4538C9.67123 45.0539 10.2672 43.8342 10.7905 42.9679C11.2375 44.6381 11.9409 46.2979 13.5383 46.9182C14.9764 47.4761 17.454 47.9127 19.7791 47.9127C21.38 47.9127 22.9116 47.7048 23.9754 47.1919C24.7342 46.8246 25.2159 46.3187 25.4134 45.6846C25.7426 44.6104 25.6005 43.2208 25.4585 41.8729C25.4585 41.8694 25.4585 41.8694 25.4585 41.866C26.0614 42.5209 26.8584 43.5154 27.7281 44.6554ZM1.98552 28.9479C1.21626 26.3698 2.24541 22.5824 4.66755 19.0583C7.47779 14.9729 11.4523 12.2632 15.0457 11.9894C21.4112 11.4974 29.6097 16.6258 31.0512 24.2214C32.8115 33.508 26.2728 36.6682 24.9422 37.2088C23.3031 37.8741 23.5214 39.9983 23.7363 42.0496C23.8576 43.2208 23.9823 44.4337 23.7571 45.1717C23.712 45.3207 23.5214 45.4836 23.22 45.6291C21.3349 46.5405 16.5218 46.2182 14.1655 45.2999C12.9527 44.8287 12.5127 42.8501 12.128 41.1071C11.7053 39.1978 11.3068 37.3959 9.73707 37.2469C5.36751 36.8311 3.84631 35.2025 1.98552 28.9479ZM12.3948 58.5368C11.0989 58.4641 8.50001 58.4294 7.01692 58.5056C6.82634 58.3081 6.62882 58.1037 6.42091 57.8819C6.25805 57.6844 6.16796 56.8354 6.42438 55.2103C6.94069 55.7127 7.63025 56.1909 8.70791 56.4751C9.70934 56.7384 11.7053 57.1438 12.9735 57.3933C12.7829 57.7572 12.5889 58.1453 12.3948 58.5368ZM10.8979 61.8599C10.5826 61.7213 9.94844 61.3193 8.73217 60.1932C9.68509 60.1862 10.7558 60.2001 11.584 60.2278C11.2964 60.855 11.0504 61.4268 10.8979 61.8599ZM14.1967 55.044C14.1725 55.0925 14.0235 55.3697 13.7982 55.7924C12.6478 55.5672 10.2291 55.0855 9.14452 54.8014C8.00795 54.5034 7.57481 53.9628 7.02732 53.2802L6.93376 53.1658L6.81941 53.2594C6.94415 52.7396 7.09662 52.1713 7.27681 51.558C9.64004 52.5352 14.8239 54.1361 18.1193 54.1361C18.3029 54.1361 18.4796 54.1326 18.6529 54.1222C21.5186 53.949 29.2528 51.9357 31.4809 49.822C31.8205 50.3002 32.1393 50.7576 32.4304 51.1768C31.1725 52.1298 28.6048 53.8658 27.2014 54.5034L27.4821 55.1236C27.4752 55.8791 27.4579 57.2201 27.4301 58.7378C27.0975 58.9838 25.9159 59.5902 21.775 60.4461C20.0078 60.81 16.404 59.8466 15.0907 59.3893C15.063 59.3061 15.0353 59.2299 15.0076 59.1571C14.8516 58.7135 14.7165 58.3289 14.6056 58.0136C15.0491 57.1438 15.4615 56.3642 15.7214 55.8756L14.1967 55.044ZM18.7846 79.1787C18.2613 80.343 17.7762 80.9529 17.5163 81.1747C17.2807 80.544 17.8178 78.3471 18.0292 77.4773C18.2024 76.7774 18.348 76.1641 18.4138 75.6616C18.691 75.4225 19.0029 75.1626 19.2143 75.0309C19.3355 75.1938 19.4811 75.4502 19.6301 75.7274C19.7444 76.0497 19.5608 77.4496 18.7846 79.1787ZM26.446 75.5091C26.4183 75.6166 26.3837 75.7378 26.3525 75.8591C26.2589 75.5091 26.1723 75.1418 26.103 74.8542C25.6629 72.99 25.1639 70.8797 23.5007 71.0841C21.8478 71.292 21.7196 73.6899 21.6121 75.8175C20.9399 74.4211 20.3959 73.3261 19.4534 73.2291C18.6529 73.1459 17.894 73.8112 16.9377 74.6567C16.7713 74.8022 16.5634 74.9894 16.3555 75.1626C16.65 74.1161 17.2842 72.4875 17.7104 71.3891C18.0465 70.5263 18.3653 69.7015 18.6252 68.9669C19.8103 69.4659 21.4216 69.9649 23.0467 70.055C23.1645 70.0619 23.2823 70.0654 23.3967 70.0654C24.8971 70.0654 26.2797 69.5387 27.2846 68.7971C29.3013 70.5609 31.3596 72.5915 32.2571 73.7731C31.9418 73.5998 31.6056 73.3919 31.3527 73.236C30.1087 72.4737 29.038 71.8153 28.1266 72.2311C27.2222 72.6365 26.8619 73.9671 26.446 75.5091ZM28.3934 75.1245L28.3484 75.1384C28.5009 74.6186 28.6811 74.085 28.837 73.8493C29.1627 73.9325 29.8211 74.3275 30.2993 74.6186C30.7532 75.7586 32.5135 80.2113 32.9293 81.535C32.9813 81.6979 32.9952 81.8019 32.9952 81.8573C32.8358 81.9231 32.4615 81.9751 32.2259 82.0063C32.115 82.0202 32.0007 82.0375 31.8898 82.0548C31.0685 81.4311 29.0137 77.3873 28.3934 75.1245Z" fill="black" stroke="black" stroke-width="0.25"/>
<path d="M17.7727 83.7458C17.1559 83.7805 16.2654 84.1304 15.5273 85.6135C14.9175 86.8298 14.3561 89.1376 15.0838 90.2291C15.3021 90.5548 15.7006 90.9568 16.1892 91.3033C16.2065 91.4765 16.2238 91.6325 16.2342 91.733C16.2446 91.8369 16.4248 92.6097 16.0991 92.8695C15.7734 93.1294 14.5536 92.7205 13.625 92.7067C12.6305 92.6894 11.4627 92.7067 10.683 93.424C10.0489 94.0096 9.86873 94.966 10.3192 95.7144C10.832 96.5669 11.8404 96.7782 12.7517 96.8891C13.774 97.0139 14.81 97.1247 15.8323 96.9757C17.298 96.7644 19.3632 96.3 19.4603 94.512C19.5019 93.7358 19.2905 92.6616 18.9855 91.9201C19.3944 91.7434 19.9454 91.3275 20.1048 90.34C20.4756 88.0426 20.7458 85.6932 19.6335 84.4596C19.3147 84.1062 18.7291 83.6938 17.7727 83.7458ZM17.1975 86.161C17.4643 85.7001 17.7346 85.4818 17.8698 85.4749C17.894 85.4749 17.9183 85.4714 17.9391 85.4714C18.2163 85.4714 18.3029 85.5719 18.348 85.6204C18.9959 86.3412 18.5732 88.9505 18.3965 90.0662C18.3653 90.2672 18.3133 90.3296 18.3133 90.3296C18.05 90.4439 16.9307 89.8791 16.5322 89.2796C16.352 88.9193 16.5426 87.2837 17.1975 86.161Z" fill="black" stroke="black" stroke-width="0.25"/>
<path d="M40.1715 90.8875C40.0086 90.6484 39.8285 90.4821 39.6344 90.3746C39.1146 89.5881 38.2449 89.7371 37.4999 90.1841C37.0459 90.4578 36.5989 90.7385 36.1554 91.0261C36.4673 90.5583 36.6544 89.9588 36.6994 89.245C36.8138 87.3288 35.8262 84.4631 34.3327 83.4998L33.3937 84.9551C34.1699 85.4541 35.0673 87.5263 34.9703 89.1411C34.9495 89.491 34.8594 90.1044 34.4817 90.2846C34.3119 90.3642 34.007 90.0489 33.9169 89.9519C32.7838 88.6906 32.2744 85.9843 32.6001 85.468L31.1309 84.5497C30.2161 86.012 31.2176 89.543 32.6313 91.1127C33.2828 91.8369 33.9169 92.0379 34.4124 92.0379C34.5233 92.0379 34.6238 92.0275 34.7174 92.0102C33.8719 92.6131 32.9051 93.1606 32.2363 93.968C32.1843 94.0304 32.1531 94.0928 32.1324 94.1551C31.9626 94.3804 31.9452 94.7338 32.2571 94.9244C32.3853 95.0006 32.5101 95.0873 32.6348 95.167C32.7041 95.3471 32.867 95.4927 33.1026 95.4996C33.1199 95.4996 33.1372 95.4996 33.1546 95.4996C33.6605 95.8323 34.1595 96.1719 34.655 96.5184C35.2475 96.9342 35.9579 97.4228 36.7237 97.3396C37.4825 97.2564 38.0647 96.6466 38.5498 96.1129C39.0107 95.6105 39.5201 95.1462 39.9567 94.6195C40.3621 94.1343 40.674 93.6007 40.7363 92.9597C40.8022 92.2701 40.5631 91.4627 40.1715 90.8875ZM35.8193 96.0714C35.8089 96.0644 35.8019 96.061 35.7916 96.054C35.8089 96.0332 35.8227 96.0125 35.8366 95.9882L35.8401 95.9917C35.8331 96.0159 35.8262 96.0436 35.8193 96.0714Z" fill="black" stroke="black" stroke-width="0.25"/>
<path d="M20.933 57.9997C20.9711 57.9963 24.7758 57.7225 25.6941 55.6296L24.1071 54.9331C23.7952 55.6469 21.9794 56.1944 20.8186 56.2706C19.8692 56.333 17.6861 56.1632 17.0485 55.931L16.456 57.5597C17.305 57.868 19.2143 58.0136 20.3716 58.0136C20.5899 58.0136 20.7805 58.0101 20.933 57.9997Z" fill="black" stroke="black" stroke-width="0.25"/>
<path d="M30.8468 5.98086C31.1067 5.98432 31.3562 5.8873 31.5467 5.71058C31.5779 5.68285 31.6022 5.6482 31.6264 5.61702C31.6299 5.61355 31.6368 5.61009 31.6403 5.60662C31.7858 5.46455 31.8967 5.26704 31.9383 5.06952C31.9799 4.86161 31.9833 4.6537 31.9279 4.44926C31.8759 4.26214 31.7685 4.06463 31.6195 3.93642C31.4289 3.77356 31.1933 3.6696 30.9369 3.68C30.677 3.69039 30.424 3.78395 30.2092 3.93295C29.9666 4.10275 29.7587 4.31759 29.679 4.60866C29.6097 4.86161 29.6513 5.12497 29.776 5.3502C29.9736 5.72444 30.4206 5.97393 30.8468 5.98086Z" fill="black" stroke="black" stroke-width="0.25"/>
<path d="M24.3531 9.32473L25.9921 9.88955C25.9782 9.92766 25.9679 9.94845 25.9679 9.94845C26.1342 9.67124 27.0109 8.96782 27.5029 8.66288C27.8286 9.64699 28.1959 10.6415 28.487 11.4004L30.1052 10.7801C29.7968 9.97617 29.5162 9.19305 29.2736 8.47923C30.3339 8.48962 31.571 8.56932 31.9348 8.69407L32.5031 7.05852C31.824 6.82289 30.0498 6.72586 28.7261 6.75012C28.5321 6.07441 28.4246 5.58583 28.435 5.39178L26.7094 5.25664C26.6817 5.62394 26.7995 6.25114 26.997 6.98575C26.1307 7.39464 24.5991 8.6109 24.3531 9.32473Z" fill="black" stroke="black" stroke-width="0.25"/>
<path d="M14.5016 7.16594C15.4753 7.49859 16.3832 7.7065 17.2807 8.22281C18.1643 8.72872 19.1138 9.1584 20.032 9.59847C20.4929 9.82024 21.276 10.2257 21.9621 10.2153C22.177 10.6657 22.5061 11.033 22.9324 11.2791C24.2491 12.0379 28.4281 13.7047 30.3755 14.3042C30.6493 14.3873 30.9022 14.4254 31.1413 14.4254C32.8323 14.4254 33.709 12.4953 34.3708 11.0365C34.5822 10.5722 34.7832 10.1321 34.9946 9.74748C36.0306 7.87283 36.3182 5.28436 35.0569 3.0632C35.2926 3.05973 35.5247 3.01815 35.7361 2.90033C35.9925 2.75826 36.2004 2.49491 36.2628 2.2073C36.3633 1.74644 36.19 1.28557 35.8678 0.959849C35.8435 0.907872 35.8158 0.855894 35.7742 0.810847C35.5975 0.620264 35.3896 0.457402 35.1713 0.318796C34.9045 0.149003 34.6099 0.0346533 34.2981 1.81794e-06C33.9897 -0.0277194 33.6466 0.0970261 33.4456 0.346517C33.2828 0.547496 33.1927 0.776196 33.1546 1.01876C30.0359 -0.561353 24.6026 4.17205 23.2789 5.39524C22.3987 5.0314 20.7597 4.80963 20.1187 4.574C19.138 4.21363 18.1193 4.04037 17.1282 3.72504C16.2481 3.44436 15.4407 2.75826 14.4808 2.78945C13.715 2.81371 13.1883 3.39585 12.7795 3.98493C12.4122 4.51856 12.1107 5.20466 12.5265 5.79027C12.9735 6.41746 13.8086 6.92684 14.5016 7.16594ZM32.6244 2.74094C34.8421 4.82349 34.208 7.59908 33.4837 8.90891C33.2377 9.35245 33.016 9.8445 32.7976 10.3192C31.9764 12.1211 31.5294 12.8453 30.8849 12.6443C29.0553 12.083 25.008 10.4752 23.7986 9.7752C23.5318 9.61926 23.4417 9.29701 23.414 9.05445C23.3412 8.41686 23.6081 7.45008 24.3739 6.73972C28.7018 2.70282 31.8031 1.96821 32.6244 2.74094ZM16.6743 5.52346C16.605 5.4992 16.6985 5.46108 16.6743 5.52346V5.52346Z" fill="black" stroke="black" stroke-width="0.25"/>
</g>
<defs>
<clipPath id="clip0">
<rect width="40.7467" height="97.35" fill="white"/>
</clipPath>
</defs>
</svg>
