<svg width="140" height="145" viewBox="0 0 140 145" fill="none" xmlns="http://www.w3.org/2000/svg">
<g clip-path="url(#clip0)">
<path fill-rule="evenodd" clip-rule="evenodd" d="M136.922 48.4687C135.09 41.787 130.315 31.6068 127.928 27.6729C117.372 10.3606 98.1833 -1.45625 71.1863 0.150358C54.4896 1.14135 40.4055 3.81402 29.6097 11.3816C22.1022 16.6368 13.1382 25.4356 9.38449 31.6068C-7.5074 59.3245 0.22533 101.111 18.3785 120.946C34.7148 138.814 63.4536 150.165 91.9971 141.171C96.9821 139.595 103.258 135.886 108.288 132.177C131.261 115.331 146.922 84.9101 136.922 48.4687ZM91.4115 137.808C61.2764 147.748 31.0061 133.589 17.2373 114.775C2.28239 94.3396 -2.74764 58.3035 11.0512 34.4146C16.2313 25.4507 33.1683 10.4206 46.4566 6.32153C52.3424 4.50471 58.9491 4.20441 67.8079 3.51372C106.096 0.525733 125.375 20.5558 133.559 49.0242C145.195 89.5948 122.222 127.658 91.4115 137.808Z" fill="#3C3C3B"/>
<path fill-rule="evenodd" clip-rule="evenodd" d="M85.2256 91.1715C89.9704 91.2165 93.1536 80.3306 94.2196 73.7541C95.3458 66.8021 95.7512 55.6159 95.3458 48.4688C94.8052 38.8592 91.6971 18.2886 84.1145 20.3757C78.0184 22.0423 75.6611 38.2135 75.1205 49.0393C74.4899 61.4117 76.2316 91.0964 85.2256 91.1715Z" fill="#3C3C3B"/>
<path fill-rule="evenodd" clip-rule="evenodd" d="M53.1984 91.7421C60.8111 91.7421 62.9582 69.655 63.3186 62.5228C63.9492 49.8051 61.9672 18.2285 52.0873 20.9462C44.2795 23.0934 42.2375 48.0333 43.0933 63.0934C43.6639 73.3036 46.4867 91.7421 53.1984 91.7421Z" fill="#3C3C3B"/>
<path fill-rule="evenodd" clip-rule="evenodd" d="M119.505 88.3633C113.769 109.339 100.616 124.429 78.4837 127.703C60.3456 130.375 44.1294 120.03 35.2105 108.604C30.9312 103.108 29.3246 96.6366 25.0903 91.7417C24.8951 101.051 30.5708 109.444 36.3216 115.345C45.8411 125.09 62.8982 134.429 80.721 131.081C102.628 126.952 120.586 109.249 122.298 86.6816C121.742 86.6816 121.171 86.6816 120.616 86.6816C120.496 87.4774 119.7 87.6276 119.505 88.3633Z" fill="#3C3C3B"/>
</g>
<defs>
<clipPath id="clip0">
<rect width="140" height="144.339" fill="white"/>
</clipPath>
</defs>
</svg>