<svg width="60" height="43" viewBox="0 0 60 43" fill="none" xmlns="http://www.w3.org/2000/svg">
<path d="M59.993 34.0398C59.9212 33.1768 59.1191 32.8985 58.5322 32.6964C57.8561 32.4638 56.9301 32.1442 56.3018 31.303C55.1497 29.7661 54.315 28.6552 53.2368 23.2642C52.7433 20.7926 51.7825 18.4774 50.3847 16.3797C49.2391 14.6602 48.0848 13.5059 47.3957 12.8168C46.0892 11.5104 40.1721 6.63014 35.105 6.63014C29.7943 6.63014 25.9575 9.89304 24.5533 11.2951C22.7381 13.1146 20.1208 17.4797 19.9991 21.4882C19.9165 24.1989 20.7534 28.3248 21.2338 30.4421C20.8643 30.3704 20.5447 30.3247 20.3252 30.3247C20.2687 30.3247 20.1991 30.3269 20.1187 30.3269C18.3796 30.3595 18.1883 29.9465 18.1448 29.5509C17.9775 28.0357 17.9362 14.7754 17.934 9.23654C18.4709 8.60614 19.3622 7.22142 19.4557 4.93239C19.51 3.59549 19.1057 2.43902 18.2883 1.58906C17.4623 0.730402 16.2319 0.217382 14.9993 0.217382C12.9364 0.217382 10.6756 1.83905 10.543 4.84326C10.4343 7.3888 11.1539 8.79743 11.669 9.46914C11.7582 10.5778 11.8451 13.3385 11.8712 16.0362C11.9147 20.3578 11.7973 22.1099 11.7125 22.5077C11.4951 22.9077 11.1712 23.1511 10.3235 23.1511C9.64957 23.1511 8.72135 22.9098 8.26267 22.2338C7.93225 21.1295 7.83443 14.8602 7.93008 9.23437C8.34311 8.17572 9.34741 5.47367 9.34741 4.34763C9.34741 0.565192 6.21494 0 4.34763 0C1.66514 0 0 1.74992 0 4.56501C0 5.70844 1.19343 8.08225 1.84122 9.28654C1.77601 12.4081 1.43907 29.6987 1.86513 32.0399C2.1586 33.6507 3.58462 35.6897 4.72805 37.1136C6.11494 38.8417 7.68879 40.4134 8.83222 41.2134C9.79739 41.8894 11.0778 42.0959 12.4473 42.0959C13.5929 42.0959 14.8037 41.9503 15.9449 41.8134C17.0384 41.6829 18.0709 41.559 18.6948 41.6221C19.397 41.6916 19.8839 41.7612 20.2752 41.8177C21.0925 41.9351 21.586 42.0046 22.4946 41.8242C24.4511 41.4329 27.277 40.9764 28.8031 40.9764C29.5422 40.9764 30.2487 41.1286 31.0682 41.3047C32.192 41.546 33.5876 41.846 35.5419 41.846C37.4527 41.846 39.0765 41.922 40.383 41.9829C41.2895 42.0264 42.0742 42.0633 42.7155 42.0633C43.7828 42.0633 45.061 41.6699 46.2958 41.2916C47.0566 41.0569 47.774 40.8373 48.3305 40.7438C48.6544 40.6917 49.3848 40.9351 49.9195 41.1156C50.9977 41.4786 52.2216 41.8916 53.152 41.1938C53.9411 40.6025 54.3758 39.6221 54.2889 38.6396C54.2367 38.0592 53.9454 37.0288 52.6694 36.1919C53.9802 36.2636 55.1019 36.3266 56.0497 36.3266C57.7235 36.3266 58.8496 36.1353 59.4952 35.4702C59.8604 35.0919 60.0386 34.5832 59.993 34.0398ZM22.1729 21.5534C22.2707 18.3231 24.5141 14.4146 26.0945 12.832C27.3053 11.6212 30.6095 8.80178 35.1071 8.80178C37.607 8.80178 42.6133 11.443 43.4763 12.8233C44.5632 14.5624 44.3589 18.7296 43.9372 20.6317C43.6307 22.0055 41.9177 24.9445 40.8351 26.5271L40.0069 27.5944C39.9743 27.6357 36.8005 31.6638 33.0137 30.5834C29.5943 29.6074 27.9335 27.5314 27.9335 24.2381C27.9335 20.2578 30.766 17.7166 32.7159 17.7166C36.0006 17.7166 37.0636 20.4991 37.0636 21.8469C37.0636 22.6229 36.4875 23.6446 35.6288 24.388C34.9528 24.975 34.3767 25.1489 34.1724 25.1184C33.9398 25.0858 33.7746 24.7511 33.7333 24.4533C33.7202 24.3554 33.6724 23.862 34.0115 23.7163L33.155 21.7186C32.0181 22.2055 31.4008 23.3903 31.579 24.738C31.7573 26.0836 32.6746 27.101 33.8637 27.2705C34.8224 27.4075 35.9854 26.9553 37.0505 26.0314C38.107 25.1163 39.233 23.5359 39.233 21.8469C39.233 20.4078 38.6352 18.8622 37.6353 17.7101C36.7766 16.721 35.2245 15.5428 32.7116 15.5428C30.6834 15.5428 28.827 16.6623 27.4836 18.6926C26.4162 20.3078 25.7554 22.4316 25.7554 24.2381C25.7554 26.7032 26.5488 29.7835 29.9334 31.666C28.2292 31.6964 25.738 31.7095 25.0119 31.4682C24.7076 31.366 24.1902 31.2051 23.6033 31.0356C23.3316 29.9074 22.0795 24.5902 22.1729 21.5534ZM40.8308 29.9161C41.6677 30.8725 43.0785 32.3507 44.7806 33.6202C44.5784 33.6224 44.3458 33.5789 43.9654 33.4376C41.0677 32.3507 39.8765 31.9377 39.4156 31.8616C39.1113 31.8116 38.8026 31.7703 38.4939 31.7334C39.4765 31.153 40.2743 30.466 40.8308 29.9161ZM51.9042 39.4026C51.6368 39.4026 51.0021 39.1874 50.6108 39.057C49.7369 38.7613 48.8326 38.457 47.9696 38.6005C47.2718 38.7178 46.4849 38.9591 45.6545 39.2135C44.6241 39.5308 43.4546 39.8895 42.7133 39.8895C42.122 39.8895 41.3612 39.8547 40.4808 39.8134C39.1526 39.7504 37.5005 39.6721 35.5397 39.6721C33.8181 39.6721 32.5985 39.4091 31.5225 39.1787C30.6204 38.9852 29.7704 38.8026 28.8009 38.8026C26.6292 38.8026 22.8099 39.5439 22.0664 39.6939C21.5251 39.8026 21.3251 39.7743 20.5817 39.6678C20.1926 39.6113 19.6578 39.5352 18.91 39.4613C18.0492 39.3743 16.9536 39.5069 15.6863 39.6591C13.6755 39.9004 11.1712 40.2004 10.0778 39.4352C8.16268 38.0961 4.3672 33.6594 4.002 31.6529C3.69766 29.9769 3.84548 17.2145 4.01939 9.04525L4.02591 8.75396L3.88678 8.49962C2.98682 6.85622 2.18686 5.01717 2.17382 4.56501C2.17382 3.9107 2.17382 2.17382 4.34763 2.17382C5.778 2.17382 7.17359 2.3412 7.17359 4.34763C7.17359 4.89109 6.48015 6.98882 5.8367 8.62353L5.76496 8.80613L5.76061 9.00177C5.70844 11.9125 5.59323 21.5338 6.28233 23.1446L6.34972 23.275C7.2562 24.7859 8.99743 25.325 10.3256 25.325C11.9256 25.325 13.0559 24.6837 13.6885 23.4207C14.3711 22.0555 13.9168 9.85391 13.795 8.88656L13.7494 8.51701L13.4864 8.25398C13.3407 8.10833 12.6168 7.26055 12.7168 4.93891C12.7973 3.08247 14.1602 2.3912 14.9993 2.3912C15.4797 2.3912 16.221 2.57597 16.721 3.09769C17.1231 3.51723 17.3123 4.10634 17.2818 4.84761C17.1949 6.99969 16.1754 7.9453 16.1449 7.97356L15.7602 8.29963V8.80396C15.7602 9.57783 15.7623 27.7988 15.9841 29.7922C16.2406 32.1007 18.397 32.5399 20.1665 32.5007C20.2274 32.4986 20.2817 32.4986 20.3252 32.4986C20.7295 32.5029 22.7838 33.0137 24.3293 33.5289C25.4489 33.9028 27.9205 33.8811 30.7965 33.8224C31.3116 33.8115 31.7508 33.8028 32.0638 33.8028C32.4094 33.8028 32.8138 33.792 33.2811 33.7811C34.9006 33.7398 37.1201 33.6833 39.0548 34.005C39.5222 34.092 42.2916 35.131 43.2024 35.4723C44.4371 35.9354 45.1306 35.7962 45.6349 35.6962C45.9545 35.6332 46.1284 35.5984 46.5457 35.7158C47.6348 36.0267 48.5174 36.4788 49.8543 37.1636C50.2412 37.3614 50.6651 37.5788 51.1412 37.8157C51.7412 38.1157 52.0868 38.4765 52.1194 38.8309C52.1412 39.0657 52.0325 39.2765 51.9042 39.4026ZM52.7498 34.0181C52.0977 33.9811 51.4108 33.9441 50.6999 33.9115C47.5892 33.7702 43.9567 30.2356 42.2699 28.2574C43.5459 26.5249 45.661 22.9012 46.061 21.1034C46.6371 18.5144 46.6762 16.4993 46.4349 14.9363C47.8653 16.4275 50.2195 19.2448 51.1086 23.6902C52.2259 29.2813 53.1498 30.7204 54.565 32.6072C55.1128 33.3376 55.7649 33.8159 56.3801 34.1485C55.3323 34.1615 53.9563 34.0854 52.7498 34.0181Z" fill="black"/>
<path d="M48.3522 26.6162C47.937 26.4662 47.5088 26.3119 47.3609 26.1575C47.3044 26.0771 47.1979 25.7249 47.2892 25.3684C47.3653 25.0619 47.537 24.9467 47.6587 24.8858C47.9392 24.7445 48.0739 24.8272 48.1218 24.8576C48.2913 24.9641 48.4761 25.2576 48.4761 25.6532H50.6499C50.6499 24.5511 50.1195 23.5381 49.2652 23.0098C48.4935 22.5338 47.5544 22.5077 46.687 22.9425C45.8523 23.3598 45.3002 24.1163 45.1328 25.0728C44.9654 26.0293 45.2241 27.0618 45.774 27.6422C46.2914 28.1857 46.9653 28.4292 47.6174 28.6639C48.2218 28.8813 48.7913 29.0878 49.1891 29.5074C49.7239 30.0726 49.7891 30.4095 49.7782 30.466C49.7717 30.4791 49.7326 30.5269 49.6369 30.5856C49.2478 30.5682 48.2044 29.8943 47.4392 29.1596L46.687 29.9443L45.9327 30.7269C47.6153 32.3464 48.8543 32.7485 49.6717 32.7485C50.1304 32.7485 50.4564 32.6225 50.6521 32.5116C51.5673 31.9964 51.8499 31.2943 51.9259 30.7965C52.0607 29.9074 51.6716 28.9726 50.7695 28.0161C50.0152 27.214 49.0935 26.8836 48.3522 26.6162Z" fill="black"/>
<path d="M8.6344 31.0856C8.30398 31.0856 7.93878 29.89 7.93443 28.8009L6.84752 28.8031H5.76061C5.76061 28.8422 5.76279 29.7987 6.0193 30.766C6.59536 32.9355 7.904 33.2594 8.6344 33.2594C9.48001 33.2594 10.6517 32.8485 11.4321 30.8899C11.8125 29.9334 11.9408 28.9857 11.9473 28.9465L9.79304 28.6596C9.64087 29.7574 9.09307 31.0856 8.6344 31.0856Z" fill="black"/>
<path d="M4.66936 3.69984C4.45198 3.66505 3.99982 3.90635 3.88244 4.0933C3.6194 4.51067 3.50854 5.93887 3.88244 6.06277C4.47371 6.26059 6.04973 5.86496 5.6541 5.07803C5.26063 4.28894 5.01934 3.75635 4.66936 3.69984Z" fill="black"/>
<path d="M15.8667 4.14982C15.3993 3.73679 13.795 3.48245 13.8494 4.36285C13.9037 5.24107 13.9146 5.828 14.2168 6.01712C14.4037 6.13451 14.9146 6.08886 15.095 5.96278C15.4993 5.68236 16.1601 4.41067 15.8667 4.14982Z" fill="black"/>
</svg>
