<svg width="77" height="98" viewBox="0 0 77 98" fill="none" xmlns="http://www.w3.org/2000/svg">
<g clip-path="url(#clip0)">
<path d="M73.7551 64.3941C72.576 63.1433 70.4524 61.7004 67.0128 61.9186C65.4982 62.0163 64.1661 62.1596 62.9902 62.2867C61.3714 62.4626 60.0848 62.5994 59.0556 62.5407C60.7265 61.3225 62.3127 59.3585 62.5961 58.2576C62.7362 57.7104 62.4691 57.0101 61.9838 56.2642C63.8859 55.5867 66.3125 53.9516 68.1659 51.5543C69.8856 49.3297 70.7227 44.9977 70.7195 38.3075C70.7195 35.0666 68.1463 28.5523 66.2278 26.0508C64.684 24.0411 63.6807 20.0413 63.4755 15.0709C63.2703 10.1689 65.0129 3.89882 65.6318 3.16596L64.4006 2.10087C63.7719 2.82721 63.0912 5.17888 62.6645 7.13969C62.303 8.79759 61.7167 12.0417 61.847 15.1425C62.0717 20.5169 63.1694 24.7446 64.9348 27.0475C66.6708 29.3112 69.0909 35.4086 69.0909 38.3107C69.0909 44.5351 68.3483 48.6587 66.876 50.5609C64.837 53.1992 62.3193 54.5411 60.9154 54.8929C60.6711 54.6161 60.4138 54.3457 60.1565 54.0786C61.2607 53.5445 62.8078 52.7302 63.9153 51.8051C65.5341 50.4567 67.6675 46.4438 67.104 42.1183L66.9542 40.9555C66.5373 37.6756 66.2637 35.5096 65.1204 32.7963C64.8794 32.2263 64.482 31.3697 63.9771 30.2851C61.9577 25.9368 58.1957 17.846 58.2445 14.2012C58.3032 9.72914 59.5898 3.42979 61.5734 1.04555L60.3226 0C58.0003 2.79464 56.6811 9.38713 56.6192 14.1752C56.5671 18.1912 60.2835 26.1908 62.5049 30.9691C63.0033 32.0374 63.3941 32.8843 63.6221 33.425C64.6774 35.933 64.9282 37.8971 65.3419 41.1575L65.4917 42.3235C65.9933 46.18 64.0325 49.5837 62.873 50.5511C61.7102 51.5218 59.909 52.3979 58.896 52.8702C58.4856 52.4989 58.1143 52.1797 57.8244 51.9387C59.1956 49.1831 60.5799 45.9064 60.4985 44.1085C60.4822 43.7599 60.479 43.3691 60.4724 42.9489C60.4399 40.125 60.3812 35.3988 56.4661 33.9298C51.7726 32.171 48.1408 36.3076 46.7989 38.1674C46.4504 38.6495 45.9097 39.5322 45.268 40.6266C44.5514 40.0272 43.5548 39.2227 43.0922 38.9752C42.8317 38.8351 42.532 38.8156 42.2421 38.9165C41.7796 39.0794 41.3106 39.6494 40.8839 40.353C40.151 38.1544 39.099 36.1805 38.0339 34.5357C35.6073 30.7867 32.5749 28.549 29.0246 27.8813C23.2268 26.7901 17.9404 30.3307 16.9405 31.0505C15.2793 32.2459 10.918 37.9036 9.98321 44.799C9.31549 49.7401 10.5174 54.1633 13.5628 57.9481C14.7224 59.3878 15.9438 60.4724 17.1978 61.2802C13.8332 62.342 6.91496 64.6155 5.03233 65.9217C0.420187 69.1169 -0.221473 71.7683 0.0553855 73.4294C0.576531 76.5661 5.80102 79.4682 11.7616 78.5041C13.9928 78.1425 16.8298 76.8266 19.5755 75.5563C21.6927 74.5727 25.2397 72.9278 25.8749 73.3252C26.5556 74.0483 27.8878 75.1297 29.4285 76.3771C31.4218 77.9927 35.5552 81.3508 35.6855 82.341C35.6561 82.5592 35.5877 82.9077 35.5096 83.3051C34.9331 86.2724 33.5846 93.2264 37.5681 96.5064C38.2586 97.0731 39.0338 97.3598 39.8579 97.3598C40.3237 97.3598 40.8057 97.2686 41.2975 97.0862C45.1573 95.6432 49.131 88.3505 49.6489 85.2529C49.8476 84.0575 49.9388 82.5169 50.0235 81.0251C50.1244 79.2858 50.2873 76.426 50.7205 75.7941C53.7692 76.1394 62.1173 76.6833 65.6513 76.8006C67.8727 76.8722 70.156 76.4977 71.9116 75.7648C74.2926 74.7714 75.6866 73.1656 75.9407 71.1136C76.2436 68.6805 75.4261 66.1692 73.7551 64.3941ZM61.0066 57.883C60.7037 58.9025 58.4237 61.3486 56.958 61.8795C56.8961 61.8307 56.8342 61.7818 56.7756 61.7264C55.5606 60.5864 54.4044 57.9612 55.3587 56.4336C55.6453 55.9743 56.313 54.831 57.072 53.3914C58.4107 54.5542 60.9187 57.0785 61.0066 57.883ZM55.8929 35.4509C58.7657 36.529 58.8113 40.2487 58.8439 42.9652C58.8439 43.0336 58.8471 43.0922 58.8471 43.1574C57.4042 43.3593 53.9874 43.1606 52.7367 42.5548C51.4599 41.9359 49.1473 39.6331 48.4307 38.6983C51.6911 34.477 54.717 35.008 55.8929 35.4509ZM42.6493 40.6233C43.0988 40.9458 43.8153 41.532 44.4374 42.0564C43.6036 43.5189 42.6916 45.1638 41.861 46.6751C41.9034 45.3038 41.7698 43.9717 41.5093 42.6949C41.8936 41.8447 42.3496 41.0142 42.6493 40.6233ZM14.8331 56.9189C12.0808 53.4989 10.9929 49.4925 11.5988 45.0107C12.4521 38.6951 16.4487 33.4087 17.8916 32.3664C18.7971 31.715 23.5786 28.5067 28.7216 29.474C31.816 30.0571 34.4868 32.0537 36.6626 35.4151C41.05 42.19 40.7666 47.6229 39.2683 51.4566C39.2097 51.5641 39.1739 51.6325 39.1576 51.6618L39.1804 51.6748C39.099 51.8768 39.011 52.0755 38.9231 52.2676C38.7863 51.5218 38.6039 50.8312 38.441 50.4143C38.3075 50.0788 38.1479 49.7075 37.985 49.3329C37.6854 48.6457 37.3466 47.8672 37.2619 47.434C37.2489 47.307 37.3564 46.9129 37.428 46.649C37.6821 45.7077 38.0632 44.2843 36.9688 43.4114C36.4281 42.9782 35.933 42.9782 35.6138 43.0564C34.9721 43.2095 34.5617 43.7665 34.2588 44.3332C33.6758 43.3365 32.8843 41.6786 32.6824 41.177C32.7898 40.9881 32.8192 40.7568 32.7573 40.5191C32.9136 40.0956 32.969 39.6006 32.868 39.1706C32.7508 38.6625 32.285 38.1576 31.7182 38.2912C31.5521 38.3303 31.4186 38.4117 31.3111 38.5159C31.2525 38.5159 31.1938 38.5192 31.1385 38.5322C31.2687 38.1902 31.1515 37.8091 30.9398 37.4801C30.917 37.3271 30.8746 37.1772 30.8062 37.0339C30.5229 36.4313 29.8226 36.0828 29.2298 36.4997C29.1679 36.5421 29.119 36.5909 29.0702 36.643C28.9366 36.4118 28.751 36.2131 28.5327 36.073C28.3796 35.845 28.1907 35.6431 27.9562 35.49C27.5295 35.2132 26.9888 35.1154 26.497 35.249C26.0475 35.3695 25.6176 35.6496 25.3277 36.0112C25.0997 36.2945 24.9401 36.6398 24.9075 36.9948C24.8359 37.1479 24.7837 37.3075 24.7577 37.4769C24.4287 37.6495 24.1551 37.9361 23.9564 38.2749C23.9206 38.2912 23.8848 38.3075 23.8489 38.3237C23.7838 38.314 23.7187 38.314 23.6568 38.3172C23.445 38.0436 23.178 37.8091 22.8816 37.63C22.4386 37.3629 21.8686 37.1447 21.354 37.3303C20.8914 37.4997 20.5788 37.8612 20.4517 38.3303C20.4029 38.5061 20.3931 38.6853 20.4159 38.8579C20.025 39.2651 19.8198 39.8839 19.9078 40.4148C19.9273 40.5386 19.9664 40.6559 20.012 40.7699C19.9794 40.835 19.9501 40.9002 19.9273 40.9751C19.9045 41.0532 19.8882 41.1314 19.8785 41.2161C19.771 41.1412 19.6537 41.0826 19.5299 41.0402C19.2857 40.8024 18.9925 40.62 18.6668 40.5223C18.0219 40.3302 17.4095 40.607 17.1262 41.2031C16.8167 41.177 16.4975 41.2291 16.2142 41.3562C15.8591 41.5158 15.566 41.848 15.478 42.2323C15.364 42.7242 15.5204 43.2714 15.908 43.6036C15.9373 43.6948 15.9731 43.7795 16.0187 43.8577C16.0155 43.9326 16.022 44.0107 16.0318 44.0857C15.4618 44.1247 14.9145 44.4114 14.5888 44.8544C14.4944 44.9325 14.4032 45.0205 14.325 45.128C14.312 45.1442 14.3022 45.1638 14.2892 45.1801C14.2468 45.1833 14.2012 45.1898 14.1589 45.1996C13.7192 45.2941 13.3739 45.6686 13.2567 46.0953C13.2078 46.2777 13.2013 46.4536 13.2241 46.6262C13.2143 46.6946 13.2045 46.763 13.2078 46.8347C13.2143 47.18 13.3869 47.5187 13.6866 47.6816C13.7778 47.7891 13.882 47.8802 14.0058 47.9454C14.0058 47.9454 14.0091 47.9454 14.0091 47.9487C14.0481 47.9812 14.084 48.0138 14.1231 48.0431C14.1784 48.0822 14.2403 48.118 14.3022 48.1441C14.2989 48.2418 14.3087 48.3363 14.3217 48.4307C14.312 48.4437 14.3022 48.4568 14.2924 48.4698C14.084 48.7857 13.9537 49.1571 13.9211 49.5349C13.9048 49.7303 13.9374 49.9323 14.0286 50.1081C14.1426 50.3264 14.3576 50.4664 14.5856 50.5413C14.7615 50.6 14.9601 50.6097 15.1458 50.5967C16.2011 52.5119 17.7255 55.3131 18.1131 56.0948C18.0545 56.1958 17.96 56.3326 17.8916 56.4368C17.5072 57.0003 16.706 58.1696 17.6994 59.2347C18.3671 59.9513 19.442 60.163 20.4387 59.7689C20.6504 59.6842 20.8458 59.58 21.0185 59.4562C21.2106 60.0197 21.4289 60.7069 21.6438 61.4137C19.0642 60.8307 16.7809 59.3422 14.8331 56.9189ZM23.4255 61.6385C23.2854 61.1727 23.0737 60.4659 22.849 59.7656C22.0901 57.4042 21.836 56.7332 21.0185 56.844C20.8947 56.8602 20.2726 56.9938 20.2726 57.8537C20.2726 57.9612 20.1162 58.137 19.8524 58.2413C19.5495 58.3618 19.1391 58.365 18.9013 58.111C18.8687 58.0752 18.8622 58.0589 18.8622 58.0589C18.8459 57.9286 19.1163 57.5312 19.2466 57.339C19.5755 56.8602 19.9827 56.2609 19.6961 55.5932C19.4225 54.9548 16.9568 50.4697 16.5431 49.7205C16.5594 49.6912 16.579 49.6652 16.5952 49.6359C16.8363 49.1538 16.9014 48.5284 16.5855 48.0626C16.5334 47.9877 16.4747 47.9161 16.4096 47.8542C16.4291 47.8281 16.4519 47.8053 16.4747 47.776C16.618 47.5708 16.6799 47.3396 16.6702 47.1246C17.0806 47.0236 17.3835 46.763 17.5626 46.4341C17.6278 46.408 17.6896 46.3787 17.7515 46.3396C18.3085 45.9716 18.2466 45.242 17.8167 44.8315C17.833 44.8088 17.8525 44.7892 17.8655 44.7631C18.0838 45.0302 18.3899 45.1931 18.7841 45.0856C19.4615 44.8999 19.8133 44.1182 19.7905 43.4473C19.9338 43.3886 20.0641 43.3105 20.1716 43.2062C20.5787 43.4114 21.0738 43.1769 21.3279 42.8056C21.4093 42.6851 21.468 42.5515 21.507 42.418C21.5982 42.3594 21.6764 42.2877 21.7448 42.203C21.9174 42.1118 22.0705 41.9815 22.1878 41.8252C22.6601 42.1444 23.2529 41.874 23.6307 41.5288C23.6926 41.4734 23.7447 41.4083 23.7968 41.3464C24.0118 41.5483 24.2756 41.6754 24.5916 41.6851C24.9531 41.6982 25.2951 41.5386 25.598 41.3627C25.8684 41.2096 26.1094 41.0174 26.2886 40.7634C26.3081 40.7373 26.3211 40.708 26.3374 40.6787C26.7934 40.9034 27.3341 40.9881 27.7999 40.835C28.0083 40.7666 28.181 40.6363 28.3047 40.48C28.4806 40.6559 28.6858 40.809 28.8747 40.936C28.9399 40.9783 29.0148 41.0142 29.0865 41.05C29.2265 41.2617 29.435 41.4311 29.7053 41.5158C29.9985 41.607 30.3242 41.5972 30.588 41.4799C30.6662 41.5776 30.7867 41.6428 30.9495 41.646C31.0114 41.646 31.0733 41.6493 31.1352 41.6526C31.3404 42.2193 32.0896 43.7143 32.2101 43.9554C33.3989 46.2712 33.8321 46.509 34.2751 46.5774C34.6692 46.6393 35.0471 46.4438 35.236 46.0823C35.2979 45.9618 35.3663 45.8152 35.4412 45.6524C35.5519 45.4113 35.7897 44.8869 35.9688 44.6915C36.2196 44.9065 36.0144 45.6686 35.8646 46.2289C35.718 46.7696 35.5812 47.2777 35.6724 47.7369C35.7929 48.3558 36.1545 49.1831 36.503 49.9844C36.6593 50.3394 36.8124 50.6944 36.9362 51.0104C37.3368 52.0266 37.6332 54.2903 37.4899 54.7594C36.1089 56.7169 34.6985 57.8048 34.5357 57.9286C34.5064 57.9514 31.5196 60.2314 27.5849 61.2151C26.1224 61.5734 24.7414 61.7102 23.4255 61.6385ZM27.5556 36.8222C27.5263 36.8287 27.497 36.8287 27.5556 36.8222V36.8222ZM11.501 76.8885C6.29285 77.7289 2.00642 75.2404 1.66117 73.1558C1.26705 70.7846 4.53724 68.2375 5.95736 67.2538C6.32542 66.9998 6.95405 66.6871 7.7488 66.3451C9.05818 67.2148 11.0841 69.2277 11.5694 70.6413L11.6704 70.9344C12.2046 72.4816 12.9863 74.7355 13.1199 76.4846C12.5433 76.667 11.9961 76.8071 11.501 76.8885ZM40.7243 95.5488C39.9067 95.855 39.2325 95.7572 38.6006 95.2361C36.7343 93.6987 36.3499 90.9529 36.4607 88.3895C36.5421 88.37 36.6268 88.3505 36.7115 88.3309C37.8287 88.0541 38.8872 87.7902 40.809 88.1094C42.8708 88.4514 44.7697 89.637 45.6621 90.4285C44.2485 92.7411 42.4147 94.9169 40.7243 95.5488ZM49.7271 74.4684C48.7695 75.273 48.5968 77.4455 48.3949 80.9209C48.3102 82.3671 48.2255 83.8654 48.0399 84.9728C47.8738 85.9565 47.2972 87.4385 46.4797 88.9889C45.2713 88.0052 43.2388 86.8619 41.0728 86.5036C38.998 86.1616 37.7082 86.4125 36.6007 86.6828C36.744 85.4711 36.9525 84.3865 37.1056 83.6048C37.1935 83.1488 37.2652 82.7905 37.2978 82.5234C37.5062 80.9535 34.8484 78.6734 30.4479 75.1036C29.0148 73.9408 27.6631 72.8431 27.054 72.1982C25.7967 70.8628 22.8978 72.208 18.885 74.0678C17.5268 74.6997 16.0676 75.3739 14.6996 75.9146C14.4716 74.0418 13.7322 71.9051 13.2111 70.4003L13.1101 70.1104C12.5889 68.6023 10.9506 66.7978 9.51418 65.6318C12.7062 64.4071 17.0284 63.0195 19.2401 62.3453C20.8524 63.0065 22.4842 63.2736 24.0574 63.2736C30.1776 63.2736 35.4379 59.2901 35.5128 59.2315C35.6399 59.137 38.6755 56.8407 40.5158 52.6357C40.5451 52.5673 40.5712 52.4989 40.6005 52.4305C40.7015 52.2383 45.3788 43.5026 47.4796 40.1054C48.6848 41.5418 50.9062 43.4798 52.0266 44.027C53.1569 44.5775 55.4597 44.8609 57.3586 44.8609C57.896 44.8609 58.3976 44.8381 58.8341 44.7892C58.44 47.5089 55.2675 53.5249 53.9842 55.5769C52.5022 57.9481 54.0102 61.3649 55.6681 62.9218C57.3879 64.5341 59.6875 64.2833 63.1661 63.9087C63.3713 63.8859 63.5863 63.8631 63.8045 63.8403C63.1173 65.3777 62.3388 67.5796 62.1043 69.4166C61.873 71.2308 61.7199 73.3643 62.2899 75.0059C58.2673 74.7844 52.9517 74.4098 50.7791 74.1525C50.3915 74.1036 50.0267 74.2144 49.7271 74.4684ZM74.3251 70.9019C73.8757 74.4847 68.4916 75.2567 65.7034 75.1622C65.2507 75.1459 64.7165 75.1264 64.1237 75.0971C63.1922 73.677 63.5798 70.6543 63.7133 69.6218C63.9706 67.6089 65.0259 64.9413 65.6904 63.6547C66.1497 63.6156 66.6187 63.5765 67.1138 63.5439C69.9215 63.3615 71.6315 64.5146 72.5695 65.5113C73.8919 66.9151 74.5662 68.9834 74.3251 70.9019Z" fill="black" stroke="black" stroke-width="0.25"/>
<path d="M43.672 57.6126C42.5125 57.7722 40.125 61.3323 40.125 62.2932C40.125 62.912 41.3269 65.977 42.3854 66.99C42.7177 67.3059 43.0629 67.4655 43.4212 67.4655C43.4408 67.4655 43.4603 67.4655 43.4766 67.4655C44.7957 67.4037 47.0562 64.4755 47.6848 63.4723C48.2679 62.544 48.4307 61.9382 48.2223 61.4496C47.9291 60.7525 44.9814 57.4302 43.672 57.6126ZM43.4701 65.7783C42.9196 65.2376 41.9392 63.0326 41.7666 62.2932C41.9587 61.6645 43.2812 59.8047 43.8805 59.2933C44.5775 59.6875 46.2484 61.3323 46.6556 61.9642C46.3755 62.8274 44.3137 65.2865 43.4701 65.7783Z" fill="black" stroke="black" stroke-width="0.25"/>
<path d="M30.5652 58.6647C31.8974 58.6647 33.3403 58.2315 34.0634 57.7397C35.2588 56.9254 36.3076 55.0786 35.3272 52.5543C34.6139 50.7172 34.1839 49.6098 32.2589 49.8639C30.7476 50.0625 29.3894 51.8149 29.2395 52.0136C28.8128 52.5836 26.7739 56.6388 28.321 57.997C28.865 58.479 29.6923 58.6647 30.5652 58.6647ZM29.6793 54.9222C29.9985 53.9451 30.4154 53.1536 30.5229 53.0168L30.5424 52.994C30.9854 52.411 31.8746 51.5543 32.4739 51.4762C33.1188 51.3915 33.1286 51.3915 33.8093 53.1406C34.4445 54.7724 33.8843 55.8896 33.1481 56.3912C32.2003 57.0361 29.9561 57.2674 29.4187 56.7951C29.3568 56.7006 29.2786 56.1502 29.6793 54.9222Z" fill="black" stroke="black" stroke-width="0.25"/>
<path d="M26.9107 53.4793L25.3114 53.1797C25.2593 53.45 24.6893 54.1079 23.9108 54.362C23.4451 54.5151 23.077 54.4662 22.8164 54.2219C22.7089 54.121 22.6503 54.0167 22.6927 53.7953C22.8327 53.0526 23.8229 52.1667 24.1063 52.0494C24.1063 52.0494 24.0802 52.0592 24.0346 52.0657L23.7871 50.4567C22.9695 50.5837 21.5527 51.9322 21.165 53.1959C20.9012 54.0526 21.0934 54.8408 21.7057 55.4108C22.178 55.8505 22.7643 56.0753 23.4092 56.0753C23.7317 56.0753 24.0737 56.0199 24.419 55.9026C25.6371 55.5085 26.7315 54.4402 26.9107 53.4793Z" fill="black" stroke="black" stroke-width="0.25"/>
<path d="M21.7774 45.7338L21.2627 44.1899C20.2693 44.5221 19.4094 45.7468 18.8622 46.7174L20.2791 47.5187C20.8686 46.4797 21.4777 45.8348 21.7774 45.7338Z" fill="black" stroke="black" stroke-width="0.25"/>
<path d="M24.3668 44.5319C24.914 44.4277 25.2658 44.3756 25.5101 44.5286L26.3732 43.1476C25.5687 42.646 24.6991 42.8121 24.0639 42.9326C23.8326 42.9782 23.6112 43.0173 23.4353 43.0238L23.4841 44.6524C23.787 44.6426 24.0802 44.5873 24.3668 44.5319Z" fill="black" stroke="black" stroke-width="0.25"/>
<path d="M42.5711 56.3424L43.0499 55.4922C42.6362 55.2577 42.19 54.9874 41.8057 54.7366C41.8089 54.7366 41.8122 54.7366 41.8154 54.7398C43.1574 55.0069 44.0466 55.1828 44.3137 54.5509C44.4277 54.2806 44.698 53.6519 41.7242 52.069L41.265 52.9321C41.8871 53.2611 42.4994 53.6454 42.9131 53.9483C42.6069 53.8995 42.2617 53.8311 42.0044 53.7822C40.8578 53.5542 40.2846 53.4402 40.0045 53.8539C39.9165 53.9874 39.8872 54.147 39.9263 54.3066C39.9686 54.476 40.0761 54.932 42.5711 56.3424Z" fill="black" stroke="black" stroke-width="0.25"/>
<path d="M46.522 45.1866C45.724 46.2745 47.0204 47.3982 47.8965 48.0822C47.3656 47.8151 46.7924 48.0138 46.3299 48.1767C45.838 48.3493 45.7012 48.3753 45.4928 48.2809C45.2843 48.1864 45.3104 48.0333 45.4309 47.864C45.5905 47.636 45.8087 47.776 46.0269 47.8477C46.0237 47.8477 46.4471 46.9682 46.4471 46.9682C45.9032 46.6881 45.04 46.8901 44.7045 47.3493C44.3169 47.8802 44.3528 48.5154 44.799 48.9681C45.3755 49.5544 46.1181 49.2906 46.6588 49.0984C46.965 48.9909 47.2419 48.8444 47.4796 48.9584C47.7174 49.0756 47.8184 49.2678 47.6816 49.5316C47.5448 49.7955 46.9357 49.6815 46.9683 49.6945L46.5155 50.4436C45.6654 49.9095 43.8088 48.9291 42.9717 50.0658C42.063 51.3035 43.7274 52.88 44.5286 53.6356C44.6036 53.7073 44.6687 53.7692 44.7143 53.8148L45.4048 53.1243C45.3527 53.0722 45.281 53.0038 45.1996 52.9256C45.1019 52.8311 45.014 52.7464 44.926 52.6552L45.9032 51.2156C46.0856 51.3198 46.2647 51.4305 46.4373 51.5478L46.9878 50.74C46.9748 50.7303 46.9715 50.7107 46.9878 50.7107C47.4992 50.7107 48.0008 50.2547 48.2711 49.7271C48.5447 49.1864 48.5122 48.6587 48.2125 48.3135C48.3526 48.4209 48.4731 48.5187 48.5317 48.574L49.2222 47.8835C49.105 47.7662 48.9323 47.6327 48.7108 47.4633L49.6652 46.0562C49.8834 46.1442 50.1016 46.2419 50.3068 46.3429L50.7433 45.47C50.2026 45.2094 47.4536 43.9228 46.522 45.1866ZM44.242 51.9256C43.7469 51.3231 43.5775 50.8899 43.7567 50.6488C43.9 50.4534 44.4114 50.5446 45.014 50.7889L44.242 51.9256ZM48.6978 45.7468L47.9454 46.8542C47.5089 46.4601 47.1246 46.0172 47.3103 45.7664C47.4731 45.5449 48.0301 45.5742 48.6978 45.7468Z" fill="black" stroke="black" stroke-width="0.25"/>
<path d="M21.9923 48.9519C22.0868 49.0365 22.2073 49.1017 22.3376 49.0952C22.38 49.0887 22.4256 49.0821 22.4679 49.0789C22.5493 49.0561 22.621 49.0137 22.6829 48.9519C22.722 48.9063 22.7643 48.8574 22.7936 48.802C22.8262 48.7467 22.849 48.688 22.8685 48.6261C22.9011 48.5415 22.9076 48.4437 22.9174 48.3525C22.9239 48.3004 22.9206 48.2483 22.9174 48.1962C22.9076 48.105 22.8978 48.0105 22.8685 47.9226C22.8327 47.8021 22.7545 47.6946 22.6438 47.6294C22.5884 47.5936 22.5265 47.5741 22.4614 47.5708C22.3962 47.5578 22.3311 47.5578 22.2659 47.5806C22.1487 47.6197 22.0347 47.6913 21.9728 47.8053C21.9109 47.9193 21.8849 48.0561 21.9239 48.1832C21.9272 48.1995 21.9305 48.2125 21.9337 48.2288C21.937 48.2581 21.937 48.2874 21.9337 48.3167C21.9337 48.32 21.9337 48.3232 21.9305 48.3232C21.9109 48.3525 21.8979 48.3819 21.8849 48.4144C21.8555 48.4731 21.8393 48.5349 21.8425 48.6033C21.8393 48.6717 21.8555 48.7336 21.8849 48.7923C21.9109 48.8541 21.9467 48.9063 21.9923 48.9519Z" fill="black" stroke="black" stroke-width="0.25"/>
<path d="M25.4385 46.1377C25.3342 46.0758 25.1779 46.0497 25.0606 46.0888C24.9434 46.1279 24.8294 46.1996 24.7675 46.3136C24.7023 46.4341 24.6926 46.5546 24.7186 46.6914C24.8033 47.1637 24.9759 47.6099 25.116 48.0659C25.1518 48.1864 25.2333 48.2939 25.3407 48.3591C25.445 48.4209 25.6013 48.447 25.7186 48.4079C25.9661 48.3297 26.1387 48.0692 26.0606 47.8053C25.9205 47.3493 25.7479 46.8998 25.6632 46.4308C25.6437 46.3136 25.5362 46.193 25.4385 46.1377Z" fill="black" stroke="black" stroke-width="0.25"/>
</g>
<defs>
<clipPath id="clip0">
<rect width="76.0026" height="97.35" fill="white"/>
</clipPath>
</defs>
</svg>
