<svg width="28" height="71" viewBox="0 0 28 71" fill="none" xmlns="http://www.w3.org/2000/svg">
<path d="M21.5486 62.1027L21.4134 63.2815C23.0737 63.4736 24.7435 64.2705 25.2154 65.0959C25.353 65.3378 25.3696 65.5489 25.27 65.7743C24.7292 66.991 17.5924 69.4838 13.2827 69.6665C11.3971 69.7471 8.45368 69.3795 5.78299 68.7319C2.29402 67.8852 1.27176 67.0835 1.18874 66.8748C1.11284 66.5854 2.59524 65.4635 5.81382 64.6002L5.50549 63.4546C3.69815 63.9408 -0.45494 65.2738 0.040774 67.1736C0.581553 69.2443 8.7383 70.8618 12.787 70.8618C12.9768 70.8618 13.1594 70.8571 13.3302 70.85C15.3557 70.7646 18.3134 70.1432 21.0458 69.2324C23.178 68.5208 25.8274 67.4274 26.3492 66.2534C26.603 65.6794 26.5674 65.0746 26.2401 64.5053C25.4977 63.1984 23.318 62.3066 21.5486 62.1027Z" fill="black"/>
<path d="M5.67389 67.1618L5.70235 67.278L5.77587 67.3729C6.153 67.871 6.97602 68.0322 8.22124 68.0322C9.01106 68.0322 9.97403 67.9682 11.1006 67.8852C11.9023 67.8259 12.6589 67.769 13.2993 67.7547C15.2087 67.7121 16.7954 67.6385 18.0193 67.5342C20.6141 67.3112 21.449 66.9981 21.4537 66.2439C21.4561 65.8668 21.347 65.5655 21.1335 65.3473C20.9129 65.1244 20.6402 65.0508 20.403 65.0248C20.4125 64.9726 20.422 64.9204 20.4338 64.8706C20.6046 63.993 20.8916 62.5225 20.5287 60.9333C19.9666 58.4785 18.4557 56.6593 16.767 56.4055C15.8823 56.2727 14.9003 56.6379 14.1864 56.9842C14.1485 56.6332 14.0417 56.2774 13.8045 55.9833C13.6053 55.7366 13.2329 55.4402 12.5949 55.4402C11.8881 55.4402 11.2785 55.8268 10.9607 56.4743C10.873 56.6545 10.8113 56.8443 10.7804 57.0364C10.2634 56.9083 9.83409 56.9842 9.51863 57.1076C8.11688 57.6531 6.0605 59.375 6.13639 61.8845C6.17672 63.234 6.4471 64.3061 6.62736 65.0129C6.66769 65.1718 6.71512 65.3592 6.74358 65.492C6.70801 65.511 6.67006 65.5276 6.63922 65.5442C6.26684 65.7245 5.41536 66.1443 5.67389 67.1618ZM7.15391 66.6115C7.38398 66.4977 7.64251 66.372 7.81091 66.1277C8.03861 65.7956 7.94373 65.4161 7.76822 64.7259C7.60219 64.0665 7.35077 63.0704 7.31282 61.8512C7.2559 59.968 8.89484 58.6208 9.94082 58.2152C10.3037 58.0753 10.7212 58.1915 11.2169 58.5757C11.6675 58.922 11.9996 58.6303 12.0612 58.5662C12.3079 58.3172 12.2937 58.0112 12.0162 57.6555L11.9972 57.6317C11.9118 57.5226 11.8952 57.2499 12.0185 56.9985C12.1016 56.8301 12.2652 56.6308 12.5878 56.6308C12.7918 56.6308 12.8487 56.702 12.8748 56.7328C12.9981 56.887 13.0693 57.2997 12.9436 57.8713L12.8629 58.2484L13.1713 58.4761C13.4891 58.7109 13.7808 58.5473 14.037 58.405C14.4568 58.1702 15.7376 57.4562 16.5843 57.5819C17.59 57.7337 18.8684 59.024 19.3665 61.2014C19.6748 62.5462 19.4282 63.8104 19.2645 64.6476C19.1435 65.2691 19.006 65.9688 19.6108 66.1538C18.7427 66.3079 16.952 66.4929 13.2709 66.5759C12.5996 66.5902 11.8288 66.6471 11.0105 66.7088C9.78428 66.7989 7.6093 66.9602 6.90013 66.7515C6.9784 66.6969 7.08513 66.6447 7.15391 66.6115Z" fill="black"/>
<path d="M12.5285 50.5589C12.8345 49.4442 12.9934 46.6833 13.0005 46.5671L11.8169 46.5007C11.7742 47.2621 11.613 49.4204 11.3853 50.2435C11.0769 51.3582 10.9512 53.8629 10.9465 53.9673L12.13 54.0266C12.1324 54.0005 12.2557 51.548 12.5285 50.5589Z" fill="black"/>
<path d="M13.8638 47.874C13.8662 47.8764 13.8686 47.8788 13.871 47.8835C13.8994 47.9214 13.9279 47.9594 13.9587 47.995C13.9635 48.0021 13.9682 48.0068 13.9753 48.0116C13.9872 48.0234 13.999 48.0353 14.0133 48.0448C14.0607 48.0827 14.1129 48.1254 14.1674 48.1586C14.2291 48.1966 14.2955 48.2179 14.3667 48.2227C14.4378 48.2393 14.509 48.2345 14.5801 48.2132C14.6228 48.1942 14.6655 48.1776 14.7082 48.1586C14.7889 48.1112 14.8529 48.0472 14.9003 47.9665C14.9288 47.9096 14.9549 47.8503 14.9762 47.7886C14.9952 47.7317 14.9976 47.67 15.0023 47.6131C15.0023 47.6084 15.0023 47.6036 15.0023 47.5989C14.9999 47.5491 14.9928 47.4969 14.981 47.4471C14.9691 47.3973 14.9478 47.3475 14.9193 47.3024C14.8624 47.217 14.8078 47.1553 14.7177 47.1032C14.694 47.0889 14.6679 47.0818 14.6418 47.07C14.6371 47.0652 14.6323 47.0605 14.6252 47.0557C14.573 47.0083 14.5137 46.9775 14.4426 46.9609C14.3951 46.9537 14.3477 46.949 14.3003 46.9419C14.203 46.9419 14.1153 46.9656 14.0299 47.0154C13.9943 47.0439 13.9587 47.07 13.9208 47.0984C13.8544 47.1648 13.8093 47.2431 13.7832 47.3332C13.769 47.3783 13.7595 47.4969 13.7595 47.4921C13.7595 47.4993 13.7571 47.5087 13.7595 47.5159C13.7642 47.5704 13.769 47.6273 13.7832 47.6819C13.7974 47.7364 13.8235 47.7863 13.8472 47.8361C13.852 47.855 13.8567 47.8645 13.8638 47.874ZM14.9454 47.4281C14.9335 47.3878 14.9169 47.3498 14.8956 47.3119C14.9122 47.3498 14.9288 47.3878 14.9454 47.4281Z" fill="black"/>
<path d="M13.5911 49.9067C13.584 49.9541 13.5792 50.0015 13.5721 50.049C13.5721 50.1462 13.5958 50.234 13.6456 50.3194C13.6599 50.3431 13.6741 50.3644 13.6907 50.3858C13.7334 50.4451 13.7785 50.5044 13.8259 50.5589C13.8662 50.6064 13.9065 50.6514 13.9516 50.6941C13.999 50.7463 14.0583 50.7819 14.1224 50.8056C14.1864 50.8388 14.2552 50.8554 14.3287 50.8507C14.4022 50.853 14.471 50.8388 14.5351 50.8056C14.6015 50.7843 14.6584 50.7463 14.7058 50.6941C14.7343 50.6585 14.7604 50.623 14.7889 50.585C14.8363 50.502 14.8624 50.4119 14.8624 50.3146C14.8553 50.2672 14.8505 50.2198 14.8434 50.1723C14.8173 50.0822 14.7723 50.0039 14.7058 49.9375C14.6608 49.8948 14.6228 49.8474 14.5825 49.7999C14.5778 49.7928 14.5706 49.7857 14.5659 49.7786C14.5327 49.7169 14.4876 49.6671 14.4283 49.6292C14.3762 49.5817 14.3169 49.5509 14.2457 49.5343C14.1745 49.513 14.1034 49.5082 14.0322 49.5248C13.9611 49.5272 13.8947 49.5485 13.833 49.5888C13.7974 49.6173 13.7618 49.6434 13.7239 49.6719C13.6622 49.7383 13.6148 49.8165 13.5911 49.9067Z" fill="black"/>
<path d="M13.342 52.594C13.2899 52.6414 13.2543 52.7007 13.2306 52.7647C13.1974 52.8288 13.1807 52.8976 13.1855 52.9711C13.1831 53.0446 13.1974 53.1134 13.2306 53.1774C13.2519 53.2439 13.2899 53.3008 13.342 53.3482C13.3776 53.3767 13.4132 53.4028 13.4511 53.4312C13.5342 53.4787 13.6243 53.5047 13.7215 53.5047C13.769 53.4976 13.8164 53.4929 13.8638 53.4858C13.954 53.4597 14.0322 53.4146 14.0986 53.3482C14.101 53.3435 14.1058 53.3411 14.1105 53.3387C14.1413 53.3174 14.1745 53.2984 14.2101 53.2818C14.2291 53.2771 14.2457 53.2676 14.2647 53.2628C14.3335 53.2462 14.3951 53.2154 14.4473 53.1679C14.5042 53.13 14.5517 53.0802 14.5849 53.0185C14.6228 52.9569 14.6442 52.8904 14.6489 52.8193C14.6655 52.7481 14.6608 52.677 14.6394 52.6058C14.6205 52.5631 14.6038 52.5204 14.5849 52.4777C14.5374 52.3971 14.4734 52.3331 14.3928 52.2856C14.3501 52.2667 14.3074 52.25 14.2647 52.2311C14.1698 52.205 14.0749 52.205 13.9801 52.2311C13.9397 52.2406 13.9018 52.2524 13.8638 52.2667C13.7856 52.2975 13.7073 52.3283 13.6338 52.3686C13.6006 52.3876 13.5674 52.409 13.5365 52.4327C13.4677 52.4849 13.399 52.5347 13.342 52.594Z" fill="black"/>
<path d="M10.6073 26.0745C10.6049 26.0697 10.5954 26.0602 10.5788 26.0413C10.5883 26.0531 10.5978 26.065 10.6073 26.0745Z" fill="black"/>
<path d="M10.6073 26.0745C10.6144 26.084 10.5931 26.065 10.5812 26.046C10.5812 26.0436 10.5788 26.0436 10.5788 26.0413C10.5765 26.0389 10.5741 26.0365 10.5717 26.0318C10.5765 26.0365 10.5765 26.0365 10.5788 26.0389C10.5575 26.0081 10.5362 25.9772 10.5172 25.944C10.4982 25.9108 10.4792 25.8752 10.4626 25.8397C10.4816 25.8705 10.4342 25.759 10.4247 25.7258C10.4176 25.7021 10.4152 25.676 10.4081 25.6523C10.4081 25.6499 10.4081 25.6499 10.4081 25.6475C10.4081 25.5859 10.4128 25.5218 10.4104 25.4602C10.4223 25.4246 10.4247 25.3866 10.4342 25.3511C10.4413 25.3202 10.4508 25.2894 10.4626 25.2586C10.4697 25.2396 10.5243 25.1091 10.484 25.1969C10.6026 24.9336 10.5599 24.6229 10.2919 24.4664C10.0642 24.3335 9.67992 24.3928 9.56133 24.6585C9.27196 25.2989 9.24824 26.0081 9.67043 26.601C10.0286 27.1062 10.567 27.4454 11.1505 27.6351C11.7078 27.8154 12.2415 27.7988 12.7633 27.526C13.2875 27.2509 13.7429 26.786 14.0417 26.2784C14.3999 25.6689 14.5351 24.9004 14.1461 24.2719C13.9943 24.0276 13.6693 23.9327 13.4156 24.0798C13.1713 24.2221 13.0716 24.5636 13.2234 24.8103C13.2424 24.8411 13.259 24.8743 13.2756 24.9075C13.278 24.9218 13.2993 24.9739 13.3041 25C13.3065 25.0119 13.3088 25.0237 13.3112 25.038C13.3088 25.0902 13.3159 25.1447 13.3136 25.1993C13.3136 25.2135 13.3112 25.2277 13.3088 25.242C13.3088 25.2443 13.3065 25.2467 13.3065 25.2514C13.2922 25.3036 13.2827 25.3558 13.2661 25.408C13.2519 25.4507 13.2353 25.4934 13.2211 25.5361C13.2045 25.5645 13.1926 25.5977 13.176 25.6262C13.1238 25.7282 13.0622 25.8278 12.9957 25.9227C12.9839 25.9393 12.972 25.9559 12.9578 25.9748C12.9151 26.0247 12.8748 26.0745 12.8297 26.1219C12.7562 26.2025 12.6779 26.2784 12.5949 26.3496C12.583 26.3591 12.5119 26.416 12.4929 26.4326C12.4834 26.4397 12.4739 26.4468 12.4692 26.4492C12.4407 26.4682 12.4123 26.4872 12.3838 26.5061C12.3055 26.5559 12.2154 26.5939 12.1371 26.6437C12.1205 26.6484 12.1063 26.6556 12.0897 26.6603C12.0423 26.6769 11.9901 26.684 11.9426 26.7006C11.9403 26.7006 11.9403 26.7006 11.9403 26.7006C11.9355 26.7006 11.9332 26.7006 11.9284 26.7006C11.8928 26.6983 11.8549 26.7006 11.8193 26.6983C11.8051 26.6983 11.7909 26.6959 11.7742 26.6935C11.7268 26.6817 11.677 26.6769 11.6272 26.6651C11.5323 26.6437 11.4398 26.6152 11.3497 26.582C11.326 26.5726 11.3023 26.5631 11.2785 26.5559C11.2287 26.5299 11.1742 26.5085 11.1244 26.4824C11.0319 26.435 10.9465 26.3804 10.8587 26.3211C10.8445 26.3116 10.835 26.3045 10.8279 26.3022C10.8255 26.2998 10.8231 26.2974 10.8184 26.2927C10.7662 26.2476 10.7164 26.2049 10.6666 26.1551C10.6547 26.129 10.631 26.1029 10.6073 26.0745Z" fill="black"/>
<path d="M8.92567 22.021C8.92805 22.0305 8.93042 22.04 8.93279 22.0471C8.97311 22.1633 9.01343 22.2321 9.09407 22.3246C9.09407 22.3246 9.09407 22.3246 9.09645 22.327C9.14625 22.4005 9.20081 22.4764 9.26722 22.5333C9.30991 22.5689 9.35498 22.6021 9.39767 22.6353C9.40716 22.6424 9.41664 22.6472 9.42613 22.6543C9.43325 22.659 9.44273 22.6638 9.45222 22.6685C9.49966 22.6922 9.55184 22.7136 9.60165 22.7325C9.61825 22.7397 9.63485 22.742 9.65383 22.7468C9.70601 22.7563 9.76293 22.7658 9.81511 22.7681C9.8246 22.7681 9.83171 22.7681 9.8412 22.7681C9.98351 22.7563 10.0689 22.7349 10.197 22.6709C10.2136 22.6638 10.2278 22.6543 10.242 22.6424C10.2919 22.6068 10.344 22.5713 10.3867 22.5262C10.3986 22.5143 10.4104 22.5001 10.4223 22.4859C10.4603 22.4361 10.5029 22.3886 10.5361 22.3341C10.5788 22.2629 10.6097 22.1823 10.6381 22.1064C10.6524 22.0684 10.6619 22.0305 10.6666 21.9902C10.6785 21.9095 10.6974 21.8218 10.6879 21.7387C10.6808 21.6581 10.6737 21.5703 10.6429 21.4921C10.6215 21.4352 10.6002 21.3735 10.567 21.3213C10.5622 21.3142 10.5575 21.3071 10.5528 21.3C10.5219 21.2573 10.4911 21.2122 10.4531 21.1743C10.4104 21.1292 10.3559 21.0912 10.3061 21.058C10.2895 21.0462 10.2729 21.0367 10.2563 21.0296C10.1993 21.0035 10.1353 20.9726 10.0736 20.956C10.0618 20.9537 10.0523 20.9513 10.0404 20.9489C9.98588 20.9394 9.92659 20.93 9.87204 20.9276C9.86255 20.9276 9.85069 20.9276 9.8412 20.9276C9.78428 20.9323 9.72735 20.9394 9.6728 20.9513C9.65146 20.956 9.63011 20.9608 9.61113 20.9679C9.52575 21.0011 9.43799 21.0343 9.36446 21.0865C9.29094 21.141 9.21029 21.1956 9.151 21.2668C9.09407 21.3332 9.03241 21.4043 8.99683 21.485C8.97074 21.5419 8.9399 21.6036 8.92567 21.6652C8.91381 21.7198 8.9067 21.7767 8.90196 21.8313C8.90196 21.8407 8.89958 21.8502 8.90196 21.8597C8.90196 21.8645 8.90195 21.8692 8.90433 21.8739C8.91144 21.919 8.91619 21.9759 8.92567 22.021Z" fill="black"/>
<path d="M12.1063 22.2297C12.1253 22.27 12.1466 22.3104 12.1751 22.3459C12.2818 22.493 12.3957 22.6163 12.5546 22.7112C12.6329 22.7586 12.7182 22.7918 12.8036 22.8203C12.9293 22.863 13.1025 22.8322 13.214 22.7658C13.2519 22.7444 13.2851 22.7136 13.3183 22.6804C13.3752 22.659 13.4345 22.6353 13.4843 22.6045C13.648 22.5025 13.7808 22.3602 13.8781 22.1941C13.9801 22.021 14.0322 21.836 14.0465 21.6368C14.0488 21.613 14.0488 21.587 14.0465 21.5632C14.0394 21.4968 14.0346 21.4233 14.0156 21.3569C13.9753 21.2217 13.9113 21.1126 13.8164 21.0106C13.7713 20.9608 13.7144 20.9205 13.6599 20.8849C13.6006 20.8469 13.5318 20.8208 13.4677 20.7971C13.4393 20.7853 13.4084 20.7782 13.38 20.7734C13.3017 20.7592 13.2187 20.7473 13.1381 20.7449C13.0029 20.7426 12.8629 20.7616 12.7301 20.7924C12.5546 20.8303 12.3886 20.9252 12.2605 21.0485C12.2462 21.0628 12.232 21.077 12.2202 21.0936C12.1798 21.1434 12.1371 21.1909 12.1063 21.2478C12.066 21.3189 12.0304 21.3996 12.0138 21.4802C11.9735 21.6534 11.9759 21.8194 12.0162 21.9925C12.0328 22.0732 12.0707 22.1538 12.1063 22.2297Z" fill="black"/>
<path d="M3.33288 25.4436L3.34474 25.4815C4.18674 27.9198 5.91581 32.9125 10.0642 33.9015C10.3322 35.3531 10.3701 38.5456 10.3606 40.0968C9.87678 40.379 9.53524 40.6731 9.46645 40.7324L9.4285 40.768C8.48214 41.7594 3.73609 46.7758 3.35897 48.0045C2.91307 49.4537 5.83517 57.0625 6.56332 57.8428L7.43379 57.0364C7.23218 56.7969 6.48505 55.1532 5.65728 52.8051C4.6872 50.049 4.43104 48.6283 4.49271 48.3531C4.67297 47.7696 7.09224 44.9827 9.55658 42.3595C9.9005 43.8111 9.78665 44.1526 9.78902 44.1526C9.72261 44.2593 9.59453 44.4301 9.45934 44.6104C8.79522 45.5022 8.04098 46.5126 8.77625 47.1269C8.92567 47.2502 9.11305 47.3024 9.32651 47.3024C10.4911 47.3024 12.3957 45.7346 12.5214 45.5923C12.5878 45.5164 12.6898 45.3907 12.8155 45.2318C13.9445 43.8158 14.4022 43.4743 14.5825 43.4387C15.6546 43.3438 16.4041 43.1517 16.8666 42.8505C18.0999 43.5027 19.5325 44.3186 20.5073 45.0776C20.7611 46.745 20.116 55.9145 19.6559 56.7731C19.6559 56.7731 19.6677 56.7494 19.6962 56.7186L20.5643 57.5274C20.7256 57.3542 21.1572 56.8941 21.5438 51.1566C21.5818 50.5874 21.9115 45.5615 21.6055 44.5677L21.5533 44.3969L21.4134 44.2831C20.5477 43.5786 19.3048 42.8291 18.1355 42.1863C19.2953 40.9198 20.9793 38.344 21.143 37.8198C21.2236 37.5684 21.1643 37.3122 20.9888 37.1343C20.6686 36.8094 20.1966 36.9541 19.9974 37.0134C19.6725 37.113 18.3964 37.6727 17.4216 38.2823C17.1085 37.1723 16.2096 35.4503 15.5004 35.4171C15.1683 35.4005 14.8149 35.6425 14.7889 36.1334C14.7628 36.6576 14.2267 38.2444 13.7239 39.3069C13.527 37.9621 13.2116 35.6069 13.1452 34.0059C19.4234 33.2754 20.5548 24.7225 20.5998 24.3383C21.0007 20.624 20.2583 15.7854 17.6801 13.9425L17.5236 13.831H17.3315C16.5938 13.8334 16.3448 14.5521 16.1787 15.2281C16.072 14.7442 15.8396 14.239 15.2016 14.303L15.0545 14.3173L14.9312 14.3979C14.3904 14.7584 14.0868 15.3277 13.8164 15.8305C13.7286 16.0179 13.6243 16.21 13.5223 16.3642C13.399 16.2005 13.2827 15.9989 13.1689 15.802C12.8938 15.33 12.6115 14.8414 12.1277 14.6019L11.8383 14.4596L11.5608 14.6232C11.0627 14.9173 10.8113 15.5008 10.5883 16.0179C10.5622 16.0772 10.5314 16.1483 10.5006 16.2219C10.465 16.1317 10.4318 16.044 10.4057 15.9728C10.1993 15.4226 9.96691 14.7964 9.40241 14.5805L9.15574 14.4857L8.92093 14.6043C8.34694 14.896 8.15008 15.5079 7.97931 16.0487C7.94848 16.146 7.91764 16.2432 7.88444 16.3357C7.86783 16.2551 7.85123 16.1721 7.837 16.0985C7.73264 15.5625 7.61405 14.9577 7.1041 14.6327L6.81474 14.4501L6.51114 14.609C5.86838 14.9434 5.60273 15.6242 5.38926 16.1721C5.36317 16.2385 5.33708 16.3025 5.31337 16.3665C5.31337 16.3642 5.31099 16.3618 5.31099 16.3594C5.18766 15.9301 5.03586 15.3941 4.58047 15.0359L4.40732 14.9007L4.18674 14.9102C3.93059 14.9221 3.56058 15.0312 3.25224 15.4842C2.56441 16.4994 2.53595 18.9186 2.58338 20.273C2.64979 22.2914 2.94627 24.3217 3.33288 25.4436ZM14.4781 42.2599C13.75 42.3239 12.9768 43.128 11.8881 44.4941C11.779 44.6317 11.6912 44.7432 11.6319 44.8096C11.4446 45.0231 10.6358 45.5544 10.0096 45.8746C10.1519 45.6682 10.3061 45.4595 10.4104 45.3219C10.567 45.1132 10.7022 44.9329 10.7947 44.7835C11.0224 44.4182 11.1647 43.7209 10.5338 41.4013C10.9299 41.1143 11.5679 40.7372 12.0992 40.7134C12.7633 40.6826 13.3871 41.0384 13.9919 41.3799C14.1793 41.4867 14.3596 41.5886 14.5327 41.674C14.611 41.7144 14.7177 41.7665 14.8505 41.8306C15.0118 41.9088 15.2134 42.0085 15.4411 42.1223C15.1921 42.1769 14.8742 42.2243 14.4781 42.2599ZM17.405 39.6485C17.3979 39.6722 17.3931 39.6935 17.386 39.7101C17.3908 39.6888 17.3979 39.6675 17.405 39.6485ZM17.054 41.6124C16.9045 41.5341 16.7575 41.4582 16.6175 41.387C16.8524 40.9743 17.1725 40.3553 17.367 39.7671C17.6279 39.5085 18.6004 38.9464 19.4044 38.5503C18.6834 39.6437 17.5497 41.1048 17.054 41.6124ZM15.7423 37.317C16.0554 37.8933 16.3638 38.6167 16.3519 38.9203C16.3305 39.3686 15.9155 40.2296 15.5573 40.8557C15.4957 40.8249 15.4316 40.7941 15.3771 40.768C15.249 40.7039 15.1423 40.6518 15.0664 40.6138C14.9098 40.5356 14.7462 40.443 14.5778 40.3458C14.5659 40.3387 14.5517 40.3316 14.5398 40.3245C14.9667 39.5441 15.4577 38.2965 15.7423 37.317ZM4.08475 16.3997C4.11559 16.4899 4.14168 16.5871 4.17014 16.682C4.30059 17.1421 4.46425 17.7137 5.00977 17.996L5.32285 18.1573L5.61459 17.9604C6.08896 17.6378 6.30479 17.0852 6.49454 16.599C6.54435 16.4685 6.59653 16.3381 6.65108 16.2171C6.6582 16.2574 6.66531 16.293 6.67243 16.3262C6.78153 16.886 6.9191 17.5809 7.51206 17.9438L7.80379 18.1217L8.10265 17.9604C8.7217 17.6236 8.93753 16.9524 9.1083 16.4092C9.13439 16.3238 9.16523 16.2313 9.19843 16.1388C9.23401 16.2266 9.26722 16.3144 9.29331 16.3879C9.49254 16.9192 9.69652 17.4671 10.1661 17.747L10.4199 17.8987L10.6927 17.7873C11.205 17.5809 11.4469 17.0259 11.677 16.4875C11.7434 16.3357 11.8193 16.1554 11.9023 15.9989C11.983 16.1222 12.066 16.2646 12.1443 16.3974C12.4099 16.8551 12.7135 17.3746 13.2068 17.6758L13.4772 17.8418L13.7642 17.7066C14.3026 17.4552 14.5896 16.9168 14.8695 16.3974C14.943 16.2598 15.0189 16.1199 15.0972 15.987C15.1612 16.5041 15.249 17.071 15.6261 17.4315L15.8989 17.6924L16.2523 17.5548C16.9259 17.2916 17.1133 16.4733 17.2817 15.7499C17.3149 15.6099 17.3576 15.4202 17.405 15.2589C19.1815 16.9974 19.7768 20.9655 19.4258 24.2078C19.4163 24.2932 18.3039 32.6587 12.5214 32.8698L11.9498 32.8911V33.4627C11.9498 35.1372 12.3411 38.0333 12.5641 39.5536C12.398 39.5323 12.2296 39.518 12.0541 39.5251C11.8857 39.5323 11.7173 39.5584 11.5513 39.5987C11.5513 37.9858 11.5062 34.568 11.1339 33.2374L11.0319 32.8745L10.6619 32.8105C6.9191 32.1725 5.32523 27.5664 4.47136 25.0902L4.45951 25.0522C3.62936 22.6733 3.56058 17.7612 4.08475 16.3997Z" fill="black"/>
<path d="M27.815 5.90674C28.0593 5.41103 28.0616 4.77775 27.8221 4.21562C27.4948 3.44478 26.7097 3.28824 26.0598 3.30009C26.0835 2.80201 25.9578 2.22565 25.3032 1.84379C24.6747 1.47852 23.9702 1.68487 23.3939 1.97187C23.3156 1.405 23.0808 0.785948 22.3764 0.5037C21.6055 0.195361 20.8821 0.622291 20.3769 0.99467C20.078 0.446776 19.5302 -0.120093 18.5126 0.0222169C17.5141 0.162155 16.8642 0.899796 16.7693 1.92917C16.5843 1.97898 16.4041 2.06674 16.2404 2.1877C15.7803 2.52925 15.517 3.09849 15.517 3.75074C15.5194 4.88211 16.3519 5.37308 17.0279 5.60552C17.0065 5.79052 17.0089 5.98738 17.0374 6.19136C17.0777 6.49259 17.1702 6.76298 17.303 6.99067C14.4568 10.3705 14.6513 10.807 14.796 11.1272C14.8908 11.3382 15.0355 11.6584 18.0999 12.778C19.5207 13.2974 21.3422 13.8809 22.1985 13.9662C22.2483 13.971 22.3242 13.9781 22.4119 13.9781C22.6325 13.9781 22.9337 13.9307 23.1187 13.6698C23.2184 13.5298 23.5054 13.129 23.522 9.22968C23.8184 9.40757 24.1552 9.53802 24.4992 9.53802C24.5632 9.53802 24.6272 9.53328 24.6913 9.52379C25.372 9.42418 25.6353 9.03282 25.7349 8.64147C26.1618 8.78141 26.6599 8.79564 27.1105 8.40191C27.7865 7.80896 27.6015 7.10926 27.4545 6.54714C27.4426 6.50207 27.4307 6.45938 27.4189 6.41432C27.5802 6.28149 27.713 6.10835 27.815 5.90674ZM22.1771 12.7708C20.9793 12.5977 17.1393 11.222 16.0293 10.6433C16.3638 10.0575 17.3362 8.79564 18.2707 7.68088C18.6526 7.74966 19.0937 7.6785 19.5966 7.45792C19.829 8.02954 20.237 8.69602 20.9746 8.86917C21.5083 8.99487 21.9447 8.92846 22.3313 8.80275C22.3289 10.4251 22.2767 12.0901 22.1771 12.7708ZM26.75 5.38257C26.7097 5.46558 26.6552 5.51539 26.5935 5.53199L26.0598 5.66956L26.1571 6.21034C26.1998 6.45226 26.2567 6.66336 26.3065 6.84836C26.4512 7.39863 26.4275 7.41997 26.3302 7.50536C26.2282 7.59312 25.9602 7.48638 25.5238 7.18516L24.6225 6.56137L24.594 7.65716C24.5917 7.7544 24.5964 7.85876 24.5988 7.9655C24.6035 8.0746 24.6106 8.25012 24.594 8.32602C24.5798 8.33076 24.5561 8.33788 24.5181 8.34262C24.2809 8.37345 23.7188 7.94652 23.382 7.54094L23.0998 7.19939L22.6918 7.37254C22.6088 7.40811 22.5282 7.44369 22.4475 7.47927C22.004 7.67613 21.6838 7.81844 21.2474 7.71408C20.9746 7.65004 20.7256 7.22311 20.5121 6.44752L20.301 5.69091L19.6298 6.1036C18.8874 6.559 18.5055 6.55663 18.4083 6.49259C18.2067 6.35976 18.1474 5.74309 18.2375 5.58654L18.8969 4.83467L17.9221 4.61884C16.8998 4.39114 16.7053 4.13735 16.7053 3.75074C16.7053 3.47561 16.7907 3.25977 16.9472 3.14118C17.0421 3.07003 17.1441 3.0558 17.1963 3.07003L18.0644 3.3333L17.9576 2.432C17.9078 2.01456 17.9363 1.30064 18.6739 1.19628C19.006 1.14884 19.2645 1.18679 19.542 2.09757L19.7579 2.79727L20.3982 2.44149C20.5453 2.35848 20.6924 2.247 20.8608 2.11655C21.1786 1.86988 21.6624 1.4975 21.9352 1.6066C22.1937 1.71096 22.2435 2.06437 22.2483 2.72374C22.2483 2.81861 22.2507 2.91111 22.253 2.99413L22.2886 3.97607L23.1401 3.48747C23.2089 3.44952 23.2848 3.40208 23.3678 3.35227C23.7117 3.14355 24.428 2.70951 24.7079 2.87316C24.8976 2.98464 24.9356 3.12221 24.7933 3.73414L24.5893 4.63307L25.5048 4.53345C25.8084 4.49787 26.6125 4.40774 26.7311 4.68762C26.8544 4.97461 26.8236 5.23551 26.75 5.38257Z" fill="black"/>
</svg>
