<svg width="102" height="98" viewBox="0 0 102 98" fill="none" xmlns="http://www.w3.org/2000/svg">
<g clip-path="url(#clip0)">
<path d="M78.5805 51.3233C78.6817 50.8485 78.8841 50.3426 79.102 49.8094C79.4133 49.0311 79.7402 48.2255 79.8064 47.3693L77.8683 47.2176C77.8255 47.7741 77.5687 48.4084 77.3002 49.0817C77.0628 49.6693 76.8215 50.2764 76.6814 50.9147C76.5335 51.6074 76.4167 52.3118 76.3039 52.9889C76.156 53.8762 76.0159 54.7129 75.8135 55.538C75.5839 56.4603 75.3115 57.4021 75.0469 58.3088C74.5643 59.9667 74.0623 61.6829 73.7899 63.4458C73.6342 64.4499 73.5369 65.4384 73.4435 66.3918C73.2723 68.1314 73.1088 69.7776 72.6146 71.4432L72.4122 72.1126C71.7701 74.253 71.1591 76.2727 71.1474 78.6895L73.0933 78.7011C73.1049 76.5646 73.6459 74.7628 74.2763 72.673L74.4787 71.9958C75.0274 70.1512 75.2064 68.3337 75.3777 66.5786C75.4672 65.6524 75.5645 64.6911 75.7124 63.7416C75.9692 62.1032 76.4518 60.4492 76.9149 58.8498C77.1873 57.9197 77.4675 56.9584 77.701 56.0011C77.9228 55.1021 78.0746 54.1875 78.2225 53.308C78.3314 52.6542 78.4443 51.9732 78.5805 51.3233Z" fill="black" stroke="black" stroke-width="0.25"/>
<path d="M86.0914 38.8194H84.1456C84.1456 41.4696 83.5696 44.003 82.9625 46.6805C82.659 48.0154 82.3476 49.393 82.1141 50.7823C81.7405 52.9967 81.4837 55.2539 81.2385 57.4332C81.0556 59.0327 80.8688 60.6827 80.6392 62.29C80.4991 63.259 80.3901 64.2553 80.289 65.2165C80.1138 66.8199 79.9348 68.4777 79.6079 70.0266C79.46 70.7232 79.2888 71.4276 79.1059 72.1748C78.7323 73.7081 78.3509 75.292 78.168 76.8331L80.0983 77.0627C80.2695 75.6345 80.6392 74.109 80.9972 72.634C81.1724 71.9063 81.3553 71.1552 81.5109 70.4313C81.8612 68.7891 82.0441 67.0806 82.2231 65.4267C82.3243 64.481 82.4333 63.5042 82.5656 62.5663C82.7991 60.9279 82.9898 59.2623 83.1727 57.6511C83.4179 55.4951 83.6708 53.2652 84.0366 51.1014C84.2623 49.7666 84.5698 48.4123 84.8656 47.1047C85.4649 44.4428 86.0914 41.6875 86.0914 38.8194Z" fill="black" stroke="black" stroke-width="0.25"/>
<path d="M86.7841 58.3205L86.5856 59.1494C85.4804 63.761 84.4374 68.1158 84.4374 73.0037H86.3833C86.3833 68.3454 87.4029 64.0996 88.477 59.6047L88.6755 58.7719C89.6328 54.7713 89.7418 50.218 89.7418 47.1436H87.7959C87.7959 50.1208 87.6948 54.5183 86.7841 58.3205Z" fill="black" stroke="black" stroke-width="0.25"/>
<path d="M43.6723 17.4619C44.3027 17.4891 44.5557 20.2678 46.3614 19.9565C47.9765 19.6763 49.1673 17.746 49.5876 16.3878C49.79 16.4306 49.9534 16.4734 50.039 16.5123C50.039 16.5123 49.9962 16.4929 49.9379 16.4423L51.2143 14.9712C50.3893 14.2552 46.988 14.1345 46.6299 14.1618C46.2213 14.1968 45.6142 14.3758 44.9098 14.5782C44.3767 14.7338 43.719 14.9245 43.4271 14.9596C43.108 14.9946 42.3063 15.0024 41.6019 15.0101C40.7769 15.0179 39.9947 15.0257 39.5899 15.0724C38.9167 15.1502 36.6361 15.8663 35.994 16.8042L37.5974 17.9017C37.5896 17.9133 37.5818 17.925 37.574 17.9328C37.5974 17.9094 37.6285 17.8822 37.6674 17.855C37.8426 18.9057 38.3874 20.3417 40.0842 20.2522C42.7422 20.116 43.0418 17.4308 43.6723 17.4619Z" fill="black" stroke="black" stroke-width="0.25"/>
<path d="M52.8916 61.2548C52.4246 61.1886 51.9693 61.3326 51.6074 61.6595C51.4789 61.7763 51.3855 61.9125 51.3155 62.0643C51.2454 61.9787 51.1715 61.9047 51.0898 61.8424C50.4437 61.3443 49.8833 61.356 49.5253 61.4572C48.7314 61.6751 48.3422 62.4418 48.1165 63.0022C47.7079 64.0179 47.7429 65.1465 47.7741 66.1388C47.7819 66.3879 47.7896 66.6292 47.7896 66.8627H49.7355C49.7355 66.6097 49.7277 66.3451 49.7199 66.0766C49.6927 65.236 49.6654 64.3642 49.9223 63.726C49.9456 63.6637 49.969 63.6093 49.9923 63.5626C50.0118 63.5898 50.0273 63.617 50.0468 63.6443C50.5099 64.3565 51.1442 65.3294 52.1133 64.9052C52.6425 64.6717 52.8177 64.1619 52.9305 63.617C53.3936 64.3876 53.7166 65.0959 53.8451 65.629L55.7364 65.1737C55.5029 64.2008 54.9347 63.1617 54.5028 62.4573C54.3471 62.2044 53.7789 61.3832 52.8916 61.2548Z" fill="black" stroke="black" stroke-width="0.25"/>
<path d="M97.1671 45.1783C97.7469 41.8354 98.1634 39.3097 98.3424 38.0799C99.1402 32.616 99.7395 3.9656 94.9294 0.447538C94.2211 -0.0700531 93.3883 -0.140103 92.5827 0.249063C85.8034 3.5492 73.6108 35.8189 73.4941 36.1419C73.0621 37.3094 72.3772 39.551 71.5444 42.4814C66.3412 42.1973 59.7409 43.1741 56.651 44.3222C56.0555 43.3648 55.5652 42.5554 55.3511 42.0689C55.2227 41.345 55.9466 37.8425 56.5809 34.7526C58.0442 27.6503 60.0484 17.9211 58.8965 12.679C56.9895 3.98506 51.4128 3.25732 46.3303 3.25732C40.5161 3.25732 32.9118 9.76808 32.5382 15.0646C32.4331 16.5707 32.8885 19.8514 33.9275 25.074C32.5499 25.1402 30.9815 25.2297 29.4171 25.3503C20.4468 26.0391 19.7152 27.0626 19.7152 28.2301C19.7152 29.3782 20.4702 30.4172 29.744 31.5069C31.756 31.7443 33.7796 31.935 35.4141 32.0712C36.2392 35.7878 37.0759 39.3331 37.6402 41.7225C37.8737 42.7188 38.0799 43.5866 38.2084 44.1548C36.6789 44.9215 32.3709 46.7661 26.9731 46.3264C21.7466 45.8983 17.8861 44.8164 15.5822 44.1704C14.7611 43.9408 14.1657 43.7734 13.7531 43.7073C10.5892 43.2169 5.64291 51.6346 4.20299 54.2304C4.14851 54.3315 4.07068 54.4638 3.98117 54.6234C2.22214 57.7134 -2.45175 65.9209 1.61504 68.4661C2.24549 68.863 2.85258 69.0303 3.43244 69.0303C5.63513 69.0303 7.43697 66.5825 8.72122 64.839C9.09092 64.337 9.56571 63.6949 9.88482 63.3641C10.021 63.6443 10.1806 64.0918 10.2973 64.4148C10.8461 65.9715 11.6828 68.3143 14.224 68.2209C16.4384 68.1353 17.6604 66.8004 18.5516 65.8275C18.8045 65.5512 19.2715 65.0414 19.4544 64.9986C19.5556 65.0998 19.7152 65.4228 19.8241 65.6368C20.2444 66.4774 20.9527 67.8862 22.8635 67.7617C24.607 67.6527 25.9769 65.8898 27.1872 64.337C27.5063 63.9284 27.946 63.3641 28.2574 63.0489C28.4014 63.3135 28.5687 63.691 28.6932 63.9751C29.3198 65.3955 30.2694 67.5476 32.3748 67.5476C34.1416 67.5476 35.8344 65.8664 37.0019 64.3448C37.5118 65.8859 38.5275 67.6099 39.874 69.1432C40.9831 70.4041 42.6215 71.8985 44.8942 73.0971C44.4739 75.436 43.4193 82.0402 42.964 84.8889C41.7498 84.9512 40.3682 85.8073 38.9517 87.4107C38.4535 87.975 36.0135 90.8392 36.819 92.0885C37.3327 92.8863 38.4419 92.8435 39.5121 92.8006C39.5432 92.8006 39.5743 92.7967 39.6055 92.7967C39.5704 92.8551 39.5354 92.9135 39.5004 92.968C38.9089 93.9409 38.3991 94.7854 38.5975 95.5637C38.6831 95.8984 38.8972 96.1786 39.1968 96.3498C39.4265 96.4783 39.7144 96.5444 40.0647 96.5444C40.9598 96.5444 42.2479 96.1202 43.9174 95.2757L44.4856 94.9878L44.4467 94.3495C44.4078 93.6802 44.3961 92.9874 44.4039 92.3881C44.688 92.6138 45.0421 92.7462 45.4897 92.6566C46.4314 92.4698 46.5832 91.2868 46.6338 90.9015C46.805 89.555 46.6027 86.8892 44.8281 85.531C45.443 81.6588 46.3108 76.265 46.7155 73.9338C47.6495 74.2997 48.6614 74.6149 49.7666 74.8484C50.3581 74.9729 50.9419 75.0546 51.5179 75.0975L52.3351 83.0287C50.8329 84.4608 50.5955 88.6366 50.794 90.4617C50.9808 92.1974 51.584 93.0731 52.5842 93.0731C53.2886 93.0731 53.7011 92.7773 53.9229 92.5321C54.1564 92.2714 54.2732 91.9717 54.3237 91.6682C54.6779 91.9717 55.106 92.1819 55.6391 92.0651C56.6159 91.855 56.7016 90.9482 56.6704 90.345C57.1686 90.489 57.585 90.3178 57.8885 90.0998C58.7758 89.4577 58.2232 88.224 57.9858 87.6987C57.9663 87.652 56.0983 83.842 54.2654 82.803L53.4715 75.0975C55.9038 74.9107 58.1259 73.9922 59.9355 72.385C62.8387 69.8048 64.3837 65.7691 64.1113 61.5233C64.2981 61.0135 64.5121 60.5387 64.6873 60.2508C65.092 60.5893 65.7497 61.3171 66.3529 62.0993C65.8431 64.1502 65.3372 66.205 64.8507 68.2248C58.2894 95.5209 59.5308 96.451 60.2702 97.0075C60.5777 97.2371 60.9123 97.3461 61.2743 97.3461C63.0022 97.3461 65.3877 94.8905 68.6996 91.4736C70.9956 89.1075 74.8328 85.1418 76.0276 85.352C77.2379 85.5621 78.7128 88.7338 79.7869 91.0455C81.2891 94.2834 82.5889 97.0776 84.6087 97.1009C85.7801 97.1204 87.1071 97.1321 92.5516 69.8632C93.1587 66.816 93.758 63.7338 94.3223 60.7411C96.669 59.5775 101.526 56.1061 101.853 52.9344C102.156 50.1052 98.4825 46.4081 97.1671 45.1783ZM44.077 89.2281C43.7306 89.1736 43.3804 89.2865 43.1119 89.5316C42.8706 89.7535 42.3296 90.2594 42.4775 93.8125C41.9171 94.0693 41.3489 94.2912 40.8936 94.4351C40.9909 94.2678 41.0882 94.1044 41.166 93.9798C41.7809 92.9719 42.2635 92.1741 41.7615 91.4463C41.4073 90.9365 40.8158 90.8392 40.1036 90.8392C39.8896 90.8392 39.6677 90.847 39.4381 90.8548C39.2708 90.8626 39.0567 90.8704 38.8505 90.8704C39.4576 89.7574 40.9676 87.7493 42.3841 87.0371C42.6721 86.8931 43.0729 86.7452 43.3531 86.8814C44.2871 87.3367 44.6452 88.5354 44.7308 89.5511C44.5518 89.3876 44.3416 89.267 44.077 89.2281ZM22.3732 28.2496C24.8716 27.5491 31.8416 27.0082 38.0332 26.8681C38.3212 27.0782 38.8583 27.6075 38.8583 28.6271C38.8583 29.5027 38.6793 30.0592 38.5392 30.3589C32.0712 29.9269 24.895 29.0668 22.3732 28.2496ZM37.4456 32.2308C38.3757 32.3008 38.9478 32.3358 38.9633 32.3397L39.3759 32.367L39.6794 32.0907C39.8662 31.9194 40.8002 30.9543 40.8002 28.631C40.8002 26.0391 38.796 25.0545 38.7104 25.0117L38.5041 24.9144L38.2745 24.9183C38.2551 24.9183 37.3211 24.9378 35.8967 24.9923C34.6125 18.5944 34.414 16.1348 34.4801 15.2047C34.807 10.5698 41.9288 5.20704 46.3303 5.20704C51.2182 5.20704 55.394 5.80247 56.9934 13.0993C58.0559 17.9406 56.0983 27.4323 54.6701 34.3634C53.5065 40.0219 53.1601 41.9249 53.5415 42.8083C53.8568 43.5361 54.5495 44.6491 55.4329 46.0579C56.8806 48.3773 58.9354 51.6657 60.3986 55.0787C59.6904 55.176 58.8809 55.3045 58.0403 55.4329C56.542 55.6664 54.997 55.9115 54.1875 55.9544C51.9615 56.075 49.5915 56.2151 47.202 56.4214C45.2951 56.5848 43.3026 56.865 41.2828 57.2503C41.0532 57.2931 40.6874 57.3592 40.2671 57.4332C39.8662 57.5032 39.4265 57.5811 39.0062 57.6589L39.0879 56.8494C39.1968 55.8648 39.3175 54.8336 39.4381 53.8062C40.0803 48.2644 40.3682 45.5831 40.2943 44.6569L40.4772 42.8239L39.9752 43.1313C39.8662 42.6565 39.7222 42.0494 39.5393 41.2789C39.0023 39.01 38.2239 35.7177 37.4456 32.2308ZM55.6975 59.0521C55.7442 58.8264 56.1801 57.9663 56.8339 57.585C57.3203 57.511 57.8262 57.4332 58.3477 57.3515C59.3362 57.1958 60.3442 57.0401 61.1342 56.9389C61.4183 57.7406 61.6634 58.5462 61.8424 59.3362C61.7607 59.3518 61.6829 59.3712 61.6167 59.3946C60.8968 59.6398 60.5738 60.134 60.3558 60.6477C60.3442 60.2936 60.2897 59.92 60.1535 59.5113C59.9628 58.9354 59.6437 58.5501 59.2039 58.3672C58.5423 58.087 57.9002 58.3983 57.5889 58.5501C57.4293 58.6279 57.2736 58.7097 57.118 58.7914C56.5031 59.1183 56.1334 59.2973 55.7714 59.1922C55.7364 59.1805 55.7092 59.1728 55.6858 59.165C55.6819 59.1377 55.6858 59.0988 55.6975 59.0521ZM32.3786 65.6018C31.6042 65.6018 31.0594 64.5082 30.4756 63.189C29.958 62.0176 29.4716 60.9123 28.3624 60.9123C27.3895 60.9123 26.6657 61.8463 25.6577 63.1384C24.8444 64.1813 23.6146 65.7614 22.7468 65.8158C22.1942 65.8509 22.0074 65.6368 21.5676 64.7612C21.2251 64.0763 20.7075 63.045 19.4778 63.045C18.4621 63.045 17.781 63.7922 17.1194 64.5082C16.3528 65.3488 15.555 66.2167 14.154 66.2712C13.2005 66.3023 12.7647 65.524 12.1381 63.7571C11.71 62.5507 11.2703 61.3054 10.0288 61.2431C8.98974 61.2003 8.22308 62.2355 7.16066 63.6793C5.46 65.9871 4.05122 67.6838 2.65411 66.8082C1.90691 66.3412 0.704386 64.3098 5.67793 55.5769C5.77523 55.4095 5.85306 55.2694 5.91143 55.1643C6.47183 54.1564 7.94677 51.6774 9.52679 49.5098C12.3015 45.7037 13.3756 45.6181 13.4535 45.6181C13.4574 45.6181 13.4574 45.6181 13.4574 45.6181C13.757 45.6648 14.333 45.8282 15.0646 46.0345C17.2829 46.6572 21.4119 47.8169 26.8252 48.2566C31.8883 48.6692 36.0135 47.2798 38.1811 46.3225L37.1654 56.612C36.9514 58.5151 36.7762 60.1924 36.6906 61.3326C35.6165 63.1695 33.6473 65.6018 32.3786 65.6018ZM38.582 62.3172C38.5859 62.1538 38.5936 61.9514 38.6092 61.714L38.8116 59.6709C39.3759 59.5619 40.053 59.4413 40.6095 59.344C40.9442 59.2856 41.2439 59.2311 41.4735 59.1883C40.8275 61.3015 40.8625 62.0215 41.1621 62.5079C41.9444 63.7766 43.4427 63.0022 44.0069 62.7103C44.1198 62.6519 44.291 62.5624 44.3377 62.5468C44.4428 62.5235 44.6335 62.4846 44.7619 62.4768C44.8281 62.683 44.8514 63.0411 44.7775 63.2512C44.7503 63.3291 44.723 63.4108 44.3922 63.4769C43.6995 63.6132 42.0611 64.5005 42.1117 65.882C42.1428 66.7265 42.7422 67.2596 43.2286 67.6877C43.357 67.8006 43.5516 67.9718 43.6606 68.0925C43.4427 68.217 43.0068 68.431 42.1662 68.719C39.6911 66.3101 38.5625 63.5976 38.582 62.3172ZM55.9466 87.9244C55.752 87.9477 55.5574 88.0139 55.3667 88.1306C54.9386 88.3875 54.7596 88.7728 54.6973 89.1619C54.4016 88.8778 54.0319 88.6249 53.6116 88.6249C53.3975 88.6249 53.1679 88.691 52.9305 88.8506C52.8255 88.9206 52.736 89.0024 52.662 89.088C52.6893 87.3912 53.0356 85.2897 53.5143 84.6048C54.1759 85.1185 55.3006 86.7335 55.9466 87.9244ZM58.6552 70.9334C57.8613 71.6378 56.7638 72.3655 55.3434 72.8014C55.2655 72.3889 55.2344 71.8324 55.3006 71.5599C55.429 71.4938 55.7014 71.4159 55.8726 71.3653C56.4486 71.198 57.1686 70.9879 57.4993 70.3146C57.6317 70.0422 57.7445 69.5985 57.5188 69.0148C57.4293 68.7891 57.2931 68.6101 57.1452 68.4738C57.2814 68.4038 57.4059 68.3454 57.476 68.3104C57.5811 68.2598 57.6706 68.217 57.7367 68.182C57.7523 68.1742 57.7718 68.1664 57.7873 68.1586C57.7912 68.2715 57.7834 68.4194 57.7795 68.5205C57.7679 68.7346 57.7562 68.9798 57.7834 69.2327C57.8262 69.6452 58.0247 69.9955 58.3399 70.2173C58.5929 70.3963 58.8692 70.4586 59.1416 70.4664C58.9821 70.6337 58.8186 70.7855 58.6552 70.9334ZM60.745 68.3065C60.3636 68.2831 59.9861 68.361 59.7293 68.4194C59.7448 67.9835 59.7215 67.4387 59.3985 66.9405C58.9704 66.2828 58.0714 65.8119 56.8339 66.4619C56.7872 66.4852 56.721 66.5163 56.6393 66.5553C55.8493 66.9289 54.7713 67.4426 54.7402 68.4233C54.7246 68.9408 54.9931 69.2872 55.2655 69.5129C54.7012 69.6764 54.0163 69.8943 53.6388 70.517C53.308 71.0618 53.2224 72.1865 53.4248 73.1633C52.7943 73.2178 52.1211 73.21 51.3933 73.1322C51.4789 71.8285 51.44 69.9721 50.7473 68.5283L48.9922 69.3689C49.4202 70.2601 49.5214 71.5716 49.4631 72.778C47.2292 72.2137 45.3651 71.2681 43.8513 70.155C44.9915 69.6647 45.5091 69.2016 45.6337 68.6139C45.8827 67.4464 45.0188 66.6837 44.5012 66.2283C44.3689 66.1116 44.1782 65.9443 44.0848 65.8314C44.2288 65.668 44.5829 65.4383 44.758 65.3878C45.7037 65.201 46.3264 64.695 46.6066 63.8895C46.879 63.0956 46.7778 62.0331 46.3653 61.3599C45.6959 60.2702 44.4117 60.5387 43.9097 60.6477C43.6411 60.7022 43.3921 60.8345 43.1002 60.9824C43.0652 61.0018 43.0224 61.0213 42.9757 61.0447C43.0691 60.6127 43.2559 59.9161 43.6256 58.8147C44.8981 58.6163 46.1474 58.4606 47.3616 58.3555C49.6421 58.157 51.9109 58.0247 54.0513 57.908C53.9112 58.2037 53.81 58.48 53.7711 58.7019C53.5571 59.8733 54.0786 60.7372 55.211 61.0641C56.3513 61.3949 57.2697 60.9084 58.0131 60.5154C58.1259 60.457 58.2349 60.3986 58.3477 60.3403C58.4333 60.7333 58.3905 61.0991 58.3244 61.6206L58.2894 61.932C58.2465 62.3172 58.231 62.8854 58.6085 63.3368C58.8653 63.6482 59.2389 63.8272 59.7176 63.8622C59.7721 63.8661 59.8227 63.87 59.8733 63.87C61.2159 63.87 61.7413 62.4495 61.9709 61.8308L61.9981 61.7607C62.0137 61.7179 62.0331 61.6712 62.0487 61.6245L62.1732 61.6595C62.3367 64.0646 61.8191 66.3801 60.745 68.3065ZM64.59 58.1531C64.2553 58.1531 63.9362 58.2816 63.6365 58.5345C62.5118 54.0046 59.7487 49.3152 57.6978 46.0112C60.4376 45.0966 66.1349 44.2054 70.9995 44.4039C69.797 48.7197 68.3649 54.1486 66.9483 59.7565C65.5201 58.157 64.8468 58.1531 64.59 58.1531ZM84.383 95.0695C83.554 94.5208 82.2815 91.781 81.5654 90.236C80.036 86.9398 78.5883 83.8304 76.3739 83.4451C74.323 83.087 71.5833 85.7334 67.318 90.1271C65.5745 91.925 62.7609 94.8243 61.5895 95.3224C61.4572 93.3066 62.7764 85.1263 67.0145 67.6216C70.1823 54.5339 73.9844 40.4305 75.3193 36.819C78.9969 26.8836 88.6599 4.32364 93.435 2.00031C93.5128 1.9614 93.5673 1.94583 93.614 1.94583C93.6763 1.94583 93.7191 1.97307 93.7813 2.01977C94.8982 2.83702 96.2681 7.55761 96.7624 18.3531C97.1282 26.3855 96.8674 34.702 96.416 37.8036C94.9878 47.6028 87.0137 90.7264 84.383 95.0695ZM94.8048 58.2388C95.5326 54.3354 96.1981 50.6617 96.7546 47.5094C98.3696 49.1829 100.062 51.4089 99.9263 52.7476C99.7511 54.4755 96.9492 56.8611 94.8048 58.2388Z" fill="black" stroke="black" stroke-width="0.25"/>
</g>
<defs>
<clipPath id="clip0">
<rect width="101.88" height="97.35" fill="white"/>
</clipPath>
</defs>
</svg>
